<svg xmlns="http://www.w3.org/2000/svg" width="224" height="440" fill="none" viewBox="0 0 224 440"><path fill="#2c91f8" d="M96.987 25.456h.9q.852 0 1.548-.012t1.296-.036q.6-.036 1.176-.096t1.176-.156l.12.972q-.816.132-1.596.204-.78.06-1.68.084-.888.012-2.04.012h-.9zm-.024-3.924h5.064v2.844h-3.816v1.548h-1.224v-2.448h3.792v-.984h-3.816zm1.32 5.688h7.188v2.736h-5.892v1.38h-1.272v-2.292h5.892v-.864h-5.916zm.024 3.696h7.5v.972h-7.5zm5.904-9.888h1.26v5.736h-1.26zm3.599 7.296h.744q.996 0 1.944-.048.96-.06 2.04-.252l.096 1.02q-1.104.204-2.076.264a41 41 0 0 1-2.004.048h-.744zm-.024-6.144h3.9v3.972h-2.664v2.58h-1.212v-3.576h2.664v-1.968h-2.688zm7.836-1.164h1.2v10.968h-1.2zm-3.456 3.852h1.74V25.9h-1.74zm1.236-3.612h1.176v10.176h-1.176zm12.875-.24h1.26v10.992h-1.26zm-4.572.804q.816 0 1.452.48.648.48 1.008 1.344t.36 2.04q0 1.188-.36 2.064-.36.864-1.008 1.344a2.4 2.4 0 0 1-1.452.468 2.44 2.44 0 0 1-1.464-.468q-.636-.48-1.008-1.344-.36-.876-.36-2.064 0-1.176.36-2.04.372-.864 1.008-1.344.648-.48 1.464-.48m0 1.14q-.48 0-.852.324-.36.324-.564.936t-.204 1.464q0 .864.204 1.476t.564.948q.372.324.852.324t.84-.324q.36-.336.564-.948t.204-1.476q0-.852-.204-1.464t-.564-.936a1.22 1.22 0 0 0-.84-.324"/><path fill="#000" d="M71.156 48.488h2.676v1.032h-2.676zm-2.964-1.8h1.02v1.272q0 1.092-.348 2.04a4.7 4.7 0 0 1-1.032 1.644 4.4 4.4 0 0 1-1.644 1.08l-.66-.996a4 4 0 0 0 1.14-.612q.504-.384.84-.888a4 4 0 0 0 .504-1.068 4 4 0 0 0 .18-1.2zm.252 0h1.008v1.308q0 .552.168 1.08.18.528.504.996t.804.828 1.092.588l-.672.972a4.6 4.6 0 0 1-1.572-1.02 4.7 4.7 0 0 1-.996-1.56 5.3 5.3 0 0 1-.336-1.884zm4.932-.66h1.26v8.148h-1.26zm-5.88 9.72h7.392v1.02h-7.392zm0-2.436h1.26v2.964h-1.26zm13.391-6.936h1.104v.576q0 .624-.216 1.2a3.6 3.6 0 0 1-.624 1.044 4.6 4.6 0 0 1-.96.864 6 6 0 0 1-1.224.648 7.3 7.3 0 0 1-1.44.372l-.492-1.008a6.5 6.5 0 0 0 1.248-.3 5.8 5.8 0 0 0 1.068-.516q.48-.312.816-.684.348-.372.528-.78.192-.408.192-.84zm.24 0h1.092v.576q0 .42.18.828.192.408.54.78t.828.684a5.9 5.9 0 0 0 2.304.828l-.492 1.008a6.8 6.8 0 0 1-1.428-.384 6.2 6.2 0 0 1-1.236-.648 5 5 0 0 1-.96-.864 3.7 3.7 0 0 1-.612-1.044 3.3 3.3 0 0 1-.216-1.188zM80.9 52.88h1.248v4.116H80.9zm-4.308-.78h9.912v1.032h-9.912z"/><path fill="#999" d="M71.59 73.13q-.57 0-1-.14a2.9 2.9 0 0 1-.75-.36 3.6 3.6 0 0 1-.56-.47l.41-.54q.21.22.47.41.26.18.59.3.34.12.77.12.44 0 .8-.22.37-.22.59-.62.22-.41.22-.95 0-.82-.43-1.28t-1.14-.46q-.37 0-.65.12-.27.11-.59.32l-.45-.28.23-3.4h3.5v.7h-2.78l-.2 2.22q.25-.14.52-.22.28-.09.62-.09.61 0 1.11.25t.79.77q.3.51.3 1.32 0 .8-.35 1.36-.34.56-.88.85-.53.29-1.14.29m7.698-6.89h2.65v.61h-2.65zm0 1.78h2.67v.61h-2.67zm2.36-3.27h.74v5.34h-.74zm-6.22.69h4.08v3.98h-4.08zm3.36.6h-2.64v2.78h2.64zm.65 4.32q1.39 0 2.19.45.8.44.8 1.24t-.8 1.24q-.8.45-2.19.45-1.38 0-2.18-.45-.8-.44-.8-1.24t.8-1.24q.8-.45 2.18-.45m0 .59q-.69 0-1.2.13-.5.13-.78.38a.78.78 0 0 0 0 1.18q.28.24.78.37.51.14 1.2.14.7 0 1.2-.14.5-.13.77-.37a.77.77 0 0 0 .28-.59.77.77 0 0 0-.28-.59q-.27-.25-.77-.38a4.8 4.8 0 0 0-1.2-.13"/><path fill="#000" d="M103.168 47.84h1.02v.444q0 .924-.372 1.74a4 4 0 0 1-1.044 1.416q-.684.6-1.668.9l-.588-.984q.852-.252 1.44-.72t.9-1.08.312-1.272zm.228 0h1.02v.444q0 .612.3 1.188.312.564.888 1.008.588.444 1.428.684l-.576.984q-.972-.288-1.656-.864a3.9 3.9 0 0 1-1.044-1.344 3.9 3.9 0 0 1-.36-1.656zm-2.544-.624h5.868v.996h-5.868zm2.316-1.236h1.248v1.656h-1.248zm4.692.048h1.248v6.456h-1.248zm.912 2.664h1.884v1.056h-1.884zm-6.66 4.284h6.996v3.876h-6.996zm5.772.984h-4.536v1.896h4.536zm10.943-7.944h1.26v10.968h-1.26zm.936 4.332h1.98v1.044h-1.98zm-3.768-3.168h1.224q0 1.596-.492 3.048-.48 1.44-1.572 2.652-1.08 1.212-2.88 2.112l-.696-.96q1.488-.768 2.46-1.752a6.4 6.4 0 0 0 1.464-2.208q.492-1.224.492-2.688zm-3.864 0h4.512v1.02h-4.512z"/><path fill="#999" d="M101.9 73v-.69h1.64v-5.6h-1.31v-.53q.48-.08.84-.2.36-.13.64-.3h.63v6.63h1.49V73zm7.578.13a2.14 2.14 0 0 1-.97-.22 2.25 2.25 0 0 1-.77-.68 3.6 3.6 0 0 1-.5-1.13q-.18-.68-.18-1.58 0-1.08.21-1.84.22-.76.6-1.23t.86-.68q.48-.22 1.01-.22.561 0 .96.21.41.2.71.52l-.47.51a1.5 1.5 0 0 0-.52-.41q-.31-.15-.65-.15-.52 0-.97.31-.44.31-.71 1.03-.26.72-.26 1.95 0 .94.19 1.6t.55 1.01q.37.35.91.35.37 0 .65-.22.29-.22.46-.6.17-.39.17-.89 0-.52-.15-.89a1.2 1.2 0 0 0-.45-.59q-.3-.21-.77-.21-.36 0-.79.24-.42.23-.8.8l-.03-.68q.24-.3.52-.52.29-.22.61-.33.32-.12.62-.12.62 0 1.07.26.46.25.7.76.25.51.25 1.28 0 .7-.29 1.23-.279.53-.75.83-.459.3-1.02.3m3.539-4.17h.72q.98 0 1.7-.02a20 20 0 0 0 2.6-.24l.08.59q-.66.12-1.29.18-.62.05-1.36.07t-1.73.02h-.72zm0-3.66h4.28v.61h-3.54v3.37h-.74zm.49 1.8h3.54v.6h-3.54zm5.6-2.34h.75v5.37h-.75zm-5.04 5.83h5.79v3.05h-5.79zm5.06.6h-4.33v1.84h4.33z"/><path fill="#ff0096" d="M136.008 50.42h.864q1.116 0 1.944-.012.828-.024 1.524-.072.708-.06 1.44-.18l.12.984q-.744.12-1.476.18-.72.06-1.572.084-.852.012-1.98.012h-.864zm0-3.9h5.064v.984h-3.816v3.516h-1.248zm.852 1.944h4.008v.948h-4.008zm6-2.436h1.248v5.676h-1.248zm.732 2.268h2.064v1.032h-2.064zm-6.564 3.912h7.08v2.736h-5.82v1.476h-1.236v-2.388h5.82v-.864h-5.844zm.024 3.708h7.416v.972h-7.416zm9.983-4.74h.888q1.032 0 1.872-.024.84-.036 1.608-.108a30 30 0 0 0 1.572-.216l.12 1.02q-.828.144-1.62.228-.78.072-1.644.096-.852.024-1.908.024h-.888zm-.024-4.524h4.968v3.192h-3.708v1.824h-1.236v-2.784h3.708V47.66h-3.732zm6.888-.624h1.248v6.66h-1.248zm.888 2.712h1.92v1.044h-1.92zm-6.84 4.5h7.2v3.744h-1.248v-2.736h-5.952z"/><path fill="#999" d="M142.4 73v-5.08q0-.26.02-.64t.04-.65h-.05q-.13.25-.28.52l-.3.54-1.77 2.62h4.11v.65h-4.98v-.53l3.11-4.75h.87V73zm3.128-4.04h.72q.98 0 1.7-.02a20 20 0 0 0 2.6-.24l.08.59q-.66.12-1.29.18-.62.05-1.36.07t-1.73.02h-.72zm0-3.66h4.28v.61h-3.54v3.37h-.74zm.49 1.8h3.54v.6h-3.54zm5.6-2.34h.75v5.37h-.75zm-5.04 5.83h5.79v3.05h-5.79zm5.06.6h-4.33v1.84h4.33z"/><path fill="#2c91f8" d="M95.755 146.168q-.696 0-1.236-.168a3.6 3.6 0 0 1-.936-.444 4.5 4.5 0 0 1-.708-.612l.672-.888q.396.384.9.672t1.188.288q.504 0 .876-.168.372-.18.576-.504.216-.324.216-.792 0-.48-.24-.84-.228-.372-.804-.564-.564-.204-1.56-.204v-1.032q.876 0 1.368-.192.504-.204.72-.552.228-.348.228-.792 0-.576-.36-.912-.36-.348-.996-.348-.504 0-.948.228-.432.216-.816.588l-.72-.864q.528-.48 1.152-.768.624-.3 1.38-.3.792 0 1.404.276.612.264.96.768t.348 1.236q0 .756-.42 1.284a2.46 2.46 0 0 1-1.104.792v.048q.504.132.912.432.42.288.66.744t.24 1.044q0 .792-.408 1.368-.396.564-1.068.876-.672.3-1.476.3m11.956-10.14h1.26v7.956h-1.26zm-5.892 9.72h7.464v1.02h-7.464zm0-2.568h1.248v2.964h-1.248zm1.236-6.42q.828 0 1.488.348t1.044.972q.384.612.384 1.416 0 .792-.384 1.416t-1.044.972-1.488.348a3.14 3.14 0 0 1-1.488-.348 2.66 2.66 0 0 1-1.044-.972 2.65 2.65 0 0 1-.384-1.416q0-.804.384-1.416.384-.624 1.044-.972t1.488-.348m0 1.092q-.48 0-.864.204a1.5 1.5 0 0 0-.6.576q-.216.36-.216.864t.216.876q.216.36.6.564t.864.204.864-.204a1.5 1.5 0 0 0 .6-.564q.228-.372.228-.876t-.228-.864a1.5 1.5 0 0 0-.6-.576 1.8 1.8 0 0 0-.864-.204m14.13 8.148v-5.76q0-.36.024-.852.024-.504.036-.864h-.048q-.168.336-.348.684-.168.348-.36.684l-1.728 2.652h4.836v1.08h-6.24v-.924l3.516-5.544h1.608V146zm10.636-9.984h1.248v6.408h-1.248zm.912 2.676h1.884v1.044h-1.884zm-3.996-2.004h1.32q0 1.416-.612 2.544-.6 1.116-1.74 1.908t-2.748 1.224l-.528-.984q1.404-.36 2.352-.96.96-.612 1.452-1.416a3.2 3.2 0 0 0 .504-1.728zm-3.78 0h4.5v1.008h-4.5zm.912 6.216h7.2v4.092h-1.248v-3.084h-5.952z"/><path fill="#000" d="M71.156 163.488h2.676v1.032h-2.676zm-2.964-1.8h1.02v1.272q0 1.092-.348 2.04a4.7 4.7 0 0 1-1.032 1.644 4.4 4.4 0 0 1-1.644 1.08l-.66-.996a4 4 0 0 0 1.14-.612q.504-.384.84-.888a4 4 0 0 0 .504-1.068 4 4 0 0 0 .18-1.2zm.252 0h1.008v1.308q0 .552.168 1.08.18.528.504.996t.804.828 1.092.588l-.672.972a4.6 4.6 0 0 1-1.572-1.02 4.7 4.7 0 0 1-.996-1.56 5.3 5.3 0 0 1-.336-1.884zm4.932-.66h1.26v8.148h-1.26zm-5.88 9.72h7.392v1.02h-7.392zm0-2.436h1.26v2.964h-1.26zm13.391-6.936h1.104v.576q0 .624-.216 1.2a3.6 3.6 0 0 1-.624 1.044 4.6 4.6 0 0 1-.96.864 6 6 0 0 1-1.224.648 7.3 7.3 0 0 1-1.44.372l-.492-1.008a6.5 6.5 0 0 0 1.248-.3 5.8 5.8 0 0 0 1.068-.516q.48-.312.816-.684.348-.372.528-.78.192-.408.192-.84zm.24 0h1.092v.576q0 .42.18.828.192.408.54.78t.828.684a5.9 5.9 0 0 0 2.304.828l-.492 1.008a6.8 6.8 0 0 1-1.428-.384 6.2 6.2 0 0 1-1.236-.648 5 5 0 0 1-.96-.864 3.7 3.7 0 0 1-.612-1.044 3.3 3.3 0 0 1-.216-1.188zm-.228 6.504h1.248v4.116H80.9zm-4.308-.78h9.912v1.032h-9.912z"/><path fill="#999" d="M71.61 188.13q-.57 0-1-.14a2.7 2.7 0 0 1-.75-.37q-.32-.24-.56-.49l.42-.54q.33.33.76.6.44.26 1.09.26.45 0 .79-.17a1.3 1.3 0 0 0 .54-.5q.2-.32.2-.75 0-.46-.23-.8-.22-.34-.73-.53t-1.36-.19v-.64q.77 0 1.22-.19t.64-.52q.2-.34.2-.74 0-.55-.35-.87-.34-.33-.93-.33-.45 0-.84.21-.39.2-.7.51l-.44-.53q.4-.37.89-.61.49-.25 1.12-.25.6 0 1.07.22.47.21.74.62.27.4.27.97 0 .68-.36 1.13-.36.44-.95.65v.04q.43.1.78.35.36.25.57.63.22.38.22.89 0 .64-.32 1.11a2.03 2.03 0 0 1-.83.72q-.52.25-1.17.25m7.678-6.89h2.65v.61h-2.65zm0 1.78h2.67v.61h-2.67zm2.36-3.27h.74v5.34h-.74zm-6.22.69h4.08v3.98h-4.08zm3.36.6h-2.64v2.78h2.64zm.65 4.32q1.39 0 2.19.45.8.44.8 1.24t-.8 1.24q-.8.45-2.19.45-1.38 0-2.18-.45-.8-.44-.8-1.24t.8-1.24q.8-.45 2.18-.45m0 .59q-.69 0-1.2.13-.5.13-.78.38a.78.78 0 0 0 0 1.18q.28.24.78.37.51.14 1.2.14.7 0 1.2-.14.5-.13.77-.37a.77.77 0 0 0 .28-.59.77.77 0 0 0-.28-.59q-.27-.25-.77-.38a4.8 4.8 0 0 0-1.2-.13"/><path fill="#000" d="M103.168 162.84h1.02v.444q0 .924-.372 1.74a4 4 0 0 1-1.044 1.416q-.684.6-1.668.9l-.588-.984q.852-.252 1.44-.72t.9-1.08.312-1.272zm.228 0h1.02v.444q0 .612.3 1.188.312.564.888 1.008.588.444 1.428.684l-.576.984q-.972-.288-1.656-.864a3.9 3.9 0 0 1-1.044-1.344 3.9 3.9 0 0 1-.36-1.656zm-2.544-.624h5.868v.996h-5.868zm2.316-1.236h1.248v1.656h-1.248zm4.692.048h1.248v6.456h-1.248zm.912 2.664h1.884v1.056h-1.884zm-6.66 4.284h6.996v3.876h-6.996zm5.772.984h-4.536v1.896h4.536zm10.943-7.944h1.26v10.968h-1.26zm.936 4.332h1.98v1.044h-1.98zm-3.768-3.168h1.224q0 1.596-.492 3.048-.48 1.44-1.572 2.652-1.08 1.212-2.88 2.112l-.696-.96q1.488-.768 2.46-1.752a6.4 6.4 0 0 0 1.464-2.208q.492-1.224.492-2.688zm-3.864 0h4.512v1.02h-4.512z"/><path fill="#999" d="M101.9 188v-.69h1.64v-5.6h-1.31v-.53q.48-.08.84-.2a3.6 3.6 0 0 0 .64-.3h.63v6.63h1.49v.69zm5.038 0v-.48q1.17-1.03 1.92-1.87.75-.85 1.1-1.57.36-.73.36-1.36 0-.43-.15-.77a1.15 1.15 0 0 0-.46-.53q-.309-.2-.78-.2-.46 0-.85.25a2.9 2.9 0 0 0-.7.61l-.49-.46q.44-.48.94-.77.51-.3 1.19-.3.66 0 1.12.27.471.26.72.74.26.48.26 1.13 0 .74-.37 1.5-.36.75-1.02 1.54t-1.56 1.63l.6-.04q.321-.02.6-.02h2.11v.7zm6.079-4.04h.72q.98 0 1.7-.02a19.5 19.5 0 0 0 2.6-.24l.08.59q-.66.12-1.29.18-.62.05-1.36.07t-1.73.02h-.72zm0-3.66h4.28v.61h-3.54v3.37h-.74zm.49 1.8h3.54v.6h-3.54zm5.6-2.34h.75v5.37h-.75zm-5.04 5.83h5.79v3.05h-5.79zm5.06.6h-4.33v1.84h4.33z"/><path fill="#ff0096" d="M136.008 165.42h.864q1.116 0 1.944-.012.828-.024 1.524-.072.708-.06 1.44-.18l.12.984q-.744.12-1.476.18-.72.06-1.572.084-.852.012-1.98.012h-.864zm0-3.9h5.064v.984h-3.816v3.516h-1.248zm.852 1.944h4.008v.948h-4.008zm6-2.436h1.248v5.676h-1.248zm.732 2.268h2.064v1.032h-2.064zm-6.564 3.912h7.08v2.736h-5.82v1.476h-1.236v-2.388h5.82v-.864h-5.844zm.024 3.708h7.416v.972h-7.416zm9.983-4.74h.888q1.032 0 1.872-.024.84-.036 1.608-.108a30 30 0 0 0 1.572-.216l.12 1.02q-.828.144-1.62.228-.78.072-1.644.096-.852.024-1.908.024h-.888zm-.024-4.524h4.968v3.192h-3.708v1.824h-1.236v-2.784h3.708v-1.224h-3.732zm6.888-.624h1.248v6.66h-1.248zm.888 2.712h1.92v1.044h-1.92zm-6.84 4.5h7.2v3.744h-1.248v-2.736h-5.952z"/><path fill="#999" d="M142.4 188v-5.08q0-.26.02-.64t.04-.65h-.05q-.13.25-.28.52l-.3.54-1.77 2.62h4.11v.65h-4.98v-.53l3.11-4.75h.87V188zm3.128-4.04h.72q.98 0 1.7-.02a19 19 0 0 0 2.6-.24l.08.59q-.66.12-1.29.18-.62.05-1.36.07t-1.73.02h-.72zm0-3.66h4.28v.61h-3.54v3.37h-.74zm.49 1.8h3.54v.6h-3.54zm5.6-2.34h.75v5.37h-.75zm-5.04 5.83h5.79v3.05h-5.79zm5.06.6h-4.33v1.84h4.33z"/><path fill="#2c91f8" d="M100.555 251.028h1.26v6.624h-1.26zm-5.904 7.152h7.164v3.672h-7.164zm5.94 1.008h-4.716v1.668h4.716zm-7.668-7.08h6.636v.996h-6.636zm3.324 1.452q.816 0 1.416.24.612.228.948.672t.336 1.044-.336 1.044q-.336.432-.948.672-.6.24-1.416.24t-1.428-.24q-.6-.24-.948-.672a1.68 1.68 0 0 1-.336-1.044q0-.6.336-1.032a2.2 2.2 0 0 1 .948-.684q.612-.24 1.428-.24m0 .936q-.696 0-1.104.264a.85.85 0 0 0-.408.756q0 .48.408.756.408.264 1.104.264t1.092-.264a.87.87 0 0 0 .408-.756.85.85 0 0 0-.408-.756q-.396-.264-1.092-.264m-.636-3.564h1.26v1.776h-1.26zM108.445 261l-2.316-6.612h1.404l1.128 3.564q.144.48.288.984l.288.984h.048a46 46 0 0 0 .576-1.968l1.128-3.564h1.344L110.065 261zm6.887.168q-.672 0-1.344-.264a4.3 4.3 0 0 1-1.14-.66l.66-.9q.432.348.876.564.456.204.984.204.588 0 .864-.252a.83.83 0 0 0 .288-.636q0-.3-.216-.504a1.7 1.7 0 0 0-.54-.348 9 9 0 0 0-.696-.288 8 8 0 0 1-.876-.396q-.42-.24-.696-.6-.276-.372-.276-.924 0-.564.276-.996.288-.432.816-.684t1.26-.252q.66 0 1.2.228.552.228.936.552l-.636.852a3.8 3.8 0 0 0-.708-.408 1.8 1.8 0 0 0-.756-.168q-.552 0-.816.24a.73.73 0 0 0-.264.576q0 .276.192.456t.504.312l.684.276q.348.12.684.288.348.156.624.384.276.216.444.54.18.312.18.78 0 .552-.288 1.02t-.84.744q-.552.264-1.38.264m13.957-10.14h1.26v6.624h-1.26zm-5.904 7.152h7.164v3.672h-7.164zm5.94 1.008h-4.716v1.668h4.716zm-7.668-7.08h6.636v.996h-6.636zm3.324 1.452q.816 0 1.416.24.612.228.948.672t.336 1.044-.336 1.044q-.336.432-.948.672-.6.24-1.416.24t-1.428-.24q-.6-.24-.948-.672a1.68 1.68 0 0 1-.336-1.044q0-.6.336-1.032a2.2 2.2 0 0 1 .948-.684q.612-.24 1.428-.24m0 .936q-.696 0-1.104.264a.85.85 0 0 0-.408.756q0 .48.408.756.408.264 1.104.264t1.092-.264a.87.87 0 0 0 .408-.756.85.85 0 0 0-.408-.756q-.396-.264-1.092-.264m-.636-3.564h1.26v1.776h-1.26z"/><path fill="#000" d="M71.156 278.488h2.676v1.032h-2.676zm-2.964-1.8h1.02v1.272q0 1.092-.348 2.04a4.7 4.7 0 0 1-1.032 1.644 4.4 4.4 0 0 1-1.644 1.08l-.66-.996a4 4 0 0 0 1.14-.612q.504-.384.84-.888a4 4 0 0 0 .504-1.068 4 4 0 0 0 .18-1.2zm.252 0h1.008v1.308q0 .552.168 1.08.18.528.504.996t.804.828 1.092.588l-.672.972a4.6 4.6 0 0 1-1.572-1.02 4.7 4.7 0 0 1-.996-1.56 5.3 5.3 0 0 1-.336-1.884zm4.932-.66h1.26v8.148h-1.26zm-5.88 9.72h7.392v1.02h-7.392zm0-2.436h1.26v2.964h-1.26zm13.391-6.936h1.104v.576q0 .624-.216 1.2a3.6 3.6 0 0 1-.624 1.044 4.6 4.6 0 0 1-.96.864 6 6 0 0 1-1.224.648 7.3 7.3 0 0 1-1.44.372l-.492-1.008a6.5 6.5 0 0 0 1.248-.3 5.8 5.8 0 0 0 1.068-.516q.48-.312.816-.684.348-.372.528-.78.192-.408.192-.84zm.24 0h1.092v.576q0 .42.18.828.192.408.54.78t.828.684a5.9 5.9 0 0 0 2.304.828l-.492 1.008a6.8 6.8 0 0 1-1.428-.384 6.2 6.2 0 0 1-1.236-.648 5 5 0 0 1-.96-.864 3.7 3.7 0 0 1-.612-1.044 3.3 3.3 0 0 1-.216-1.188zm-.228 6.504h1.248v4.116H80.9zm-4.308-.78h9.912v1.032h-9.912z"/><path fill="#999" d="M66.9 303v-.69h1.64v-5.6h-1.31v-.53q.48-.08.84-.2a3.6 3.6 0 0 0 .64-.3h.63v6.63h1.49v.69zm7.338.13q-.68 0-1.19-.42t-.78-1.27-.27-2.13q0-1.27.27-2.1t.78-1.24q.51-.42 1.19-.42.69 0 1.19.42.5.41.77 1.24.28.83.28 2.1 0 1.28-.28 2.13-.27.85-.77 1.27t-1.19.42m0-.66q.43 0 .76-.34t.51-1.03q.18-.7.18-1.79 0-1.07-.18-1.76t-.51-1.02-.76-.33-.76.33-.52 1.02q-.18.69-.18 1.76 0 1.09.18 1.79.19.69.52 1.03t.76.34m7.539-6.23h2.65v.61h-2.65zm0 1.78h2.67v.61h-2.67zm2.36-3.27h.74v5.34h-.74zm-6.22.69h4.08v3.98h-4.08zm3.36.6h-2.64v2.78h2.64zm.65 4.32q1.389 0 2.19.45.8.44.8 1.24t-.8 1.24q-.801.45-2.19.45-1.38 0-2.18-.45-.8-.44-.8-1.24t.8-1.24q.8-.45 2.18-.45m0 .59q-.69 0-1.2.13-.501.13-.78.38a.78.78 0 0 0 0 1.18q.279.24.78.37.51.14 1.2.14.699 0 1.2-.14.5-.13.77-.37a.77.77 0 0 0 .28-.59.77.77 0 0 0-.28-.59q-.27-.25-.77-.38a4.8 4.8 0 0 0-1.2-.13"/><path fill="#000" d="M103.168 277.84h1.02v.444q0 .924-.372 1.74a4 4 0 0 1-1.044 1.416q-.684.6-1.668.9l-.588-.984q.852-.252 1.44-.72t.9-1.08.312-1.272zm.228 0h1.02v.444q0 .612.3 1.188.312.564.888 1.008.588.444 1.428.684l-.576.984q-.972-.288-1.656-.864a3.9 3.9 0 0 1-1.044-1.344 3.9 3.9 0 0 1-.36-1.656zm-2.544-.624h5.868v.996h-5.868zm2.316-1.236h1.248v1.656h-1.248zm4.692.048h1.248v6.456h-1.248zm.912 2.664h1.884v1.056h-1.884zm-6.66 4.284h6.996v3.876h-6.996zm5.772.984h-4.536v1.896h4.536zm10.943-7.944h1.26v10.968h-1.26zm.936 4.332h1.98v1.044h-1.98zm-3.768-3.168h1.224q0 1.596-.492 3.048-.48 1.44-1.572 2.652-1.08 1.212-2.88 2.112l-.696-.96q1.488-.768 2.46-1.752a6.4 6.4 0 0 0 1.464-2.208q.492-1.224.492-2.688zm-3.864 0h4.512v1.02h-4.512z"/><path fill="#999" d="M106.77 303.13q-.67 0-1.2-.25a2.04 2.04 0 0 1-.82-.69q-.3-.44-.3-1.01 0-.49.2-.88a2.4 2.4 0 0 1 .51-.69q.32-.29.66-.47v-.04q-.4-.27-.7-.69t-.3-.99q0-.56.26-.97a1.8 1.8 0 0 1 .7-.64q.45-.23 1.01-.23.62 0 1.06.25.45.24.69.68.24.43.24.99 0 .38-.16.73-.16.34-.39.61-.22.26-.43.44v.05q.31.18.59.44.29.25.46.62.18.36.18.86 0 .52-.29.95-.28.43-.79.68-.5.25-1.18.25m.51-4.06q.38-.35.58-.73.21-.38.21-.8a1.5 1.5 0 0 0-.15-.68 1.16 1.16 0 0 0-.44-.49 1.3 1.3 0 0 0-.7-.18q-.53 0-.87.34t-.34.89q0 .45.24.76.25.3.64.51.39.2.83.38m-.5 3.44q.45 0 .77-.16.33-.17.51-.46.19-.29.19-.66 0-.39-.17-.66a1.5 1.5 0 0 0-.44-.48 3.4 3.4 0 0 0-.63-.36 17 17 0 0 0-.75-.33q-.47.3-.77.74-.3.43-.3.98 0 .39.2.71.21.32.57.5.37.18.82.18m3.748-3.55h.72q.98 0 1.7-.02a19 19 0 0 0 2.6-.24l.08.59q-.66.12-1.29.18-.62.05-1.36.07t-1.73.02h-.72zm0-3.66h4.28v.61h-3.54v3.37h-.74zm.49 1.8h3.54v.6h-3.54zm5.6-2.34h.75v5.37h-.75zm-5.04 5.83h5.79v3.05h-5.79zm5.06.6h-4.33v1.84h4.33z"/><path fill="#ff0096" d="M136.008 280.42h.864q1.116 0 1.944-.012.828-.024 1.524-.072.708-.06 1.44-.18l.12.984q-.744.12-1.476.18-.72.06-1.572.084-.852.012-1.98.012h-.864zm0-3.9h5.064v.984h-3.816v3.516h-1.248zm.852 1.944h4.008v.948h-4.008zm6-2.436h1.248v5.676h-1.248zm.732 2.268h2.064v1.032h-2.064zm-6.564 3.912h7.08v2.736h-5.82v1.476h-1.236v-2.388h5.82v-.864h-5.844zm.024 3.708h7.416v.972h-7.416zm9.983-4.74h.888q1.032 0 1.872-.024.84-.036 1.608-.108a30 30 0 0 0 1.572-.216l.12 1.02q-.828.144-1.62.228-.78.072-1.644.096-.852.024-1.908.024h-.888zm-.024-4.524h4.968v3.192h-3.708v1.824h-1.236v-2.784h3.708v-1.224h-3.732zm6.888-.624h1.248v6.66h-1.248zm.888 2.712h1.92v1.044h-1.92zm-6.84 4.5h7.2v3.744h-1.248v-2.736h-5.952z"/><path fill="#999" d="M142.4 303v-5.08q0-.26.02-.64t.04-.65h-.05q-.13.25-.28.52l-.3.54-1.77 2.62h4.11v.65h-4.98v-.53l3.11-4.75h.87V303zm3.128-4.04h.72q.98 0 1.7-.02a19 19 0 0 0 2.6-.24l.08.59q-.66.12-1.29.18-.62.05-1.36.07t-1.73.02h-.72zm0-3.66h4.28v.61h-3.54v3.37h-.74zm.49 1.8h3.54v.6h-3.54zm5.6-2.34h.75v5.37h-.75zm-5.04 5.83h5.79v3.05h-5.79zm5.06.6h-4.33v1.84h4.33z"/><path fill="#2c91f8" d="M88.845 371.896h1.26v2.328h-1.26zm0-3.888h1.008v.252q0 .936-.372 1.74-.36.804-1.056 1.38-.684.576-1.656.864l-.576-.972q.84-.24 1.428-.696.6-.456.912-1.044.312-.6.312-1.272zm.252 0h1.02v.252q0 .636.312 1.224.312.576.912 1.008t1.428.672l-.564.972a4.6 4.6 0 0 1-1.668-.84 3.85 3.85 0 0 1-1.068-1.344 3.9 3.9 0 0 1-.372-1.692zm-2.616-.624h6.024v1.008H86.48zm2.364-1.272h1.26v1.728h-1.26zm4.776-.096h1.26v10.992h-1.26zm-7.548 8.832-.168-1.044q.984 0 2.172-.012a65 65 0 0 0 2.448-.096q1.26-.084 2.436-.264l.096.924q-1.212.228-2.46.336-1.236.096-2.4.12t-2.124.036m11.315-7.62h8.868v.996h-8.868zm-.492 5.904h9.936v1.008h-9.936zm4.32.864h1.26v3h-1.26zm.636-5.232q1.716 0 2.676.48.972.48.972 1.38 0 .888-.972 1.368-.96.48-2.676.48-1.728 0-2.688-.48t-.96-1.368q0-.9.96-1.38.972-.48 2.688-.48m0 .948q-1.152 0-1.752.228t-.6.684q0 .444.6.672t1.752.228q1.14 0 1.74-.228t.6-.672q0-.456-.6-.684t-1.74-.228m-.636-3.732h1.26v1.908h-1.26zm10.259.804q.864 0 1.536.336t1.056.936q.384.588.384 1.368 0 .768-.384 1.368a2.6 2.6 0 0 1-1.056.936q-.672.336-1.536.336-.852 0-1.524-.336a2.7 2.7 0 0 1-1.068-.936 2.5 2.5 0 0 1-.384-1.368q0-.78.384-1.368.396-.6 1.068-.936t1.524-.336m0 1.092q-.492 0-.9.192a1.44 1.44 0 0 0-.624.528 1.5 1.5 0 0 0-.228.828q0 .468.228.828.228.348.624.54.408.192.9.192.504 0 .888-.192.396-.192.624-.54.228-.36.228-.828 0-.48-.228-.828a1.44 1.44 0 0 0-.624-.528 1.96 1.96 0 0 0-.888-.192m4.224-1.86h1.26v10.992h-1.26zm-7.548 8.664-.168-1.032q.996 0 2.184-.012a65 65 0 0 0 2.436-.096q1.26-.084 2.436-.264l.096.924q-1.212.228-2.46.336-1.236.096-2.4.12t-2.124.024m13.986 1.32v-1.14h1.944v-6.144h-1.584v-.876a6 6 0 0 0 1.08-.276q.468-.168.852-.408h1.044v7.704h1.716V376zm14.152-9.972h1.26v7.956h-1.26zm-5.892 9.72h7.464v1.02h-7.464zm0-2.568h1.248v2.964h-1.248zm1.236-6.42q.828 0 1.488.348t1.044.972q.384.612.384 1.416 0 .792-.384 1.416t-1.044.972-1.488.348a3.14 3.14 0 0 1-1.488-.348 2.66 2.66 0 0 1-1.044-.972 2.65 2.65 0 0 1-.384-1.416q0-.804.384-1.416.384-.624 1.044-.972t1.488-.348m0 1.092q-.48 0-.864.204a1.5 1.5 0 0 0-.6.576q-.216.36-.216.864t.216.876q.216.36.6.564t.864.204.864-.204a1.5 1.5 0 0 0 .6-.564q.228-.372.228-.876t-.228-.864a1.5 1.5 0 0 0-.6-.576 1.8 1.8 0 0 0-.864-.204"/><path fill="#000" d="M89.156 393.488h2.676v1.032h-2.676zm-2.964-1.8h1.02v1.272q0 1.092-.348 2.04a4.7 4.7 0 0 1-1.032 1.644 4.4 4.4 0 0 1-1.644 1.08l-.66-.996a4 4 0 0 0 1.14-.612q.504-.384.84-.888a4 4 0 0 0 .504-1.068 4 4 0 0 0 .18-1.2zm.252 0h1.008v1.308q0 .552.168 1.08.18.528.504.996t.804.828 1.092.588l-.672.972a4.6 4.6 0 0 1-1.572-1.02 4.7 4.7 0 0 1-.996-1.56 5.3 5.3 0 0 1-.336-1.884zm4.932-.66h1.26v8.148h-1.26zm-5.88 9.72h7.392v1.02h-7.392zm0-2.436h1.26v2.964h-1.26zm13.391-6.936h1.104v.576q0 .624-.216 1.2a3.6 3.6 0 0 1-.624 1.044 4.6 4.6 0 0 1-.96.864 6 6 0 0 1-1.224.648 7.3 7.3 0 0 1-1.44.372l-.492-1.008a6.5 6.5 0 0 0 1.248-.3 5.8 5.8 0 0 0 1.068-.516q.48-.312.816-.684.348-.372.528-.78.192-.408.192-.84zm.24 0h1.092v.576q0 .42.18.828.192.408.54.78t.828.684a5.9 5.9 0 0 0 2.304.828l-.492 1.008a6.8 6.8 0 0 1-1.428-.384 6.2 6.2 0 0 1-1.236-.648 5 5 0 0 1-.96-.864 3.7 3.7 0 0 1-.612-1.044 3.3 3.3 0 0 1-.216-1.188zm-.228 6.504h1.248v4.116h-1.248zm-4.308-.78h9.912v1.032h-9.912z"/><path fill="#999" d="M87.9 418v-.69h1.64v-5.6h-1.31v-.53q.48-.08.84-.2a3.6 3.6 0 0 0 .64-.3h.63v6.63h1.49v.69zm9.388-6.76h2.65v.61h-2.65zm0 1.78h2.67v.61h-2.67zm2.36-3.27h.74v5.34h-.74zm-6.22.69h4.08v3.98h-4.08zm3.36.6h-2.64v2.78h2.64zm.65 4.32q1.39 0 2.19.45.8.44.8 1.24t-.8 1.24q-.8.45-2.19.45-1.38 0-2.18-.45-.8-.44-.8-1.24t.8-1.24q.8-.45 2.18-.45m0 .59q-.69 0-1.2.13-.5.13-.78.38a.78.78 0 0 0 0 1.18q.28.24.78.37.51.14 1.2.14.7 0 1.2-.14.5-.13.77-.37a.77.77 0 0 0 .28-.59.77.77 0 0 0-.28-.59q-.27-.25-.77-.38a4.8 4.8 0 0 0-1.2-.13"/><path fill="#000" d="M121.168 392.84h1.02v.444q0 .924-.372 1.74a4 4 0 0 1-1.044 1.416q-.684.6-1.668.9l-.588-.984q.852-.252 1.44-.72t.9-1.08.312-1.272zm.228 0h1.02v.444q0 .612.3 1.188.312.564.888 1.008.588.444 1.428.684l-.576.984q-.972-.288-1.656-.864a3.9 3.9 0 0 1-1.044-1.344 3.9 3.9 0 0 1-.36-1.656zm-2.544-.624h5.868v.996h-5.868zm2.316-1.236h1.248v1.656h-1.248zm4.692.048h1.248v6.456h-1.248zm.912 2.664h1.884v1.056h-1.884zm-6.66 4.284h6.996v3.876h-6.996zm5.772.984h-4.536v1.896h4.536zm10.943-7.944h1.26v10.968h-1.26zm.936 4.332h1.98v1.044h-1.98zm-3.768-3.168h1.224q0 1.596-.492 3.048-.48 1.44-1.572 2.652-1.08 1.212-2.88 2.112l-.696-.96q1.488-.768 2.46-1.752a6.4 6.4 0 0 0 1.464-2.208q.492-1.224.492-2.688zm-3.864 0h4.512v1.02h-4.512z"/><path fill="#999" d="M125.4 418v-5.08q0-.26.02-.64t.04-.65h-.05q-.13.25-.28.52l-.3.54-1.77 2.62h4.11v.65h-4.98v-.53l3.11-4.75h.87V418zm3.128-4.04h.72q.98 0 1.7-.02a19 19 0 0 0 2.6-.24l.08.59q-.66.12-1.29.18-.62.05-1.36.07t-1.73.02h-.72zm0-3.66h4.28v.61h-3.54v3.37h-.74zm.49 1.8h3.54v.6h-3.54zm5.6-2.34h.75v5.37h-.75zm-5.04 5.83h5.79v3.05h-5.79zm5.06.6h-4.33v1.84h4.33z"/><path stroke="#d0d0d0" d="M0 105.5h71m81 0h72M0 .5h224M0 439.5h224"/><path fill="#000" d="M81.182 97.55h.61v1.66q0 .73-.2 1.44a5.7 5.7 0 0 1-.54 1.32q-.34.61-.8 1.09-.45.48-.96.76l-.46-.59q.48-.24.9-.66.429-.43.75-.97.33-.55.51-1.16.19-.61.19-1.23zm.13 0h.6v1.66q0 .59.18 1.18a5 5 0 0 0 .51 1.11q.33.51.75.92.42.4.89.64l-.46.59a3.9 3.9 0 0 1-.96-.73 5.5 5.5 0 0 1-.78-1.05 5.8 5.8 0 0 1-.54-1.27 5 5 0 0 1-.19-1.39zm3.79-.8h.74v9.01h-.74zm.57 3.68h1.68v.63h-1.68zm9.389-3.68h.71v9.01h-.71zm-3.34 3.26h1.77v.62h-1.77zm1.54-3.04h.7v8.31h-.7zm-3.23 1.17h.58v1.18q0 .74-.15 1.44-.14.69-.42 1.3-.27.6-.66 1.09-.39.48-.87.79l-.46-.55q.62-.38 1.06-1.01.44-.64.68-1.43.24-.8.24-1.63zm.15 0h.57v1.18q0 .79.23 1.54t.66 1.36q.44.6 1.05.96l-.45.54a3.5 3.5 0 0 1-1.11-1.07 5.4 5.4 0 0 1-.71-1.54 6.6 6.6 0 0 1-.24-1.79zm-1.9-.31h4.13v.61h-4.13zm9.07 3.4h8.139v.6h-8.14zm3.699-1.46h.72v1.71h-.72zm-2.67-.24h6.15v.61h-6.15zm0-2.36h6.08v.6h-5.35v2.11h-.73zm3.03 5.34q1.44 0 2.25.43.82.42.82 1.19t-.82 1.19q-.81.43-2.25.43t-2.26-.43q-.82-.42-.82-1.19t.82-1.19q.82-.43 2.26-.43m0 .59q-.72 0-1.25.12-.52.12-.8.35a.7.7 0 0 0-.28.56q0 .32.28.56.28.23.8.35.53.12 1.25.12t1.24-.12q.53-.12.81-.35.28-.24.28-.56a.7.7 0 0 0-.28-.56q-.28-.23-.81-.35-.52-.12-1.24-.12m11.999-6.35h.71v5.71h-.71zm-1.54 2.49h1.75v.61h-1.75zm-.4-2.31h.7v5.2h-.7zm-4.97.92h4.6v.6h-4.6zm2.3 1.09q.57 0 1 .2.43.19.67.53.25.34.25.81t-.25.82q-.24.34-.67.53t-1 .19q-.56 0-.99-.19a1.66 1.66 0 0 1-.68-.53 1.4 1.4 0 0 1-.24-.82q0-.47.24-.81.25-.34.68-.53.43-.2.99-.2m0 .57q-.549 0-.9.27a.84.84 0 0 0-.34.7q0 .44.34.71.351.27.9.27.561 0 .9-.27a.85.85 0 0 0 .35-.71.83.83 0 0 0-.35-.7q-.339-.27-.9-.27m-.36-2.69h.73v1.35h-.73zm2.74 5.81q1.401 0 2.19.4.8.4.8 1.16 0 .74-.8 1.14-.789.41-2.19.41-1.41 0-2.2-.41-.79-.4-.79-1.14 0-.76.79-1.16t2.2-.4m0 .57q-1.06 0-1.66.26-.6.25-.6.73 0 .46.6.72.6.25 1.66.25 1.05 0 1.65-.25.6-.26.6-.72 0-.48-.6-.73-.6-.26-1.65-.26m7.536-5.76h4.02v.61h-4.02zm3.64 0h.71v.36q0 .49-.05 1.38-.04.88-.28 2.18l-.75.01q.27-1.29.32-2.18t.05-1.39zm.09 1.71v.54l-3.79.32-.12-.64zm-1.98 2.37h.75v3.71h-.75zm4.18-4.77h.73v9.01h-.73zm-6.63 5.2-.1-.63q.91 0 1.93-.01 1.03-.02 2.08-.07 1.06-.06 2.05-.17l.06.56q-1.01.13-2.06.2t-2.06.1q-1 .02-1.9.02m9.159 1.97h8.16v.62h-8.16zm3.69-5.96h.63v.79q0 .55-.21 1.04t-.58.91q-.36.41-.83.74-.46.32-.97.55t-1.01.33l-.31-.59q.43-.08.89-.27.47-.19.89-.47.43-.28.76-.63.34-.35.54-.76t.2-.85zm.14 0h.62v.79q0 .44.2.85.201.4.54.75.34.35.77.63.43.27.9.46.47.18.91.26l-.31.59a5.8 5.8 0 0 1-2.02-.87 5 5 0 0 1-.83-.73 3.4 3.4 0 0 1-.57-.9 2.6 2.6 0 0 1-.21-1.04zm-3.16-.29h6.8v.62h-6.8zM138.98 105v-.69h1.64v-5.6h-1.31v-.53q.48-.08.84-.2.36-.13.64-.3h.63v6.63h1.49v.69z"/><path fill="#999" d="M85.13 119.56a8.8 8.8 0 0 1-.863-1.872 7.2 7.2 0 0 1-.312-2.168q0-1.176.312-2.16a9 9 0 0 1 .864-1.888l.4.192a6.8 6.8 0 0 0-.776 1.848 8.1 8.1 0 0 0 0 4.032q.256.984.776 1.832zm3.263-5.144h.544q.735 0 1.28-.008.552-.016 1.008-.056.464-.04.944-.128l.064.48q-.497.08-.968.128-.472.04-1.032.056-.552.008-1.296.008h-.544zm0-2.64h3.272v.472h-2.68v2.456h-.592zm.4 1.304h2.752v.464h-2.752zm4.24-1.68h.592v3.768h-.592zm.328 1.6h1.344v.488H93.36zm-4.272 2.528h4.536v1.664h-3.936v1.088h-.584v-1.536h3.944v-.736h-3.96zm.016 2.52h4.792v.472h-4.792zm6.631-3.16h.56q.64 0 1.192-.016.56-.024 1.08-.072.528-.056 1.104-.152l.048.496q-.576.096-1.112.152a18 18 0 0 1-1.096.064 42 42 0 0 1-1.216.016h-.56zm-.016-3.056h3.232v1.96h-2.64v1.336h-.576v-1.8h2.632v-1.008H95.72zm4.672-.424h.592v4.376h-.592zm.408 1.856h1.272v.504H100.8zm-4.472 2.904h4.656v2.432h-.592v-1.944h-4.064zm11.423-4.76h.592v5.408h-.592zm.408 2.392h1.272v.504h-1.272zm-5.368-1.496h4.256v.488h-4.256zm2.128.904q.513 0 .896.168.393.168.6.472.216.296.216.696t-.216.704a1.36 1.36 0 0 1-.6.464q-.383.16-.896.16-.511 0-.904-.16a1.44 1.44 0 0 1-.6-.464 1.2 1.2 0 0 1-.216-.704q0-.4.216-.696.216-.304.6-.472.393-.168.904-.168m0 .472q-.511 0-.832.24a.73.73 0 0 0-.32.624q0 .384.32.624t.832.24q.52 0 .832-.24a.74.74 0 0 0 .32-.624.73.73 0 0 0-.32-.624q-.312-.24-.832-.24m-.296-2.272h.592v1.152h-.592zm-.728 6.544h4.784v.488h-4.784zm0-1.576h.584v1.776h-.584zm12.997-4.968h.592v5.28h-.592zm.408 2.2h1.272v.496H117.3zm-4.264 4.344h4.784v.488h-4.784zm0-1.76h.584v1.872h-.584zm-.808-4.264h.584v1.232h2.144v-1.232h.576v3.544h-3.304zm.584 1.696v1.368h2.144v-1.368zm13.773-2.224h.568v7.208h-.568zm-1.264 2.912h1.416v.496h-1.416zm-.376-2.744h.552v6.664h-.552zm-3.624 4.736h.464q.543 0 .984-.016t.832-.064q.4-.048.808-.136l.064.496q-.424.088-.832.144-.409.048-.856.064-.44.008-1 .008h-.464zm0-4.016h2.68v.488h-2.088v3.752h-.592zm8.879-.512h.488v.752q0 .68-.256 1.272a3.1 3.1 0 0 1-.696 1.032 3 3 0 0 1-1.032.664l-.312-.472q.536-.2.944-.576t.632-.872a2.44 2.44 0 0 0 .232-1.048zm.096 0h.48v.792q0 .368.136.72.136.343.376.648.24.296.56.528.328.232.712.368l-.32.464a3.2 3.2 0 0 1-1-.616 3.1 3.1 0 0 1-.696-.952 2.8 2.8 0 0 1-.248-1.16zm3.096-.376h.592v4.392h-.592zm.432 1.896h1.248v.504h-1.248zm-2.12 2.696q.736 0 1.256.152.528.152.808.448a.96.96 0 0 1 .288.704.95.95 0 0 1-.288.696q-.28.288-.808.44-.52.16-1.256.16a4.4 4.4 0 0 1-1.264-.16q-.528-.152-.816-.44a.96.96 0 0 1-.28-.696q0-.416.28-.704.288-.296.816-.448a4.7 4.7 0 0 1 1.264-.152m0 .48q-.544 0-.944.096t-.616.28a.57.57 0 0 0-.216.448.56.56 0 0 0 .216.44q.216.184.616.28.4.104.944.104t.944-.104q.4-.096.616-.28a.56.56 0 0 0 .216-.44.57.57 0 0 0-.216-.448q-.216-.184-.616-.28a4 4 0 0 0-.944-.096m6.165 3.088-.4-.184a6.9 6.9 0 0 0 .768-1.832 7.84 7.84 0 0 0 0-4.032 7 7 0 0 0-.768-1.848l.4-.192q.552.896.864 1.888.312.984.312 2.16t-.312 2.168a8.3 8.3 0 0 1-.864 1.872"/><path stroke="#d0d0d0" d="M0 220.5h71m81 0h72"/><path fill="#000" d="M81.182 212.55h.61v1.66q0 .73-.2 1.44a5.7 5.7 0 0 1-.54 1.32q-.34.61-.8 1.09-.45.48-.96.76l-.46-.59q.48-.24.9-.66.429-.43.75-.97.33-.55.51-1.16.19-.61.19-1.23zm.13 0h.6v1.66q0 .59.18 1.18a5 5 0 0 0 .51 1.11q.33.51.75.92.42.4.89.64l-.46.59a3.9 3.9 0 0 1-.96-.73 5.5 5.5 0 0 1-.78-1.05 5.8 5.8 0 0 1-.54-1.27 5 5 0 0 1-.19-1.39zm3.79-.8h.74v9.01h-.74zm.57 3.68h1.68v.63h-1.68zm9.389-3.68h.71v9.01h-.71zm-3.34 3.26h1.77v.62h-1.77zm1.54-3.04h.7v8.31h-.7zm-3.23 1.17h.58v1.18q0 .74-.15 1.44-.14.69-.42 1.3-.27.6-.66 1.09-.39.48-.87.79l-.46-.55q.62-.38 1.06-1.01.44-.64.68-1.43.24-.8.24-1.63zm.15 0h.57v1.18q0 .79.23 1.54t.66 1.36q.44.6 1.05.96l-.45.54a3.5 3.5 0 0 1-1.11-1.07 5.4 5.4 0 0 1-.71-1.54 6.6 6.6 0 0 1-.24-1.79zm-1.9-.31h4.13v.61h-4.13zm9.07 3.4h8.139v.6h-8.14zm3.699-1.46h.72v1.71h-.72zm-2.67-.24h6.15v.61h-6.15zm0-2.36h6.08v.6h-5.35v2.11h-.73zm3.03 5.34q1.44 0 2.25.43.82.42.82 1.19t-.82 1.19q-.81.43-2.25.43t-2.26-.43q-.82-.42-.82-1.19t.82-1.19q.82-.43 2.26-.43m0 .59q-.72 0-1.25.12-.52.12-.8.35a.7.7 0 0 0-.28.56q0 .32.28.56.28.23.8.35.53.12 1.25.12t1.24-.12q.53-.12.81-.35.28-.24.28-.56a.7.7 0 0 0-.28-.56q-.28-.23-.81-.35-.52-.12-1.24-.12m11.999-6.35h.71v5.71h-.71zm-1.54 2.49h1.75v.61h-1.75zm-.4-2.31h.7v5.2h-.7zm-4.97.92h4.6v.6h-4.6zm2.3 1.09q.57 0 1 .2.43.19.67.53.25.34.25.81t-.25.82q-.24.34-.67.53t-1 .19q-.56 0-.99-.19a1.66 1.66 0 0 1-.68-.53 1.4 1.4 0 0 1-.24-.82q0-.47.24-.81.25-.34.68-.53.43-.2.99-.2m0 .57q-.549 0-.9.27a.84.84 0 0 0-.34.7q0 .44.34.71.351.27.9.27.561 0 .9-.27a.85.85 0 0 0 .35-.71.83.83 0 0 0-.35-.7q-.339-.27-.9-.27m-.36-2.69h.73v1.35h-.73zm2.74 5.81q1.401 0 2.19.4.8.4.8 1.16 0 .74-.8 1.14-.789.41-2.19.41-1.41 0-2.2-.41-.79-.4-.79-1.14 0-.76.79-1.16t2.2-.4m0 .57q-1.06 0-1.66.26-.6.25-.6.73 0 .46.6.72.6.25 1.66.25 1.05 0 1.65-.25.6-.26.6-.72 0-.48-.6-.73-.6-.26-1.65-.26m7.536-5.76h4.02v.61h-4.02zm3.64 0h.71v.36q0 .49-.05 1.38-.04.88-.28 2.18l-.75.01q.27-1.29.32-2.18t.05-1.39zm.09 1.71v.54l-3.79.32-.12-.64zm-1.98 2.37h.75v3.71h-.75zm4.18-4.77h.73v9.01h-.73zm-6.63 5.2-.1-.63q.91 0 1.93-.01 1.03-.02 2.08-.07 1.06-.06 2.05-.17l.06.56q-1.01.13-2.06.2t-2.06.1q-1 .02-1.9.02m9.159 1.97h8.16v.62h-8.16zm3.69-5.96h.63v.79q0 .55-.21 1.04t-.58.91q-.36.41-.83.74-.46.32-.97.55t-1.01.33l-.31-.59q.43-.08.89-.27.47-.19.89-.47.43-.28.76-.63.34-.35.54-.76t.2-.85zm.14 0h.62v.79q0 .44.2.85.201.4.54.75.34.35.77.63.43.27.9.46.47.18.91.26l-.31.59a5.8 5.8 0 0 1-2.02-.87 5 5 0 0 1-.83-.73 3.4 3.4 0 0 1-.57-.9 2.6 2.6 0 0 1-.21-1.04zm-3.16-.29h6.8v.62h-6.8zM138.53 220v-.48q1.17-1.03 1.92-1.87.75-.85 1.1-1.57.36-.73.36-1.36 0-.43-.15-.77a1.15 1.15 0 0 0-.46-.53q-.31-.2-.78-.2-.46 0-.85.25a2.9 2.9 0 0 0-.7.61l-.49-.46q.44-.48.94-.77.51-.3 1.19-.3.66 0 1.12.27.47.26.72.74.26.48.26 1.13 0 .74-.37 1.5-.36.75-1.02 1.54t-1.56 1.63l.6-.04q.32-.02.6-.02h2.11v.7z"/><path fill="#999" d="M85.13 234.56a8.8 8.8 0 0 1-.863-1.872 7.2 7.2 0 0 1-.312-2.168q0-1.176.312-2.16a9 9 0 0 1 .864-1.888l.4.192a6.8 6.8 0 0 0-.776 1.848 8.1 8.1 0 0 0 0 4.032q.256.984.776 1.832zm3.263-5.144h.544q.735 0 1.28-.008.552-.016 1.008-.056.464-.04.944-.128l.064.48q-.497.08-.968.128-.472.04-1.032.056-.552.008-1.296.008h-.544zm0-2.64h3.272v.472h-2.68v2.456h-.592zm.4 1.304h2.752v.464h-2.752zm4.24-1.68h.592v3.768h-.592zm.328 1.6h1.344v.488H93.36zm-4.272 2.528h4.536v1.664h-3.936v1.088h-.584v-1.536h3.944v-.736h-3.96zm.016 2.52h4.792v.472h-4.792zm6.631-3.16h.56q.64 0 1.192-.016.56-.024 1.08-.072.528-.056 1.104-.152l.048.496q-.576.096-1.112.152a18 18 0 0 1-1.096.064 42 42 0 0 1-1.216.016h-.56zm-.016-3.056h3.232v1.96h-2.64v1.336h-.576v-1.8h2.632v-1.008H95.72zm4.672-.424h.592v4.376h-.592zm.408 1.856h1.272v.504H100.8zm-4.472 2.904h4.656v2.432h-.592v-1.944h-4.064zm11.423-4.76h.592v5.408h-.592zm.408 2.392h1.272v.504h-1.272zm-5.368-1.496h4.256v.488h-4.256zm2.128.904q.513 0 .896.168.393.168.6.472.216.296.216.696t-.216.704a1.36 1.36 0 0 1-.6.464q-.383.16-.896.16-.511 0-.904-.16a1.44 1.44 0 0 1-.6-.464 1.2 1.2 0 0 1-.216-.704q0-.4.216-.696.216-.304.6-.472.393-.168.904-.168m0 .472q-.511 0-.832.24a.73.73 0 0 0-.32.624q0 .384.32.624t.832.24q.52 0 .832-.24a.74.74 0 0 0 .32-.624.73.73 0 0 0-.32-.624q-.312-.24-.832-.24m-.296-2.272h.592v1.152h-.592zm-.728 6.544h4.784v.488h-4.784zm0-1.576h.584v1.776h-.584zm12.997-4.968h.592v5.28h-.592zm.408 2.2h1.272v.496H117.3zm-4.264 4.344h4.784v.488h-4.784zm0-1.76h.584v1.872h-.584zm-.808-4.264h.584v1.232h2.144v-1.232h.576v3.544h-3.304zm.584 1.696v1.368h2.144v-1.368zm13.773-2.224h.568v7.208h-.568zm-1.264 2.912h1.416v.496h-1.416zm-.376-2.744h.552v6.664h-.552zm-3.624 4.736h.464q.543 0 .984-.016t.832-.064q.4-.048.808-.136l.064.496q-.424.088-.832.144-.409.048-.856.064-.44.008-1 .008h-.464zm0-4.016h2.68v.488h-2.088v3.752h-.592zm8.879-.512h.488v.752q0 .68-.256 1.272a3.1 3.1 0 0 1-.696 1.032 3 3 0 0 1-1.032.664l-.312-.472q.536-.2.944-.576t.632-.872a2.44 2.44 0 0 0 .232-1.048zm.096 0h.48v.792q0 .368.136.72.136.344.376.648.24.295.56.528.328.232.712.368l-.32.464a3.2 3.2 0 0 1-1-.616 3.1 3.1 0 0 1-.696-.952 2.8 2.8 0 0 1-.248-1.16zm3.096-.376h.592v4.392h-.592zm.432 1.896h1.248v.504h-1.248zm-2.12 2.696q.736 0 1.256.152.528.152.808.448a.96.96 0 0 1 .288.704.95.95 0 0 1-.288.696q-.28.288-.808.44-.52.16-1.256.16a4.4 4.4 0 0 1-1.264-.16q-.528-.152-.816-.44a.96.96 0 0 1-.28-.696q0-.416.28-.704.288-.296.816-.448a4.7 4.7 0 0 1 1.264-.152m0 .48q-.544 0-.944.096t-.616.28a.57.57 0 0 0-.216.448.56.56 0 0 0 .216.44q.216.184.616.28.4.104.944.104t.944-.104q.4-.096.616-.28a.56.56 0 0 0 .216-.44.57.57 0 0 0-.216-.448q-.216-.184-.616-.28a4 4 0 0 0-.944-.096m6.165 3.088-.4-.184a6.9 6.9 0 0 0 .768-1.832 7.84 7.84 0 0 0 0-4.032 7 7 0 0 0-.768-1.848l.4-.192q.552.896.864 1.888.312.984.312 2.16t-.312 2.168a8.3 8.3 0 0 1-.864 1.872"/><path stroke="#d0d0d0" d="M0 335.5h71m81 0h72"/><path fill="#000" d="M81.182 327.55h.61v1.66q0 .73-.2 1.44a5.7 5.7 0 0 1-.54 1.32q-.34.61-.8 1.09-.45.48-.96.76l-.46-.59q.48-.24.9-.66.429-.43.75-.97.33-.55.51-1.16.19-.61.19-1.23zm.13 0h.6v1.66q0 .59.18 1.18a5 5 0 0 0 .51 1.11q.33.51.75.92.42.4.89.64l-.46.59a3.9 3.9 0 0 1-.96-.73 5.5 5.5 0 0 1-.78-1.05 5.8 5.8 0 0 1-.54-1.27 5 5 0 0 1-.19-1.39zm3.79-.8h.74v9.01h-.74zm.57 3.68h1.68v.63h-1.68zm9.389-3.68h.71v9.01h-.71zm-3.34 3.26h1.77v.62h-1.77zm1.54-3.04h.7v8.31h-.7zm-3.23 1.17h.58v1.18q0 .74-.15 1.44-.14.69-.42 1.3-.27.6-.66 1.09-.39.48-.87.79l-.46-.55q.62-.38 1.06-1.01.44-.64.68-1.43.24-.8.24-1.63zm.15 0h.57v1.18q0 .79.23 1.54t.66 1.36q.44.6 1.05.96l-.45.54a3.5 3.5 0 0 1-1.11-1.07 5.4 5.4 0 0 1-.71-1.54 6.6 6.6 0 0 1-.24-1.79zm-1.9-.31h4.13v.61h-4.13zm9.07 3.4h8.139v.6h-8.14zm3.699-1.46h.72v1.71h-.72zm-2.67-.24h6.15v.61h-6.15zm0-2.36h6.08v.6h-5.35v2.11h-.73zm3.03 5.34q1.44 0 2.25.43.82.42.82 1.19t-.82 1.19q-.81.43-2.25.43t-2.26-.43q-.82-.42-.82-1.19t.82-1.19q.82-.43 2.26-.43m0 .59q-.72 0-1.25.12-.52.12-.8.35a.7.7 0 0 0-.28.56q0 .32.28.56.28.23.8.35.53.12 1.25.12t1.24-.12q.53-.12.81-.35.28-.24.28-.56a.7.7 0 0 0-.28-.56q-.28-.23-.81-.35-.52-.12-1.24-.12m11.999-6.35h.71v5.71h-.71zm-1.54 2.49h1.75v.61h-1.75zm-.4-2.31h.7v5.2h-.7zm-4.97.92h4.6v.6h-4.6zm2.3 1.09q.57 0 1 .2.43.19.67.53.25.34.25.81t-.25.82q-.24.34-.67.53t-1 .19q-.56 0-.99-.19a1.66 1.66 0 0 1-.68-.53 1.4 1.4 0 0 1-.24-.82q0-.47.24-.81.25-.34.68-.53.43-.2.99-.2m0 .57q-.549 0-.9.27a.84.84 0 0 0-.34.7q0 .44.34.71.351.27.9.27.561 0 .9-.27a.85.85 0 0 0 .35-.71.83.83 0 0 0-.35-.7q-.339-.27-.9-.27m-.36-2.69h.73v1.35h-.73zm2.74 5.81q1.401 0 2.19.4.8.4.8 1.16 0 .74-.8 1.14-.789.41-2.19.41-1.41 0-2.2-.41-.79-.4-.79-1.14 0-.76.79-1.16t2.2-.4m0 .57q-1.06 0-1.66.26-.6.25-.6.73 0 .46.6.72.6.25 1.66.25 1.05 0 1.65-.25.6-.26.6-.72 0-.48-.6-.73-.6-.26-1.65-.26m7.536-5.76h4.02v.61h-4.02zm3.64 0h.71v.36q0 .49-.05 1.38-.04.88-.28 2.18l-.75.01q.27-1.29.32-2.18t.05-1.39zm.09 1.71v.54l-3.79.32-.12-.64zm-1.98 2.37h.75v3.71h-.75zm4.18-4.77h.73v9.01h-.73zm-6.63 5.2-.1-.63q.91 0 1.93-.01 1.03-.02 2.08-.07 1.06-.06 2.05-.17l.06.56q-1.01.13-2.06.2t-2.06.1q-1 .02-1.9.02m9.159 1.97h8.16v.62h-8.16zm3.69-5.96h.63v.79q0 .55-.21 1.04t-.58.91q-.36.41-.83.74-.46.32-.97.55t-1.01.33l-.31-.59q.43-.08.89-.27.47-.19.89-.47.43-.28.76-.63.34-.35.54-.76t.2-.85zm.14 0h.62v.79q0 .44.2.85.201.4.54.75.34.35.77.63.43.27.9.46.47.18.91.26l-.31.59a5.8 5.8 0 0 1-2.02-.87 5 5 0 0 1-.83-.73 3.4 3.4 0 0 1-.57-.9 2.6 2.6 0 0 1-.21-1.04zm-3.16-.29h6.8v.62h-6.8zm12.846 7.46q-.57 0-1-.14a2.7 2.7 0 0 1-.75-.37q-.32-.24-.56-.49l.42-.54q.33.33.76.6.44.26 1.09.26.45 0 .79-.17.35-.18.54-.5.2-.32.2-.75 0-.46-.23-.8-.22-.34-.73-.53t-1.36-.19v-.64q.77 0 1.22-.19t.64-.52q.2-.34.2-.74 0-.55-.35-.87-.34-.33-.93-.33-.45 0-.84.21-.39.2-.7.51l-.44-.53q.4-.37.89-.61.49-.25 1.12-.25.6 0 1.07.22.47.21.74.62.27.4.27.97 0 .68-.36 1.13-.36.44-.95.65v.04q.43.1.78.35.36.25.57.63.22.38.22.89 0 .64-.32 1.11a2.03 2.03 0 0 1-.83.72q-.52.25-1.17.25"/><path fill="#999" d="M85.13 349.56a8.8 8.8 0 0 1-.863-1.872 7.2 7.2 0 0 1-.312-2.168q0-1.176.312-2.16a9 9 0 0 1 .864-1.888l.4.192a6.8 6.8 0 0 0-.776 1.848 8.1 8.1 0 0 0 0 4.032q.256.984.776 1.832zm3.263-5.144h.544q.735 0 1.28-.008.552-.016 1.008-.056.464-.04.944-.128l.064.48q-.497.08-.968.128-.472.04-1.032.056-.552.008-1.296.008h-.544zm0-2.64h3.272v.472h-2.68v2.456h-.592zm.4 1.304h2.752v.464h-2.752zm4.24-1.68h.592v3.768h-.592zm.328 1.6h1.344v.488H93.36zm-4.272 2.528h4.536v1.664h-3.936v1.088h-.584v-1.536h3.944v-.736h-3.96zm.016 2.52h4.792v.472h-4.792zm6.631-3.16h.56q.64 0 1.192-.016.56-.024 1.08-.072.528-.056 1.104-.152l.048.496q-.576.096-1.112.152a18 18 0 0 1-1.096.064 42 42 0 0 1-1.216.016h-.56zm-.016-3.056h3.232v1.96h-2.64v1.336h-.576v-1.8h2.632v-1.008H95.72zm4.672-.424h.592v4.376h-.592zm.408 1.856h1.272v.504H100.8zm-4.472 2.904h4.656v2.432h-.592v-1.944h-4.064zm11.423-4.76h.592v5.408h-.592zm.408 2.392h1.272v.504h-1.272zm-5.368-1.496h4.256v.488h-4.256zm2.128.904q.513 0 .896.168.393.168.6.472.216.295.216.696t-.216.704a1.36 1.36 0 0 1-.6.464q-.383.16-.896.16-.511 0-.904-.16a1.44 1.44 0 0 1-.6-.464 1.2 1.2 0 0 1-.216-.704q0-.4.216-.696.216-.304.6-.472.393-.168.904-.168m0 .472q-.511 0-.832.24a.73.73 0 0 0-.32.624q0 .384.32.624t.832.24q.52 0 .832-.24a.74.74 0 0 0 .32-.624.73.73 0 0 0-.32-.624q-.312-.24-.832-.24m-.296-2.272h.592v1.152h-.592zm-.728 6.544h4.784v.488h-4.784zm0-1.576h.584v1.776h-.584zm12.997-4.968h.592v5.28h-.592zm.408 2.2h1.272v.496H117.3zm-4.264 4.344h4.784v.488h-4.784zm0-1.76h.584v1.872h-.584zm-.808-4.264h.584v1.232h2.144v-1.232h.576v3.544h-3.304zm.584 1.696v1.368h2.144v-1.368zm13.773-2.224h.568v7.208h-.568zm-1.264 2.912h1.416v.496h-1.416zm-.376-2.744h.552v6.664h-.552zm-3.624 4.736h.464q.543 0 .984-.016t.832-.064q.4-.048.808-.136l.064.496q-.424.089-.832.144-.409.048-.856.064-.44.008-1 .008h-.464zm0-4.016h2.68v.488h-2.088v3.752h-.592zm8.879-.512h.488v.752q0 .68-.256 1.272a3.1 3.1 0 0 1-.696 1.032 3 3 0 0 1-1.032.664l-.312-.472q.536-.2.944-.576t.632-.872a2.44 2.44 0 0 0 .232-1.048zm.096 0h.48v.792q0 .368.136.72.136.343.376.648.24.296.56.528.328.232.712.368l-.32.464a3.2 3.2 0 0 1-1-.616 3.1 3.1 0 0 1-.696-.952 2.8 2.8 0 0 1-.248-1.16zm3.096-.376h.592v4.392h-.592zm.432 1.896h1.248v.504h-1.248zm-2.12 2.696q.736 0 1.256.152.528.152.808.448a.96.96 0 0 1 .288.704.95.95 0 0 1-.288.696q-.28.288-.808.44-.52.16-1.256.16a4.4 4.4 0 0 1-1.264-.16q-.528-.152-.816-.44a.96.96 0 0 1-.28-.696q0-.416.28-.704.288-.296.816-.448a4.7 4.7 0 0 1 1.264-.152m0 .48q-.544 0-.944.096t-.616.28a.57.57 0 0 0-.216.448.56.56 0 0 0 .216.44q.216.184.616.28.4.104.944.104t.944-.104q.4-.096.616-.28a.56.56 0 0 0 .216-.44.57.57 0 0 0-.216-.448q-.216-.184-.616-.28a4 4 0 0 0-.944-.096m6.165 3.088-.4-.184a6.9 6.9 0 0 0 .768-1.832 7.84 7.84 0 0 0 0-4.032 7 7 0 0 0-.768-1.848l.4-.192q.552.896.864 1.888.312.984.312 2.16t-.312 2.168a8.3 8.3 0 0 1-.864 1.872"/></svg>