<svg xmlns="http://www.w3.org/2000/svg" width="192" height="660" fill="none" viewBox="0 0 192 660"><path stroke="#2c91f8" stroke-width="2" d="M5 15v35m0 16v35m0 16v35m0 16v35m0 16v35m0 16v35m0 16v52m0 16v52m0 16v52m0 16v35m0 16v52"/><circle cx="5" cy="7" r="4" fill="#f9f9f9" stroke="#2c91f8" stroke-width="2"/><path fill="#626262" d="M20.564 3.096h6.468v.996h-6.468zm3.24 1.464q.78 0 1.38.252t.936.708q.336.444.336 1.044T26.12 7.62q-.336.444-.936.696-.6.24-1.38.24-.792 0-1.392-.24-.6-.252-.936-.696a1.73 1.73 0 0 1-.336-1.056q0-.6.336-1.044.336-.456.936-.708t1.392-.252m0 .972q-.66 0-1.068.276a.86.86 0 0 0-.396.756q0 .48.396.756.408.276 1.068.276.648 0 1.044-.276a.87.87 0 0 0 .396-.756.86.86 0 0 0-.396-.756q-.396-.276-1.044-.276m4.056-3.504h1.248v6.864H27.86zm.912 2.928h1.884V6h-1.884zM21.908 9.42h7.2v3.576H27.86v-2.568h-5.952zm1.26-7.452h1.26V3.66h-1.26zm10.571.732h.996v1.38q0 .864-.288 1.704a4.7 4.7 0 0 1-.852 1.5 3.7 3.7 0 0 1-1.404 1.044l-.672-.972a3.8 3.8 0 0 0 1.236-.864q.492-.54.732-1.164.252-.636.252-1.248zm.228 0h.984v1.38q0 .588.24 1.164t.72 1.044 1.176.756l-.66.948q-.816-.324-1.368-.924a4 4 0 0 1-.828-1.368 5 5 0 0 1-.264-1.62zm5.712-.672h1.2v6.744h-1.2zm-1.56 2.82h1.92v1.02h-1.92zm-.78-2.616h1.188v6.192H37.34zm-.12 6.732q1.14 0 1.968.24.84.24 1.284.696.456.444.456 1.08 0 .624-.456 1.068-.444.456-1.284.684-.828.24-1.968.24-1.128 0-1.968-.24-.84-.228-1.296-.684a1.46 1.46 0 0 1-.444-1.068q0-.636.444-1.08.456-.456 1.296-.696t1.968-.24m0 .96q-1.152 0-1.812.276-.648.264-.648.78 0 .492.648.768.66.276 1.812.276.768 0 1.32-.12.552-.132.84-.36a.7.7 0 0 0 .288-.564q0-.516-.648-.78-.636-.276-1.8-.276m8.387-1.284h1.26v1.8h-1.26zm4.788-6.612h1.26v10.968h-1.26zm-7.548 8.988-.156-1.032q1.02 0 2.208-.012a65 65 0 0 0 2.448-.096 37 37 0 0 0 2.412-.216l.096.912q-1.212.204-2.448.3-1.224.096-2.4.12-1.164.024-2.16.024m.06-7.704h6.636v.996h-6.636zm3.312 1.524q.804 0 1.404.264.6.252.936.708.348.456.348 1.08 0 .612-.348 1.08-.336.456-.936.708t-1.404.252q-.78 0-1.392-.252-.6-.252-.936-.708a1.8 1.8 0 0 1-.336-1.08q0-.624.336-1.08t.936-.708a3.5 3.5 0 0 1 1.392-.264m0 .96q-.648 0-1.068.3a.92.92 0 0 0-.408.792q0 .504.408.792.42.288 1.068.288.672 0 1.08-.288a.92.92 0 0 0 .408-.792q0-.504-.408-.792-.408-.3-1.08-.3m-.612-3.756h1.26v1.824h-1.26z"/><path fill="#999" d="M20.93 25.13h.57q.65 0 1.19-.02.55-.02 1.06-.08t1.05-.18l.07.62q-.56.11-1.08.17t-1.07.08-1.22.02h-.57zm0-3.49h3.4v.6h-2.67v3.06h-.73zm6.45-.88h.71v6.69h-.71zm-1.52 2.6h1.75v.61h-1.75zm-.48-2.43h.7v6.23h-.7zm-3.13 8.01h6.12v.61h-6.12zm0-2.29h.74v2.59h-.74zm11.12-5.26h.65v.7q0 .59-.21 1.11t-.57.97-.83.8a5.7 5.7 0 0 1-.98.6q-.51.24-1.02.37l-.33-.62q.45-.1.91-.3.47-.21.89-.51.43-.31.76-.69.34-.38.53-.82.2-.44.2-.91zm.14 0h.63v.7q0 .47.2.91t.54.83q.34.38.76.68.43.3.89.51.47.21.92.3l-.34.62q-.51-.13-1.02-.37a6 6 0 0 1-.98-.6 5.2 5.2 0 0 1-.83-.79q-.36-.45-.57-.98a3.1 3.1 0 0 1-.2-1.11zm-3.79 6.52h8.16v.61h-8.16z"/><circle cx="5" cy="58" r="4" fill="#f9f9f9" stroke="#2c91f8" stroke-width="2"/><path fill="#626262" d="M21.02 63v-1.14h1.944v-6.144H21.38v-.876a6 6 0 0 0 1.08-.276q.468-.168.852-.408h1.044v7.704h1.716V63zm6.388-2.88V59.1h3.168v1.02zm6.04 2.88q.06-1.212.205-2.22.144-1.02.42-1.92.276-.912.72-1.764a15 15 0 0 1 1.08-1.764h-4.14v-1.176h5.676v.852q-.768.96-1.248 1.86a9 9 0 0 0-.744 1.812 12 12 0 0 0-.384 1.98q-.12 1.044-.168 2.34zm12.389-9.972h1.248v8.064h-1.248zm.876 3.216h1.92v1.044h-1.92zm-6.564 6.504h7.392v1.02h-7.392zm0-2.448h1.26v2.676h-1.26zm-1.236-6.492h1.248v1.716h2.676v-1.716h1.248v5.496h-5.172zm1.248 2.688v1.8h2.676v-1.8z"/><path fill="#999" d="M26.74 71.75h.74v5.23h-.74zm.42 2.32h1.68v.63h-1.68zm-5.3 3.32h.73v.99h4.16v-.99h.73v3.25h-5.62zm.73 1.58v1.06h4.16v-1.06zm-2.05-6.27h5.32v.61h-5.32zm2.66 1.05q.64 0 1.12.2.49.19.75.55.27.35.27.82 0 .48-.27.84-.26.36-.75.56a3 3 0 0 1-1.12.19q-.64 0-1.13-.19-.48-.2-.75-.56t-.27-.84q0-.47.27-.82.27-.36.75-.55.49-.2 1.13-.2m0 .57q-.65 0-1.05.28-.39.28-.39.73 0 .46.39.74.4.27 1.05.27.64 0 1.04-.27.4-.28.4-.74 0-.45-.4-.73-.39-.28-1.04-.28m-.37-2.66h.74v1.36h-.74zm9.18 1.64h.6v.4a3.3 3.3 0 0 1-.32 1.45q-.32.66-.89 1.15-.561.48-1.29.73l-.36-.58q.65-.21 1.16-.62a3.05 3.05 0 0 0 .8-.96q.3-.55.3-1.17zm.12 0h.61v.4q0 .56.28 1.06.29.5.79.88.51.37 1.15.57l-.35.59a4.1 4.1 0 0 1-1.29-.69 3.3 3.3 0 0 1-.88-1.07 2.96 2.96 0 0 1-.31-1.34zm-2.16-.43h4.8v.61h-4.8zm2.04-1.16h.74v1.37h-.74zm3.93.04h.74v5.54h-.74zm.54 2.37h1.56v.62h-1.56zm-2.65 3.4q.92 0 1.57.19.66.19 1.01.55.36.35.36.87 0 .76-.78 1.18t-2.16.42q-.92 0-1.58-.19T31.23 80q-.35-.36-.35-.87 0-.52.35-.87.36-.36 1.02-.55t1.58-.19m0 .58q-.69 0-1.19.12-.49.12-.76.35a.71.71 0 0 0-.27.56.7.7 0 0 0 .27.55q.27.23.76.35.5.12 1.19.12.68 0 1.18-.12t.77-.35a.7.7 0 0 0 .27-.55.71.71 0 0 0-.27-.56q-.27-.23-.77-.35a5 5 0 0 0-1.18-.12"/><circle cx="5" cy="109" r="4" fill="#f9f9f9" stroke="#2c91f8" stroke-width="2"/><path fill="#626262" d="M20.996 104.724h1.176v1.644h1.932v-1.644h1.176v5.196h-4.284zm1.176 2.616v1.584h1.932v-1.584zm6.468-3.312h1.2v6.588h-1.2zm-1.572 2.772H29v1.02h-1.932zm-.768-2.568h1.188v6.336H26.3zm-3.9 6.972h7.44v3.792h-1.248v-2.772H22.4zm9.575-6.12h5.136v7.176h-5.136zm3.9 1.008h-2.664v5.172h2.664zm2.952-2.064h1.26v10.968h-1.26zm.984 4.272h1.98v1.044h-1.98zm10.127-4.284h1.248v7.944h-1.248zm.888 3.144h1.92v1.032h-1.92zm-7.74 1.896h.888q1.152 0 1.992-.024a21 21 0 0 0 1.548-.096q.696-.084 1.392-.228l.132 1.008q-.708.144-1.428.228-.72.072-1.596.108a50 50 0 0 1-2.04.036h-.888zm0-4.128h4.872v1.02h-3.612v3.66h-1.26zm1.164 8.82h7.392v1.02H44.25zm0-2.604h1.26v3.096h-1.26zm14.407 5.244a12.8 12.8 0 0 1-1.308-2.856q-.468-1.5-.468-3.288 0-1.776.468-3.276t1.308-2.868l.864.384a10.4 10.4 0 0 0-1.14 2.784 12.5 12.5 0 0 0 0 5.964q.371 1.476 1.14 2.772zm9.936-10.68h3v1.02h-3zm0 2.184h3.036v1.02h-3.036zm2.568-3.864h1.26v6.456h-1.26zm-7.344.804h5.076v4.956h-5.076zm3.852 1.008h-2.616v2.952h2.616zm1.104 4.944q1.716 0 2.7.552.996.552.996 1.548t-.996 1.536q-.984.552-2.7.552t-2.712-.552q-.996-.54-.996-1.536t.996-1.548 2.712-.552m0 .984q-.78 0-1.332.132-.54.12-.828.372a.76.76 0 0 0-.288.612q0 .36.288.612t.828.384q.552.12 1.332.12t1.32-.12q.54-.132.828-.384.3-.252.3-.612a.75.75 0 0 0-.3-.612q-.288-.252-.828-.372-.54-.132-1.32-.132m8.387-6.108h1.008v1.536a7.4 7.4 0 0 1-.216 1.788 7 7 0 0 1-.636 1.632q-.408.768-.984 1.356a4.8 4.8 0 0 1-1.272.936l-.732-.996q.636-.3 1.152-.804a5.2 5.2 0 0 0 .9-1.14q.372-.648.576-1.356t.204-1.416zm.264 0h1.008v1.536q0 .684.204 1.356t.576 1.272.888 1.068 1.164.744l-.696.996a4.6 4.6 0 0 1-1.296-.876 5.8 5.8 0 0 1-.996-1.272 7 7 0 0 1-.636-1.56 7 7 0 0 1-.216-1.728zm-2.7-.552h6.144v1.044h-6.144zm7.416-1.08h1.26v10.968h-1.26zm4.307 1.02h7.008v1.02h-7.008zm-1.032 7.476h9.912v1.032h-9.912zm3.696-3.852h1.26v4.356h-1.26zM93 105.048h1.248v1.068q0 .684-.012 1.44a22 22 0 0 1-.096 1.668 22 22 0 0 1-.3 2.052l-1.26-.144q.312-1.608.36-2.82.06-1.212.06-2.196zm7.015 11.34-.864-.384q.768-1.296 1.14-2.772t.372-2.988q0-1.5-.372-2.976a10.4 10.4 0 0 0-1.14-2.784l.864-.384a12.4 12.4 0 0 1 1.32 2.868q.468 1.5.468 3.276 0 1.788-.468 3.288a12.5 12.5 0 0 1-1.32 2.856"/><path fill="#999" d="M20.93 127.13h.57q.65 0 1.19-.02.55-.02 1.06-.08t1.05-.18l.07.62q-.56.11-1.08.17t-1.07.08a35 35 0 0 1-1.22.02h-.57zm0-3.49h3.4v.6h-2.67v3.06h-.73zm6.45-.88h.71v6.69h-.71zm-1.52 2.6h1.75v.61h-1.75zm-.48-2.43h.7v6.23h-.7zm-3.13 8.01h6.12v.61h-6.12zm0-2.29h.74v2.59h-.74zm11.12-5.26h.65v.7q0 .59-.21 1.11t-.57.97-.83.8a5.7 5.7 0 0 1-.98.6q-.51.24-1.02.37l-.33-.62q.45-.1.91-.3.47-.21.89-.51.43-.31.76-.69.34-.38.53-.82.2-.44.2-.91zm.14 0h.63v.7q0 .47.2.91t.54.83q.34.38.76.68.43.3.89.51.47.21.92.3l-.34.62a5.7 5.7 0 0 1-1.02-.37 6.3 6.3 0 0 1-.98-.6 5.2 5.2 0 0 1-.83-.79 3.8 3.8 0 0 1-.57-.98 3.1 3.1 0 0 1-.2-1.11zm-3.79 6.52h8.16v.61h-8.16zm13.305 3.04q-.68-1.11-1.08-2.34-.39-1.24-.39-2.71t.39-2.7a11 11 0 0 1 1.08-2.36l.5.24a8.5 8.5 0 0 0-.97 2.31 10.1 10.1 0 0 0 0 5.04q.32 1.23.97 2.29zm5.947-8.52h.61v.46q0 .8-.33 1.48a3.65 3.65 0 0 1-.88 1.18 3.9 3.9 0 0 1-1.29.75l-.37-.59q.65-.21 1.16-.63.51-.43.8-.99.3-.56.3-1.2zm.12 0h.61v.46q0 .58.28 1.11.29.53.79.93t1.15.61l-.37.59a4 4 0 0 1-1.28-.72 3.3 3.3 0 0 1-.87-1.12q-.31-.65-.31-1.4zm-2.16-.43h4.8v.6h-4.8zm2.04-1.19h.74v1.49h-.74zm3.93-.06h.74v6.67h-.74zm.51 2.82h1.59v.63h-1.59zm-5.33 5.37h5.98v.61h-5.98zm0-2.09h.73v2.42h-.73zm7.8 1.11h8.16v.62h-8.16zm3.71-2.21h.73v2.43h-.73zm-.02-3.87h.63v.6q0 .55-.21 1.04a3.4 3.4 0 0 1-.58.91q-.36.42-.83.74-.46.32-.97.55t-1.01.33l-.31-.59a4.4 4.4 0 0 0 .89-.27q.47-.19.89-.47.43-.28.76-.63.339-.35.54-.76.2-.41.2-.85zm.14 0h.62v.6q0 .44.2.85.2.4.54.75a4.5 4.5 0 0 0 .77.63q.429.27.9.46.47.19.91.26l-.31.59a5.7 5.7 0 0 1-1.03-.33 6 6 0 0 1-.99-.54 4.8 4.8 0 0 1-.83-.73 3.4 3.4 0 0 1-.57-.9 2.6 2.6 0 0 1-.21-1.04zm-3.16-.29h6.8v.62h-6.8zm11.145 9.36-.5-.23a8.6 8.6 0 0 0 .96-2.29 9.8 9.8 0 0 0 0-5.04 8.7 8.7 0 0 0-.96-2.31l.5-.24q.69 1.12 1.08 2.36.39 1.23.39 2.7t-.39 2.71q-.39 1.23-1.08 2.34"/><circle cx="5" cy="160" r="4" fill="#f9f9f9" stroke="#2c91f8" stroke-width="2"/><path fill="#626262" d="M22.964 161.868h1.284v4.116h-1.284zm3.78 0h1.272v4.116h-1.272zm-6.192-.672h9.936v1.032h-9.936zm4.944-5.76q1.152 0 2.028.3.876.288 1.368.828t.492 1.284q0 .732-.492 1.284-.492.54-1.368.84-.876.288-2.028.288t-2.04-.288q-.876-.3-1.368-.84a1.87 1.87 0 0 1-.492-1.284q0-.744.492-1.284t1.368-.828q.888-.3 2.04-.3m0 .996q-.792 0-1.38.18-.576.168-.9.48a1 1 0 0 0-.324.756q0 .444.324.768.324.312.9.48.588.156 1.38.156.78 0 1.356-.156.588-.168.912-.48a1.05 1.05 0 0 0 .324-.768 1 1 0 0 0-.324-.756q-.324-.312-.912-.48-.576-.18-1.356-.18m13.895-1.416h1.26v10.968h-1.26zm-7.164 1.068h1.248v6.804h-1.248zm0 6.06h.936q1.236 0 2.544-.108a22 22 0 0 0 2.676-.396l.144 1.068q-1.416.288-2.748.396t-2.616.108h-.936zm11.051.252h.9q1.008 0 1.848-.024a25 25 0 0 0 3.288-.3l.12 1.008q-.864.144-1.68.228a28 28 0 0 1-1.692.096q-.864.012-1.884.012h-.9zm0-6.42h5.412v1.032h-4.164v5.736h-1.248zm.948 3.072h4.044v.996h-4.044zm6.204-4.02h1.26v10.968h-1.26zm8.227 12.36a12.8 12.8 0 0 1-1.308-2.856q-.468-1.5-.468-3.288 0-1.776.468-3.276t1.308-2.868l.864.384a10.4 10.4 0 0 0-1.14 2.784 12.5 12.5 0 0 0 0 5.964q.371 1.476 1.14 2.772zm9.696-10.74h3.276v1.02h-3.276zm0 2.652h3.276v1.02h-3.276zm2.808-4.272h1.26v8.064h-1.26zm-5.844 9.72h7.392v1.02h-7.392zm0-2.46h1.26v2.952h-1.26zm1.02-6.588q.816 0 1.464.36t1.02.984.372 1.44-.372 1.452a2.7 2.7 0 0 1-1.02.984q-.648.348-1.464.348a3 3 0 0 1-1.452-.348 2.7 2.7 0 0 1-1.02-.984 2.8 2.8 0 0 1-.372-1.452q0-.816.372-1.44a2.7 2.7 0 0 1 1.02-.984q.648-.36 1.452-.36m0 1.116q-.468 0-.84.216a1.6 1.6 0 0 0-.6.576q-.216.372-.216.876t.216.888q.228.384.6.6.372.204.852.204.468 0 .84-.204a1.57 1.57 0 0 0 .588-.6 1.8 1.8 0 0 0 .216-.888q0-.504-.216-.876a1.5 1.5 0 0 0-.588-.576 1.67 1.67 0 0 0-.852-.216m15.347-1.788h1.248v6.384h-1.248zm.732 2.724h2.064v1.044h-2.064zm-6.48 4.128h1.248v1.008h4.512v-1.008h1.236v3.972h-6.996zm1.248 1.968v1.008h4.512v-1.008zm-2.796-7.776h6.468v1.008h-6.468zm3.24 1.416q.792 0 1.38.24.6.228.936.672.336.432.336 1.008 0 .588-.336 1.032-.336.432-.936.672-.588.24-1.38.24t-1.392-.24-.936-.672a1.66 1.66 0 0 1-.336-1.032q0-.576.336-1.008.336-.444.936-.672.6-.24 1.392-.24m0 .924q-.66 0-1.068.276a.83.83 0 0 0-.396.732q0 .468.396.732.408.264 1.068.264.648 0 1.044-.264a.83.83 0 0 0 .396-.732.83.83 0 0 0-.396-.732q-.396-.276-1.044-.276m-.636-3.48h1.26v1.692h-1.26zm11.983 12.456-.864-.384q.768-1.296 1.14-2.772t.372-2.988q0-1.5-.372-2.976a10.4 10.4 0 0 0-1.14-2.784l.864-.384a12.4 12.4 0 0 1 1.32 2.868q.468 1.5.468 3.276 0 1.788-.468 3.288a12.5 12.5 0 0 1-1.32 2.856"/><path fill="#999" d="M20.93 178.13h.57q.65 0 1.19-.02.55-.02 1.06-.08t1.05-.18l.07.62q-.56.11-1.08.17t-1.07.08a35 35 0 0 1-1.22.02h-.57zm0-3.49h3.4v.6h-2.67v3.06h-.73zm6.45-.88h.71v6.69h-.71zm-1.52 2.6h1.75v.61h-1.75zm-.48-2.43h.7v6.23h-.7zm-3.13 8.01h6.12v.61h-6.12zm0-2.29h.74v2.59h-.74zm11.12-5.26h.65v.7q0 .59-.21 1.11t-.57.97-.83.8a5.7 5.7 0 0 1-.98.6q-.51.24-1.02.37l-.33-.62q.45-.1.91-.3.47-.21.89-.51.43-.31.76-.69.34-.38.53-.82.2-.44.2-.91zm.14 0h.63v.7q0 .47.2.91t.54.83q.34.38.76.68.43.3.89.51.47.21.92.3l-.34.62a5.7 5.7 0 0 1-1.02-.37 6.3 6.3 0 0 1-.98-.6 5.2 5.2 0 0 1-.83-.79 3.8 3.8 0 0 1-.57-.98 3.1 3.1 0 0 1-.2-1.11zm-3.79 6.52h8.16v.61h-8.16zm13.305 3.04q-.68-1.11-1.08-2.34-.39-1.24-.39-2.71t.39-2.7a11 11 0 0 1 1.08-2.36l.5.24a8.5 8.5 0 0 0-.97 2.31 10.1 10.1 0 0 0 0 5.04q.32 1.23.97 2.29zm5.947-8.52h.61v.46q0 .8-.33 1.48a3.65 3.65 0 0 1-.88 1.18 3.9 3.9 0 0 1-1.29.75l-.37-.59q.65-.21 1.16-.63.51-.43.8-.99.3-.56.3-1.2zm.12 0h.61v.46q0 .58.28 1.11.29.53.79.93t1.15.61l-.37.59a4 4 0 0 1-1.28-.72 3.3 3.3 0 0 1-.87-1.12q-.31-.65-.31-1.4zm-2.16-.43h4.8v.6h-4.8zm2.04-1.19h.74v1.49h-.74zm3.93-.06h.74v6.67h-.74zm.51 2.82h1.59v.63h-1.59zm-5.33 5.37h5.98v.61h-5.98zm0-2.09h.73v2.42h-.73zm7.8 1.11h8.16v.62h-8.16zm3.71-2.21h.73v2.43h-.73zm-.02-3.87h.63v.6q0 .55-.21 1.04a3.4 3.4 0 0 1-.58.91q-.36.42-.83.74-.46.32-.97.55t-1.01.33l-.31-.59a4.4 4.4 0 0 0 .89-.27q.47-.19.89-.47.43-.28.76-.63.339-.35.54-.76.2-.41.2-.85zm.14 0h.62v.6q0 .44.2.85.2.4.54.75a4.5 4.5 0 0 0 .77.63q.429.27.9.46.47.19.91.26l-.31.59a5.7 5.7 0 0 1-1.03-.33 6 6 0 0 1-.99-.54 4.8 4.8 0 0 1-.83-.73 3.4 3.4 0 0 1-.57-.9 2.6 2.6 0 0 1-.21-1.04zm-3.16-.29h6.8v.62h-6.8zm11.145 9.36-.5-.23a8.6 8.6 0 0 0 .96-2.29 9.8 9.8 0 0 0 0-5.04 8.7 8.7 0 0 0-.96-2.31l.5-.24q.69 1.12 1.08 2.36.39 1.23.39 2.7t-.39 2.71q-.39 1.23-1.08 2.34"/><circle cx="5" cy="211" r="4" fill="#f9f9f9" stroke="#2c91f8" stroke-width="2"/><path fill="#626262" d="M28.328 206.028h1.26v5.544h-1.26zm-5.928 6.036h7.188v2.844H23.66v1.344h-1.236v-2.256h5.916v-.948H22.4zm.024 3.864h7.488v.984h-7.488zM21.2 210.12h.912q1.188 0 2.076-.024a23 23 0 0 0 1.632-.12 19 19 0 0 0 1.5-.228l.144.96q-.78.156-1.56.252-.768.084-1.68.12-.9.024-2.112.024H21.2zm0-3.48h5.16v.984h-3.912v2.94H21.2zm17.64-.624h1.26v10.992h-1.26zm.971 4.26h1.98v1.044h-1.98zm-7.776 3.084h.9q.984 0 1.812-.024.84-.024 1.632-.108a24 24 0 0 0 1.608-.228l.12 1.032a26 26 0 0 1-3.312.348q-.852.024-1.86.024h-.9zm-.024-6.36h5.004v4.068h-3.732v2.7h-1.248v-3.708h3.732v-2.04h-3.756zm18.383-.984h1.26v10.992h-1.26zm-4.572.804q.816 0 1.452.48.648.48 1.008 1.344t.36 2.04q0 1.188-.36 2.064-.36.864-1.008 1.344a2.4 2.4 0 0 1-1.452.468 2.44 2.44 0 0 1-1.464-.468q-.636-.48-1.008-1.344-.36-.876-.36-2.064 0-1.176.36-2.04.372-.864 1.008-1.344.648-.48 1.464-.48m0 1.14q-.48 0-.852.324-.36.324-.564.936t-.204 1.464q0 .864.204 1.476t.564.948q.372.324.852.324t.84-.324q.36-.336.564-.948t.204-1.476q0-.852-.204-1.464t-.564-.936a1.22 1.22 0 0 0-.84-.324m9.071 3.852h7.608v1.008h-7.608zm-1.224 2.808h9.936v1.032H53.67zm1.224-7.716h7.512v1.008h-6.24v4.2h-1.272zm.888 2.424h6.384v.996h-6.384zm13.915 9.06a12.8 12.8 0 0 1-1.308-2.856q-.468-1.5-.468-3.288 0-1.776.468-3.276t1.308-2.868l.864.384a10.4 10.4 0 0 0-1.14 2.784 12.5 12.5 0 0 0 0 5.964q.372 1.476 1.14 2.772zm12.828-12.372h1.2v10.968h-1.2zm-1.68 4.32h1.992v1.032h-1.992zm-.792-4.092h1.176v10.2h-1.176zm-5.316 7.104h.732q.756 0 1.392-.024t1.236-.084q.612-.072 1.248-.192l.12 1.032q-.66.132-1.284.204-.624.06-1.284.084-.648.024-1.428.024h-.732zm0-6.024h4.056v1.02h-2.82v5.484h-1.236zm15.947.588h2.772v1.008h-2.772zm-.096 2.28h2.784v1.02h-2.784zm2.652-4.164h1.26v6.444h-1.26zm-3.492.78h1.344q0 1.44-.588 2.58-.588 1.128-1.728 1.932-1.128.804-2.748 1.272l-.492-.996q1.392-.396 2.328-1.008.948-.624 1.416-1.428a3.5 3.5 0 0 0 .468-1.764zm-3.636 0h4.512v1.02h-4.512zm4.8 5.796q1.116 0 1.932.264t1.26.744q.456.48.456 1.152t-.456 1.164q-.444.48-1.26.744t-1.932.264q-1.104 0-1.932-.264t-1.284-.744a1.66 1.66 0 0 1-.456-1.164q0-.672.456-1.152t1.284-.744 1.932-.264m0 .984q-.744 0-1.296.144-.54.132-.84.396a.83.83 0 0 0-.288.636q0 .384.288.648.3.264.84.408.552.132 1.296.132t1.284-.132q.54-.144.828-.408a.83.83 0 0 0 .3-.648q0-.372-.3-.636-.288-.264-.828-.396a5 5 0 0 0-1.284-.144m7.691-6.888h.996v1.38q0 .864-.288 1.704a4.7 4.7 0 0 1-.852 1.5 3.7 3.7 0 0 1-1.404 1.044l-.672-.972a3.8 3.8 0 0 0 1.236-.864q.492-.54.732-1.164.252-.636.252-1.248zm.228 0h.984v1.38q0 .588.24 1.164t.72 1.044 1.176.756l-.66.948q-.816-.324-1.368-.924a4 4 0 0 1-.828-1.368 5 5 0 0 1-.264-1.62zm5.712-.672h1.2v6.744h-1.2zm-1.56 2.82h1.92v1.02h-1.92zm-.78-2.616h1.188v6.192h-1.188zm-.12 6.732q1.14 0 1.968.24.84.24 1.284.696.456.444.456 1.08 0 .624-.456 1.068-.444.456-1.284.684-.828.24-1.968.24-1.128 0-1.968-.24-.84-.228-1.296-.684a1.46 1.46 0 0 1-.444-1.068q0-.636.444-1.08.456-.456 1.296-.696t1.968-.24m0 .96q-1.152 0-1.812.276-.648.264-.648.78 0 .492.648.768.66.276 1.812.276.768 0 1.32-.12.552-.132.84-.36a.7.7 0 0 0 .288-.564q0-.516-.648-.78-.636-.276-1.8-.276m12.743-7.908h1.248v6.468h-1.248zm.768 2.712h1.992v1.044h-1.992zm-6.732 4.2h7.212v2.34h-5.952v1.032h-1.248v-1.836h5.964v-.672h-5.976zm.012 3.096h7.608v.864h-7.608zm1.32-5.556h1.248v1.476h-1.248zm-2.652 1.836-.144-.888q.972 0 2.136-.012a82 82 0 0 0 2.376-.084q1.212-.072 2.34-.216l.084.78q-1.152.192-2.364.288-1.212.084-2.352.108-1.128.024-2.076.024m.132-5.508h6.264v.852h-6.264zm3.132 1.14q1.188 0 1.896.384.72.372.72 1.056 0 .672-.72 1.056-.708.384-1.896.384t-1.896-.384-.708-1.056q0-.684.708-1.056.708-.384 1.896-.384m0 .792q-.66 0-1.044.168-.372.168-.372.48 0 .3.372.48.384.168 1.044.168t1.032-.168q.384-.18.384-.48 0-.312-.384-.48-.372-.168-1.032-.168m-.612-2.808h1.248v1.332h-1.248zm8.819 1.248h4.848v1.02h-4.848zm1.572 3.144h1.236v3.72h-1.236zm2.772-3.144h1.236v.732q0 .72-.036 1.776t-.276 2.508l-1.236-.108q.228-1.404.264-2.424a39 39 0 0 0 .048-1.752zm2.424-1.152h1.248v10.968h-1.248zm.888 4.512h1.992v1.044h-1.992zm-8.112 4.152-.132-1.044q.984 0 2.136-.012a79 79 0 0 0 2.34-.084 38 38 0 0 0 2.28-.204l.072.924a30 30 0 0 1-2.316.276q-1.176.084-2.292.108t-2.088.036m11.028-7.584h6.468v.996h-6.468zm3.24 1.464q.78 0 1.38.252t.936.708q.336.444.336 1.044t-.336 1.056q-.336.444-.936.696-.6.24-1.38.24-.792 0-1.392-.24-.6-.252-.936-.696a1.73 1.73 0 0 1-.336-1.056q0-.6.336-1.044.336-.456.936-.708t1.392-.252m0 .972q-.66 0-1.068.276a.86.86 0 0 0-.396.756q0 .48.396.756.408.276 1.068.276.648 0 1.044-.276a.87.87 0 0 0 .396-.756.86.86 0 0 0-.396-.756q-.396-.276-1.044-.276m4.056-3.504h1.248v6.864h-1.248zm.912 2.928h1.884V210h-1.884zm-6.864 4.464h7.2v3.576h-1.248v-2.568h-5.952zm1.26-7.452h1.26v1.692h-1.26zm9.455 1.08h7.008v1.02h-7.008zm-1.032 7.476h9.912v1.032h-9.912zm3.696-3.852h1.26v4.356h-1.26zm3.888-3.624h1.248v1.068q0 .684-.012 1.44a22 22 0 0 1-.096 1.668 22 22 0 0 1-.3 2.052l-1.26-.144q.312-1.608.36-2.82.06-1.212.06-2.196zm7.014 11.34-.864-.384q.768-1.296 1.14-2.772t.372-2.988q0-1.5-.372-2.976a10.4 10.4 0 0 0-1.14-2.784l.864-.384a12.4 12.4 0 0 1 1.32 2.868q.468 1.5.468 3.276 0 1.788-.468 3.288a12.5 12.5 0 0 1-1.32 2.856"/><path fill="#999" d="M20.93 229.13h.57q.65 0 1.19-.02.55-.02 1.06-.08t1.05-.18l.07.62q-.56.11-1.08.17t-1.07.08a35 35 0 0 1-1.22.02h-.57zm0-3.49h3.4v.6h-2.67v3.06h-.73zm6.45-.88h.71v6.69h-.71zm-1.52 2.6h1.75v.61h-1.75zm-.48-2.43h.7v6.23h-.7zm-3.13 8.01h6.12v.61h-6.12zm0-2.29h.74v2.59h-.74zm11.12-5.26h.65v.7q0 .59-.21 1.11t-.57.97-.83.8a5.7 5.7 0 0 1-.98.6q-.51.24-1.02.37l-.33-.62q.45-.1.91-.3.47-.21.89-.51.43-.31.76-.69.34-.38.53-.82.2-.44.2-.91zm.14 0h.63v.7q0 .47.2.91t.54.83q.34.38.76.68.43.3.89.51.47.21.92.3l-.34.62a5.7 5.7 0 0 1-1.02-.37 6.3 6.3 0 0 1-.98-.6 5.2 5.2 0 0 1-.83-.79 3.8 3.8 0 0 1-.57-.98 3.1 3.1 0 0 1-.2-1.11zm-3.79 6.52h8.16v.61h-8.16zm13.305 3.04q-.68-1.11-1.08-2.34-.39-1.24-.39-2.71t.39-2.7a11 11 0 0 1 1.08-2.36l.5.24a8.5 8.5 0 0 0-.97 2.31 10.1 10.1 0 0 0 0 5.04q.32 1.23.97 2.29zm5.947-8.52h.61v.46q0 .8-.33 1.48a3.65 3.65 0 0 1-.88 1.18 3.9 3.9 0 0 1-1.29.75l-.37-.59q.65-.21 1.16-.63.51-.43.8-.99.3-.56.3-1.2zm.12 0h.61v.46q0 .58.28 1.11.29.53.79.93t1.15.61l-.37.59a4 4 0 0 1-1.28-.72 3.3 3.3 0 0 1-.87-1.12q-.31-.65-.31-1.4zm-2.16-.43h4.8v.6h-4.8zm2.04-1.19h.74v1.49h-.74zm3.93-.06h.74v6.67h-.74zm.51 2.82h1.59v.63h-1.59zm-5.33 5.37h5.98v.61h-5.98zm0-2.09h.73v2.42h-.73zm7.8 1.11h8.16v.62h-8.16zm3.71-2.21h.73v2.43h-.73zm-.02-3.87h.63v.6q0 .55-.21 1.04a3.4 3.4 0 0 1-.58.91q-.36.42-.83.74-.46.32-.97.55t-1.01.33l-.31-.59a4.4 4.4 0 0 0 .89-.27q.47-.19.89-.47.43-.28.76-.63.339-.35.54-.76.2-.41.2-.85zm.14 0h.62v.6q0 .44.2.85.2.4.54.75a4.5 4.5 0 0 0 .77.63q.429.27.9.46.47.19.91.26l-.31.59a5.7 5.7 0 0 1-1.03-.33 6 6 0 0 1-.99-.54 4.8 4.8 0 0 1-.83-.73 3.4 3.4 0 0 1-.57-.9 2.6 2.6 0 0 1-.21-1.04zm-3.16-.29h6.8v.62h-6.8zm11.145 9.36-.5-.23a8.6 8.6 0 0 0 .96-2.29 9.8 9.8 0 0 0 0-5.04 8.7 8.7 0 0 0-.96-2.31l.5-.24q.69 1.12 1.08 2.36.39 1.23.39 2.7t-.39 2.71q-.39 1.23-1.08 2.34"/><circle cx="5" cy="262" r="4" fill="#f9f9f9" stroke="#2c91f8" stroke-width="2"/><path fill="#626262" d="M20.552 265.572h9.936v1.032h-9.936zm1.116-7.8h1.248v1.92H28.1v-1.92h1.248v5.784h-7.68zm1.248 2.916v1.848H28.1v-1.848zm16.463-3.672h1.26v10.992h-1.26zm-7.176 7.344h.936q.948 0 1.812-.024a31 31 0 0 0 3.528-.348l.12 1.02q-1.416.24-2.712.324-1.296.072-2.748.072h-.936zM32.18 258h5.124v4.056h-3.828v2.7h-1.272v-3.696h3.816v-2.04h-3.84zm10.451 7.572h9.936v1.032H42.63zm4.296-7.056h1.068v.78q0 .684-.228 1.296a4 4 0 0 1-.624 1.14 5 5 0 0 1-.96.948 6.5 6.5 0 0 1-1.224.708q-.66.288-1.38.432l-.516-1.02a5 5 0 0 0 1.224-.336 5.6 5.6 0 0 0 1.056-.576 4.2 4.2 0 0 0 .84-.744 3.1 3.1 0 0 0 .552-.876q.192-.468.192-.972zm.252 0h1.068v.78q0 .504.192.972.192.456.552.864t.84.744q.492.324 1.08.564.6.228 1.248.324l-.504.996a6.4 6.4 0 0 1-2.652-1.116 5 5 0 0 1-.96-.924 4.1 4.1 0 0 1-.636-1.128 3.7 3.7 0 0 1-.228-1.296zm-3.732-.48h8.28v1.02h-8.28zm15.21 11.352a12.8 12.8 0 0 1-1.307-2.856q-.468-1.5-.468-3.288 0-1.776.468-3.276t1.308-2.868l.864.384a10.4 10.4 0 0 0-1.14 2.784 12.5 12.5 0 0 0 0 5.964q.371 1.476 1.14 2.772zm5.113-7.152h.732q.792 0 1.44-.012.648-.024 1.236-.096.6-.072 1.236-.192l.096 1.008a14.5 14.5 0 0 1-2.532.3q-.66.012-1.476.012h-.732zm0-4.2h4.2v1.008h-2.964v3.528H63.77zm7.656-1.008h1.2v8.124h-1.2zm-1.584 3.048h1.92v1.02h-1.92zm-.804-2.844h1.176v7.608h-1.176zm-3.672 9.516h7.56v1.02h-7.56zm0-2.556h1.26v3.108h-1.26zm13.26-6.468h1.091v.816q0 .72-.228 1.38-.216.648-.624 1.224a5.3 5.3 0 0 1-.972 1.02 6 6 0 0 1-1.224.78 6.6 6.6 0 0 1-1.404.468l-.552-1.044q.648-.12 1.236-.372a5.6 5.6 0 0 0 1.08-.636q.492-.384.84-.828.36-.456.552-.96.204-.516.204-1.032zm.24 0h1.091v.816q0 .528.192 1.032.204.504.564.96t.852.828 1.08.636q.588.252 1.236.372l-.552 1.044a6.6 6.6 0 0 1-1.404-.468 6.3 6.3 0 0 1-1.236-.78 5.5 5.5 0 0 1-.96-1.02 5 5 0 0 1-.636-1.224q-.228-.66-.228-1.38zm-4.489 7.812h9.936v1.044h-9.936zm13.747-3.216h9.912v1.008h-9.912zm4.32-1.716h1.248v2.112h-1.248zm-3.096-.396h7.536v1.008h-7.536zm0-2.7h7.476v.996h-6.228v2.328h-1.248zM93.043 264q1.776 0 2.772.528 1.008.516 1.008 1.464 0 .96-1.008 1.476-.996.516-2.772.516-1.752 0-2.76-.516t-1.008-1.476q0-.948 1.008-1.464 1.008-.528 2.76-.528m0 .972q-.792 0-1.356.12t-.864.348a.66.66 0 0 0-.288.552q0 .336.288.576.3.228.864.348.564.108 1.356.108.816 0 1.368-.108.564-.12.852-.348.288-.24.288-.576a.66.66 0 0 0-.288-.552q-.288-.228-.852-.348-.552-.12-1.368-.12m9.035-7.152q.816 0 1.44.48.636.48.996 1.344.372.864.372 2.052 0 1.176-.372 2.052-.36.864-.996 1.344a2.34 2.34 0 0 1-1.44.468q-.828 0-1.464-.468-.624-.48-.996-1.344-.36-.876-.36-2.052 0-1.188.36-2.052.372-.864.996-1.344.636-.48 1.464-.48m0 1.14q-.48 0-.852.324-.36.324-.564.936-.192.612-.192 1.464 0 .864.192 1.476.204.612.564.948.372.324.852.324.468 0 .828-.324.372-.336.564-.948.204-.612.204-1.476 0-.852-.204-1.464-.192-.612-.564-.936a1.2 1.2 0 0 0-.828-.324m4.308-1.932h1.26v10.968h-1.26zm.984 4.272h1.98v1.044h-1.98zm10.607-4.284h1.26v10.992h-1.26zm-7.176 7.344h.936q.948 0 1.812-.024a31 31 0 0 0 3.528-.348l.12 1.02q-1.416.24-2.712.324-1.296.072-2.748.072h-.936zm-.024-6.36h5.124v4.056h-3.828v2.7h-1.272v-3.696h3.816v-2.04h-3.84zm14.01 11.388-.864-.384q.768-1.296 1.14-2.772t.372-2.988q0-1.5-.372-2.976a10.4 10.4 0 0 0-1.14-2.784l.864-.384a12.4 12.4 0 0 1 1.32 2.868q.468 1.5.468 3.276 0 1.788-.468 3.288a12.5 12.5 0 0 1-1.32 2.856"/><path fill="#999" d="M20.93 280.13h.57q.65 0 1.19-.02.55-.02 1.06-.08t1.05-.18l.07.62q-.56.11-1.08.17t-1.07.08a35 35 0 0 1-1.22.02h-.57zm0-3.49h3.4v.6h-2.67v3.06h-.73zm6.45-.88h.71v6.69h-.71zm-1.52 2.6h1.75v.61h-1.75zm-.48-2.43h.7v6.23h-.7zm-3.13 8.01h6.12v.61h-6.12zm0-2.29h.74v2.59h-.74zm11.12-5.26h.65v.7q0 .59-.21 1.11t-.57.97-.83.8a5.7 5.7 0 0 1-.98.6q-.51.24-1.02.37l-.33-.62q.45-.1.91-.3.47-.21.89-.51.43-.31.76-.69.34-.38.53-.82.2-.44.2-.91zm.14 0h.63v.7q0 .47.2.91t.54.83q.34.38.76.68.43.3.89.51.47.21.92.3l-.34.62a5.7 5.7 0 0 1-1.02-.37 6.3 6.3 0 0 1-.98-.6 5.2 5.2 0 0 1-.83-.79 3.8 3.8 0 0 1-.57-.98 3.1 3.1 0 0 1-.2-1.11zm-3.79 6.52h8.16v.61h-8.16z"/><circle cx="5" cy="313" r="4" fill="#f9f9f9" stroke="#2c91f8" stroke-width="2"/><path fill="#626262" d="M21.164 318v-8.844h1.392v4.188h.036l3.348-4.188h1.572l-2.748 3.42L27.956 318h-1.548l-2.484-4.32-1.368 1.656V318zm7.969 0v-8.844h2.748q.9 0 1.596.216.708.216 1.104.696.408.468.408 1.26 0 .432-.156.816a2.1 2.1 0 0 1-.42.684 1.6 1.6 0 0 1-.684.42v.06q.756.156 1.248.684.492.516.492 1.416 0 .876-.444 1.452-.432.576-1.2.864-.756.276-1.74.276zm1.392-5.148h1.188q1.008 0 1.452-.36.456-.36.456-.972 0-.684-.468-.972-.468-.3-1.404-.3h-1.224zm0 4.056h1.404q1.032 0 1.596-.384.576-.384.576-1.188 0-.744-.564-1.08-.552-.348-1.608-.348h-1.404zm8.886 1.26a4.4 4.4 0 0 1-1.728-.348 4.5 4.5 0 0 1-1.416-.96l.816-.96q.48.468 1.092.756.624.288 1.272.288.792 0 1.212-.348.432-.348.432-.9 0-.408-.18-.648a1.4 1.4 0 0 0-.504-.42 10 10 0 0 0-.72-.348l-1.224-.528a4.7 4.7 0 0 1-.852-.468q-.408-.3-.684-.744-.264-.456-.264-1.104 0-.696.372-1.248a2.5 2.5 0 0 1 1.032-.864q.66-.324 1.5-.324.78 0 1.476.3t1.188.816l-.708.888q-.42-.372-.9-.576a2.5 2.5 0 0 0-1.056-.216q-.684 0-1.08.312a.97.97 0 0 0-.396.816q0 .384.204.636.204.24.528.408.336.156.684.3l1.212.516q.528.216.936.528t.636.756.228 1.104q0 .708-.372 1.296-.372.576-1.068.936-.696.348-1.668.348m8.392 0q-1.176 0-2.112-.54-.924-.54-1.464-1.56-.528-1.02-.528-2.472 0-1.08.312-1.932a4.3 4.3 0 0 1 .876-1.44 3.8 3.8 0 0 1 1.308-.912A4.3 4.3 0 0 1 47.84 309q.936 0 1.572.348.648.348 1.044.768l-.744.888q-.336-.324-.768-.552-.432-.24-1.068-.24-.816 0-1.44.408-.612.408-.96 1.152-.336.744-.336 1.788t.324 1.812q.324.756.948 1.164t1.536.408q.408 0 .768-.108.372-.12.6-.324v-2.064h-1.74v-1.152h3.012v3.828q-.444.444-1.164.744t-1.62.3m6.218-.42h7.56v1.02h-7.56zm0-2.532h1.26v3.096h-1.26zm6.06-7.188h1.2v8.184h-1.2zm-1.572 3.156h1.932v1.032H58.51zm-.768-2.952h1.188v7.608h-1.188zm-5.304.66h1.176v1.728h1.932v-1.728h1.176v5.352h-4.284zm1.176 2.7v1.644h1.932v-1.644zm10.632 1.596h7.608v1.02h-7.608zm-1.213 3.36h9.937v1.032h-9.936zm1.213-7.56h7.511v1.02h-6.263v3.624h-1.248z"/><path fill="#999" d="M22.25 334.94h6.12v.61h-6.12zm0-2.28h.74v2.57h-.74zm5.13-5.9h.71v6.72h-.71zm-1.51 2.65h1.74v.62h-1.74zm-.43-2.48h.71v6.23h-.71zm-4.5.55h.7v1.51h2.06v-1.51h.7v4.3h-3.46zm.7 2.1v1.6h2.06v-1.6zm9.13 1.52h6.15v.61h-6.15zm-1.05 2.8h8.16v.61h-8.16zm1.05-6.3h6.06v.61H31.5v3.16h-.73zM20.9 352v-.69h1.64v-5.6h-1.31v-.53q.48-.08.84-.2a3.6 3.6 0 0 0 .64-.3h.63v6.63h1.49v.69zm5.128-7.27h5.32v.61h-5.32zm2.66 1.11q.64 0 1.12.2.49.2.75.56.27.36.27.86 0 .49-.27.85-.26.36-.75.56-.48.2-1.12.2t-1.13-.2q-.48-.2-.75-.56t-.27-.85q0-.5.27-.86t.75-.56q.49-.2 1.13-.2m0 .58q-.65 0-1.05.28a.89.89 0 0 0-.39.76q0 .46.39.75.4.28 1.05.28.64 0 1.04-.28.4-.29.4-.75a.88.88 0 0 0-.4-.76q-.39-.28-1.04-.28m3.54-2.67h.74v5.63h-.74zm.54 2.51h1.56v.63h-1.56zm-5.62 3.63h5.82v2.87h-.74v-2.26h-5.08zm1.17-6.18h.74v1.36h-.74zm13.53.05h.74v6.68h-.74zm-2.61 1.2h2.89v.6h-2.89zm-2.38 6.98h5.97v.61h-5.97zm0-2.08h.74v2.34h-.74zm-1.12-5.44h.73v4.25h-.73zm0 4.02h.67q.95 0 1.89-.07a20 20 0 0 0 2.02-.26l.08.62q-1.09.2-2.05.27-.96.06-1.94.06h-.67zm3.5-1.75h2.89v.6h-2.89zm11.325-2.34h.77a4 4 0 0 1-.53 2.04q-.52.9-1.49 1.54-.96.64-2.28 1l-.29-.59q1.191-.32 2.04-.85.861-.54 1.32-1.26a2.86 2.86 0 0 0 .46-1.57zm-3.36 0h3.77v.6h-3.77zm6.04-.59h.75v5.09h-.75zm-5.05 5.54h5.8v3.33h-5.8zm5.07.59h-4.34v2.13h4.34zm6.69-4.82h2.75v.61h-2.75zm0 2.09h2.75v.61h-2.75zm-1.67-2.86q.66 0 1.18.27t.82.75.3 1.1q0 .63-.3 1.11t-.82.75-1.18.27-1.19-.27q-.52-.27-.82-.75t-.3-1.11q0-.62.3-1.1t.82-.75q.53-.27 1.19-.27m0 .63q-.46 0-.83.19-.36.19-.57.53a1.5 1.5 0 0 0-.2.77q0 .44.2.78.21.33.57.52.37.19.83.19t.82-.19.57-.52q.21-.34.21-.78a1.44 1.44 0 0 0-.78-1.3 1.7 1.7 0 0 0-.82-.19m4.19-1.18h.74v5.34h-.74zm-2.21 5.56q.93 0 1.59.21.67.2 1.03.58.37.38.37.92t-.37.93q-.36.38-1.03.58-.66.21-1.59.21-.921 0-1.59-.21-.67-.2-1.03-.58-.36-.39-.36-.93t.36-.92 1.03-.58q.669-.21 1.59-.21m0 .59q-.69 0-1.2.14-.51.13-.79.38a.8.8 0 0 0-.27.6q0 .34.27.6.28.25.79.38.51.14 1.2.14.699 0 1.2-.14.51-.13.78-.38a.8.8 0 0 0 .28-.6.78.78 0 0 0-.28-.6q-.27-.25-.78-.38a4.5 4.5 0 0 0-1.2-.14m8.459-1.53h.73v1.46h-.73zm-3.7-.32h8.14v.61h-8.14zm4.07 1.49q1.44 0 2.25.42.82.41.82 1.18t-.82 1.18q-.81.42-2.25.42t-2.26-.42q-.82-.41-.82-1.18t.82-1.18q.82-.42 2.26-.42m0 .58q-.72 0-1.25.13-.52.12-.8.35-.28.22-.28.54t.28.55.8.35q.53.12 1.25.12t1.24-.12q.53-.12.81-.35t.28-.55-.28-.54q-.28-.23-.81-.35a5.2 5.2 0 0 0-1.24-.13m0-6.18q.97 0 1.67.2.71.2 1.09.58.39.38.39.91t-.39.91q-.38.38-1.09.58-.7.2-1.67.2t-1.68-.2q-.7-.2-1.09-.58a1.24 1.24 0 0 1-.38-.91q0-.53.38-.91.39-.38 1.09-.58.71-.2 1.68-.2m0 .59q-.73 0-1.27.13t-.83.38a.74.74 0 0 0-.29.59q0 .35.29.6.29.24.83.37t1.27.13 1.27-.13.83-.37a.77.77 0 0 0 .29-.6.74.74 0 0 0-.29-.59q-.29-.25-.83-.38a5.5 5.5 0 0 0-1.27-.13m9.906 3.72h.75v2.08h-.75zm.38-3.9q.7 0 1.24.26t.85.74q.31.47.31 1.1 0 .62-.31 1.1-.31.47-.85.73a2.8 2.8 0 0 1-1.24.26q-.7 0-1.25-.26a2.07 2.07 0 0 1-.85-.73q-.3-.48-.3-1.1a2 2 0 0 1 .3-1.1q.31-.48.85-.74.55-.26 1.25-.26m0 .64q-.49 0-.87.19-.37.18-.59.51-.22.32-.22.76 0 .42.22.76.22.33.59.52.38.18.87.18t.86-.18q.38-.19.59-.52.22-.34.22-.76 0-.44-.22-.76-.21-.33-.59-.51a1.85 1.85 0 0 0-.86-.19m3.64-1.24h.74v9.02h-.74zm-6.41 7.03-.1-.62q.83 0 1.82-.01.99-.02 2.04-.08 1.06-.07 2.05-.22l.06.54q-1.02.19-2.07.28-1.041.08-2.01.1-.97.01-1.79.01M90.763 352v-5.08q0-.26.02-.64t.04-.65h-.05q-.13.25-.28.52l-.3.54-1.77 2.62h4.11v.65h-4.98v-.53l3.11-4.75h.87V352zm6.889-6.76h2.65v.61h-2.65zm0 1.78h2.67v.61h-2.67zm2.36-3.27h.74v5.34h-.74zm-6.22.69h4.08v3.98h-4.08zm3.36.6h-2.64v2.78h2.64zm.65 4.32q1.389 0 2.19.45.8.44.8 1.24t-.8 1.24q-.801.45-2.19.45-1.38 0-2.18-.45-.8-.44-.8-1.24t.8-1.24q.8-.45 2.18-.45m0 .59q-.69 0-1.2.13-.501.13-.78.38a.78.78 0 0 0 0 1.18q.279.24.78.37.51.14 1.2.14.699 0 1.2-.14.5-.13.77-.37a.77.77 0 0 0 .28-.59.77.77 0 0 0-.28-.59q-.27-.25-.77-.38a4.8 4.8 0 0 0-1.2-.13"/><circle cx="5" cy="381" r="4" fill="#f9f9f9" stroke="#2c91f8" stroke-width="2"/><path fill="#626262" d="M20.696 377.132h6.072v1.008h-6.072zm-.144 7.236-.144-1.044q.972 0 2.124-.012a81 81 0 0 0 2.352-.084q1.2-.06 2.316-.204l.06.924a26 26 0 0 1-2.316.288q-1.188.084-2.316.108t-2.076.024m1.212-6.456h1.224v5.7h-1.224zm2.712 0H25.7v5.7h-1.224zm3.312-1.884h1.26v10.968h-1.26zm.984 4.272h1.98v1.044h-1.98zm10.583-4.284h1.26v10.992h-1.26zm-4.572.804q.816 0 1.452.48.648.48 1.008 1.344t.36 2.04q0 1.188-.36 2.064-.36.864-1.008 1.344a2.4 2.4 0 0 1-1.452.468 2.44 2.44 0 0 1-1.464-.468q-.636-.48-1.008-1.344-.36-.876-.36-2.064 0-1.176.36-2.04.372-.864 1.008-1.344.648-.48 1.464-.48m0 1.14q-.48 0-.852.324-.36.324-.564.936t-.204 1.464q0 .864.204 1.476t.564.948q.372.324.852.324t.84-.324q.36-.336.564-.948t.204-1.476q0-.852-.204-1.464t-.564-.936a1.22 1.22 0 0 0-.84-.324m7.847 6.612h9.936v1.032H42.63zm1.116-7.8h1.248v1.92h5.184v-1.92h1.248v5.784h-7.68zm1.248 2.916v1.848h5.184v-1.848zm18.606-3.672h1.26v10.968H63.6zm.937 4.332h1.98v1.044h-1.98zm-3.769-3.168h1.224q0 1.596-.491 3.048-.48 1.44-1.572 2.652-1.08 1.212-2.88 2.112l-.697-.96q1.489-.768 2.46-1.752a6.4 6.4 0 0 0 1.465-2.208q.492-1.224.492-2.688zm-3.864 0h4.512v1.02h-4.511zm18.264-1.164h1.26v10.992h-1.26zm-4.572.804q.816 0 1.452.48.648.48 1.008 1.344t.36 2.04q0 1.188-.36 2.064-.36.864-1.008 1.344a2.4 2.4 0 0 1-1.452.468 2.44 2.44 0 0 1-1.464-.468q-.636-.48-1.008-1.344-.36-.876-.36-2.064 0-1.176.36-2.04.372-.864 1.008-1.344.648-.48 1.464-.48m0 1.14q-.48 0-.852.324-.36.324-.564.936t-.204 1.464q0 .864.204 1.476t.564.948q.372.324.852.324t.84-.324q.36-.336.564-.948t.204-1.476q0-.852-.204-1.464t-.564-.936a1.22 1.22 0 0 0-.84-.324m7.847 6.612h9.936v1.032h-9.936zm4.296-7.056h1.068v.78q0 .684-.228 1.296a4 4 0 0 1-.624 1.14 5 5 0 0 1-.96.948 6.5 6.5 0 0 1-1.224.708q-.66.288-1.38.432l-.516-1.02a5 5 0 0 0 1.224-.336 5.6 5.6 0 0 0 1.056-.576 4.2 4.2 0 0 0 .84-.744 3.1 3.1 0 0 0 .552-.876q.192-.468.192-.972zm.252 0h1.068v.78q0 .504.192.972.192.456.552.864t.84.744q.492.324 1.08.564.6.228 1.248.324l-.504.996a6.4 6.4 0 0 1-2.652-1.116 5 5 0 0 1-.96-.924 4.1 4.1 0 0 1-.636-1.128 3.7 3.7 0 0 1-.228-1.296zm-3.732-.48h8.28v1.02h-8.28z"/><path fill="#999" d="M22.25 402.94h6.12v.61h-6.12zm0-2.28h.74v2.57h-.74zm5.13-5.9h.71v6.72h-.71zm-1.51 2.65h1.74v.62h-1.74zm-.43-2.48h.71v6.23h-.71zm-4.5.55h.7v1.51h2.06v-1.51h.7v4.3h-3.46zm.7 2.1v1.6h2.06v-1.6zm9.13 1.52h6.15v.61h-6.15zm-1.05 2.8h8.16v.61h-8.16zm1.05-6.3h6.06v.61H31.5v3.16h-.73zM20.45 420v-.48q1.17-1.03 1.92-1.87.75-.85 1.1-1.57.36-.73.36-1.36 0-.43-.15-.77a1.15 1.15 0 0 0-.46-.53q-.31-.2-.78-.2-.46 0-.85.25-.39.24-.7.61l-.49-.46q.44-.48.94-.77.51-.3 1.19-.3.66 0 1.12.27.47.26.72.74.26.48.26 1.13 0 .74-.37 1.5-.36.75-1.02 1.54t-1.56 1.63l.6-.04q.32-.02.6-.02h2.11v.7zm5.578-7.27h5.32v.61h-5.32zm2.66 1.11q.64 0 1.12.2.49.2.75.56.27.36.27.86 0 .49-.27.85-.26.36-.75.56-.48.2-1.12.2t-1.13-.2q-.48-.2-.75-.56t-.27-.85q0-.5.27-.86t.75-.56q.49-.2 1.13-.2m0 .58q-.65 0-1.05.28a.89.89 0 0 0-.39.76q0 .46.39.75.4.28 1.05.28.64 0 1.04-.28.4-.29.4-.75a.88.88 0 0 0-.4-.76q-.39-.28-1.04-.28m3.54-2.67h.74v5.63h-.74zm.54 2.51h1.56v.63h-1.56zm-5.62 3.63h5.82v2.87h-.74v-2.26h-5.08zm1.17-6.18h.74v1.36h-.74zm13.53.05h.74v6.68h-.74zm-2.61 1.2h2.89v.6h-2.89zm-2.38 6.98h5.97v.61h-5.97zm0-2.08h.74v2.34h-.74zm-1.12-5.44h.73v4.25h-.73zm0 4.02h.67q.95 0 1.89-.07a20 20 0 0 0 2.02-.26l.08.62q-1.09.2-2.05.27-.96.06-1.94.06h-.67zm3.5-1.75h2.89v.6h-2.89zm13.995-2.94h.74v9.02h-.74zm-3.99.71q.67 0 1.18.38t.8 1.09q.29.7.29 1.65 0 .96-.29 1.66t-.8 1.09q-.51.38-1.18.38-.66 0-1.18-.38-.51-.39-.8-1.09t-.29-1.66q0-.95.29-1.65.29-.71.8-1.09.52-.38 1.18-.38m0 .66q-.459 0-.81.31-.35.3-.55.86-.2.55-.2 1.29t.2 1.3.55.87.81.31.81-.31.55-.87.2-1.3-.2-1.29q-.2-.56-.55-.86a1.18 1.18 0 0 0-.81-.31m13.23-1.36h.74v6.66h-.74zm-2.02 2.8h2.17v.62h-2.17zm-.75-2.11h.78q0 1.15-.53 2.11a5.2 5.2 0 0 1-1.46 1.66q-.93.71-2.2 1.14l-.32-.6a7.5 7.5 0 0 0 1.95-.96q.84-.6 1.31-1.37.47-.78.47-1.69zm-3.29 0h3.77v.62h-3.77zm1.15 7.49h5.88v.61h-5.88zm0-2.2h.74v2.49h-.74zm14.029-5.99h.74v9.01h-.74zm-6.4 7.2-.11-.63 1.86-.02a55 55 0 0 0 2.04-.06q1.05-.06 2.02-.19l.05.55q-1.011.17-2.04.24t-2.01.09q-.97.02-1.81.02m.08-5.96h5.48v.6h-5.48zm2.74 1.13q.64 0 1.12.21.48.2.75.58t.27.89-.27.89-.75.59-1.12.21q-.621 0-1.11-.21-.48-.21-.75-.59t-.27-.89.27-.89.75-.58q.489-.21 1.11-.21m0 .58q-.42 0-.75.14-.32.14-.5.39-.18.24-.18.57t.18.58.5.39q.33.14.75.14.429 0 .75-.14.32-.14.5-.39a.93.93 0 0 0 .19-.58.9.9 0 0 0-.19-.57 1.2 1.2 0 0 0-.5-.39 1.9 1.9 0 0 0-.75-.14m-.37-2.85h.74v1.52h-.74zm11.356 4.4h.75v2.08h-.75zm.38-3.9q.7 0 1.24.26t.85.74q.31.47.31 1.1 0 .62-.31 1.1-.31.47-.85.73a2.8 2.8 0 0 1-1.24.26q-.7 0-1.25-.26a2.07 2.07 0 0 1-.85-.73q-.3-.48-.3-1.1a2 2 0 0 1 .3-1.1q.31-.48.85-.74.55-.26 1.25-.26m0 .64q-.49 0-.87.19-.37.18-.59.51-.22.32-.22.76 0 .42.22.76.22.33.59.52.38.18.87.18t.86-.18q.38-.19.59-.52.22-.34.22-.76 0-.44-.22-.76-.21-.33-.59-.51a1.85 1.85 0 0 0-.86-.19m3.64-1.24h.74v9.02h-.74zm-6.41 7.03-.1-.62q.83 0 1.82-.01.99-.02 2.04-.08 1.06-.07 2.05-.22l.06.54q-1.02.19-2.07.28-1.041.08-2.01.1-.97.01-1.79.01m11.119 1.35q-.57 0-1-.14a2.9 2.9 0 0 1-.75-.36 3.6 3.6 0 0 1-.56-.47l.41-.54q.21.22.47.41.26.18.59.3.34.12.77.12.44 0 .8-.22.37-.22.59-.62.22-.41.22-.95 0-.82-.43-1.28t-1.14-.46q-.37 0-.65.12-.27.11-.59.32l-.45-.28.23-3.4h3.5v.7h-2.78l-.2 2.22q.25-.14.52-.22.28-.09.62-.09.609 0 1.11.25.5.25.79.77.3.51.3 1.32 0 .8-.35 1.36-.34.56-.88.85-.531.29-1.14.29m9.925-6.89h2.65v.61h-2.65zm0 1.78h2.67v.61h-2.67zm2.36-3.27h.74v5.34h-.74zm-6.22.69h4.08v3.98h-4.08zm3.36.6h-2.64v2.78h2.64zm.65 4.32q1.389 0 2.19.45.8.44.8 1.24t-.8 1.24q-.801.45-2.19.45-1.38 0-2.18-.45-.8-.44-.8-1.24t.8-1.24q.8-.45 2.18-.45m0 .59q-.69 0-1.2.13-.501.13-.78.38a.78.78 0 0 0 0 1.18q.279.24.78.37.51.14 1.2.14.699 0 1.2-.14.5-.13.77-.37a.77.77 0 0 0 .28-.59.77.77 0 0 0-.28-.59q-.27-.25-.77-.38a4.8 4.8 0 0 0-1.2-.13"/><circle cx="5" cy="449" r="4" fill="#f9f9f9" stroke="#2c91f8" stroke-width="2"/><path fill="#626262" d="M21.164 454v-8.844h2.748q.9 0 1.596.216.708.216 1.104.696.408.468.408 1.26 0 .432-.156.816a2.1 2.1 0 0 1-.42.684 1.6 1.6 0 0 1-.684.42v.06q.756.156 1.248.684.492.516.492 1.416 0 .876-.444 1.452-.432.576-1.2.864-.756.276-1.74.276zm1.392-5.148h1.188q1.008 0 1.452-.36.456-.36.456-.972 0-.684-.468-.972-.468-.3-1.404-.3h-1.224zm0 4.056h1.404q1.032 0 1.596-.384.576-.384.576-1.188 0-.744-.564-1.08-.552-.348-1.608-.348h-1.404zM29.048 454v-6.612h1.128l.12 1.188h.024q.36-.636.852-.984.492-.36 1.032-.36.24 0 .408.036t.324.096l-.24 1.212a2 2 0 0 0-.324-.084 2 2 0 0 0-.348-.024q-.396 0-.84.324-.444.312-.756 1.104V454zm6.083.168q-.564 0-1.008-.24a1.8 1.8 0 0 1-.684-.672 1.96 1.96 0 0 1-.252-1.008q0-1.068.936-1.644.948-.588 3.012-.816a2.5 2.5 0 0 0-.12-.708 1 1 0 0 0-.384-.516q-.264-.204-.756-.204-.516 0-.996.204t-.912.468l-.516-.936a7 7 0 0 1 .768-.408q.42-.204.9-.324a3.7 3.7 0 0 1 .996-.132q.828 0 1.356.336.528.324.78.948.264.624.264 1.512V454h-1.128l-.108-.756h-.048q-.444.384-.972.66a2.5 2.5 0 0 1-1.128.264m.42-1.104q.432 0 .804-.192.372-.204.78-.588v-1.608q-.972.108-1.548.324-.576.204-.828.492-.24.276-.24.648 0 .492.3.708t.732.216m6.363.936-2.316-6.612h1.404l1.128 3.564q.144.48.288.984l.288.984h.048a46 46 0 0 0 .576-1.968l1.128-3.564h1.344L43.534 454zm7.742.168q-.9 0-1.632-.408a3.1 3.1 0 0 1-1.164-1.188q-.432-.78-.432-1.872 0-.804.252-1.44.252-.648.684-1.092.432-.456.972-.696t1.104-.24q.876 0 1.476.396.6.384.912 1.092.312.696.312 1.632 0 .204-.024.396-.012.18-.048.312h-4.284q.06.624.324 1.08.276.444.708.696.444.24 1.008.24.444 0 .828-.132t.744-.36l.48.876q-.456.3-1.02.504a3.4 3.4 0 0 1-1.2.204m-1.884-4.068h3.168q0-.84-.384-1.308-.372-.468-1.092-.468-.408 0-.768.204t-.612.6q-.24.396-.312.972m8.736 3.9v-8.844h2.748q.9 0 1.596.216.708.216 1.104.696.408.468.408 1.26 0 .432-.156.816a2.1 2.1 0 0 1-.42.684 1.6 1.6 0 0 1-.684.42v.06q.756.156 1.248.684.492.516.492 1.416 0 .876-.444 1.452-.432.576-1.2.864-.756.276-1.74.276zm1.392-5.148h1.188q1.008 0 1.452-.36.456-.36.456-.972 0-.684-.468-.972-.468-.3-1.404-.3H57.9zm0 4.056h1.404q1.032 0 1.596-.384.576-.384.576-1.188 0-.744-.564-1.08-.552-.348-1.608-.348H57.9zm9.144 1.26a3.07 3.07 0 0 1-1.536-.408 3.2 3.2 0 0 1-1.152-1.188q-.432-.78-.432-1.872 0-1.104.432-1.872.444-.78 1.152-1.188.72-.408 1.536-.408.6 0 1.164.24.564.228.996.672t.684 1.092q.252.636.252 1.464 0 1.092-.444 1.872a3.13 3.13 0 0 1-1.14 1.188 2.94 2.94 0 0 1-1.512.408m0-1.152q.516 0 .888-.288.384-.288.588-.804.204-.528.204-1.224t-.204-1.212q-.204-.528-.588-.816a1.37 1.37 0 0 0-.888-.3q-.528 0-.912.3-.372.288-.576.816-.204.516-.204 1.212t.204 1.224q.204.516.576.804.384.288.912.288m4.925 3.744q-.264 0-.468-.036a3 3 0 0 1-.372-.096l.264-1.08.228.06a1 1 0 0 0 .264.036q.54 0 .864-.36.324-.348.504-.876l.144-.456-2.616-6.564h1.404l1.212 3.408q.156.444.3.924l.312.936h.06q.12-.456.252-.936t.264-.924l1.068-3.408h1.332l-2.424 7.008a5.7 5.7 0 0 1-.6 1.236 2.45 2.45 0 0 1-.816.828q-.48.3-1.176.3m8.004-2.592q-.672 0-1.344-.264a4.3 4.3 0 0 1-1.14-.66l.66-.9q.432.348.876.564.456.204.984.204.588 0 .864-.252a.83.83 0 0 0 .288-.636q0-.3-.216-.504a1.7 1.7 0 0 0-.54-.348 9 9 0 0 0-.696-.288 8 8 0 0 1-.876-.396q-.42-.24-.696-.6-.276-.372-.276-.924 0-.564.276-.996.288-.432.816-.684t1.26-.252q.66 0 1.2.228.552.228.936.552l-.636.852a3.8 3.8 0 0 0-.708-.408 1.8 1.8 0 0 0-.756-.168q-.552 0-.816.24a.73.73 0 0 0-.264.576q0 .276.192.456t.504.312l.684.276q.348.12.684.288.348.156.624.384.276.216.444.54.18.312.18.78 0 .552-.288 1.02t-.84.744q-.552.264-1.38.264"/><path fill="#999" d="M21.53 466.88h6.21v.61h-6.21zm-1.01 3.08h8.16v.61h-8.16zm3.69-2.7h.74v2.9h-.74zm-2.68-3.73h.74v3.62h-.74zm8.49 5.43h.59a26 26 0 0 0 1.62-.05q.79-.05 1.72-.21l.07.62q-.95.17-1.76.22-.81.04-1.65.04h-.59zm-.02-5.21h3.36v3.11h-2.62v2.33h-.72v-2.95h2.63v-1.88H30zm6.63-1h.71v9.01h-.71zm-1.58 3.58h1.77v.62h-1.77zm-.47-3.37h.69v8.33h-.69zm6.155 9.82 3.09-9.7h.6l-3.08 9.7zm6.963-5.65h.57q.65 0 1.19-.02.55-.02 1.06-.08t1.05-.18l.07.62q-.561.11-1.08.17-.52.06-1.07.08t-1.22.02h-.57zm0-3.49h3.4v.6h-2.67v3.06h-.73zm6.45-.88h.71v6.69h-.71zm-1.52 2.6h1.75v.61h-1.75zm-.48-2.43h.7v6.23h-.7zm-3.13 8.01h6.12v.61h-6.12zm0-2.29h.74v2.59h-.74zm11.119-5.26h.65v.7q0 .59-.21 1.11t-.57.97-.83.8a5.7 5.7 0 0 1-.98.6q-.51.24-1.02.37l-.33-.62q.45-.1.91-.3.47-.21.89-.51.43-.31.76-.69.34-.38.53-.82.2-.44.2-.91zm.14 0h.63v.7q0 .47.2.91t.54.83q.34.38.76.68.43.3.89.51.47.21.92.3l-.34.62a5.7 5.7 0 0 1-1.02-.37 6.3 6.3 0 0 1-.98-.6 5.2 5.2 0 0 1-.83-.79 3.8 3.8 0 0 1-.57-.98 3.1 3.1 0 0 1-.2-1.11zm-3.79 6.52h8.16v.61h-8.16zM20.45 488v-.48q1.17-1.03 1.92-1.87.75-.85 1.1-1.57.36-.73.36-1.36 0-.43-.15-.77a1.15 1.15 0 0 0-.46-.53q-.31-.2-.78-.2-.46 0-.85.25-.39.24-.7.61l-.49-.46q.44-.48.94-.77.51-.3 1.19-.3.66 0 1.12.27.47.26.72.74.26.48.26 1.13 0 .74-.37 1.5-.36.75-1.02 1.54t-1.56 1.63l.6-.04q.32-.02.6-.02h2.11v.7zm5.578-7.27h5.32v.61h-5.32zm2.66 1.11q.64 0 1.12.2.49.2.75.56.27.36.27.86 0 .49-.27.85-.26.36-.75.56-.48.2-1.12.2t-1.13-.2q-.48-.2-.75-.56t-.27-.85q0-.5.27-.86t.75-.56q.49-.2 1.13-.2m0 .58q-.65 0-1.05.28a.89.89 0 0 0-.39.76q0 .46.39.75.4.28 1.05.28.64 0 1.04-.28.4-.29.4-.75a.88.88 0 0 0-.4-.76q-.39-.28-1.04-.28m3.54-2.67h.74v5.63h-.74zm.54 2.51h1.56v.63h-1.56zm-5.62 3.63h5.82v2.87h-.74v-2.26h-5.08zm1.17-6.18h.74v1.36h-.74zm13.53.05h.74v6.68h-.74zm-2.61 1.2h2.89v.6h-2.89zm-2.38 6.98h5.97v.61h-5.97zm0-2.08h.74v2.34h-.74zm-1.12-5.44h.73v4.25h-.73zm0 4.02h.67q.95 0 1.89-.07a20 20 0 0 0 2.02-.26l.08.62q-1.09.2-2.05.27-.96.06-1.94.06h-.67zm3.5-1.75h2.89v.6h-2.89zm11.085.21h.73v1.69h-.73zm0-3.01h.63v.43q0 .48-.2.9a2.6 2.6 0 0 1-.54.77q-.35.35-.8.63-.45.27-.96.46-.51.18-1.04.27l-.28-.59q.46-.07.91-.22.46-.15.86-.37.41-.23.73-.52t.5-.62q.19-.34.19-.71zm.11 0h.63v.43q0 .37.18.71.19.33.5.62.32.28.73.51t.86.38q.46.15.92.22l-.28.59q-.52-.09-1.03-.27a6 6 0 0 1-.97-.46 4.5 4.5 0 0 1-.8-.63 2.8 2.8 0 0 1-.55-.77q-.19-.42-.19-.9zm-3.81 4.36h8.14v.6h-8.14zm4.07 1.39q1.44 0 2.25.41.82.4.82 1.14t-.82 1.14q-.81.41-2.25.41-1.45 0-2.27-.41-.81-.4-.81-1.14t.81-1.14q.82-.41 2.27-.41m0 .58q-1.089 0-1.71.25-.62.25-.62.72 0 .46.62.72.621.25 1.71.25 1.09 0 1.71-.25.62-.26.62-.72 0-.47-.62-.72t-1.71-.25m8.74-5.64h.65v.28q0 .58-.29 1.06a3 3 0 0 1-.78.85q-.49.36-1.11.6a6.2 6.2 0 0 1-1.28.35l-.28-.6q.46-.06.91-.2.45-.15.84-.35.39-.21.69-.47.3-.27.47-.58.18-.31.18-.66zm.29 0h.64v.28q0 .34.17.65.18.31.48.58t.69.48q.39.2.84.35.45.14.91.2l-.28.6a6.5 6.5 0 0 1-1.28-.35 4.6 4.6 0 0 1-1.11-.61 3.2 3.2 0 0 1-.77-.84 2 2 0 0 1-.29-1.06zm-3.15-.37h6.66v.61h-6.66zm-.75 4.2h8.16v.61h-8.16zm3.76.38h.74v2.1h-.74zm-2.71 3.15h6.2v.61h-6.2zm0-1.94h.74v2.17h-.74zm12.279-5.07h2.75v.61h-2.75zm0 2.05h2.75v.6h-2.75zm-1.67-2.81q.66 0 1.18.27.52.26.82.73t.3 1.08-.3 1.09a2.1 2.1 0 0 1-.82.74q-.52.26-1.18.26a2.6 2.6 0 0 1-1.19-.26 2.1 2.1 0 0 1-.82-.74q-.3-.48-.3-1.09a1.96 1.96 0 0 1 1.12-1.81q.52-.27 1.19-.27m0 .62q-.46 0-.83.19-.36.19-.57.52-.2.33-.2.75t.2.76q.21.33.57.52.37.18.83.18t.82-.18q.36-.19.57-.52.21-.34.21-.76t-.21-.75-.57-.52a1.7 1.7 0 0 0-.82-.19m4.19-1.04h.74v4.83h-.74zm-4.99 5.29h.74v1.18h4.25v-1.18h.74v3.6h-5.73zm.74 1.78v1.21h4.25v-1.21zm7.019 3.04-.2-.49q.45-.21.71-.57.26-.35.26-.82l-.11-.78.43.63a.54.54 0 0 1-.21.16.7.7 0 0 1-.23.04.66.66 0 0 1-.44-.16.56.56 0 0 1-.18-.44q0-.28.19-.44a.68.68 0 0 1 .45-.16q.33 0 .52.27.2.27.2.73 0 .7-.38 1.22a2.35 2.35 0 0 1-1.01.81m8.632-9.51h.77a4 4 0 0 1-.53 2.04q-.52.9-1.49 1.54-.96.64-2.28 1l-.29-.59q1.19-.32 2.04-.85.86-.54 1.32-1.26t.46-1.57zm-3.36 0h3.77v.6h-3.77zm6.04-.59h.75v5.09h-.75zm-5.05 5.54h5.8v3.33h-5.8zm5.07.59h-4.34v2.13h4.34zm6.63-5.9q.95 0 1.65.22.71.21 1.1.61t.39.96q0 .55-.39.95t-1.1.62q-.7.21-1.65.21t-1.66-.21q-.7-.22-1.09-.62a1.3 1.3 0 0 1-.39-.95q0-.56.39-.96t1.09-.61q.71-.22 1.66-.22m0 .61q-.7 0-1.24.15-.53.14-.83.41a.8.8 0 0 0-.29.62q0 .36.29.63.3.26.83.4.54.14 1.24.14.71 0 1.24-.14t.82-.4q.3-.27.3-.63t-.3-.62q-.29-.27-.82-.41-.53-.15-1.24-.15m-4.06 3.69h8.14v.61h-8.14zm1 3.65h6.29v.61h-6.29zm0-1.89h.74v2.18h-.74zm1.85-1.49h.73v2.25h-.73zm2.44 0h.74v2.25h-.74zm10.548-4.8h.74v6.66h-.74zm-2.02 2.8h2.17v.62h-2.17zm-.75-2.11h.78q0 1.15-.53 2.11a5.2 5.2 0 0 1-1.46 1.66q-.93.71-2.2 1.14l-.32-.6a7.5 7.5 0 0 0 1.95-.96q.84-.6 1.31-1.37.47-.78.47-1.69zm-3.29 0h3.77v.62h-3.77zm1.15 7.49h5.88v.61h-5.88zm0-2.2h.74v2.49h-.74z"/><circle cx="5" cy="517" r="4" fill="#f9f9f9" stroke="#2c91f8" stroke-width="2"/><path fill="#626262" d="M23.348 512.928h1.032v1.8q0 .996-.216 1.92a7.3 7.3 0 0 1-.636 1.728 5.9 5.9 0 0 1-.996 1.416 4.5 4.5 0 0 1-1.32.972l-.756-1.032q.66-.3 1.188-.816a5.2 5.2 0 0 0 .912-1.2q.384-.672.588-1.44a6 6 0 0 0 .204-1.548zm.228 0h1.032v1.8q0 .756.192 1.488.204.732.576 1.38t.9 1.14 1.164.792l-.732 1.008a4.6 4.6 0 0 1-1.308-.936 5.8 5.8 0 0 1-.984-1.356 7 7 0 0 1-.624-1.668 8 8 0 0 1-.216-1.848zm4.74-.912h1.26v10.992h-1.26zm4.427 1.056h6.936v1.02h-6.936zm-1.152 7.464h9.912v1.032h-9.912zm7.56-7.464h1.236v1.308q0 .804-.024 1.608a24 24 0 0 1-.12 1.728 19 19 0 0 1-.348 2.076l-1.248-.108q.252-1.08.348-1.98.108-.912.132-1.728t.024-1.596zm.276 3.012v.936l-6.816.36-.168-1.032zm10.98-4.056h1.26v7.452h-1.26zm-7.213 5.268h.912q1.092 0 1.956-.024.876-.036 1.644-.108.78-.084 1.584-.216l.132 1.008q-.828.144-1.632.228a34 34 0 0 1-1.68.108q-.888.024-2.004.024h-.912zm-.024-4.584h5.016v3.228H44.43v1.812h-1.236v-2.76h3.756v-1.272h-3.78zm4.224 6.204h1.068v.264q0 .744-.312 1.368t-.876 1.116q-.552.492-1.32.816a6.8 6.8 0 0 1-1.668.48l-.468-.984a6.3 6.3 0 0 0 1.452-.36q.66-.264 1.128-.636a2.7 2.7 0 0 0 .732-.828q.264-.468.264-.972zm.228 0h1.08v.264q0 .504.252.972.252.456.72.828.48.36 1.128.624.66.264 1.464.372l-.468.984a6.8 6.8 0 0 1-1.68-.48 5.4 5.4 0 0 1-1.32-.816 3.6 3.6 0 0 1-.876-1.116q-.3-.624-.3-1.368zm9.895-5.892h6.935v1.02h-6.935zm-1.153 7.548h9.913v1.032h-9.913zm7.585-7.548h1.236v1.008q0 .66-.025 1.416-.01.756-.108 1.668-.096.912-.336 2.076l-1.247-.144q.36-1.62.42-2.832.06-1.224.06-2.184zm.24 2.628v.96l-6.816.372-.168-1.08zm-4.128 2.184h1.26v3.108h-1.26zm15.19-5.82h1.26v10.992h-1.26zm-3.18 3.528h3.577v1.02h-3.576zm-4.091-2.316h1.248v6.804H67.98zm0 6.108h.888q.816 0 1.62-.036a23 23 0 0 0 1.62-.132 21 21 0 0 0 1.656-.264l.144 1.032q-.876.168-1.716.276-.828.096-1.656.144-.828.036-1.668.036h-.888z"/><path fill="#999" d="M27.12 530.75h.74v9.02h-.74zm-3.99.71q.67 0 1.18.38t.8 1.09q.29.7.29 1.65 0 .96-.29 1.66t-.8 1.09q-.51.38-1.18.38-.66 0-1.18-.38-.51-.39-.8-1.09t-.29-1.66q0-.95.29-1.65.29-.71.8-1.09.52-.38 1.18-.38m0 .66q-.46 0-.81.31-.35.3-.55.86-.2.55-.2 1.29t.2 1.3.55.87.81.31.81-.31.55-.87.2-1.3-.2-1.29q-.2-.56-.55-.86a1.18 1.18 0 0 0-.81-.31m13.45-1.37h.71v6.84h-.71zm-3.2 2.63h1.75v.62h-1.75zm1.5-2.44h.71v6.39h-.71zm-4.74.54h.7v1.54h2.06v-1.54h.7v4.39h-3.46zm.7 2.13v1.65h2.06v-1.65zm.61 5.33h6.12v.61h-6.12zm0-2.27h.74v2.59h-.74zm8.528-1.03h6.16v.61h-6.16zm-1.06 2.32h8.16v.62h-8.16zm1.06-6.41h6.06v.6h-5.31v3.68h-.75zm.51 2.01h5.36v.6h-5.36z"/><circle cx="5" cy="568" r="4" fill="#f9f9f9" stroke="#2c91f8" stroke-width="2"/><path fill="#626262" d="M20.564 568.32h9.912v1.008h-9.912zm4.32-1.716h1.248v2.112h-1.248zm-3.096-.396h7.536v1.008h-7.536zm0-2.7h7.476v.996h-6.228v2.328h-1.248zM25.484 570q1.776 0 2.772.528 1.008.516 1.008 1.464 0 .96-1.008 1.476-.996.516-2.772.516-1.752 0-2.76-.516t-1.008-1.476q0-.948 1.008-1.464 1.008-.528 2.76-.528m0 .972q-.792 0-1.356.12t-.864.348a.66.66 0 0 0-.288.552q0 .336.288.576.3.228.864.348.564.108 1.356.108.816 0 1.368-.108.564-.12.852-.348.288-.24.288-.576a.66.66 0 0 0-.288-.552q-.288-.228-.852-.348-.552-.12-1.368-.12m6.095-2.424h9.936v1.008H31.58zm4.44.624h1.26v2.436h-1.26zm-3.18-5.664h7.404v3.96H32.84zm6.156.996h-4.932v1.968h4.932zm-6.204 8.244h7.62v1.02h-7.62zm0-2.136h1.26v2.484h-1.26zm17.442-.708q1.176 0 2.04.252.864.24 1.332.696.48.456.48 1.092t-.48 1.092q-.468.456-1.332.696t-2.04.24-2.04-.24-1.344-.696a1.47 1.47 0 0 1-.468-1.092q0-.636.468-1.092.48-.456 1.344-.696.864-.252 2.04-.252m0 .96q-.804 0-1.392.12-.576.12-.888.372-.312.24-.312.588 0 .336.312.576t.888.372q.588.132 1.392.132.816 0 1.392-.132t.888-.372q.324-.24.324-.576 0-.348-.324-.588-.312-.252-.888-.372a7 7 0 0 0-1.392-.12m-3.756-7.32h7.008v1.008h-7.008zm-1.14 4.488h9.888v1.008h-9.888zm3.888-2.016h1.248v2.292h-1.248zm3.528-2.472h1.248v.924q0 .66-.036 1.368-.036.696-.264 1.548l-1.236-.132a8 8 0 0 0 .252-1.5q.036-.648.036-1.284zm8.627 1.104h3.276v1.02H61.38zm0 2.652h3.276v1.02H61.38zm2.809-4.272h1.26v8.064h-1.26zm-5.844 9.72h7.392v1.02h-7.392zm0-2.46h1.26v2.952h-1.26zm1.02-6.588q.816 0 1.463.36t1.02.984.373 1.44-.372 1.452a2.7 2.7 0 0 1-1.02.984q-.648.348-1.465.348a3 3 0 0 1-1.451-.348 2.7 2.7 0 0 1-1.02-.984 2.8 2.8 0 0 1-.373-1.452q0-.816.372-1.44a2.7 2.7 0 0 1 1.02-.984q.648-.36 1.453-.36m0 1.116q-.469 0-.84.216a1.6 1.6 0 0 0-.6.576q-.216.372-.216.876t.215.888q.229.384.6.6.372.204.852.204.47 0 .84-.204a1.57 1.57 0 0 0 .588-.6 1.8 1.8 0 0 0 .216-.888q0-.504-.216-.876a1.5 1.5 0 0 0-.587-.576 1.67 1.67 0 0 0-.852-.216"/><path fill="#999" d="M27.38 581.76h.71v4.98h-.71zm-1.5 2.15h1.75v.61h-1.75zm-.5-1.99h.7v4.73h-.7zm-3.16 5.24h.74v1.08h4.41v-1.08h.72v3.48h-5.87zm.74 1.67v1.19h4.41v-1.19zm-2.02-3h.57q.64 0 1.18-.02.55-.02 1.07-.08.53-.06 1.09-.18l.08.61q-.58.11-1.12.17-.53.06-1.09.09-.56.02-1.21.02h-.57zm-.03-3.53h3.39v2.28h-2.65v1.7h-.71v-2.27h2.64v-1.11h-2.67zm6.47 16.46h.71v5.35h-.71zm-1.52 2.33h1.75v.62h-1.75zm-.42-2.16h.71v5.12h-.71zm-3.36 5.7h6.01v3.13h-.74v-2.52h-5.27zm-1.14-5.1h3.45v3.88h-3.45zm2.76.58h-2.07v2.71h2.07zm12.93-1.36h.71v9.01h-.71zm-1.58 3.64h1.77v.62h-1.77zm-.47-3.43h.69v8.33h-.69zm-4.53 5.92h.58q.68 0 1.23-.02t1.04-.08q.5-.06 1.01-.17l.08.62q-.53.11-1.04.18-.51.06-1.07.08-.55.01-1.25.01h-.58zm0-5.02h3.35v.61h-2.61v4.69h-.74zm15.468-1.11h.74v9.02h-.74zm-6.02 6.14h.72q.89 0 1.6-.02.72-.03 1.37-.1a17 17 0 0 0 1.33-.2l.08.64a21 21 0 0 1-2.76.29q-.72.02-1.62.02h-.72zm0-5.27h4.24v.62h-3.5v4.88h-.74z"/><circle cx="5" cy="636" r="4" fill="#f9f9f9" stroke="#2c91f8" stroke-width="2"/><path fill="#626262" d="M27.86 631.016h1.248v6.408H27.86zm.912 2.676h1.884v1.044h-1.884zm-3.996-2.004h1.32q0 1.416-.612 2.544-.6 1.116-1.74 1.908t-2.748 1.224l-.528-.984q1.404-.36 2.352-.96.96-.612 1.452-1.416a3.2 3.2 0 0 0 .504-1.728zm-3.78 0h4.5v1.008h-4.5zm.912 6.216h7.2v4.092H27.86v-3.084h-5.952zm12.48-5.976h1.031v1.8q0 .996-.216 1.92a7.3 7.3 0 0 1-.636 1.728 5.9 5.9 0 0 1-.996 1.416 4.5 4.5 0 0 1-1.32.972l-.756-1.032q.66-.3 1.188-.816a5.2 5.2 0 0 0 .912-1.2q.384-.672.588-1.44a6 6 0 0 0 .204-1.548zm.227 0h1.032v1.8q0 .756.192 1.488.204.732.576 1.38t.9 1.14 1.164.792l-.732 1.008a4.6 4.6 0 0 1-1.308-.936 5.8 5.8 0 0 1-.984-1.356 7 7 0 0 1-.624-1.668 8 8 0 0 1-.216-1.848zm4.74-.912h1.26v10.992h-1.26zm3.731 4.404h.864q1.116 0 1.944-.012.828-.024 1.524-.072.708-.06 1.44-.18l.12.984q-.744.12-1.476.18-.72.06-1.572.084-.852.012-1.98.012h-.864zm0-3.9h5.064v.984h-3.816v3.516h-1.248zm.852 1.944h4.008v.948h-4.008zm6-2.436h1.248v5.676h-1.248zm.732 2.268h2.064v1.032H50.67zm-6.564 3.912h7.08v2.736h-5.82v1.476H44.13v-2.388h5.82v-.864h-5.844zm.024 3.708h7.416v.972H44.13zm14.526 2.472a12.8 12.8 0 0 1-1.307-2.856q-.468-1.5-.468-3.288 0-1.776.468-3.276t1.308-2.868l.864.384a10.4 10.4 0 0 0-1.14 2.784 12.5 12.5 0 0 0 0 5.964q.371 1.476 1.14 2.772zm4.693-7.068h9.912v1.008H63.35zm4.32-1.716h1.248v2.112H67.67zm-3.096-.396h7.536v1.008h-7.536zm0-2.7h7.476v.996h-6.228v2.328h-1.248zM68.27 638q1.776 0 2.772.528 1.008.516 1.008 1.464 0 .96-1.008 1.476-.996.516-2.772.516-1.752 0-2.76-.516t-1.008-1.476q0-.948 1.008-1.464 1.008-.528 2.76-.528m0 .972q-.792 0-1.356.12t-.864.348a.66.66 0 0 0-.288.552q0 .336.288.576.3.228.864.348.564.108 1.356.108.816 0 1.368-.108.564-.12.852-.348.288-.24.288-.576a.66.66 0 0 0-.288-.552q-.288-.228-.852-.348-.552-.12-1.368-.12m9.035-7.152q.816 0 1.44.48.636.48.996 1.344.372.864.372 2.052 0 1.176-.372 2.052-.36.864-.996 1.344a2.34 2.34 0 0 1-1.44.468q-.828 0-1.464-.468-.624-.48-.996-1.344-.36-.876-.36-2.052 0-1.188.36-2.052.372-.864.996-1.344.636-.48 1.464-.48m0 1.14q-.48 0-.852.324-.36.324-.564.936-.192.612-.192 1.464 0 .864.192 1.476.204.612.564.948.372.324.852.324.468 0 .828-.324.372-.336.564-.948.204-.612.204-1.476 0-.852-.204-1.464-.192-.612-.564-.936a1.2 1.2 0 0 0-.828-.324m4.308-1.932h1.26v10.968h-1.26zm.984 4.272h1.98v1.044h-1.98zm10.607-4.284h1.26v10.992h-1.26zm-7.176 7.344h.936q.948 0 1.812-.024a31 31 0 0 0 3.528-.348l.12 1.02q-1.416.24-2.712.324-1.296.072-2.748.072h-.936zm-.024-6.36h5.124v4.056H87.3v2.7h-1.272v-3.696h3.816v-2.04h-3.84zm14.011 11.388-.864-.384q.768-1.296 1.14-2.772t.372-2.988q0-1.5-.372-2.976a10.4 10.4 0 0 0-1.14-2.784l.864-.384a12.4 12.4 0 0 1 1.32 2.868q.468 1.5.468 3.276 0 1.788-.468 3.288a12.5 12.5 0 0 1-1.32 2.856"/><path fill="#999" d="M22.25 657.94h6.12v.61h-6.12zm0-2.28h.74v2.57h-.74zm5.13-5.9h.71v6.72h-.71zm-1.51 2.65h1.74v.62h-1.74zm-.43-2.48h.71v6.23h-.71zm-4.5.55h.7v1.51h2.06v-1.51h.7v4.3h-3.46zm.7 2.1v1.6h2.06v-1.6zm9.13 1.52h6.15v.61h-6.15zm-1.05 2.8h8.16v.61h-8.16zm1.05-6.3h6.06v.61H31.5v3.16h-.73z"/></svg>