<svg xmlns="http://www.w3.org/2000/svg" width="168" height="575" fill="none" viewBox="0 0 168 575"><path stroke="#2c91f8" stroke-width="2" d="M5 15v52m0 16v52m0 16v35m0 16v52m0 16v52m0 16v52m0 16v52m0 16v52"/><circle cx="5" cy="7" r="4" fill="#f9f9f9" stroke="#2c91f8" stroke-width="2"/><path fill="#626262" d="M25.508 2.256q1.164 0 2.04.276t1.356.78q.492.492.492 1.176t-.492 1.188q-.48.492-1.356.768t-2.04.276-2.052-.276q-.876-.276-1.356-.768a1.67 1.67 0 0 1-.48-1.188q0-.684.48-1.176.48-.504 1.356-.78.888-.276 2.052-.276m0 1.02q-.768 0-1.344.144t-.888.42a.82.82 0 0 0-.312.648q0 .384.312.66t.888.42a5.6 5.6 0 0 0 1.344.144q.78 0 1.344-.144t.876-.42q.324-.276.324-.66a.8.8 0 0 0-.324-.648q-.312-.276-.876-.42a5.5 5.5 0 0 0-1.344-.144m-4.944 4.152h9.912v1.008h-9.912zm1.164 4.32h7.74v1.02h-7.74zm0-2.112h1.26V12.3h-1.26zm2.256-1.824h1.248v2.748h-1.248zm2.808.012h1.248v2.748h-1.248zm7.583-4.164h1.008v1.536a7.4 7.4 0 0 1-.216 1.788 7 7 0 0 1-.636 1.632q-.408.768-.984 1.356a4.8 4.8 0 0 1-1.272.936l-.732-.996q.636-.3 1.152-.804a5.2 5.2 0 0 0 .9-1.14q.372-.648.576-1.356t.204-1.416zm.264 0h1.008v1.536q0 .684.204 1.356t.576 1.272.888 1.068 1.164.744l-.696.996a4.6 4.6 0 0 1-1.296-.876 5.8 5.8 0 0 1-.996-1.272 7 7 0 0 1-.636-1.56 7 7 0 0 1-.216-1.728zm-2.7-.552h6.144v1.044H31.94zm7.416-1.08h1.26v10.968h-1.26zm7.595 6.18h1.26v2.628h-1.26zm.636-5.532q1.164 0 2.064.36.912.36 1.44 1.02t.528 1.548q0 .9-.528 1.56t-1.44 1.032q-.9.36-2.064.36t-2.076-.36q-.912-.372-1.44-1.032t-.528-1.56q0-.888.528-1.548t1.44-1.02 2.076-.36m0 .996q-.828 0-1.464.24-.624.228-.984.66a1.56 1.56 0 0 0-.36 1.032q0 .6.36 1.044.36.432.984.672.636.228 1.464.228.816 0 1.452-.228.636-.24.996-.672.36-.444.36-1.044t-.36-1.032-.996-.66a4.1 4.1 0 0 0-1.452-.24m-4.956 6.936h9.936v1.032H42.63z"/><path fill="#999" d="M21.53 24.88h6.21v.61h-6.21zm-1.01 3.08h8.16v.61h-8.16zm3.69-2.7h.74v2.9h-.74zm-2.68-3.73h.74v3.62h-.74zm8.49 5.43h.59q.83 0 1.62-.05a16 16 0 0 0 1.72-.21l.07.62q-.95.17-1.76.22-.81.04-1.65.04h-.59zM30 21.75h3.36v3.11h-2.62v2.33h-.72v-2.95h2.63v-1.88H30zm6.63-1h.71v9.01h-.71zm-1.58 3.58h1.77v.62h-1.77zm-.47-3.37h.69v8.33h-.69zM20.45 46v-.48q1.17-1.03 1.92-1.87.75-.85 1.1-1.57.36-.73.36-1.36 0-.43-.15-.77a1.15 1.15 0 0 0-.46-.53q-.31-.2-.78-.2-.46 0-.85.25-.39.24-.7.61l-.49-.46a4 4 0 0 1 .94-.77q.51-.3 1.19-.3.66 0 1.12.27.47.26.72.74.26.48.26 1.13 0 .74-.37 1.5a7.5 7.5 0 0 1-1.02 1.54q-.66.79-1.56 1.63l.6-.04q.32-.02.6-.02h2.11v.7zm5.578-7.27h5.32v.61h-5.32zm2.66 1.11q.64 0 1.12.2.49.2.75.56.27.36.27.86 0 .49-.27.85-.26.36-.75.56-.48.2-1.12.2t-1.13-.2q-.48-.2-.75-.56t-.27-.85q0-.5.27-.86t.75-.56q.49-.2 1.13-.2m0 .58q-.65 0-1.05.28a.89.89 0 0 0-.39.76q0 .46.39.75.4.28 1.05.28.64 0 1.04-.28.4-.29.4-.75a.88.88 0 0 0-.4-.76q-.39-.28-1.04-.28m3.54-2.67h.74v5.63h-.74zm.54 2.51h1.56v.63h-1.56zm-5.62 3.63h5.82v2.87h-.74V44.5h-5.08zm1.17-6.18h.74v1.36h-.74zm13.53.05h.74v6.68h-.74zm-2.61 1.2h2.89v.6h-2.89zm-2.38 6.98h5.97v.61h-5.97zm0-2.08h.74v2.34h-.74zm-1.12-5.44h.73v4.25h-.73zm0 4.02h.67q.95 0 1.89-.07a20 20 0 0 0 2.02-.26l.08.62a19 19 0 0 1-2.05.27q-.96.06-1.94.06h-.67zm3.5-1.75h2.89v.6h-2.89zm11.455-2.7q.951 0 1.65.22.71.21 1.1.61t.39.96q0 .55-.39.95t-1.1.62q-.699.21-1.65.21-.95 0-1.66-.21-.7-.22-1.09-.62a1.3 1.3 0 0 1-.39-.95q0-.56.39-.96t1.09-.61q.71-.22 1.66-.22m0 .61q-.7 0-1.24.15-.53.14-.83.41a.8.8 0 0 0-.29.62q0 .36.29.63.3.26.83.4.54.14 1.24.14.71 0 1.24-.14t.82-.4q.3-.27.3-.63t-.3-.62q-.29-.27-.82-.41-.53-.15-1.24-.15m-4.06 3.69h8.14v.61h-8.14zm1 3.65h6.29v.61h-6.29zm0-1.89h.74v2.18h-.74zm1.85-1.49h.73v2.25h-.73zm2.44 0h.74v2.25h-.74zm6.33-3.54h.61v1.54q0 .7-.21 1.39-.21.68-.57 1.28t-.83 1.06q-.46.46-.98.73l-.43-.59q.47-.23.9-.64.44-.41.78-.94a4.8 4.8 0 0 0 .53-1.12q.2-.59.2-1.17zm.14 0h.6v1.54q0 .57.19 1.13.2.56.54 1.06.35.49.78.87.44.38.93.59l-.42.59a4.2 4.2 0 0 1-1.01-.68 5.3 5.3 0 0 1-.84-.99q-.36-.57-.57-1.22-.2-.66-.2-1.35zm-2.27-.34h5.02v.63h-5.02zm6.31-.93h.74v9.01h-.74zm5.189 4.52h.74v2.01h-.74zm4-4.51h.74v6.85h-.74zm-5.34 8.18h6.3v.61h-6.3zm0-2h.74v2.17h-.74zm-1.2-1.37-.1-.62q.83 0 1.81-.01.99-.02 2.02-.08 1.029-.06 1.98-.18l.06.55q-.97.15-2 .23-1.02.07-1.99.09zm4.68.52h2.06v.55h-2.06zm-1.85-4.96q.66 0 1.15.2.5.19.78.54t.28.82q0 .48-.28.83a1.8 1.8 0 0 1-.78.54q-.49.19-1.15.19t-1.16-.19a1.8 1.8 0 0 1-.78-.54q-.27-.35-.27-.83 0-.47.27-.82.279-.35.78-.54.5-.2 1.16-.2m0 .56q-.67 0-1.09.28-.42.27-.42.72t.42.73q.42.27 1.09.27.66 0 1.08-.27.42-.28.42-.73a.77.77 0 0 0-.19-.52 1.2 1.2 0 0 0-.53-.35q-.33-.13-.78-.13m6.529 9.17-.2-.49q.45-.21.71-.57.26-.35.26-.82l-.11-.78.43.63a.54.54 0 0 1-.21.16.7.7 0 0 1-.23.04.66.66 0 0 1-.44-.16.56.56 0 0 1-.18-.44q0-.28.19-.44a.68.68 0 0 1 .45-.16q.33 0 .52.27.2.27.2.73 0 .7-.38 1.22a2.35 2.35 0 0 1-1.01.81M79.523 46v-.69h1.64v-5.6h-1.31v-.53q.48-.08.84-.2.36-.13.64-.3h.63v6.63h1.49V46zm5.128-7.27h5.32v.61h-5.32zm2.66 1.11q.64 0 1.12.2.49.2.75.56.27.36.27.86 0 .49-.27.85-.26.36-.75.56-.48.2-1.12.2t-1.13-.2q-.48-.2-.75-.56t-.27-.85q0-.5.27-.86t.75-.56q.49-.2 1.13-.2m0 .58q-.65 0-1.05.28a.89.89 0 0 0-.39.76q0 .46.39.75.4.28 1.05.28.64 0 1.04-.28.4-.29.4-.75a.88.88 0 0 0-.4-.76q-.39-.28-1.04-.28m3.54-2.67h.74v5.63h-.74zm.54 2.51h1.56v.63h-1.56zm-5.62 3.63h5.82v2.87h-.74V44.5h-5.08zm1.17-6.18h.74v1.36h-.74zm13.53.05h.74v6.68h-.74zm-2.61 1.2h2.89v.6h-2.89zm-2.38 6.98h5.97v.61h-5.97zm0-2.08h.74v2.34h-.74zm-1.12-5.44h.73v4.25h-.73zm0 4.02h.67q.95 0 1.89-.07a20 20 0 0 0 2.02-.26l.08.62q-1.09.2-2.05.27-.96.06-1.94.06h-.67zm3.5-1.75h2.89v.6h-2.89zm13.615-2.94h.74v5.44h-.74zm.54 2.36h1.56v.63h-1.56zm-5.62 3.57h5.82v3.08h-.74v-2.47h-5.08zm-.75-5.37h.73v1.45h2.68v-1.45h.72v4.25h-4.13zm.73 2.04v1.61h2.68v-1.61zm10.5-1.33h.61v1.54q0 .7-.21 1.39-.21.68-.57 1.28t-.83 1.06q-.46.46-.98.73l-.43-.59a3.6 3.6 0 0 0 .9-.64 4.9 4.9 0 0 0 1.31-2.06q.2-.59.2-1.17zm.14 0h.6v1.54q0 .57.19 1.13.2.56.54 1.06.35.49.78.87.44.38.93.59l-.42.59a4.2 4.2 0 0 1-1.01-.68 5.2 5.2 0 0 1-.84-.99q-.36-.57-.57-1.22-.2-.66-.2-1.35zm-2.27-.34h5.02v.63h-5.02zm6.31-.93h.74v9.01h-.74zm6.289 5.09h.73v2.28h-.73zm.37-4.48q.95 0 1.68.29.74.29 1.15.82.42.52.42 1.23t-.42 1.24q-.41.52-1.15.81-.73.29-1.68.29-.94 0-1.68-.29t-1.16-.81a1.96 1.96 0 0 1-.41-1.24q0-.71.41-1.23.42-.53 1.16-.82t1.68-.29m0 .6q-.73 0-1.31.22t-.91.61-.33.91.33.92q.33.39.91.61t1.31.22 1.3-.22q.58-.22.91-.61.33-.4.33-.92t-.33-.91-.91-.61a3.6 3.6 0 0 0-1.3-.22m-4.06 6.01h8.16v.62h-8.16z"/><circle cx="5" cy="75" r="4" fill="#f9f9f9" stroke="#2c91f8" stroke-width="2"/><path fill="#626262" d="M20.696 71.132h6.072v1.008h-6.072zm-.144 7.236-.144-1.044q.972 0 2.124-.012a81 81 0 0 0 2.352-.084q1.2-.06 2.316-.204l.06.924a26 26 0 0 1-2.316.288q-1.188.084-2.316.108t-2.076.024m1.212-6.456h1.224v5.7h-1.224zm2.712 0H25.7v5.7h-1.224zm3.312-1.884h1.26v10.968h-1.26zm.984 4.272h1.98v1.044h-1.98zm10.583-4.284h1.26v10.992h-1.26zm-4.572.804q.816 0 1.452.48.648.48 1.008 1.344t.36 2.04q0 1.188-.36 2.064-.36.864-1.008 1.344a2.4 2.4 0 0 1-1.452.468 2.44 2.44 0 0 1-1.464-.468q-.636-.48-1.008-1.344-.36-.876-.36-2.064 0-1.176.36-2.04.372-.864 1.008-1.344.648-.48 1.464-.48m0 1.14q-.48 0-.852.324-.36.324-.564.936t-.204 1.464q0 .864.204 1.476t.564.948q.372.324.852.324t.84-.324q.36-.336.564-.948t.204-1.476q0-.852-.204-1.464t-.564-.936a1.22 1.22 0 0 0-.84-.324m7.847 6.612h9.936v1.032H42.63zm1.116-7.8h1.248v1.92h5.184v-1.92h1.248v5.784h-7.68zm1.248 2.916v1.848h5.184v-1.848zM63.6 70.016h1.26v10.968H63.6zm.937 4.332h1.98v1.044h-1.98zm-3.769-3.168h1.224q0 1.596-.491 3.048-.48 1.44-1.572 2.652-1.08 1.212-2.88 2.112l-.697-.96q1.489-.768 2.46-1.752a6.4 6.4 0 0 0 1.465-2.208q.492-1.224.492-2.688zm-3.864 0h4.512v1.02h-4.511zm18.264-1.164h1.26v10.992h-1.26zm-4.572.804q.816 0 1.452.48.648.48 1.008 1.344t.36 2.04q0 1.188-.36 2.064-.36.864-1.008 1.344a2.4 2.4 0 0 1-1.452.468 2.44 2.44 0 0 1-1.464-.468q-.636-.48-1.008-1.344-.36-.876-.36-2.064 0-1.176.36-2.04.372-.864 1.008-1.344.648-.48 1.464-.48m0 1.14q-.48 0-.852.324-.36.324-.564.936t-.204 1.464q0 .864.204 1.476t.564.948q.372.324.852.324t.84-.324q.36-.336.564-.948t.204-1.476q0-.852-.204-1.464t-.564-.936a1.22 1.22 0 0 0-.84-.324m7.847 6.612h9.936v1.032h-9.936zm4.296-7.056h1.068v.78q0 .684-.228 1.296a4 4 0 0 1-.624 1.14 5 5 0 0 1-.96.948 6.5 6.5 0 0 1-1.224.708q-.66.288-1.38.432l-.516-1.02a5 5 0 0 0 1.224-.336 5.6 5.6 0 0 0 1.056-.576 4.2 4.2 0 0 0 .84-.744 3.1 3.1 0 0 0 .552-.876q.192-.468.192-.972zm.252 0h1.068v.78q0 .504.192.972.192.456.552.864t.84.744q.492.324 1.08.564.6.228 1.248.324l-.504.996a6.4 6.4 0 0 1-2.652-1.116 5 5 0 0 1-.96-.924 4.1 4.1 0 0 1-.636-1.128 3.7 3.7 0 0 1-.228-1.296zm-3.732-.48h8.28v1.02h-8.28z"/><path fill="#999" d="M22.25 96.94h6.12v.61h-6.12zm0-2.28h.74v2.57h-.74zm5.13-5.9h.71v6.72h-.71zm-1.51 2.65h1.74v.62h-1.74zm-.43-2.48h.71v6.23h-.71zm-4.5.55h.7v1.51h2.06v-1.51h.7v4.3h-3.46zm.7 2.1v1.6h2.06v-1.6zm9.13 1.52h6.15v.61h-6.15zm-1.05 2.8h8.16v.61h-8.16zm1.05-6.3h6.06v.61H31.5v3.16h-.73zM20.45 114v-.48q1.17-1.03 1.92-1.87.75-.85 1.1-1.57.36-.73.36-1.36 0-.43-.15-.77a1.15 1.15 0 0 0-.46-.53q-.31-.2-.78-.2-.46 0-.85.25-.39.24-.7.61l-.49-.46q.44-.48.94-.77.51-.3 1.19-.3.66 0 1.12.27.47.26.72.74.26.48.26 1.13 0 .74-.37 1.5-.36.75-1.02 1.54t-1.56 1.63l.6-.04q.32-.02.6-.02h2.11v.7zm5.578-7.27h5.32v.61h-5.32zm2.66 1.11q.64 0 1.12.2.49.2.75.56.27.36.27.86 0 .49-.27.85-.26.36-.75.56-.48.2-1.12.2t-1.13-.2q-.48-.2-.75-.56t-.27-.85q0-.5.27-.86t.75-.56q.49-.2 1.13-.2m0 .58q-.65 0-1.05.28a.89.89 0 0 0-.39.76q0 .46.39.75.4.28 1.05.28.64 0 1.04-.28.4-.29.4-.75a.88.88 0 0 0-.4-.76q-.39-.28-1.04-.28m3.54-2.67h.74v5.63h-.74zm.54 2.51h1.56v.63h-1.56zm-5.62 3.63h5.82v2.87h-.74v-2.26h-5.08zm1.17-6.18h.74v1.36h-.74zm13.53.05h.74v6.68h-.74zm-2.61 1.2h2.89v.6h-2.89zm-2.38 6.98h5.97v.61h-5.97zm0-2.08h.74v2.34h-.74zm-1.12-5.44h.73v4.25h-.73zm0 4.02h.67q.95 0 1.89-.07a20 20 0 0 0 2.02-.26l.08.62q-1.09.2-2.05.27-.96.06-1.94.06h-.67zm3.5-1.75h2.89v.6h-2.89zm13.995-2.94h.74v9.02h-.74zm-3.99.71q.67 0 1.18.38t.8 1.09q.29.7.29 1.65 0 .96-.29 1.66t-.8 1.09q-.51.38-1.18.38-.66 0-1.18-.38-.51-.39-.8-1.09t-.29-1.66q0-.95.29-1.65.29-.71.8-1.09.52-.38 1.18-.38m0 .66q-.459 0-.81.31-.35.3-.55.86-.2.55-.2 1.29t.2 1.3.55.87.81.31.81-.31.55-.87.2-1.3-.2-1.29q-.2-.56-.55-.86a1.18 1.18 0 0 0-.81-.31m13.23-1.36h.74v6.66h-.74zm-2.02 2.8h2.17v.62h-2.17zm-.75-2.11h.78q0 1.15-.53 2.11a5.2 5.2 0 0 1-1.46 1.66q-.93.71-2.2 1.14l-.32-.6a7.5 7.5 0 0 0 1.95-.96q.84-.6 1.31-1.37.47-.78.47-1.69zm-3.29 0h3.77v.62h-3.77zm1.15 7.49h5.88v.61h-5.88zm0-2.2h.74v2.49h-.74zm14.029-5.99h.74v9.01h-.74zm-6.4 7.2-.11-.63 1.86-.02a55 55 0 0 0 2.04-.06q1.05-.06 2.02-.19l.05.55q-1.011.17-2.04.24t-2.01.09q-.97.02-1.81.02m.08-5.96h5.48v.6h-5.48zm2.74 1.13q.64 0 1.12.21.48.2.75.58t.27.89-.27.89-.75.59-1.12.21q-.621 0-1.11-.21-.48-.21-.75-.59t-.27-.89.27-.89.75-.58q.489-.21 1.11-.21m0 .58q-.42 0-.75.14-.32.14-.5.39-.18.24-.18.57t.18.58.5.39q.33.14.75.14.429 0 .75-.14.32-.14.5-.39a.93.93 0 0 0 .19-.58.9.9 0 0 0-.19-.57 1.2 1.2 0 0 0-.5-.39 1.9 1.9 0 0 0-.75-.14m-.37-2.85h.74v1.52h-.74zm11.356 4.4h.75v2.08h-.75zm.38-3.9q.7 0 1.24.26t.85.74q.31.47.31 1.1 0 .62-.31 1.1-.31.47-.85.73a2.8 2.8 0 0 1-1.24.26q-.7 0-1.25-.26a2.07 2.07 0 0 1-.85-.73q-.3-.48-.3-1.1a2 2 0 0 1 .3-1.1q.31-.48.85-.74.55-.26 1.25-.26m0 .64q-.49 0-.87.19-.37.18-.59.51-.22.32-.22.76 0 .42.22.76.22.33.59.52.38.18.87.18t.86-.18q.38-.19.59-.52.22-.34.22-.76 0-.44-.22-.76-.21-.33-.59-.51a1.85 1.85 0 0 0-.86-.19m3.64-1.24h.74v9.02h-.74zm-6.41 7.03-.1-.62q.83 0 1.82-.01.99-.02 2.04-.08 1.06-.07 2.05-.22l.06.54q-1.02.19-2.07.28-1.041.08-2.01.1-.97.01-1.79.01m11.519 1.35q-.53 0-.97-.22a2.24 2.24 0 0 1-.77-.68 3.6 3.6 0 0 1-.5-1.13q-.18-.68-.18-1.58 0-1.08.21-1.84.219-.76.6-1.23.38-.47.86-.68.48-.22 1.01-.22.56 0 .96.21.41.2.71.52l-.47.51a1.5 1.5 0 0 0-.52-.41q-.31-.15-.65-.15-.52 0-.97.31-.44.31-.71 1.03-.26.72-.26 1.95 0 .94.19 1.6t.55 1.01q.37.35.91.35.37 0 .65-.22a1.5 1.5 0 0 0 .46-.6q.17-.39.17-.89 0-.52-.15-.89a1.2 1.2 0 0 0-.45-.59q-.3-.21-.77-.21-.36 0-.79.24-.42.23-.8.8l-.03-.68q.24-.3.52-.52.29-.22.61-.33.32-.12.62-.12.62 0 1.07.26.46.25.7.76.25.51.25 1.28 0 .7-.29 1.23-.28.53-.75.83-.46.3-1.02.3m9.525-6.89h2.65v.61h-2.65zm0 1.78h2.67v.61h-2.67zm2.36-3.27h.74v5.34h-.74zm-6.22.69h4.08v3.98h-4.08zm3.36.6h-2.64v2.78h2.64zm.65 4.32q1.389 0 2.19.45.8.44.8 1.24t-.8 1.24q-.801.45-2.19.45-1.38 0-2.18-.45-.8-.44-.8-1.24t.8-1.24q.8-.45 2.18-.45m0 .59q-.69 0-1.2.13-.501.13-.78.38a.78.78 0 0 0 0 1.18q.279.24.78.37.51.14 1.2.14.699 0 1.2-.14.5-.13.77-.37a.77.77 0 0 0 .28-.59.77.77 0 0 0-.28-.59q-.27-.25-.77-.38a4.8 4.8 0 0 0-1.2-.13"/><circle cx="5" cy="194" r="4" fill="#f9f9f9" stroke="#2c91f8" stroke-width="2"/><path fill="#626262" d="M23.48 189.82q.816 0 1.44.48.636.48.996 1.344.372.864.372 2.052 0 1.176-.372 2.052-.36.864-.996 1.344a2.34 2.34 0 0 1-1.44.468q-.828 0-1.464-.468-.624-.48-.996-1.344-.36-.876-.36-2.052 0-1.188.36-2.052.372-.864.996-1.344.636-.48 1.464-.48m0 1.14q-.48 0-.852.324-.36.324-.564.936-.192.612-.192 1.464 0 .864.192 1.476.204.612.564.948.372.324.852.324.468 0 .828-.324.372-.336.564-.948.204-.612.204-1.476 0-.852-.204-1.464-.192-.612-.564-.936a1.2 1.2 0 0 0-.828-.324m5.232.732h1.98v1.044h-1.98zm0 3.24h1.98v1.032h-1.98zm-.924-5.904h1.26v10.968h-1.26zm11.963-.012h1.2v10.968h-1.2zm-1.56 4.284h1.98v1.008h-1.98zm-.852-4.068h1.176v10.236H37.34zm-5.388.996h4.236v6.912h-4.236zm3.072.984h-1.896v4.944h1.896zm12.33 7.536h7.56v1.02h-7.56zm0-2.532h1.26v3.096h-1.26zm6.06-7.188h1.2v8.184h-1.2zm-1.572 3.156h1.932v1.032h-1.932zm-.768-2.952h1.188v7.608h-1.188zm-5.304.66h1.176v1.728h1.932v-1.728h1.176v5.352H45.77zm1.176 2.7v1.644h1.932v-1.644zm10.632 1.596h7.608v1.02h-7.608zm-1.212 3.36H66.3v1.032h-9.935zm1.212-7.56h7.511v1.02h-6.263v3.624h-1.248z"/><path fill="#999" d="M22.25 215.94h6.12v.61h-6.12zm0-2.28h.74v2.57h-.74zm5.13-5.9h.71v6.72h-.71zm-1.51 2.65h1.74v.62h-1.74zm-.43-2.48h.71v6.23h-.71zm-4.5.55h.7v1.51h2.06v-1.51h.7v4.3h-3.46zm.7 2.1v1.6h2.06v-1.6zm9.13 1.52h6.15v.61h-6.15zm-1.05 2.8h8.16v.61h-8.16zm1.05-6.3h6.06v.61H31.5v3.16h-.73zM20.9 233v-.69h1.64v-5.6h-1.31v-.53q.48-.08.84-.2a3.6 3.6 0 0 0 .64-.3h.63v6.63h1.49v.69zm5.128-7.27h5.32v.61h-5.32zm2.66 1.11q.64 0 1.12.2.49.2.75.56.27.36.27.86 0 .49-.27.85-.26.36-.75.56-.48.2-1.12.2t-1.13-.2q-.48-.2-.75-.56t-.27-.85q0-.5.27-.86t.75-.56q.49-.2 1.13-.2m0 .58q-.65 0-1.05.28a.89.89 0 0 0-.39.76q0 .46.39.75.4.28 1.05.28.64 0 1.04-.28.4-.29.4-.75a.88.88 0 0 0-.4-.76q-.39-.28-1.04-.28m3.54-2.67h.74v5.63h-.74zm.54 2.51h1.56v.63h-1.56zm-5.62 3.63h5.82v2.87h-.74v-2.26h-5.08zm1.17-6.18h.74v1.36h-.74zm13.53.05h.74v6.68h-.74zm-2.61 1.2h2.89v.6h-2.89zm-2.38 6.98h5.97v.61h-5.97zm0-2.08h.74v2.34h-.74zm-1.12-5.44h.73v4.25h-.73zm0 4.02h.67q.95 0 1.89-.07a20 20 0 0 0 2.02-.26l.08.62q-1.09.2-2.05.27-.96.06-1.94.06h-.67zm3.5-1.75h2.89v.6h-2.89zm13.615-2.94h.74v5.42h-.74zm.54 2.37h1.56v.62h-1.56zm-3.01-1.69h.79q0 1.14-.51 2.07t-1.46 1.61q-.94.67-2.24 1.06l-.31-.6q1.15-.35 1.99-.91t1.29-1.3.45-1.61zm-3.35 0h3.76v.61h-3.76zm3.76 4.85q.89 0 1.54.21.66.2 1.01.59.36.39.36.93t-.36.93q-.35.38-1.01.58-.65.21-1.54.21t-1.55-.21q-.65-.2-1.01-.58-.36-.39-.36-.93t.36-.93 1.01-.59q.66-.21 1.55-.21m0 .59q-.66 0-1.16.14-.49.14-.76.4a.8.8 0 0 0-.27.6q0 .35.27.6t.76.39q.5.14 1.16.14.67 0 1.15-.14.49-.14.76-.39a.78.78 0 0 0 .28-.6.78.78 0 0 0-.28-.6q-.27-.26-.76-.4a4.2 4.2 0 0 0-1.15-.14m5.04-1.64h8.14v.6h-8.14zm3.7-1.46h.72v1.71h-.72zm-2.67-.24h6.15v.61h-6.15zm0-2.36h6.08v.6h-5.35v2.11h-.73zm3.03 5.34q1.44 0 2.25.43.82.42.82 1.19t-.82 1.19q-.81.43-2.25.43t-2.26-.43q-.82-.42-.82-1.19t.82-1.19q.82-.43 2.26-.43m0 .59q-.72 0-1.25.12-.52.12-.8.35a.7.7 0 0 0-.28.56q0 .32.28.56.28.23.8.35.53.12 1.25.12t1.24-.12q.53-.12.81-.35.28-.24.28-.56a.7.7 0 0 0-.28-.56q-.28-.23-.81-.35a5.6 5.6 0 0 0-1.24-.12m7.509-2.59h.74v1.36h-.74zm.35-3.33q.65 0 1.15.22t.78.62q.29.4.29.92 0 .53-.29.93a1.8 1.8 0 0 1-.78.62q-.5.22-1.15.22t-1.15-.22a1.8 1.8 0 0 1-.78-.62 1.6 1.6 0 0 1-.28-.93q0-.52.28-.92a1.8 1.8 0 0 1 .78-.62q.5-.22 1.15-.22m0 .57q-.44 0-.79.15-.34.15-.53.42t-.19.62.19.62.53.43q.35.15.79.15.45 0 .79-.15.35-.16.54-.43t.19-.62-.19-.62a1.23 1.23 0 0 0-.54-.42q-.34-.15-.79-.15m3.48-.99h.74v6.89h-.74zm.42 3.08h1.67v.62h-1.67zm-5.31 5.09h5.96v.61h-5.96zm0-1.86h.73v2.13h-.73zm-1.22-.79-.1-.61q.79 0 1.75-.02t1.96-.08a24 24 0 0 0 1.92-.21l.06.55q-.951.17-1.95.25-.99.08-1.93.1-.93.02-1.71.02m13.876-1.03h.75v2.08h-.75zm.38-3.9q.7 0 1.24.26t.85.74q.31.47.31 1.1 0 .62-.31 1.1-.31.47-.85.73a2.8 2.8 0 0 1-1.24.26q-.7 0-1.25-.26a2.07 2.07 0 0 1-.85-.73q-.3-.48-.3-1.1a2 2 0 0 1 .3-1.1q.31-.48.85-.74.55-.26 1.25-.26m0 .64q-.49 0-.87.19-.37.18-.59.51-.22.32-.22.76 0 .42.22.76.22.33.59.52.38.18.87.18t.86-.18q.38-.19.59-.52.22-.34.22-.76 0-.44-.22-.76-.21-.33-.59-.51a1.85 1.85 0 0 0-.86-.19m3.64-1.24h.74v9.02h-.74zm-6.41 7.03-.1-.62q.83 0 1.82-.01.99-.02 2.04-.08 1.06-.07 2.05-.22l.06.54q-1.02.19-2.07.28-1.041.08-2.01.1-.97.01-1.79.01m13.345 1.35q-.57 0-1-.14a2.9 2.9 0 0 1-.75-.36 3.6 3.6 0 0 1-.56-.47l.41-.54q.21.22.47.41.26.18.59.3.34.12.77.12.44 0 .8-.22.37-.22.59-.62.22-.41.22-.95 0-.82-.43-1.28-.429-.46-1.14-.46-.37 0-.65.12-.27.11-.59.32l-.45-.28.23-3.4h3.5v.7h-2.78l-.2 2.22q.25-.14.52-.22.28-.09.62-.09.61 0 1.11.25t.79.77q.3.51.3 1.32 0 .8-.35 1.36-.34.56-.88.85-.53.29-1.14.29m7.699-6.89h2.65v.61h-2.65zm0 1.78h2.67v.61h-2.67zm2.36-3.27h.74v5.34h-.74zm-6.22.69h4.08v3.98h-4.08zm3.36.6h-2.64v2.78h2.64zm.65 4.32q1.389 0 2.19.45.8.44.8 1.24t-.8 1.24q-.801.45-2.19.45-1.38 0-2.18-.45-.8-.44-.8-1.24t.8-1.24q.8-.45 2.18-.45m0 .59q-.69 0-1.2.13-.501.13-.78.38a.78.78 0 0 0 0 1.18q.279.24.78.37.51.14 1.2.14.699 0 1.2-.14.5-.13.77-.37a.77.77 0 0 0 .28-.59.77.77 0 0 0-.28-.59q-.27-.25-.77-.38a4.8 4.8 0 0 0-1.2-.13"/><circle cx="5" cy="262" r="4" fill="#f9f9f9" stroke="#2c91f8" stroke-width="2"/><path fill="#626262" d="M20.888 264.324h.744q.996 0 1.944-.048.96-.06 2.04-.252l.096 1.02q-1.104.204-2.076.264a41 41 0 0 1-2.004.048h-.744zm-.024-6.144h3.9v3.972H22.1v2.58h-1.212v-3.576h2.664v-1.968h-2.688zm7.836-1.164h1.2v10.968h-1.2zm-3.456 3.852h1.74v1.032h-1.74zm1.236-3.612h1.176v10.176H26.48zm6.323 4.932h7.608v1.02h-7.608zm-1.212 3.36h9.936v1.032h-9.936zm1.212-7.56h7.512v1.02h-6.264v3.624h-1.248zm12.522 7.668h9.936v1.032h-9.936zm4.308-2.688h1.26v3.144h-1.26zM46.141 258h8.244v1.02h-8.244zm.048 4.392h8.172v1.008H46.19zm1.572-3.564h1.248v3.708h-1.248zm3.756 0h1.248v3.708h-1.248zm12.624-1.8h1.26v7.956h-1.26zm-5.893 9.72h7.465v1.02h-7.464zm0-2.568h1.249v2.964h-1.248zm1.236-6.42q.828 0 1.488.348t1.044.972q.385.612.385 1.416 0 .792-.385 1.416-.383.624-1.044.972-.66.348-1.488.348a3.14 3.14 0 0 1-1.488-.348 2.66 2.66 0 0 1-1.044-.972 2.65 2.65 0 0 1-.383-1.416q0-.804.383-1.416.385-.624 1.044-.972.66-.348 1.488-.348m0 1.092q-.48 0-.864.204a1.5 1.5 0 0 0-.6.576q-.216.36-.216.864t.216.876q.216.36.6.564.385.204.864.204.48 0 .864-.204a1.5 1.5 0 0 0 .6-.564q.228-.372.228-.876t-.227-.864a1.5 1.5 0 0 0-.6-.576 1.8 1.8 0 0 0-.864-.204m9.144 3.96h7.608v1.008h-7.608zm-1.224 2.808h9.936v1.032h-9.936zm1.224-7.716h7.512v1.008H69.9v4.2h-1.272zm.888 2.424H75.9v.996h-6.384z"/><path fill="#999" d="M22.81 277.43h.61v.46q0 .8-.33 1.48a3.65 3.65 0 0 1-.88 1.18 3.9 3.9 0 0 1-1.29.75l-.37-.59q.65-.21 1.16-.63.51-.43.8-.99.3-.56.3-1.2zm.12 0h.61v.46q0 .58.28 1.11.29.53.79.93t1.15.61l-.37.59a4 4 0 0 1-1.28-.72 3.3 3.3 0 0 1-.87-1.12q-.31-.65-.31-1.4zm-2.16-.43h4.8v.6h-4.8zm2.04-1.19h.74v1.49h-.74zm3.93-.06h.74v6.67h-.74zm.51 2.82h1.59v.63h-1.59zm-5.33 5.37h5.98v.61h-5.98zm0-2.09h.73v2.42h-.73zm7.8 1.11h8.16v.62h-8.16zm3.71-2.21h.73v2.43h-.73zm-.02-3.87h.63v.6q0 .55-.21 1.04a3.4 3.4 0 0 1-.58.91q-.36.42-.83.74-.46.32-.97.55t-1.01.33l-.31-.59a4.4 4.4 0 0 0 .89-.27q.47-.19.89-.47.43-.28.76-.63.339-.35.54-.76.2-.41.2-.85zm.14 0h.62v.6q0 .44.2.85.2.4.54.75a4.5 4.5 0 0 0 .77.63q.429.27.9.46.47.19.91.26l-.31.59a5.7 5.7 0 0 1-1.03-.33 6 6 0 0 1-.99-.54 4.8 4.8 0 0 1-.83-.73 3.4 3.4 0 0 1-.57-.9 2.6 2.6 0 0 1-.21-1.04zm-3.16-.29h6.8v.62h-6.8zm10.345 9.19 3.09-9.7h.6l-3.08 9.7zm8.283-1.84h6.12v.61h-6.12zm0-2.28h.74v2.57h-.74zm5.13-5.9h.71v6.72h-.71zm-1.51 2.65h1.74v.62h-1.74zm-.43-2.48h.71v6.23h-.71zm-4.5.55h.7v1.51h2.06v-1.51h.7v4.3h-3.46zm.7 2.1v1.6h2.06v-1.6zm9.129 1.52h6.15v.61h-6.15zm-1.05 2.8h8.16v.61h-8.16zm1.05-6.3h6.06v.61h-5.33v3.16h-.73zM25.01 295.85h2.53v.61h-2.53zm-2.13-2.31h.61v1.67q0 .73-.2 1.44a5.7 5.7 0 0 1-.54 1.33q-.34.62-.79 1.1t-.96.76l-.47-.59q.48-.24.9-.66.43-.43.75-.98.33-.55.51-1.16.19-.62.19-1.24zm.15 0h.6v1.67q0 .6.18 1.2.19.6.51 1.12.33.52.75.92.43.4.91.63l-.44.6a3.9 3.9 0 0 1-.99-.73 5.5 5.5 0 0 1-.79-1.06 5.8 5.8 0 0 1-.54-1.27q-.19-.69-.19-1.41zm4.14-.79h.73v9.02h-.73zm6.24 4.23h.73v1.4h-.73zm.37-4.12q1.479 0 2.31.41.84.4.84 1.15 0 .76-.84 1.17-.831.4-2.31.4t-2.32-.4q-.83-.41-.83-1.17 0-.75.83-1.15.84-.41 2.32-.41m0 .57q-.75 0-1.29.12-.53.12-.82.34-.28.22-.28.53 0 .32.28.55.29.22.82.34.54.11 1.29.11t1.28-.11q.54-.12.82-.34.29-.23.29-.55 0-.31-.29-.53-.28-.22-.82-.34-.53-.12-1.28-.12m-4.07 3.18h8.14v.61h-8.14zm1 1.49h6.09v1.97h-5.34v1.15h-.73v-1.7h5.34v-.85h-5.36zm.02 2.96h6.34v.59h-6.34zm14.798-8.31h.74v4.68h-.74zm-5.04 5.15h5.79v2.11h-5.05v1.3h-.72v-1.86h5.04v-.96h-5.06zm.02 3.15h6.09v.6h-6.09zm.79-8.03h.62v.69a3.75 3.75 0 0 1-1.24 2.81q-.57.53-1.31.81l-.37-.59q.49-.18.91-.48.42-.31.73-.71.32-.4.49-.87t.17-.97zm.13 0h.61v.69q0 .48.17.93.18.44.49.82.32.37.74.66t.91.45l-.37.59a4.4 4.4 0 0 1-1.02-.53 4.2 4.2 0 0 1-.81-.79q-.34-.45-.53-.99t-.19-1.14zm8.72 2.79h.74v1.71h-.74zm3.33 0h.74v1.71h-.74zm-5.37 1.43h8.14v.6h-8.14zm4.07 1.32q1.44 0 2.25.41.82.41.82 1.17 0 .77-.82 1.18-.81.42-2.25.42t-2.26-.42q-.82-.41-.82-1.18 0-.76.82-1.17t2.26-.41m0 .58q-.72 0-1.25.12-.52.12-.8.35-.28.22-.28.53a.7.7 0 0 0 .28.56q.28.23.8.34.53.12 1.25.12t1.24-.12q.53-.11.81-.34a.7.7 0 0 0 .28-.56q0-.31-.28-.53-.28-.23-.81-.35a5.6 5.6 0 0 0-1.24-.12m0-6.22q.969 0 1.68.2.71.2 1.09.57t.38.9q0 .52-.38.89t-1.09.57q-.711.19-1.68.19-.97 0-1.68-.19-.71-.2-1.09-.57a1.2 1.2 0 0 1-.38-.89q0-.53.38-.9t1.09-.57 1.68-.2m0 .59q-.73 0-1.27.13-.54.12-.83.37a.73.73 0 0 0-.29.58q0 .33.29.58.29.24.83.37t1.27.13q.74 0 1.27-.13.54-.13.83-.37.29-.25.29-.58a.73.73 0 0 0-.29-.58q-.29-.25-.83-.37a5.4 5.4 0 0 0-1.27-.13m9.199-.55q.97 0 1.67.2.71.2 1.09.58.39.38.39.91t-.39.91q-.38.38-1.09.58-.7.2-1.67.2t-1.68-.2q-.7-.2-1.09-.58a1.24 1.24 0 0 1-.38-.91q0-.53.38-.91.39-.38 1.09-.58.71-.2 1.68-.2m0 .59q-.73 0-1.27.13t-.83.38a.74.74 0 0 0-.29.59q0 .34.29.59.29.24.83.38.54.13 1.27.13t1.27-.13q.54-.14.83-.38.29-.25.29-.59a.74.74 0 0 0-.29-.59q-.29-.25-.83-.38a5.5 5.5 0 0 0-1.27-.13m-3.06 5.14h6.13v2.95h-6.13zm5.41.6h-4.69v1.74h4.69zm-6.42-2.13h8.14v.6h-8.14zm11.72-3.87q.678 0 1.2.28.529.27.83.74t.3 1.11q0 .63-.3 1.11-.301.47-.83.74-.522.26-1.2.26-.672 0-1.2-.26a2.1 2.1 0 0 1-.83-.74q-.3-.48-.3-1.11 0-.64.3-1.11t.83-.74q.528-.28 1.2-.28m0 .64q-.462 0-.83.19-.36.19-.57.53-.21.33-.21.77 0 .43.21.77.21.33.57.53.369.19.83.19.469 0 .83-.19.36-.2.57-.53.21-.34.21-.77 0-.44-.21-.77a1.46 1.46 0 0 0-.57-.53 1.75 1.75 0 0 0-.83-.19m3.71-1.18h.74v5.31h-.74zm.54 2.36h1.56v.62h-1.56zm-5.62 3.43h5.82v3.23h-.74v-2.63h-5.08zm8.928-4.86h5.81v.61h-5.81zm-.87 6.16h8.13v.62h-8.13zm3.21-3.23h.74v3.55h-.74zm3.18-2.93h.74v.89q0 .56-.02 1.18-.01.61-.08 1.34-.06.73-.23 1.63l-.74-.1q.25-1.28.29-2.26t.04-1.79z"/><circle cx="5" cy="330" r="4" fill="#f9f9f9" stroke="#2c91f8" stroke-width="2"/><path fill="#626262" d="M28.712 325.028h1.2v10.968h-1.2zm-1.56 4.32h1.98v1.02h-1.98zm-.792-4.104h1.188v10.2H26.36zm-5.712 1.092h5.04v1.008h-5.04zm-.072 7.056-.132-1.044q.528 0 1.2-.012t1.404-.036a84 84 0 0 0 1.452-.084q.72-.048 1.332-.132l.096.912q-.852.168-1.836.264-.972.084-1.896.108t-1.62.024m.888-6.408h1.14v5.628h-1.14zm2.256 0h1.14v5.628h-1.14zm9.095 3.828h7.608v1.008h-7.608zm-1.224 2.808h9.936v1.032h-9.936zm1.224-7.716h7.512v1.008h-6.24v4.2h-1.272zm.888 2.424h6.384v.996h-6.384zm11.567 2.244h1.248v2.604H45.27zm.612-4.872q.84 0 1.5.336.672.336 1.056.936.384.588.384 1.356t-.384 1.368a2.6 2.6 0 0 1-1.056.936q-.66.336-1.5.336t-1.512-.336a2.63 2.63 0 0 1-1.044-.936 2.5 2.5 0 0 1-.384-1.368q0-.768.384-1.356.384-.6 1.044-.936a3.3 3.3 0 0 1 1.512-.336m0 1.08q-.492 0-.888.192-.384.18-.612.54a1.5 1.5 0 0 0-.216.816q0 .48.216.84.228.348.612.54.396.192.888.192t.876-.192a1.54 1.54 0 0 0 .612-.54q.228-.36.228-.84 0-.468-.228-.816a1.43 1.43 0 0 0-.612-.54 1.9 1.9 0 0 0-.876-.192m4.02-1.764h1.248v10.968h-1.248zm.876 4.428h1.98v1.044h-1.98zm-8.1 4.26-.168-1.032q.96 0 2.112-.012a47 47 0 0 0 2.34-.084q1.2-.072 2.304-.216l.096.924q-1.152.204-2.34.3-1.176.084-2.292.108-1.116.012-2.052.012m21.847-8.688h1.2v10.968h-1.2zm-1.56 4.284h1.98v1.008h-1.98zm-.853-4.068h1.176v10.236h-1.175zm-5.388.996h4.237v6.912h-4.236zm3.073.984H57.9v4.944h1.895zm8.83 3.6h7.609v1.008h-7.608zm-1.223 2.808h9.936v1.032h-9.936zm1.224-7.716h7.512v1.008H69.9v4.2h-1.272zm.888 2.424H75.9v.996h-6.384z"/><path fill="#999" d="M21.53 347.88h6.21v.61h-6.21zm-1.01 3.08h8.16v.61h-8.16zm3.69-2.7h.74v2.9h-.74zm-2.68-3.73h.74v3.62h-.74zm8.49 5.43h.59a26 26 0 0 0 1.62-.05q.79-.05 1.72-.21l.07.62q-.95.17-1.76.22-.81.04-1.65.04h-.59zm-.02-5.21h3.36v3.11h-2.62v2.33h-.72v-2.95h2.63v-1.88H30zm6.63-1h.71v9.01h-.71zm-1.58 3.58h1.77v.62h-1.77zm-.47-3.37h.69v8.33h-.69zM20.45 369v-.48q1.17-1.03 1.92-1.87.75-.85 1.1-1.57.36-.73.36-1.36 0-.43-.15-.77a1.15 1.15 0 0 0-.46-.53q-.31-.2-.78-.2-.46 0-.85.25-.39.24-.7.61l-.49-.46q.44-.48.94-.77.51-.3 1.19-.3.66 0 1.12.27.47.26.72.74.26.48.26 1.13 0 .74-.37 1.5-.36.75-1.02 1.54t-1.56 1.63l.6-.04q.32-.02.6-.02h2.11v.7zm5.578-7.27h5.32v.61h-5.32zm2.66 1.11q.64 0 1.12.2.49.2.75.56.27.36.27.86 0 .49-.27.85-.26.36-.75.56-.48.2-1.12.2t-1.13-.2q-.48-.2-.75-.56t-.27-.85q0-.5.27-.86t.75-.56q.49-.2 1.13-.2m0 .58q-.65 0-1.05.28a.89.89 0 0 0-.39.76q0 .46.39.75.4.28 1.05.28.64 0 1.04-.28.4-.29.4-.75a.88.88 0 0 0-.4-.76q-.39-.28-1.04-.28m3.54-2.67h.74v5.63h-.74zm.54 2.51h1.56v.63h-1.56zm-5.62 3.63h5.82v2.87h-.74v-2.26h-5.08zm1.17-6.18h.74v1.36h-.74zm13.53.05h.74v6.68h-.74zm-2.61 1.2h2.89v.6h-2.89zm-2.38 6.98h5.97v.61h-5.97zm0-2.08h.74v2.34h-.74zm-1.12-5.44h.73v4.25h-.73zm0 4.02h.67q.95 0 1.89-.07a20 20 0 0 0 2.02-.26l.08.62q-1.09.2-2.05.27-.96.06-1.94.06h-.67zm3.5-1.75h2.89v.6h-2.89zm10.015 1.8h.75v1.97h-.75zm0-3.16h.6v.2q0 .79-.33 1.44a3.5 3.5 0 0 1-.9 1.12 4 4 0 0 1-1.31.7l-.34-.58q.651-.2 1.17-.59a2.9 2.9 0 0 0 .81-.92q.3-.54.3-1.17zm.14 0h.6v.2q0 .6.3 1.12.31.52.83.9.52.37 1.18.56l-.34.58a4.1 4.1 0 0 1-1.32-.68q-.58-.45-.92-1.08-.33-.63-.33-1.4zm-2.22-.38h4.95v.6h-4.95zm2.08-1.14h.75v1.4h-.75zm3.94-.06h.74v9.02h-.74zm-6.41 7.12-.1-.62q.82 0 1.81-.01 1-.02 2.05-.08a22 22 0 0 0 2.05-.23l.06.56q-1.02.18-2.07.27-1.04.08-2.01.1-.97.01-1.79.01m9.52-6.32h4.16v4.16h-4.16zm3.45.6h-2.73v2.96h2.73zm2.69-1.39h.75v6.48h-.75zm-5 8.07h6.03v.61h-6.03zm0-2.21h.74v2.46h-.74zm11.189-5.04h.65v.28q0 .58-.29 1.06a3 3 0 0 1-.78.85q-.49.36-1.11.6-.61.24-1.28.35l-.28-.6q.46-.06.91-.2.45-.15.84-.35.39-.21.69-.47.3-.27.47-.58.18-.31.18-.66zm.29 0h.64v.28q0 .34.17.65.18.31.48.58t.69.48q.39.2.84.35.45.14.91.2l-.28.6a6.5 6.5 0 0 1-1.28-.35 4.6 4.6 0 0 1-1.11-.61 3.2 3.2 0 0 1-.77-.84 2 2 0 0 1-.29-1.06zm-3.15-.37h6.66v.61h-6.66zm-.75 4.2h8.16v.61h-8.16zm3.76.38h.74v2.1h-.74zm-2.71 3.15h6.2v.61h-6.2zm0-1.94h.74v2.17h-.74zm8.369 3.86-.2-.49q.45-.21.71-.57.26-.35.26-.82l-.11-.78.43.63a.54.54 0 0 1-.21.16.7.7 0 0 1-.23.04.66.66 0 0 1-.44-.16.56.56 0 0 1-.18-.44q0-.28.19-.44a.68.68 0 0 1 .45-.16q.33 0 .52.27.2.27.2.73 0 .7-.38 1.22a2.35 2.35 0 0 1-1.01.81m9.492-7.75h2.09v.62h-2.09zm1.85-2.36h.74v5.37h-.74zm-2.21 5.66q.93 0 1.59.2.67.19 1.03.57.37.37.37.9 0 .79-.8 1.23t-2.19.44q-1.38 0-2.18-.44t-.8-1.23q0-.53.36-.9.36-.38 1.03-.57.67-.2 1.59-.2m0 .59q-.69 0-1.2.13-.5.13-.78.37a.75.75 0 0 0-.27.58q0 .34.27.58.28.24.78.37.51.13 1.2.13.7 0 1.2-.13t.77-.37a.738.738 0 0 0 0-1.16q-.27-.24-.77-.37a4.8 4.8 0 0 0-1.2-.13m-2.1-5.34h.61v.76q0 .82-.33 1.54a3.94 3.94 0 0 1-2.18 2.06l-.38-.59q.49-.18.9-.49.42-.31.73-.7.31-.4.48-.86.17-.47.17-.96zm.14 0h.6v.75q0 .59.28 1.14.29.55.79.98.5.42 1.14.65l-.38.59a3.9 3.9 0 0 1-1.26-.77 3.6 3.6 0 0 1-.86-1.17 3.3 3.3 0 0 1-.31-1.42zm-2.19-.23h4.8v.61h-4.8zm15.56-.67h.74v6.87h-.74zm-1.59 2.42h1.9v.61h-1.9zm0 1.88h1.9v.61h-1.9zm-5.04-3.18h5.06v.61h-5.06zm2.55 1.13q.6 0 1.05.22.46.21.71.6.26.38.26.89t-.26.9q-.25.39-.71.61-.45.21-1.05.21-.591 0-1.05-.21a1.75 1.75 0 0 1-.72-.61 1.63 1.63 0 0 1-.25-.9q0-.51.25-.89.26-.39.72-.6a2.4 2.4 0 0 1 1.05-.22m0 .59q-.591 0-.96.31-.36.31-.36.81t.36.82q.369.31.96.31.59 0 .96-.31.37-.32.37-.82t-.37-.81-.96-.31m-.36-2.85h.74v1.52h-.74zm-.57 8.19h5.97v.61h-5.97zm0-1.91h.73v2.21h-.73zm8.038-5.48h4.16v4.16h-4.16zm3.45.6h-2.73v2.96h2.73zm2.69-1.39h.75v6.48h-.75zm-5 8.07h6.03v.61h-6.03zm0-2.21h.74v2.46h-.74z"/><circle cx="5" cy="398" r="4" fill="#f9f9f9" stroke="#2c91f8" stroke-width="2"/><path fill="#626262" d="M21.164 403v-8.844h5.232v1.176h-3.84v2.7h3.276v1.164h-3.276V403zm9.7 0v-5.52q0-.36.025-.864.024-.516.036-.864h-.048q-.168.312-.348.636-.168.312-.36.648l-1.728 2.616h4.836v1.08h-6.24v-.936l3.516-5.388h1.608V403z"/><path fill="#999" d="M21.53 415.88h6.21v.61h-6.21zm-1.01 3.08h8.16v.61h-8.16zm3.69-2.7h.74v2.9h-.74zm-2.68-3.73h.74v3.62h-.74zm8.49 5.43h.59a26 26 0 0 0 1.62-.05q.79-.05 1.72-.21l.07.62q-.95.17-1.76.22-.81.04-1.65.04h-.59zm-.02-5.21h3.36v3.11h-2.62v2.33h-.72v-2.95h2.63v-1.88H30zm6.63-1h.71v9.01h-.71zm-1.58 3.58h1.77v.62h-1.77zm-.47-3.37h.69v8.33h-.69zM20.45 437v-.48q1.17-1.03 1.92-1.87.75-.85 1.1-1.57.36-.73.36-1.36 0-.43-.15-.77a1.15 1.15 0 0 0-.46-.53q-.31-.2-.78-.2-.46 0-.85.25-.39.24-.7.61l-.49-.46q.44-.48.94-.77.51-.3 1.19-.3.66 0 1.12.27.47.26.72.74.26.48.26 1.13 0 .74-.37 1.5-.36.75-1.02 1.54t-1.56 1.63l.6-.04q.32-.02.6-.02h2.11v.7zm5.578-7.27h5.32v.61h-5.32zm2.66 1.11q.64 0 1.12.2.49.2.75.56.27.36.27.86 0 .49-.27.85-.26.36-.75.56-.48.2-1.12.2t-1.13-.2q-.48-.2-.75-.56t-.27-.85q0-.5.27-.86t.75-.56q.49-.2 1.13-.2m0 .58q-.65 0-1.05.28a.89.89 0 0 0-.39.76q0 .46.39.75.4.28 1.05.28.64 0 1.04-.28.4-.29.4-.75a.88.88 0 0 0-.4-.76q-.39-.28-1.04-.28m3.54-2.67h.74v5.63h-.74zm.54 2.51h1.56v.63h-1.56zm-5.62 3.63h5.82v2.87h-.74v-2.26h-5.08zm1.17-6.18h.74v1.36h-.74zm13.53.05h.74v6.68h-.74zm-2.61 1.2h2.89v.6h-2.89zm-2.38 6.98h5.97v.61h-5.97zm0-2.08h.74v2.34h-.74zm-1.12-5.44h.73v4.25h-.73zm0 4.02h.67q.95 0 1.89-.07a20 20 0 0 0 2.02-.26l.08.62q-1.09.2-2.05.27-.96.06-1.94.06h-.67zm3.5-1.75h2.89v.6h-2.89zm7.395 4.27h8.16v.62h-8.16zm3.71-2.21h.73v2.43h-.73zm-.02-3.87h.63v.6q0 .55-.21 1.04t-.58.91a4.2 4.2 0 0 1-.83.74q-.46.32-.97.55t-1.01.33l-.31-.59q.43-.08.89-.27.47-.19.89-.47.43-.28.76-.63a3 3 0 0 0 .54-.76q.2-.41.2-.85zm.14 0h.62v.6q0 .44.2.85.201.4.54.75.34.35.77.63.43.27.9.46t.91.26l-.31.59a5.7 5.7 0 0 1-1.03-.33 6 6 0 0 1-.99-.54 4.8 4.8 0 0 1-.83-.73 3.4 3.4 0 0 1-.57-.9 2.6 2.6 0 0 1-.21-1.04zm-3.16-.29h6.8v.62h-6.8zm11.12 3.68h.74v2.01h-.74zm4-4.51h.74v6.85h-.74zm-5.34 8.18h6.3v.61h-6.3zm0-2h.74v2.17h-.74zm-1.2-1.37-.1-.62q.83 0 1.81-.01.99-.02 2.02-.08 1.029-.06 1.98-.18l.06.55q-.97.15-2 .23-1.02.07-1.99.09zm4.68.52h2.06v.55h-2.06zm-1.85-4.96q.66 0 1.15.2.5.19.78.54t.28.82q0 .48-.28.83a1.8 1.8 0 0 1-.78.54q-.49.19-1.15.19t-1.16-.19a1.8 1.8 0 0 1-.78-.54q-.27-.35-.27-.83 0-.47.27-.82.279-.35.78-.54.5-.2 1.16-.2m0 .56q-.67 0-1.09.28-.42.27-.42.72t.42.73q.42.27 1.09.27.66 0 1.08-.27.42-.28.42-.73a.77.77 0 0 0-.19-.52 1.2 1.2 0 0 0-.53-.35q-.33-.13-.78-.13m12.879-.94h.74v9.01h-.74zm-6.4 7.2-.11-.63 1.86-.02a55 55 0 0 0 2.04-.06q1.05-.06 2.02-.19l.05.55q-1.011.17-2.04.24t-2.01.09q-.97.02-1.81.02m.08-5.96h5.48v.6h-5.48zm2.74 1.13q.64 0 1.12.21.48.2.75.58t.27.89-.27.89-.75.59-1.12.21q-.621 0-1.11-.21-.48-.21-.75-.59t-.27-.89.27-.89.75-.58q.489-.21 1.11-.21m0 .58q-.42 0-.75.14-.32.14-.5.39-.18.24-.18.57t.18.58.5.39q.33.14.75.14.429 0 .75-.14.32-.14.5-.39a.93.93 0 0 0 .19-.58.9.9 0 0 0-.19-.57 1.2 1.2 0 0 0-.5-.39 1.9 1.9 0 0 0-.75-.14m-.37-2.85h.74v1.52h-.74zm11.356 4.4h.75v2.08h-.75zm.38-3.9q.7 0 1.24.26t.85.74q.31.47.31 1.1 0 .62-.31 1.1-.31.47-.85.73a2.8 2.8 0 0 1-1.24.26q-.7 0-1.25-.26a2.07 2.07 0 0 1-.85-.73q-.3-.48-.3-1.1a2 2 0 0 1 .3-1.1q.31-.48.85-.74.55-.26 1.25-.26m0 .64q-.49 0-.87.19-.37.18-.59.51-.22.32-.22.76 0 .42.22.76.22.33.59.52.38.18.87.18t.86-.18q.38-.19.59-.52.22-.34.22-.76 0-.44-.22-.76-.21-.33-.59-.51a1.85 1.85 0 0 0-.86-.19m3.64-1.24h.74v9.02h-.74zm-6.41 7.03-.1-.62q.83 0 1.82-.01.99-.02 2.04-.08 1.06-.07 2.05-.22l.06.54q-1.02.19-2.07.28-1.041.08-2.01.1-.97.01-1.79.01m13.365 1.35q-.57 0-1-.14a2.7 2.7 0 0 1-.75-.37q-.32-.24-.56-.49l.42-.54q.33.33.76.6.44.26 1.09.26.45 0 .79-.17a1.3 1.3 0 0 0 .54-.5q.2-.32.2-.75 0-.46-.23-.8-.22-.34-.73-.53t-1.36-.19v-.64q.77 0 1.22-.19t.64-.52q.2-.34.2-.74 0-.55-.35-.87-.339-.33-.93-.33-.45 0-.84.21-.39.2-.7.51l-.44-.53a3.7 3.7 0 0 1 .89-.61q.49-.25 1.12-.25.6 0 1.07.22.47.21.74.62.27.4.27.97 0 .68-.36 1.13-.36.44-.95.65v.04q.43.1.78.35.36.25.57.63.22.38.22.89 0 .64-.32 1.11a2.03 2.03 0 0 1-.83.72q-.519.25-1.17.25m7.679-6.89h2.65v.61h-2.65zm0 1.78h2.67v.61h-2.67zm2.36-3.27h.74v5.34h-.74zm-6.22.69h4.08v3.98h-4.08zm3.36.6h-2.64v2.78h2.64zm.65 4.32q1.389 0 2.19.45.8.44.8 1.24t-.8 1.24q-.801.45-2.19.45-1.38 0-2.18-.45-.8-.44-.8-1.24t.8-1.24q.8-.45 2.18-.45m0 .59q-.69 0-1.2.13-.501.13-.78.38a.78.78 0 0 0 0 1.18q.279.24.78.37.51.14 1.2.14.699 0 1.2-.14.5-.13.77-.37a.77.77 0 0 0 .28-.59.77.77 0 0 0-.28-.59q-.27-.25-.77-.38a4.8 4.8 0 0 0-1.2-.13"/><circle cx="5" cy="466" r="4" fill="#f9f9f9" stroke="#2c91f8" stroke-width="2"/><path fill="#626262" d="M20.552 469.572h9.936v1.032h-9.936zm1.116-7.8h1.248v1.92H28.1v-1.92h1.248v5.784h-7.68zm1.248 2.916v1.848H28.1v-1.848zm16.463-3.672h1.26v10.992h-1.26zm-7.176 7.344h.936q.948 0 1.812-.024a31 31 0 0 0 3.528-.348l.12 1.02q-1.416.24-2.712.324-1.296.072-2.748.072h-.936zM32.18 462h5.124v4.056h-3.828v2.7h-1.272v-3.696h3.816v-2.04h-3.84zm10.451 7.572h9.936v1.032H42.63zm4.296-7.056h1.068v.78q0 .684-.228 1.296a4 4 0 0 1-.624 1.14 5 5 0 0 1-.96.948 6.5 6.5 0 0 1-1.224.708q-.66.288-1.38.432l-.516-1.02a5 5 0 0 0 1.224-.336 5.6 5.6 0 0 0 1.056-.576 4.2 4.2 0 0 0 .84-.744 3.1 3.1 0 0 0 .552-.876q.192-.468.192-.972zm.252 0h1.068v.78q0 .504.192.972.192.456.552.864t.84.744q.492.324 1.08.564.6.228 1.248.324l-.504.996a6.4 6.4 0 0 1-2.652-1.116 5 5 0 0 1-.96-.924 4.1 4.1 0 0 1-.636-1.128 3.7 3.7 0 0 1-.228-1.296zm-3.732-.48h8.28v1.02h-8.28z"/><path fill="#999" d="M20.93 484.13h.57q.65 0 1.19-.02.55-.02 1.06-.08t1.05-.18l.07.62q-.56.11-1.08.17t-1.07.08a35 35 0 0 1-1.22.02h-.57zm0-3.49h3.4v.6h-2.67v3.06h-.73zm6.45-.88h.71v6.69h-.71zm-1.52 2.6h1.75v.61h-1.75zm-.48-2.43h.7v6.23h-.7zm-3.13 8.01h6.12v.61h-6.12zm0-2.29h.74v2.59h-.74zm11.12-5.26h.65v.7q0 .59-.21 1.11t-.57.97-.83.8a5.7 5.7 0 0 1-.98.6q-.51.24-1.02.37l-.33-.62q.45-.1.91-.3.47-.21.89-.51.43-.31.76-.69.34-.38.53-.82.2-.44.2-.91zm.14 0h.63v.7q0 .47.2.91t.54.83q.34.38.76.68.43.3.89.51.47.21.92.3l-.34.62a5.7 5.7 0 0 1-1.02-.37 6.3 6.3 0 0 1-.98-.6 5.2 5.2 0 0 1-.83-.79 3.8 3.8 0 0 1-.57-.98 3.1 3.1 0 0 1-.2-1.11zm-3.79 6.52h8.16v.61h-8.16zm-9.2 14.32h8.14v.6h-8.14zm3.7-1.46h.72v1.71h-.72zm-2.67-.24h6.15v.61h-6.15zm0-2.36h6.08v.6h-5.35v2.11h-.73zm3.03 5.34q1.44 0 2.25.43.82.42.82 1.19t-.82 1.19q-.81.43-2.25.43t-2.26-.43q-.82-.42-.82-1.19t.82-1.19q.82-.43 2.26-.43m0 .59q-.72 0-1.25.12-.52.12-.8.35a.7.7 0 0 0-.28.56q0 .32.28.56.28.23.8.35.53.12 1.25.12t1.24-.12q.53-.12.81-.35.28-.24.28-.56a.7.7 0 0 0-.28-.56q-.28-.23-.81-.35a5.6 5.6 0 0 0-1.24-.12m7.53-5.64q.66 0 1.16.38.51.38.79 1.09.29.7.29 1.65 0 .96-.29 1.66-.28.7-.79 1.09-.5.38-1.16.38t-1.17-.38q-.51-.39-.8-1.09-.28-.7-.28-1.66 0-.95.28-1.65.29-.71.8-1.09t1.17-.38m0 .66q-.46 0-.81.31-.34.3-.54.86-.19.55-.19 1.29t.19 1.3q.2.56.55.87t.8.31.79-.31q.35-.31.54-.87.2-.56.2-1.3t-.2-1.29q-.19-.56-.54-.86a1.14 1.14 0 0 0-.79-.31m3.76-1.37h.74v9.01h-.74zm.57 3.63h1.68v.63h-1.68zm9.098-3.63h.74v9.02h-.74zm-6.1 6.21h.74q.75 0 1.46-.02.72-.03 1.46-.1.74-.08 1.55-.21l.08.61q-1.24.2-2.32.27t-2.23.07h-.74zm-.02-5.36h4.15v3.17h-3.38v2.42h-.75v-3.03h3.38v-1.94h-3.4z"/><circle cx="5" cy="534" r="4" fill="#f9f9f9" stroke="#2c91f8" stroke-width="2"/><path fill="#626262" d="M27.86 529.016h1.248v6.408H27.86zm.912 2.676h1.884v1.044h-1.884zm-3.996-2.004h1.32q0 1.416-.612 2.544-.6 1.116-1.74 1.908t-2.748 1.224l-.528-.984q1.404-.36 2.352-.96.96-.612 1.452-1.416a3.2 3.2 0 0 0 .504-1.728zm-3.78 0h4.5v1.008h-4.5zm.912 6.216h7.2v4.092H27.86v-3.084h-5.952zm12.48-5.976h1.031v1.8q0 .996-.216 1.92a7.3 7.3 0 0 1-.636 1.728 5.9 5.9 0 0 1-.996 1.416 4.5 4.5 0 0 1-1.32.972l-.756-1.032q.66-.3 1.188-.816a5.2 5.2 0 0 0 .912-1.2q.384-.672.588-1.44a6 6 0 0 0 .204-1.548zm.227 0h1.032v1.8q0 .756.192 1.488.204.732.576 1.38t.9 1.14 1.164.792l-.732 1.008a4.6 4.6 0 0 1-1.308-.936 5.8 5.8 0 0 1-.984-1.356 7 7 0 0 1-.624-1.668 8 8 0 0 1-.216-1.848zm4.74-.912h1.26v10.992h-1.26zm3.731 4.404h.864q1.116 0 1.944-.012.828-.024 1.524-.072.708-.06 1.44-.18l.12.984q-.744.12-1.476.18-.72.06-1.572.084-.852.012-1.98.012h-.864zm0-3.9h5.064v.984h-3.816v3.516h-1.248zm.852 1.944h4.008v.948h-4.008zm6-2.436h1.248v5.676h-1.248zm.732 2.268h2.064v1.032H50.67zm-6.564 3.912h7.08v2.736h-5.82v1.476H44.13v-2.388h5.82v-.864h-5.844zm.024 3.708h7.416v.972H44.13z"/><path fill="#999" d="M22.25 555.94h6.12v.61h-6.12zm0-2.28h.74v2.57h-.74zm5.13-5.9h.71v6.72h-.71zm-1.51 2.65h1.74v.62h-1.74zm-.43-2.48h.71v6.23h-.71zm-4.5.55h.7v1.51h2.06v-1.51h.7v4.3h-3.46zm.7 2.1v1.6h2.06v-1.6zm9.13 1.52h6.15v.61h-6.15zm-1.05 2.8h8.16v.61h-8.16zm1.05-6.3h6.06v.61H31.5v3.16h-.73zm-10.25 20.63h8.14v.6h-8.14zm3.7-1.46h.72v1.71h-.72zm-2.67-.24h6.15v.61h-6.15zm0-2.36h6.08v.6h-5.35v2.11h-.73zm3.03 5.34q1.44 0 2.25.43.82.42.82 1.19t-.82 1.19q-.81.43-2.25.43t-2.26-.43q-.82-.42-.82-1.19t.82-1.19q.82-.43 2.26-.43m0 .59q-.72 0-1.25.12-.52.12-.8.35a.7.7 0 0 0-.28.56q0 .32.28.56.28.23.8.35.53.12 1.25.12t1.24-.12q.53-.12.81-.35.28-.24.28-.56a.7.7 0 0 0-.28-.56q-.28-.23-.81-.35a5.6 5.6 0 0 0-1.24-.12m7.53-5.64q.66 0 1.16.38.51.38.79 1.09.29.7.29 1.65 0 .96-.29 1.66-.28.7-.79 1.09-.5.38-1.16.38t-1.17-.38q-.51-.39-.8-1.09-.28-.7-.28-1.66 0-.95.28-1.65.29-.71.8-1.09t1.17-.38m0 .66q-.46 0-.81.31-.34.3-.54.86-.19.55-.19 1.29t.19 1.3q.2.56.55.87t.8.31.79-.31q.35-.31.54-.87.2-.56.2-1.3t-.2-1.29q-.19-.56-.54-.86a1.14 1.14 0 0 0-.79-.31m3.76-1.37h.74v9.01h-.74zm.57 3.63h1.68v.63h-1.68zm9.098-3.63h.74v9.02h-.74zm-6.1 6.21h.74q.75 0 1.46-.02.72-.03 1.46-.1.74-.08 1.55-.21l.08.61q-1.24.2-2.32.27t-2.23.07h-.74zm-.02-5.36h4.15v3.17h-3.38v2.42h-.75v-3.03h3.38v-1.94h-3.4z"/><circle cx="5" cy="143" r="4" fill="#f9f9f9" stroke="#2c91f8" stroke-width="2"/><path fill="#626262" d="M21.548 139.048h7.008v1.02h-7.008zm-.996 7.476h9.912v1.032h-9.912zm2.28-3.552h1.236v3.9h-1.236zm5.34-3.924h1.248v1.14q0 .684-.012 1.428t-.096 1.608q-.072.864-.264 1.932l-1.248-.132q.276-1.512.324-2.664.048-1.164.048-2.172zm-2.628 3.924h1.236v3.9h-1.236zm8.64-4.044h1.02v1.8q0 .948-.217 1.872a7.4 7.4 0 0 1-.6 1.704q-.384.792-.948 1.416a4.5 4.5 0 0 1-1.272.972l-.756-1.02a4.3 4.3 0 0 0 1.152-.828q.516-.528.876-1.188.36-.672.552-1.416a6 6 0 0 0 .192-1.512zm.227 0h1.02v1.8q0 .732.18 1.452.18.708.528 1.356.36.636.852 1.14t1.104.804l-.768 1.008a4.5 4.5 0 0 1-1.224-.948 6.4 6.4 0 0 1-.912-1.368 7.9 7.9 0 0 1-.78-3.444zm4.416-.9h1.26v10.968h-1.26zm.984 4.332h1.98v1.056h-1.98zm10.422 2.544q1.176 0 2.04.252.864.24 1.332.696.48.456.48 1.092t-.48 1.092q-.468.456-1.332.696t-2.04.24-2.04-.24-1.344-.696a1.47 1.47 0 0 1-.468-1.092q0-.636.468-1.092.48-.456 1.344-.696.864-.252 2.04-.252m0 .96q-.804 0-1.392.12-.576.12-.888.372-.312.24-.312.588 0 .336.312.576t.888.372q.588.132 1.392.132.816 0 1.392-.132t.888-.372q.324-.24.324-.576 0-.348-.324-.588-.312-.252-.888-.372a7 7 0 0 0-1.392-.12m-3.756-7.32h7.008v1.008h-7.008zm-1.14 4.488h9.888v1.008h-9.888zm3.888-2.016h1.248v2.292h-1.248zm3.528-2.472h1.248v.924q0 .66-.036 1.368-.036.696-.264 1.548l-1.236-.132a8 8 0 0 0 .252-1.5q.036-.648.036-1.284zm8.627 1.104h3.276v1.02H61.38zm0 2.652h3.276v1.02H61.38zm2.809-4.272h1.26v8.064h-1.26zm-5.844 9.72h7.392v1.02h-7.392zm0-2.46h1.26v2.952h-1.26zm1.02-6.588q.816 0 1.463.36t1.02.984.373 1.44-.372 1.452a2.7 2.7 0 0 1-1.02.984q-.648.348-1.465.348a3 3 0 0 1-1.451-.348 2.7 2.7 0 0 1-1.02-.984 2.8 2.8 0 0 1-.373-1.452q0-.816.372-1.44a2.7 2.7 0 0 1 1.02-.984q.648-.36 1.453-.36m0 1.116q-.469 0-.84.216a1.6 1.6 0 0 0-.6.576q-.216.372-.216.876t.215.888q.229.384.6.6.372.204.852.204.47 0 .84-.204a1.57 1.57 0 0 0 .588-.6 1.8 1.8 0 0 0 .216-.888q0-.504-.216-.876a1.5 1.5 0 0 0-.587-.576 1.67 1.67 0 0 0-.852-.216"/><path fill="#999" d="M21.53 160.88h6.21v.61h-6.21zm-1.01 3.08h8.16v.61h-8.16zm3.69-2.7h.74v2.9h-.74zm-2.68-3.73h.74v3.62h-.74zm8.49 5.43h.59a26 26 0 0 0 1.62-.05q.79-.05 1.72-.21l.07.62q-.95.17-1.76.22-.81.04-1.65.04h-.59zm-.02-5.21h3.36v3.11h-2.62v2.33h-.72v-2.95h2.63v-1.88H30zm6.63-1h.71v9.01h-.71zm-1.58 3.58h1.77v.62h-1.77zm-.47-3.37h.69v8.33h-.69z"/></svg>