<svg xmlns="http://www.w3.org/2000/svg" width="225" height="741" fill="none" viewBox="0 0 225 741"><path stroke="#2c91f8" stroke-width="2" d="M55 52v26m0 142v58m0 16v28m0 16v128m0 16v43m0-431v110"/><path stroke="#f88f2c" stroke-width="2" d="M55 541v128m0 16v50"/><circle cx="55" cy="44" r="4" fill="#f9f9f9" stroke="#2c91f8" stroke-width="2"/><path fill="#2c91f8" d="M7.092 49.168q-.864 0-1.512-.516t-1.008-1.536q-.348-1.032-.348-2.568t.348-2.544q.36-1.008 1.008-1.5A2.4 2.4 0 0 1 7.092 40q.864 0 1.5.504t.984 1.512q.36.996.36 2.532t-.36 2.568q-.348 1.02-.984 1.536a2.3 2.3 0 0 1-1.5.516m0-1.104q.444 0 .792-.348t.54-1.116q.192-.78.192-2.052t-.192-2.028-.54-1.092a1.1 1.1 0 0 0-.792-.336q-.444 0-.792.336t-.552 1.092q-.192.756-.192 2.028t.192 2.052q.204.768.552 1.116t.792.348m6.34 1.104q-.768 0-1.332-.276a3.8 3.8 0 0 1-.936-.672l.756-.864q.264.3.648.48t.792.18q.42 0 .792-.192.384-.192.66-.624.288-.432.444-1.152.168-.72.168-1.764 0-1.104-.216-1.812-.216-.72-.612-1.056a1.33 1.33 0 0 0-.924-.348q-.384 0-.696.228a1.44 1.44 0 0 0-.492.624q-.18.408-.18.984 0 .564.156.96.168.396.492.612.324.204.78.204.42 0 .864-.264t.84-.864l.06 1.02q-.252.336-.588.588t-.696.396a2.1 2.1 0 0 1-.72.132q-.732 0-1.296-.312a2.23 2.23 0 0 1-.876-.924q-.312-.624-.312-1.548 0-.876.36-1.524.372-.66.972-1.02t1.308-.36q.636 0 1.188.264.564.252.972.78.42.528.66 1.332t.24 1.908q0 1.296-.264 2.232-.264.924-.732 1.512a3.15 3.15 0 0 1-1.056.864q-.588.276-1.224.276m8.399-4.728a.92.92 0 0 1-.66-.264.97.97 0 0 1-.264-.696q0-.432.264-.708a.9.9 0 0 1 .66-.276q.396 0 .66.276.276.276.276.708 0 .42-.276.696a.9.9 0 0 1-.66.264m0 4.728a.9.9 0 0 1-.66-.276 1 1 0 0 1-.264-.708q0-.432.264-.696a.9.9 0 0 1 .66-.276q.396 0 .66.276.276.264.276.696 0 .42-.276.708a.88.88 0 0 1-.66.276m8.55-.168v-5.76q0-.36.023-.852.025-.504.037-.864h-.049q-.166.336-.348.684-.167.348-.36.684l-1.728 2.652h4.836v1.08h-6.24V45.7l3.517-5.544h1.608V49zm6.207.168q-.864 0-1.512-.516t-1.008-1.536q-.348-1.032-.348-2.568t.348-2.544q.36-1.008 1.008-1.5A2.4 2.4 0 0 1 36.588 40q.864 0 1.5.504t.984 1.512q.36.996.36 2.532t-.36 2.568q-.348 1.02-.984 1.536a2.3 2.3 0 0 1-1.5.516m0-1.104q.444 0 .792-.348t.54-1.116q.192-.78.192-2.052t-.192-2.028-.54-1.092a1.1 1.1 0 0 0-.792-.336q-.444 0-.792.336t-.552 1.092q-.192.756-.192 2.028t.192 2.052q.204.768.552 1.116t.792.348"/><path fill="#000" d="M70.564 44.152h9.912v1.032h-9.912zm1.224-1.92h7.536v1.008h-7.536zm0-2.832h7.476v1.02h-6.228v2.292h-1.248zm3.696 6.588q1.776 0 2.772.528 1.008.516 1.008 1.476 0 .948-1.008 1.464-.996.516-2.772.516-1.752 0-2.76-.516t-1.008-1.464q0-.96 1.008-1.476 1.008-.528 2.76-.528m0 .972q-.792 0-1.356.12t-.864.348a.67.67 0 0 0-.288.564q0 .336.288.564.3.228.864.348.564.108 1.356.108.816 0 1.368-.108.564-.12.852-.348a.7.7 0 0 0 .288-.564.67.67 0 0 0-.288-.564q-.288-.228-.852-.348-.552-.12-1.368-.12m7.103-6.912h7.008v1.02h-7.008zm-.996 7.476h9.912v1.032h-9.912zm2.28-3.552h1.236v3.9h-1.236zm5.34-3.924h1.248v1.14q0 .684-.012 1.428t-.096 1.608q-.072.864-.264 1.932l-1.248-.132q.276-1.512.324-2.664.048-1.164.048-2.172zm-2.628 3.924h1.236v3.9h-1.236zm9.306-4.26h5.196v4.548h-5.196zm3.972.996h-2.748v2.556h2.748zm3.24-1.68h1.26v6.252h-1.26zm-2.952 7.608h1.08v.18q0 .588-.312 1.116a3.3 3.3 0 0 1-.888.936q-.564.42-1.344.696a7.2 7.2 0 0 1-1.692.396l-.42-.96q.636-.06 1.188-.204.552-.156.984-.372a3.6 3.6 0 0 0 .756-.48 2.2 2.2 0 0 0 .48-.552q.168-.288.168-.576zm.204 0h1.092v.18q0 .336.252.696.252.348.72.66.468.3 1.116.528a7 7 0 0 0 1.44.3l-.408.96a7.6 7.6 0 0 1-1.704-.408 5.1 5.1 0 0 1-1.332-.696 3.5 3.5 0 0 1-.876-.948q-.3-.528-.3-1.092zm-3.348-.684h7.572v.96h-7.572zm3.156-.984h1.272v1.428h-1.272zm13.219-.432h1.26v1.62h-1.26zm-4.308-.732h9.888v.936h-9.888zm4.308-4.824h1.248v1.32h-1.248zm-.06 1.416h1.104v.192q0 .624-.336 1.116-.324.48-.924.84t-1.44.576q-.828.204-1.836.276l-.36-.936q.9-.048 1.596-.204t1.188-.396q.492-.252.744-.576.264-.324.264-.696zm.276 0h1.104v.192q0 .372.252.696.264.324.744.576.492.24 1.188.396a10 10 0 0 0 1.608.204l-.36.936q-1.02-.072-1.848-.276a5.4 5.4 0 0 1-1.428-.576q-.6-.36-.936-.84a2 2 0 0 1-.324-1.116zm-3.552-.468h7.944v.936h-7.944zm.18 5.664h7.5v2.532h-6.24v1.2h-1.236V47.26h6.24v-.756h-6.264zm.024 3.36h7.788v.936h-7.788zm15.467-7.752h2.436v1.032h-2.436zm-2.988-1.62h1.032v1.092q0 1.068-.348 2.004a4.48 4.48 0 0 1-2.676 2.652l-.66-.996a4 4 0 0 0 1.452-.852q.6-.564.9-1.284t.3-1.524zm.252 0h1.008v1.164q0 .54.168 1.056.18.516.504.972.336.444.816.792t1.092.564l-.66.984a4.3 4.3 0 0 1-1.596-.984 4.6 4.6 0 0 1-.996-1.524 5.2 5.2 0 0 1-.336-1.86zm-1.176 6.504h7.38v3.912h-1.26v-2.904h-6.12zm6.12-7.056h1.26v6.492h-1.26zm8.61 5.088h1.248v1.464h-1.248zm4.632-5.088h1.248v7.404h-1.248zm.768 3.228h1.992V43.3h-1.992zm-8.04 3.9-.156-.996q.996 0 2.148-.012a60 60 0 0 0 2.364-.072 30 30 0 0 0 2.34-.228l.096.876q-1.164.204-2.364.3-1.2.084-2.34.108-1.128.024-2.088.024m1.212.78h7.308v3.06h-1.248V47.92h-6.06zm-1.092-7.008h6.264v.924h-6.264zm3.132 1.272q1.188 0 1.896.444.72.432.72 1.188t-.72 1.188q-.708.432-1.896.432-1.176 0-1.896-.432-.708-.432-.708-1.188t.708-1.188q.72-.444 1.896-.444m0 .84q-.648 0-1.032.204t-.384.588q0 .36.384.576.384.204 1.032.204.66 0 1.032-.204.384-.216.384-.576 0-.384-.384-.588-.372-.204-1.032-.204m-.612-3.108h1.248v1.44h-1.248zm16.115.096h1.26v7.956h-1.26zm-5.892 9.72h7.464v1.02h-7.464zm0-2.568h1.248v2.964h-1.248zm1.236-6.42q.828 0 1.488.348t1.044.972q.384.612.384 1.416 0 .792-.384 1.416t-1.044.972-1.488.348a3.14 3.14 0 0 1-1.488-.348 2.66 2.66 0 0 1-1.044-.972 2.65 2.65 0 0 1-.384-1.416q0-.804.384-1.416.384-.624 1.044-.972t1.488-.348m0 1.092q-.48 0-.864.204a1.5 1.5 0 0 0-.6.576q-.216.36-.216.864t.216.876q.216.36.6.564t.864.204.864-.204a1.5 1.5 0 0 0 .6-.564q.228-.372.228-.876t-.228-.864a1.5 1.5 0 0 0-.6-.576 1.8 1.8 0 0 0-.864-.204"/><path fill="#999" d="M71.37 58.68h5.81v.61h-5.81zm-.85 6.16h8.13v.62h-8.13zm2.04-2.99h.74v3.23h-.74zm4.37-3.17h.73v1.01q0 .57-.01 1.18-.01.6-.08 1.29-.06.68-.22 1.5l-.74-.09q.24-1.18.28-2.1.04-.93.04-1.78zm-2.14 3.17h.73v3.23h-.73zm11.54-4.1h.74v4.68h-.74zm-5.04 5.15h5.79v2.11h-5.05v1.3h-.72v-1.86h5.04v-.96h-5.06zm.02 3.15h6.09v.6h-6.09zm.79-8.03h.62v.69q0 .83-.33 1.56-.33.72-.91 1.25-.57.53-1.31.81l-.37-.59q.49-.18.91-.48.42-.31.73-.71a3 3 0 0 0 .49-.87q.17-.47.17-.97zm.13 0h.61v.69q0 .48.17.93.18.44.49.82.32.37.74.66t.91.45l-.37.59a4.4 4.4 0 0 1-1.02-.53 4 4 0 0 1-.81-.79q-.34-.45-.53-.99t-.19-1.14z"/><circle cx="55" cy="86" r="4" fill="#f9f9f9" stroke="#2c91f8" stroke-width="2"/><path fill="#2c91f8" d="M4.68 91v-1.14h1.944v-6.144H5.04v-.876a6 6 0 0 0 1.08-.276q.468-.168.852-.408h1.044v7.704h1.716V91zm9.256.168q-.864 0-1.512-.516t-1.008-1.536q-.348-1.032-.348-2.568t.348-2.544q.36-1.008 1.008-1.5A2.4 2.4 0 0 1 13.936 82q.864 0 1.5.504t.984 1.512q.36.996.36 2.532t-.36 2.568q-.348 1.02-.984 1.536a2.3 2.3 0 0 1-1.5.516m0-1.104q.444 0 .792-.348t.54-1.116q.192-.78.192-2.052t-.192-2.028-.54-1.092a1.1 1.1 0 0 0-.792-.336q-.444 0-.792.336t-.552 1.092q-.192.756-.192 2.028t.192 2.052q.204.768.552 1.116t.792.348m7.895-3.624a.92.92 0 0 1-.66-.264.97.97 0 0 1-.264-.696q0-.432.264-.708a.9.9 0 0 1 .66-.276q.396 0 .66.276.276.276.276.708 0 .42-.276.696a.9.9 0 0 1-.66.264m0 4.728a.9.9 0 0 1-.66-.276 1 1 0 0 1-.264-.708q0-.432.264-.696a.9.9 0 0 1 .66-.276q.396 0 .66.276.276.264.276.696 0 .42-.276.708a.88.88 0 0 1-.66.276m7.913 0q-.864 0-1.511-.516-.648-.516-1.009-1.536-.348-1.032-.348-2.568t.348-2.544q.36-1.008 1.009-1.5A2.4 2.4 0 0 1 29.744 82q.864 0 1.5.504.637.504.984 1.512.36.996.36 2.532t-.36 2.568q-.348 1.02-.984 1.536a2.3 2.3 0 0 1-1.5.516m0-1.104q.445 0 .793-.348t.54-1.116q.19-.78.191-2.052 0-1.272-.192-2.028t-.54-1.092a1.1 1.1 0 0 0-.792-.336q-.444 0-.791.336T28.4 84.52q-.192.756-.192 2.028T28.4 88.6q.204.768.552 1.116t.791.348m6.844 1.104q-.864 0-1.512-.516t-1.008-1.536q-.348-1.032-.348-2.568t.348-2.544q.36-1.008 1.008-1.5A2.4 2.4 0 0 1 36.588 82q.864 0 1.5.504t.984 1.512q.36.996.36 2.532t-.36 2.568q-.348 1.02-.984 1.536a2.3 2.3 0 0 1-1.5.516m0-1.104q.444 0 .792-.348t.54-1.116q.192-.78.192-2.052t-.192-2.028-.54-1.092a1.1 1.1 0 0 0-.792-.336q-.444 0-.792.336t-.552 1.092q-.192.756-.192 2.028t.192 2.052q.204.768.552 1.116t.792.348"/><path fill="#000" d="M70.564 82.096h6.468v.996h-6.468zm3.24 1.464q.78 0 1.38.252t.936.708q.336.444.336 1.044t-.336 1.056q-.336.444-.936.696-.6.24-1.38.24-.792 0-1.392-.24-.6-.252-.936-.696a1.73 1.73 0 0 1-.336-1.056q0-.6.336-1.044.336-.456.936-.708t1.392-.252m0 .972q-.66 0-1.068.276a.86.86 0 0 0-.396.756q0 .48.396.756.408.276 1.068.276.648 0 1.044-.276a.87.87 0 0 0 .396-.756.86.86 0 0 0-.396-.756q-.396-.276-1.044-.276m4.056-3.504h1.248v6.864H77.86zm.912 2.928h1.884V85h-1.884zm-6.864 4.464h7.2v3.576H77.86v-2.568h-5.952zm1.26-7.452h1.26v1.692h-1.26zm9.66 6.312h1.247v1.308h4.956V87.28h1.248v4.572h-7.452zm1.247 2.292v1.272h4.956v-1.272zm-1.236-8.076h7.008v1.008H82.84zm-1.248 3.912h9.936v1.02h-9.936zm7.464-3.912h1.236v.828q0 .684-.048 1.476-.036.78-.276 1.86l-1.26.048q.264-1.092.3-1.896a25 25 0 0 0 .048-1.488zm14.418-.48h1.2v10.968h-1.2zm-1.68 4.32h1.992v1.032h-1.992zm-.792-4.092h1.176v10.2h-1.176zm-5.316 7.104h.732q.756 0 1.392-.024t1.236-.084q.612-.072 1.248-.192l.12 1.032q-.66.132-1.284.204-.624.06-1.284.084-.648.024-1.428.024h-.732zm0-6.024h4.056v1.02h-2.82v5.484h-1.236zm17.988-1.296h1.248v7.008h-1.248zm.912 2.928h1.884V85h-1.884zm-3.156 4.176q1.116 0 1.92.24.816.228 1.248.66.444.42.444 1.032 0 .6-.444 1.032-.432.432-1.248.648-.804.228-1.92.228t-1.932-.228q-.804-.216-1.248-.648a1.4 1.4 0 0 1-.444-1.032q0-.612.444-1.032.444-.432 1.248-.66.816-.24 1.932-.24m0 .972q-1.128 0-1.752.24t-.624.72q0 .468.624.72.624.24 1.752.24t1.752-.24q.624-.252.624-.72 0-.48-.624-.72t-1.752-.24m-5.052-6.936h6.468v.996h-6.468zm3.24 1.464q.792 0 1.38.24.6.24.936.684.336.432.336 1.032 0 .576-.336 1.02t-.936.684q-.588.24-1.38.24t-1.392-.24-.936-.684a1.65 1.65 0 0 1-.336-1.02q0-.6.336-1.032.336-.444.936-.684t1.392-.24m0 .936q-.66 0-1.068.276a.84.84 0 0 0-.396.744q0 .468.396.744.408.264 1.068.264.648 0 1.044-.264a.86.86 0 0 0 .396-.744.84.84 0 0 0-.396-.744q-.396-.276-1.044-.276m-.637-3.624h1.261v1.764h-1.261zm-38.092 21.38h.744q.996 0 1.944-.048.96-.06 2.04-.252l.096 1.02q-1.104.204-2.076.264a41 41 0 0 1-2.004.048h-.744zm-.024-6.144h3.9v3.972H72.1v2.58h-1.212v-3.576h2.664v-1.968h-2.688zm7.836-1.164h1.2v10.968h-1.2zm-3.456 3.852h1.74V99.9h-1.74zm1.236-3.612h1.176v10.176H76.48zm6.263.816h6.936v1.02h-6.936zm-1.152 7.464h9.912v1.032h-9.912zm7.56-7.464h1.236v1.308q0 .804-.024 1.608a24 24 0 0 1-.12 1.728 19 19 0 0 1-.348 2.076l-1.248-.108q.252-1.08.348-1.98.108-.912.132-1.728t.024-1.596zm.276 3.012v.936l-6.816.36-.168-1.032zm10.991-4.068h1.26v10.992h-1.26zm-7.176 7.344h.936q.948 0 1.812-.024a31 31 0 0 0 3.528-.348l.12 1.02q-1.416.24-2.712.324-1.296.072-2.748.072h-.936zM93.218 96h5.124v4.056h-3.828v2.7h-1.272V99.06h3.816v-2.04h-3.84zm14.867 3.18h1.956v1.032h-1.956zm3.744-4.164h1.2v10.968h-1.2zm-2.196.216h1.176v10.236h-1.176zm-3.504.636q.72 0 1.248.48.54.468.828 1.344.288.864.288 2.076 0 1.2-.288 2.076t-.828 1.344a1.82 1.82 0 0 1-1.248.468q-.708 0-1.236-.468t-.816-1.344-.288-2.076q0-1.212.288-2.076.288-.876.816-1.344.54-.48 1.236-.48m0 1.188q-.36 0-.636.312t-.42.924q-.144.6-.144 1.476 0 .852.144 1.464t.42.936q.276.312.636.312a.82.82 0 0 0 .648-.312q.276-.324.42-.936a6.5 6.5 0 0 0 .144-1.464q0-.876-.144-1.476-.144-.612-.42-.924a.82.82 0 0 0-.648-.312m16.343-2.04h1.26v10.992h-1.26zm-4.572.804q.816 0 1.452.48.648.48 1.008 1.344t.36 2.04q0 1.188-.36 2.064-.36.864-1.008 1.344a2.4 2.4 0 0 1-1.452.468 2.44 2.44 0 0 1-1.464-.468q-.636-.48-1.008-1.344-.36-.876-.36-2.064 0-1.176.36-2.04.372-.864 1.008-1.344.648-.48 1.464-.48m0 1.14q-.48 0-.852.324-.36.324-.564.936t-.204 1.464q0 .864.204 1.476t.564.948q.372.324.852.324t.84-.324q.36-.336.564-.948t.204-1.476q0-.852-.204-1.464t-.564-.936a1.22 1.22 0 0 0-.84-.324m13.643-.408h2.34v1.02h-2.34zm0 2.196h2.34v1.008h-2.34zm-3.156-3.108h1.02v1.344q0 1.092-.348 2.064a4.9 4.9 0 0 1-1.02 1.68q-.672.72-1.644 1.092l-.672-.984a4 4 0 0 0 1.152-.636q.492-.396.828-.9.336-.516.504-1.104.18-.588.18-1.212zm.252 0h1.008v1.344q0 .576.168 1.14t.492 1.056q.336.492.804.888.48.384 1.104.612l-.696.984a4.3 4.3 0 0 1-1.56-1.068 4.8 4.8 0 0 1-.984-1.632 5.8 5.8 0 0 1-.336-1.98zm4.932-.612h1.26v8.148h-1.26zm-5.88 9.72h7.392v1.02h-7.392zm0-2.352h1.26v2.964h-1.26z"/><path fill="#999" d="M74.19 117.33h1.75v.62h-1.75zm-1.79-1.31h.58v.51q0 .67-.15 1.32-.14.65-.41 1.23t-.65 1.05q-.38.46-.87.76l-.44-.56q.45-.27.81-.68t.61-.92q.26-.52.39-1.08t.13-1.12zm.13 0h.58v.51q0 .54.13 1.08.14.54.4 1.02t.62.87.81.64l-.42.55a3.5 3.5 0 0 1-1.13-1.01 5.1 5.1 0 0 1-.73-1.47 5.5 5.5 0 0 1-.26-1.68zm-1.84-.58h4.13v.61h-4.13zm1.71-1.36h.72v1.82h-.72zm5.03-.33h.71v9.01h-.71zm-1.8.22h.7v8.31h-.7zm6.27 4.43h.74v1.78h-.74zm3.03 0h.73v1.78h-.73zm-5.22-.29h8.14v.61h-8.14zm.91 1.79h6.22v2.86h-.74v-2.25h-5.48zm3.16-5.93q.97 0 1.67.21.71.2 1.09.58.39.38.39.92t-.39.93q-.38.38-1.09.59-.7.2-1.67.2t-1.68-.2q-.7-.21-1.09-.59-.38-.39-.38-.93t.38-.92q.39-.38 1.09-.58.71-.21 1.68-.21m0 .59q-.73 0-1.27.13t-.83.39a.77.77 0 0 0-.29.6q0 .35.29.6t.83.39q.54.13 1.27.13t1.27-.13q.54-.14.83-.39a.77.77 0 0 0 .29-.6.77.77 0 0 0-.29-.6q-.29-.26-.83-.39a5.5 5.5 0 0 0-1.27-.13m5.638-.1h4.01v.61h-4.01zm1.4 1.99h.73v2.25h-.73zm2.31-1.99h.73v.46q0 .44-.03 1.11-.03.66-.21 1.56l-.73-.07q.18-.9.21-1.53.03-.64.03-1.07zm2.01-.71h.75v6.79h-.75zm.4 2.96h1.67v.63h-1.67zm-5.28 5.23h5.92v.61h-5.92zm0-2.02h.73v2.2h-.73zm-1.31-.85-.08-.62q.801 0 1.77-.02.97-.02 1.97-.08 1-.07 1.91-.19l.05.55q-.93.15-1.93.23a33 33 0 0 1-1.94.1q-.95.02-1.75.03"/><circle cx="55" cy="212" r="4" fill="#2c91f8" stroke="#2c91f8" stroke-width="2"/><circle cx="55" cy="212" r="4" fill="#f9f9f9" stroke="#2c91f8" stroke-width="2"/><path fill="#2c91f8" d="M4.68 217v-1.14h1.944v-6.144H5.04v-.876a6 6 0 0 0 1.08-.276q.468-.168.852-.408h1.044v7.704h1.716V217zm6.352 0v-.804q1.308-1.164 2.184-2.124.876-.972 1.308-1.8.444-.828.444-1.548 0-.48-.168-.84a1.13 1.13 0 0 0-.492-.564q-.324-.204-.828-.204-.516 0-.948.288a3.7 3.7 0 0 0-.792.684l-.78-.768q.564-.624 1.188-.972.636-.348 1.512-.348.804 0 1.404.336.6.324.924.924.336.588.336 1.392 0 .852-.42 1.728a9 9 0 0 1-1.152 1.752 22 22 0 0 1-1.668 1.776q.348-.036.732-.06.396-.036.708-.036h2.22V217zm10.799-4.56a.92.92 0 0 1-.66-.264.97.97 0 0 1-.264-.696q0-.432.264-.708a.9.9 0 0 1 .66-.276q.396 0 .66.276.276.276.276.708 0 .42-.276.696a.9.9 0 0 1-.66.264m0 4.728a.9.9 0 0 1-.66-.276 1 1 0 0 1-.264-.708q0-.432.264-.696a.9.9 0 0 1 .66-.276q.396 0 .66.276.276.264.276.696 0 .42-.276.708a.88.88 0 0 1-.66.276m7.913 0q-.864 0-1.511-.516-.648-.516-1.009-1.536-.348-1.032-.348-2.568t.348-2.544q.36-1.008 1.009-1.5a2.4 2.4 0 0 1 1.511-.504q.864 0 1.5.504.637.504.984 1.512.36.996.36 2.532t-.36 2.568q-.348 1.02-.984 1.536a2.3 2.3 0 0 1-1.5.516m0-1.104q.445 0 .793-.348t.54-1.116q.19-.78.191-2.052 0-1.272-.192-2.028t-.54-1.092a1.1 1.1 0 0 0-.792-.336q-.444 0-.791.336t-.552 1.092q-.192.756-.192 2.028t.192 2.052q.204.768.552 1.116t.791.348m6.844 1.104q-.864 0-1.512-.516t-1.008-1.536q-.348-1.032-.348-2.568t.348-2.544q.36-1.008 1.008-1.5a2.4 2.4 0 0 1 1.512-.504q.864 0 1.5.504t.984 1.512q.36.996.36 2.532t-.36 2.568q-.348 1.02-.984 1.536a2.3 2.3 0 0 1-1.5.516m0-1.104q.444 0 .792-.348t.54-1.116q.192-.78.192-2.052t-.192-2.028-.54-1.092a1.1 1.1 0 0 0-.792-.336q-.444 0-.792.336t-.552 1.092q-.192.756-.192 2.028t.192 2.052q.204.768.552 1.116t.792.348"/><path fill="#000" d="M76.432 209.668h2.28v1.032h-2.28zm1.944-2.64h1.26v6.372h-1.26zm-5.94 6.876h7.2v3.948h-7.2zm5.976.984h-4.74v1.968h4.74zm-5.184-6.84h1.032v.804q0 1.008-.372 1.92-.36.9-1.044 1.572a4.5 4.5 0 0 1-1.656 1.02l-.648-.996a4.4 4.4 0 0 0 1.14-.588q.504-.36.852-.828.348-.48.516-1.008.18-.54.18-1.092zm.252 0h1.02v.804q0 .672.3 1.32t.876 1.164 1.404.804l-.624.984a4.3 4.3 0 0 1-1.62-.972 4.4 4.4 0 0 1-1.008-1.5 4.8 4.8 0 0 1-.348-1.8zm-2.568-.384h5.868v1.008h-5.868zm18.455-.636h1.26v6.216h-1.26zm-5.904 6.78h7.164v4.044h-7.164zm5.94 1.008h-4.716v2.04h4.716zm-5.088-7.368h1.044v1.056q0 1.02-.372 1.92-.36.9-1.068 1.572a4.44 4.44 0 0 1-1.692 1.008l-.612-.984a4.3 4.3 0 0 0 1.152-.576q.504-.372.852-.84t.516-1.008q.18-.54.18-1.092zm.252 0h1.02v1.056q0 .54.18 1.056.18.504.516.948.348.432.84.78.504.336 1.14.54l-.612.972a4.9 4.9 0 0 1-1.308-.648q-.564-.42-.972-.984a4.3 4.3 0 0 1-.6-1.236 5 5 0 0 1-.204-1.428zm10.787.084h1.044v1.056a5.2 5.2 0 0 1-.372 1.968 4.7 4.7 0 0 1-1.056 1.608 4.5 4.5 0 0 1-1.68 1.032l-.624-1.008q.648-.216 1.14-.588.504-.372.852-.852a3.7 3.7 0 0 0 .516-1.032q.18-.552.18-1.128zm.252 0h1.02v1.056q0 .564.18 1.092.18.516.516.972.336.444.828.804.504.348 1.14.552l-.624.984a4.5 4.5 0 0 1-1.656-.984 4.4 4.4 0 0 1-1.044-1.524 5 5 0 0 1-.36-1.896zm-1.32 6.588h7.38v3.876h-1.26v-2.868h-6.12zm6.12-7.092h1.26v6.564h-1.26zm5.855.9h1.02v1.8q0 .948-.216 1.872a7.4 7.4 0 0 1-.6 1.704q-.384.792-.948 1.416a4.5 4.5 0 0 1-1.272.972l-.756-1.02a4.3 4.3 0 0 0 1.152-.828q.516-.528.876-1.188.36-.672.552-1.416a6 6 0 0 0 .192-1.512zm.228 0h1.02v1.8q0 .732.18 1.452.18.708.528 1.356.36.636.852 1.14t1.104.804l-.768 1.008a4.5 4.5 0 0 1-1.224-.948 6.4 6.4 0 0 1-.912-1.368 7.9 7.9 0 0 1-.78-3.444zm4.416-.9h1.26v10.968h-1.26zm.984 4.332h1.98v1.056h-1.98z"/><path fill="#999" d="M71.59 230.91h.73v1.23h4.55v-1.23h.73v3.73h-6.01zm.73 1.82v1.3h4.55v-1.3zm-.76-6.56h5.81v.61h-5.81zm-1.04 3.28h8.16v.62h-8.16zm6.36-3.28h.72v.65q0 .54-.04 1.22-.03.68-.24 1.59h-.74q.23-.92.26-1.59.04-.67.04-1.22zm5.22.01h.62v.88q0 .85-.33 1.6a4 4 0 0 1-.89 1.29q-.57.55-1.3.84l-.38-.59q.49-.19.91-.5a3.56 3.56 0 0 0 1.2-1.63q.17-.49.17-1.01zm.13 0h.61v.88q0 .5.17.96.18.46.48.86.31.39.73.69.42.29.91.47l-.37.59a4.2 4.2 0 0 1-1.31-.8 3.8 3.8 0 0 1-.9-1.23 3.75 3.75 0 0 1-.32-1.54zm-1.14 5.47h5.99v3.11h-.75v-2.5h-5.24zm5.24-5.9h.75v5.43h-.75zm9.198 0h.74v4.68h-.74zm-5.04 5.15h5.79v2.11h-5.05v1.3h-.72v-1.86h5.04v-.96h-5.06zm.02 3.15h6.09v.6h-6.09zm.79-8.03h.62v.69a3.75 3.75 0 0 1-1.24 2.81q-.57.53-1.31.81l-.37-.59q.49-.18.91-.48.42-.31.73-.71.32-.4.49-.87t.17-.97zm.13 0h.61v.69q0 .48.17.93.18.44.49.82.32.37.74.66t.91.45l-.37.59a4.4 4.4 0 0 1-1.02-.53 4.2 4.2 0 0 1-.81-.79q-.34-.45-.53-.99t-.19-1.14z"/><circle cx="55" cy="286" r="4" fill="#f9f9f9" stroke="#2c91f8" stroke-width="2"/><path fill="#2c91f8" d="M4.68 291v-1.14h1.944v-6.144H5.04v-.876a6 6 0 0 0 1.08-.276q.468-.168.852-.408h1.044v7.704h1.716V291zm9.04.168q-.696 0-1.236-.168a3.6 3.6 0 0 1-.936-.444 4.5 4.5 0 0 1-.708-.612l.672-.888q.396.384.9.672t1.188.288q.504 0 .876-.168.372-.18.576-.504.216-.324.216-.792 0-.48-.24-.84-.228-.372-.804-.564-.564-.204-1.56-.204v-1.032q.876 0 1.368-.192.504-.204.72-.552.228-.348.228-.792 0-.576-.36-.912-.36-.348-.996-.348-.504 0-.948.228-.432.216-.816.588l-.72-.864q.528-.48 1.152-.768.624-.3 1.38-.3.792 0 1.404.276.612.264.96.768t.348 1.236q0 .756-.42 1.284a2.46 2.46 0 0 1-1.104.792v.048q.504.132.912.432.42.288.66.744t.24 1.044q0 .792-.408 1.368-.396.564-1.068.876-.672.3-1.476.3m8.111-4.728a.92.92 0 0 1-.66-.264.97.97 0 0 1-.264-.696q0-.432.264-.708a.9.9 0 0 1 .66-.276q.396 0 .66.276.276.276.276.708 0 .42-.276.696a.9.9 0 0 1-.66.264m0 4.728a.9.9 0 0 1-.66-.276 1 1 0 0 1-.264-.708q0-.432.264-.696a.9.9 0 0 1 .66-.276q.396 0 .66.276.276.264.276.696 0 .42-.276.708a.88.88 0 0 1-.66.276m7.913 0q-.864 0-1.511-.516-.648-.516-1.009-1.536-.348-1.032-.348-2.568t.348-2.544q.36-1.008 1.009-1.5a2.4 2.4 0 0 1 1.511-.504q.864 0 1.5.504.637.504.984 1.512.36.996.36 2.532t-.36 2.568q-.348 1.02-.984 1.536a2.3 2.3 0 0 1-1.5.516m0-1.104q.445 0 .793-.348t.54-1.116q.19-.78.191-2.052 0-1.272-.192-2.028t-.54-1.092a1.1 1.1 0 0 0-.792-.336q-.444 0-.791.336t-.552 1.092q-.192.756-.192 2.028t.192 2.052q.204.768.552 1.116t.791.348m6.844 1.104q-.864 0-1.512-.516t-1.008-1.536q-.348-1.032-.348-2.568t.348-2.544q.36-1.008 1.008-1.5a2.4 2.4 0 0 1 1.512-.504q.864 0 1.5.504t.984 1.512q.36.996.36 2.532t-.36 2.568q-.348 1.02-.984 1.536a2.3 2.3 0 0 1-1.5.516m0-1.104q.444 0 .792-.348t.54-1.116q.192-.78.192-2.052t-.192-2.028-.54-1.092a1.1 1.1 0 0 0-.792-.336q-.444 0-.792.336t-.552 1.092q-.192.756-.192 2.028t.192 2.052q.204.768.552 1.116t.792.348"/><path fill="#000" d="M75.46 287.904q1.176 0 2.04.252.864.24 1.332.696.48.456.48 1.092t-.48 1.092q-.468.456-1.332.696t-2.04.24-2.04-.24-1.344-.696a1.47 1.47 0 0 1-.468-1.092q0-.636.468-1.092.48-.456 1.344-.696.864-.252 2.04-.252m0 .96q-.804 0-1.392.12-.576.12-.888.372-.312.24-.312.588 0 .336.312.576t.888.372q.588.132 1.392.132.816 0 1.392-.132t.888-.372q.324-.24.324-.576 0-.348-.324-.588-.312-.252-.888-.372a7 7 0 0 0-1.392-.12m-3.756-7.32h7.008v1.008h-7.008zm-1.14 4.488h9.888v1.008h-9.888zm3.888-2.016H75.7v2.292h-1.248zm3.528-2.472h1.248v.924q0 .66-.036 1.368-.036.696-.264 1.548l-1.236-.132a8 8 0 0 0 .252-1.5q.036-.648.036-1.284zm8.627 1.104h3.276v1.02h-3.276zm0 2.652h3.276v1.02h-3.276zm2.808-4.272h1.26v8.064h-1.26zm-5.844 9.72h7.392v1.02h-7.392zm0-2.46h1.26v2.952h-1.26zm1.02-6.588q.816 0 1.464.36t1.02.984.372 1.44-.372 1.452a2.7 2.7 0 0 1-1.02.984q-.648.348-1.464.348a3 3 0 0 1-1.452-.348 2.7 2.7 0 0 1-1.02-.984 2.8 2.8 0 0 1-.372-1.452q0-.816.372-1.44a2.7 2.7 0 0 1 1.02-.984q.648-.36 1.452-.36m0 1.116q-.468 0-.84.216a1.6 1.6 0 0 0-.6.576q-.216.372-.216.876t.216.888q.228.384.6.6.372.204.852.204.468 0 .84-.204a1.57 1.57 0 0 0 .588-.6 1.8 1.8 0 0 0 .216-.888q0-.504-.216-.876a1.5 1.5 0 0 0-.588-.576 1.67 1.67 0 0 0-.852-.216m10.326 10.344 3.336-11.748h.948L95.89 293.16zm7.792-6.84h9.912v1.008h-9.912zm4.32-1.716h1.248v2.112h-1.248zm-3.096-.396h7.536v1.008h-7.536zm0-2.7h7.476v.996h-6.228v2.328h-1.248zm3.696 6.492q1.776 0 2.772.528 1.008.516 1.008 1.464 0 .96-1.008 1.476-.996.516-2.772.516-1.752 0-2.76-.516t-1.008-1.476q0-.948 1.008-1.464 1.008-.528 2.76-.528m0 .972q-.792 0-1.356.12t-.864.348a.66.66 0 0 0-.288.552q0 .336.288.576.3.228.864.348.564.108 1.356.108.816 0 1.368-.108.564-.12.852-.348.288-.24.288-.576a.66.66 0 0 0-.288-.552q-.288-.228-.852-.348-.552-.12-1.368-.12m9.035-7.152q.816 0 1.44.48.636.48.996 1.344.372.864.372 2.052 0 1.176-.372 2.052-.36.864-.996 1.344a2.34 2.34 0 0 1-1.44.468q-.828 0-1.464-.468-.624-.48-.996-1.344-.36-.876-.36-2.052 0-1.188.36-2.052.372-.864.996-1.344.636-.48 1.464-.48m0 1.14q-.48 0-.852.324-.36.324-.564.936-.192.612-.192 1.464 0 .864.192 1.476.204.612.564.948.372.324.852.324.468 0 .828-.324.372-.336.564-.948.204-.612.204-1.476 0-.852-.204-1.464-.192-.612-.564-.936a1.2 1.2 0 0 0-.828-.324m4.308-1.932h1.26v10.968h-1.26zm.984 4.272h1.98v1.044h-1.98zm10.607-4.284h1.26v10.992h-1.26zm-7.176 7.344h.936q.948 0 1.812-.024a31 31 0 0 0 3.528-.348l.12 1.02q-1.416.24-2.712.324-1.296.072-2.748.072h-.936zm-.024-6.36h5.124v4.056h-3.828v2.7h-1.272v-3.696h3.816v-2.04h-3.84zm13.146 5.436h9.936v1.008h-9.936zm4.308.492h1.248v4.068h-1.248zm-3.12-6.468h1.26v1.38h5.016v-1.38h1.236v4.788h-7.512zm1.26 2.376v1.404h5.016v-1.404zm12.839-2.112h1.092v.816q0 .72-.228 1.38-.216.648-.624 1.224a5.3 5.3 0 0 1-.972 1.02 6 6 0 0 1-1.224.78 6.6 6.6 0 0 1-1.404.468l-.552-1.044q.648-.12 1.236-.372a5.6 5.6 0 0 0 1.08-.636q.492-.384.84-.828.36-.456.552-.96.204-.516.204-1.032zm.24 0h1.092v.816q0 .528.192 1.032.204.504.564.96t.852.828 1.08.636q.588.252 1.236.372l-.552 1.044a6.6 6.6 0 0 1-1.404-.468 6.3 6.3 0 0 1-1.236-.78 5.5 5.5 0 0 1-.96-1.02 5 5 0 0 1-.636-1.224q-.228-.66-.228-1.38zm-4.488 7.812h9.936v1.044h-9.936zm-74.88 6.572h1.116v.312q0 .672-.312 1.26-.312.576-.876 1.044-.564.456-1.344.768-.78.3-1.716.432l-.456-1.008q.636-.072 1.188-.24.552-.18.984-.42.444-.24.756-.528.324-.3.492-.624.168-.336.168-.684zm.564 0h1.116v.312q0 .336.168.672t.48.636q.312.288.756.528t.996.42q.552.168 1.188.24l-.468 1.008a7.8 7.8 0 0 1-1.704-.432 5.5 5.5 0 0 1-1.344-.768 3.6 3.6 0 0 1-.876-1.044 2.65 2.65 0 0 1-.312-1.26zm-3.78-.576h8.112v1.008h-8.112zm-.912 5.052h9.936v1.008H70.54zm4.44.636h1.26v2.436h-1.26zm-3.228 3.528h7.62v1.02h-7.62zm0-2.112h1.26v2.484h-1.26zm17.603-7.62h1.26v10.992h-1.26zm-7.176.9h1.248v2.796H86.2v-2.796h1.248v7.488H82.18zm1.248 3.78v2.688H86.2v-2.688z"/><circle cx="55" cy="330" r="4" fill="#f9f9f9" stroke="#2c91f8" stroke-width="2"/><path fill="#2c91f8" d="M4.68 335v-1.14h1.944v-6.144H5.04v-.876a6 6 0 0 0 1.08-.276q.468-.168.852-.408h1.044v7.704h1.716V335zm9.04.168q-.696 0-1.236-.168a3.6 3.6 0 0 1-.936-.444 4.5 4.5 0 0 1-.708-.612l.672-.888q.396.384.9.672t1.188.288q.504 0 .876-.168.372-.18.576-.504.216-.324.216-.792 0-.48-.24-.84-.228-.372-.804-.564-.564-.204-1.56-.204v-1.032q.876 0 1.368-.192.504-.204.72-.552.228-.348.228-.792 0-.576-.36-.912-.36-.348-.996-.348-.504 0-.948.228-.432.216-.816.588l-.72-.864q.528-.48 1.152-.768.624-.3 1.38-.3.792 0 1.404.276.612.264.96.768t.348 1.236q0 .756-.42 1.284a2.46 2.46 0 0 1-1.104.792v.048q.504.132.912.432.42.288.66.744t.24 1.044q0 .792-.408 1.368-.396.564-1.068.876-.672.3-1.476.3m8.111-4.728a.92.92 0 0 1-.66-.264.97.97 0 0 1-.264-.696q0-.432.264-.708a.9.9 0 0 1 .66-.276q.396 0 .66.276.276.276.276.708 0 .42-.276.696a.9.9 0 0 1-.66.264m0 4.728a.9.9 0 0 1-.66-.276 1 1 0 0 1-.264-.708q0-.432.264-.696a.9.9 0 0 1 .66-.276q.396 0 .66.276.276.264.276.696 0 .42-.276.708a.88.88 0 0 1-.66.276m7.698 0q-.697 0-1.236-.168a3.6 3.6 0 0 1-.936-.444 4.5 4.5 0 0 1-.709-.612l.672-.888q.396.384.9.672.505.288 1.189.288.503 0 .876-.168.372-.18.575-.504.217-.324.216-.792 0-.48-.24-.84-.228-.372-.803-.564-.565-.204-1.56-.204v-1.032q.876 0 1.367-.192.505-.204.72-.552.228-.348.229-.792 0-.576-.36-.912-.36-.348-.996-.348-.505 0-.948.228-.432.216-.816.588l-.72-.864q.527-.48 1.151-.768.625-.3 1.38-.3.794 0 1.404.276.613.264.96.768.35.504.349 1.236 0 .756-.42 1.284a2.46 2.46 0 0 1-1.104.792v.048q.503.132.912.432.42.288.66.744t.24 1.044q0 .792-.409 1.368-.396.564-1.068.876-.672.3-1.476.3m7.06 0q-.864 0-1.513-.516t-1.008-1.536q-.348-1.032-.348-2.568t.348-2.544q.36-1.008 1.008-1.5a2.4 2.4 0 0 1 1.512-.504q.864 0 1.5.504t.984 1.512q.36.996.36 2.532t-.36 2.568q-.348 1.02-.984 1.536a2.3 2.3 0 0 1-1.5.516m0-1.104q.444 0 .791-.348t.54-1.116q.192-.78.192-2.052t-.192-2.028-.54-1.092a1.1 1.1 0 0 0-.792-.336q-.444 0-.792.336t-.552 1.092q-.192.756-.192 2.028t.192 2.052q.204.768.552 1.116t.792.348"/><path fill="#000" d="M75.46 331.904q1.176 0 2.04.252.864.24 1.332.696.48.456.48 1.092t-.48 1.092q-.468.456-1.332.696t-2.04.24-2.04-.24-1.344-.696a1.47 1.47 0 0 1-.468-1.092q0-.636.468-1.092.48-.456 1.344-.696.864-.252 2.04-.252m0 .96q-.804 0-1.392.12-.576.12-.888.372-.312.24-.312.588 0 .336.312.576t.888.372q.588.132 1.392.132.816 0 1.392-.132t.888-.372q.324-.24.324-.576 0-.348-.324-.588-.312-.252-.888-.372a7 7 0 0 0-1.392-.12m-3.756-7.32h7.008v1.008h-7.008zm-1.14 4.488h9.888v1.008h-9.888zm3.888-2.016H75.7v2.292h-1.248zm3.528-2.472h1.248v.924q0 .66-.036 1.368-.036.696-.264 1.548l-1.236-.132a8 8 0 0 0 .252-1.5q.036-.648.036-1.284zm8.627 1.104h3.276v1.02h-3.276zm0 2.652h3.276v1.02h-3.276zm2.808-4.272h1.26v8.064h-1.26zm-5.844 9.72h7.392v1.02h-7.392zm0-2.46h1.26v2.952h-1.26zm1.02-6.588q.816 0 1.464.36t1.02.984.372 1.44-.372 1.452a2.7 2.7 0 0 1-1.02.984q-.648.348-1.464.348a3 3 0 0 1-1.452-.348 2.7 2.7 0 0 1-1.02-.984 2.8 2.8 0 0 1-.372-1.452q0-.816.372-1.44a2.7 2.7 0 0 1 1.02-.984q.648-.36 1.452-.36m0 1.116q-.468 0-.84.216a1.6 1.6 0 0 0-.6.576q-.216.372-.216.876t.216.888q.228.384.6.6.372.204.852.204.468 0 .84-.204a1.57 1.57 0 0 0 .588-.6 1.8 1.8 0 0 0 .216-.888q0-.504-.216-.876a1.5 1.5 0 0 0-.588-.576 1.67 1.67 0 0 0-.852-.216"/><path fill="#999" d="M74.19 347.33h1.75v.62h-1.75zm-1.79-1.31h.58v.51q0 .67-.15 1.32-.14.65-.41 1.23t-.65 1.05q-.38.46-.87.76l-.44-.56q.45-.27.81-.68t.61-.92q.26-.52.39-1.08t.13-1.12zm.13 0h.58v.51q0 .54.13 1.08.14.54.4 1.02t.62.87.81.64l-.42.55a3.5 3.5 0 0 1-1.13-1.01 5.1 5.1 0 0 1-.73-1.47 5.5 5.5 0 0 1-.26-1.68zm-1.84-.58h4.13v.61h-4.13zm1.71-1.36h.72v1.82h-.72zm5.03-.33h.71v9.01h-.71zm-1.8.22h.7v8.31h-.7zm6.27 4.43h.74v1.78h-.74zm3.03 0h.73v1.78h-.73zm-5.22-.29h8.14v.61h-8.14zm.91 1.79h6.22v2.86h-.74v-2.25h-5.48zm3.16-5.93q.97 0 1.67.21.71.2 1.09.58.39.38.39.92t-.39.93q-.38.38-1.09.59-.7.2-1.67.2t-1.68-.2q-.7-.21-1.09-.59-.38-.39-.38-.93t.38-.92q.39-.38 1.09-.58.71-.21 1.68-.21m0 .59q-.73 0-1.27.13t-.83.39a.77.77 0 0 0-.29.6q0 .35.29.6t.83.39q.54.13 1.27.13t1.27-.13q.54-.14.83-.39a.77.77 0 0 0 .29-.6.77.77 0 0 0-.29-.6q-.29-.26-.83-.39a5.5 5.5 0 0 0-1.27-.13m5.638-.1h4.01v.61h-4.01zm1.4 1.99h.73v2.25h-.73zm2.31-1.99h.73v.46q0 .44-.03 1.11-.03.66-.21 1.56l-.73-.07q.18-.9.21-1.53.03-.64.03-1.07zm2.01-.71h.75v6.79h-.75zm.4 2.96h1.67v.63h-1.67zm-5.28 5.23h5.92v.61h-5.92zm0-2.02h.73v2.2h-.73zm-1.31-.85-.08-.62q.801 0 1.77-.02.97-.02 1.97-.08 1-.07 1.91-.19l.05.55q-.93.15-1.93.23a33 33 0 0 1-1.94.1q-.95.02-1.75.03"/><circle cx="55" cy="474" r="4" fill="#f9f9f9" stroke="#2c91f8" stroke-width="2"/><path fill="#2c91f8" d="M4.68 479v-1.14h1.944v-6.144H5.04v-.876a6 6 0 0 0 1.08-.276q.468-.168.852-.408h1.044v7.704h1.716V479zm9.04.168q-.684 0-1.224-.168a3.6 3.6 0 0 1-.948-.444 5.4 5.4 0 0 1-.72-.576l.66-.9q.252.252.552.468.3.204.672.336.384.132.852.132.492 0 .888-.216.396-.228.624-.648.228-.432.228-1.02 0-.864-.468-1.344-.456-.48-1.212-.48-.42 0-.72.12t-.684.372l-.684-.444.264-4.2h4.476v1.176H13l-.204 2.256q.288-.144.576-.216.288-.084.636-.084.744 0 1.356.3t.972.924q.36.612.36 1.584t-.42 1.668q-.42.684-1.104 1.044-.672.36-1.452.36m8.111-4.728a.92.92 0 0 1-.66-.264.97.97 0 0 1-.264-.696q0-.432.264-.708a.9.9 0 0 1 .66-.276q.396 0 .66.276.276.276.276.708 0 .42-.276.696a.9.9 0 0 1-.66.264m0 4.728a.9.9 0 0 1-.66-.276 1 1 0 0 1-.264-.708q0-.432.264-.696a.9.9 0 0 1 .66-.276q.396 0 .66.276.276.264.276.696 0 .42-.276.708a.88.88 0 0 1-.66.276m8.55-.168v-5.76q0-.36.023-.852.025-.504.037-.864h-.049q-.166.336-.348.684-.167.348-.36.684l-1.728 2.652h4.836v1.08h-6.24v-.924l3.517-5.544h1.608V479zm6.207.168q-.864 0-1.512-.516t-1.008-1.536q-.348-1.032-.348-2.568t.348-2.544q.36-1.008 1.008-1.5a2.4 2.4 0 0 1 1.512-.504q.864 0 1.5.504t.984 1.512q.36.996.36 2.532t-.36 2.568q-.348 1.02-.984 1.536a2.3 2.3 0 0 1-1.5.516m0-1.104q.444 0 .792-.348t.54-1.116q.192-.78.192-2.052t-.192-2.028-.54-1.092a1.1 1.1 0 0 0-.792-.336q-.444 0-.792.336t-.552 1.092q-.192.756-.192 2.028t.192 2.052q.204.768.552 1.116t.792.348"/><path fill="#000" d="M70.564 474.32h9.912v1.008h-9.912zm4.32-1.716h1.248v2.112h-1.248zm-3.096-.396h7.536v1.008h-7.536zm0-2.7h7.476v.996h-6.228v2.328h-1.248zM75.484 476q1.776 0 2.772.528 1.008.516 1.008 1.464 0 .96-1.008 1.476-.996.516-2.772.516-1.752 0-2.76-.516t-1.008-1.476q0-.948 1.008-1.464 1.008-.528 2.76-.528m0 .972q-.792 0-1.356.12t-.864.348a.66.66 0 0 0-.288.552q0 .336.288.576.3.228.864.348.564.108 1.356.108.816 0 1.368-.108.564-.12.852-.348.288-.24.288-.576a.66.66 0 0 0-.288-.552q-.288-.228-.852-.348-.552-.12-1.368-.12m9.035-7.152q.816 0 1.44.48.636.48.996 1.344.372.864.372 2.052 0 1.176-.372 2.052-.36.864-.996 1.344a2.34 2.34 0 0 1-1.44.468q-.828 0-1.464-.468-.624-.48-.996-1.344-.36-.876-.36-2.052 0-1.188.36-2.052.372-.864.996-1.344.636-.48 1.464-.48m0 1.14q-.48 0-.852.324-.36.324-.564.936-.192.612-.192 1.464 0 .864.192 1.476.204.612.564.948.372.324.852.324.468 0 .828-.324.372-.336.564-.948.204-.612.204-1.476 0-.852-.204-1.464-.192-.612-.564-.936a1.2 1.2 0 0 0-.828-.324m4.308-1.932h1.26v10.968h-1.26zm.984 4.272h1.98v1.044h-1.98zm10.607-4.284h1.26v10.992h-1.26zm-7.176 7.344h.936q.948 0 1.812-.024a31 31 0 0 0 3.528-.348l.12 1.02q-1.416.24-2.712.324-1.296.072-2.748.072h-.936zm-.024-6.36h5.124v4.056h-3.828v2.7h-1.272v-3.696h3.816v-2.04h-3.84zm13.147 5.436h9.936v1.008h-9.936zm4.308.492h1.248v4.068h-1.248zm-3.12-6.468h1.259v1.38h5.017v-1.38h1.236v4.788h-7.512zm1.259 2.376v1.404h5.017v-1.404zm12.84-2.112h1.092v.816q0 .72-.228 1.38-.216.648-.624 1.224a5.3 5.3 0 0 1-.972 1.02 6 6 0 0 1-1.224.78 6.6 6.6 0 0 1-1.404.468l-.552-1.044q.648-.12 1.236-.372a5.6 5.6 0 0 0 1.08-.636q.492-.384.84-.828.36-.456.552-.96.204-.516.204-1.032zm.24 0h1.092v.816q0 .528.192 1.032.204.504.564.96t.852.828 1.08.636q.588.252 1.236.372l-.552 1.044a6.6 6.6 0 0 1-1.404-.468 6.3 6.3 0 0 1-1.236-.78 5.5 5.5 0 0 1-.96-1.02 5 5 0 0 1-.636-1.224q-.228-.66-.228-1.38zm-4.488 7.812h9.936v1.044h-9.936zm13.326 3.624 3.336-11.748h.948l-3.312 11.748zm15.627-12.144h1.26v10.992h-1.26zm-2.712 3.972h3.084v1.02h-3.084zm-4.716-3.108h1.248v2.76h2.652v-2.76h1.236v7.44h-5.136zm1.248 3.756v2.664h2.652v-2.664zm13.619-3.912h1.092v.816q0 .72-.228 1.38-.216.648-.624 1.224a5.3 5.3 0 0 1-.972 1.02 6 6 0 0 1-1.224.78 6.6 6.6 0 0 1-1.404.468l-.552-1.044q.648-.12 1.236-.372a5.6 5.6 0 0 0 1.08-.636q.492-.384.84-.828.36-.456.552-.96.204-.516.204-1.032zm.24 0h1.092v.816q0 .528.192 1.032.204.504.564.96t.852.828 1.08.636q.588.252 1.236.372l-.552 1.044a6.6 6.6 0 0 1-1.404-.468 6.3 6.3 0 0 1-1.236-.78 5.5 5.5 0 0 1-.96-1.02 5 5 0 0 1-.636-1.224q-.228-.66-.228-1.38zm-4.488 7.812h9.936v1.044h-9.936zm15.551-7.812h1.308q0 1.464-.528 2.628-.528 1.152-1.656 2.004-1.116.84-2.904 1.368l-.48-1.008q1.164-.324 1.98-.768.816-.456 1.308-1.02.504-.576.732-1.248.24-.672.24-1.428zm-3.756 0h4.476v1.008h-4.476zm3.708 2.04v.864l-4.068.3-.192-.996zm3.312-2.736h1.26v6.528h-1.26zm-2.388 6.696q1.14 0 1.968.264.84.252 1.284.732.456.468.456 1.128 0 .672-.456 1.152-.444.48-1.284.732-.828.252-1.968.252t-1.98-.252q-.828-.252-1.284-.732a1.64 1.64 0 0 1-.444-1.152q0-.66.444-1.128.456-.48 1.284-.732.84-.264 1.98-.264m0 .996q-.78 0-1.332.132-.552.12-.84.384a.78.78 0 0 0-.288.612q0 .372.288.636.288.252.84.384t1.332.132 1.32-.132q.552-.132.84-.384.3-.264.3-.636 0-.36-.3-.612-.288-.264-.84-.384-.54-.132-1.32-.132m-91.307 7.388h1.116v.312q0 .672-.312 1.26-.312.576-.876 1.044-.564.456-1.344.768-.78.3-1.716.432l-.456-1.008q.636-.072 1.188-.24.552-.18.984-.42.444-.24.756-.528.324-.3.492-.624.168-.336.168-.684zm.564 0h1.116v.312q0 .336.168.672t.48.636q.312.288.756.528t.996.42q.552.168 1.188.24l-.468 1.008a7.8 7.8 0 0 1-1.704-.432 5.5 5.5 0 0 1-1.344-.768 3.6 3.6 0 0 1-.876-1.044 2.65 2.65 0 0 1-.312-1.26zm-3.78-.576h8.112v1.008h-8.112zm-.912 5.052h9.936v1.008H70.54zm4.44.636h1.26v2.436h-1.26zm-3.228 3.528h7.62v1.02h-7.62zm0-2.112h1.26v2.484h-1.26zm17.603-7.62h1.26v10.992h-1.26zm-7.176.9h1.248v2.796H86.2v-2.796h1.248v7.488H82.18zm1.248 3.78v2.688H86.2v-2.688z"/><circle cx="55" cy="533" r="4" fill="#f9f9f9" stroke="#f88f2c" stroke-width="2"/><path fill="#f88f2c" d="M4.68 538v-1.14h1.944v-6.144H5.04v-.876a6 6 0 0 0 1.08-.276q.468-.168.852-.408h1.044v7.704h1.716V538zm9.04.168q-.684 0-1.224-.168a3.6 3.6 0 0 1-.948-.444 5.4 5.4 0 0 1-.72-.576l.66-.9q.252.252.552.468.3.204.672.336.384.132.852.132.492 0 .888-.216.396-.228.624-.648.228-.432.228-1.02 0-.864-.468-1.344-.456-.48-1.212-.48-.42 0-.72.12t-.684.372l-.684-.444.264-4.2h4.476v1.176H13l-.204 2.256q.288-.144.576-.216.288-.084.636-.084.744 0 1.356.3t.972.924q.36.612.36 1.584t-.42 1.668q-.42.684-1.104 1.044-.672.36-1.452.36m8.111-4.728a.92.92 0 0 1-.66-.264.97.97 0 0 1-.264-.696q0-.432.264-.708a.9.9 0 0 1 .66-.276q.396 0 .66.276.276.276.276.708 0 .42-.276.696a.9.9 0 0 1-.66.264m0 4.728a.9.9 0 0 1-.66-.276 1 1 0 0 1-.264-.708q0-.432.264-.696a.9.9 0 0 1 .66-.276q.396 0 .66.276.276.264.276.696 0 .42-.276.708a.88.88 0 0 1-.66.276m7.698 0q-.684 0-1.224-.168a3.6 3.6 0 0 1-.948-.444 5.4 5.4 0 0 1-.72-.576l.66-.9q.251.252.552.468.3.204.671.336.384.132.852.132.493 0 .889-.216.396-.228.624-.648.227-.432.227-1.02 0-.864-.467-1.344-.458-.48-1.212-.48-.42 0-.72.12t-.684.372l-.684-.444.264-4.2h4.475v1.176h-3.276l-.203 2.256q.287-.144.575-.216.288-.084.637-.084.744 0 1.355.3.612.3.973.924.36.612.36 1.584t-.42 1.668q-.42.684-1.105 1.044-.672.36-1.451.36m7.06 0q-.864 0-1.513-.516t-1.008-1.536q-.348-1.032-.348-2.568t.348-2.544q.36-1.008 1.008-1.5a2.4 2.4 0 0 1 1.512-.504q.864 0 1.5.504t.984 1.512q.36.996.36 2.532t-.36 2.568q-.348 1.02-.984 1.536a2.3 2.3 0 0 1-1.5.516m0-1.104q.444 0 .791-.348t.54-1.116q.192-.78.192-2.052t-.192-2.028-.54-1.092a1.1 1.1 0 0 0-.792-.336q-.444 0-.792.336t-.552 1.092q-.192.756-.192 2.028t.192 2.052q.204.768.552 1.116t.792.348"/><path fill="#999" d="M1.517 547.73h5.32v.61h-5.32zm2.66 1.11q.64 0 1.12.2.489.2.75.56.27.36.27.86 0 .49-.27.85-.261.36-.75.56-.48.2-1.12.2t-1.13-.2q-.48-.2-.75-.56t-.27-.85q0-.5.27-.86t.75-.56q.49-.2 1.13-.2m0 .58q-.651 0-1.05.28a.89.89 0 0 0-.39.76q0 .46.39.75.399.28 1.05.28.64 0 1.04-.28.4-.29.4-.75a.88.88 0 0 0-.4-.76q-.39-.28-1.04-.28m3.54-2.67h.74v5.63h-.74zm.54 2.51h1.56v.63h-1.56zm-5.62 3.63h5.82v2.87h-.74v-2.26h-5.08zm1.17-6.18h.74v1.36h-.74zm7.739.97h5.81v.61h-5.81zm-.85 6.16h8.13v.62h-8.13zm2.04-2.99h.74v3.23h-.74zm4.37-3.17h.73v1.01q0 .57-.01 1.18-.01.6-.08 1.29-.06.68-.22 1.5l-.74-.09q.24-1.18.28-2.1.04-.93.04-1.78zm-2.14 3.17h.73v3.23h-.73zm14.056-4.1h.71v9.01h-.71zm-1.52 3.66h1.78v.62h-1.78zm-2.26-2.49h.72a8 8 0 0 1-.18 1.68 6.2 6.2 0 0 1-.56 1.58q-.38.76-1.04 1.43-.65.66-1.61 1.2l-.43-.53q1.149-.64 1.83-1.46a5.1 5.1 0 0 0 .97-1.77q.3-.96.3-2zm-2.78 0h3.04v.62h-3.04zm4.56-.93h.7v8.31h-.7zm8.409 5.44q.91 0 1.57.2.66.19 1.01.56.36.37.36.89t-.36.9q-.35.37-1.01.57t-1.57.2-1.58-.2q-.66-.2-1.02-.57a1.28 1.28 0 0 1-.35-.9q0-.52.35-.89.36-.37 1.02-.56.67-.2 1.58-.2m0 .6q-.68 0-1.18.13-.5.12-.77.36a.71.71 0 0 0-.27.56q0 .34.27.58t.77.36q.5.13 1.18.13t1.18-.13q.5-.12.77-.36t.27-.58a.71.71 0 0 0-.27-.56q-.27-.24-.77-.36a4.7 4.7 0 0 0-1.18-.13m2.11-6.28h.74v5.43h-.74zm.54 2.29h1.56v.63h-1.56zm-6.37-1.72h.73v1.39h2.68v-1.39h.72v4.14h-4.13zm.73 1.98v1.55h2.68v-1.55z"/><path fill="#000" d="M70.564 533.32h9.912v1.008h-9.912zm4.32-1.716h1.248v2.112h-1.248zm-3.096-.396h7.536v1.008h-7.536zm0-2.7h7.476v.996h-6.228v2.328h-1.248zM75.484 535q1.776 0 2.772.528 1.008.516 1.008 1.464 0 .96-1.008 1.476-.996.516-2.772.516-1.752 0-2.76-.516t-1.008-1.476q0-.948 1.008-1.464 1.008-.528 2.76-.528m0 .972q-.792 0-1.356.12t-.864.348a.66.66 0 0 0-.288.552q0 .336.288.576.3.228.864.348.564.108 1.356.108.816 0 1.368-.108.564-.12.852-.348.288-.24.288-.576a.66.66 0 0 0-.288-.552q-.288-.228-.852-.348-.552-.12-1.368-.12m9.035-7.152q.816 0 1.44.48.636.48.996 1.344.372.864.372 2.052 0 1.176-.372 2.052-.36.864-.996 1.344a2.34 2.34 0 0 1-1.44.468q-.828 0-1.464-.468-.624-.48-.996-1.344-.36-.876-.36-2.052 0-1.188.36-2.052.372-.864.996-1.344.636-.48 1.464-.48m0 1.14q-.48 0-.852.324-.36.324-.564.936-.192.612-.192 1.464 0 .864.192 1.476.204.612.564.948.372.324.852.324.468 0 .828-.324.372-.336.564-.948.204-.612.204-1.476 0-.852-.204-1.464-.192-.612-.564-.936a1.2 1.2 0 0 0-.828-.324m4.308-1.932h1.26v10.968h-1.26zm.984 4.272h1.98v1.044h-1.98zm10.607-4.284h1.26v10.992h-1.26zm-7.176 7.344h.936q.948 0 1.812-.024a31 31 0 0 0 3.528-.348l.12 1.02q-1.416.24-2.712.324-1.296.072-2.748.072h-.936zm-.024-6.36h5.124v4.056h-3.828v2.7h-1.272v-3.696h3.816v-2.04h-3.84zm13.147 5.436h9.936v1.008h-9.936zm4.308.492h1.248v4.068h-1.248zm-3.12-6.468h1.259v1.38h5.017v-1.38h1.236v4.788h-7.512zm1.259 2.376v1.404h5.017v-1.404zm12.84-2.112h1.092v.816q0 .72-.228 1.38-.216.648-.624 1.224a5.3 5.3 0 0 1-.972 1.02 6 6 0 0 1-1.224.78 6.6 6.6 0 0 1-1.404.468l-.552-1.044q.648-.12 1.236-.372a5.6 5.6 0 0 0 1.08-.636q.492-.384.84-.828.36-.456.552-.96.204-.516.204-1.032zm.24 0h1.092v.816q0 .528.192 1.032.204.504.564.96t.852.828 1.08.636q.588.252 1.236.372l-.552 1.044a6.6 6.6 0 0 1-1.404-.468 6.3 6.3 0 0 1-1.236-.78 5.5 5.5 0 0 1-.96-1.02 5 5 0 0 1-.636-1.224q-.228-.66-.228-1.38zm-4.488 7.812h9.936v1.044h-9.936zm13.326 3.624 3.336-11.748h.948l-3.312 11.748zm10.707-11.34q.816 0 1.44.48.636.48.996 1.344.372.864.372 2.052 0 1.176-.372 2.052-.36.864-.996 1.344a2.34 2.34 0 0 1-1.44.468q-.828 0-1.464-.468-.624-.48-.996-1.344-.36-.876-.36-2.052 0-1.188.36-2.052.372-.864.996-1.344.636-.48 1.464-.48m0 1.14q-.48 0-.852.324-.36.324-.564.936-.192.612-.192 1.464 0 .864.192 1.476.204.612.564.948.372.324.852.324.468 0 .828-.324.372-.336.564-.948.204-.612.204-1.476 0-.852-.204-1.464-.192-.612-.564-.936a1.2 1.2 0 0 0-.828-.324m5.232.732h1.98v1.044h-1.98zm0 3.24h1.98v1.032h-1.98zm-.924-5.904h1.26v10.968h-1.26zm6.707 5.484h1.26v2.4h-1.26zm.636-4.812q.864 0 1.536.336t1.056.936q.384.588.384 1.356t-.384 1.368a2.6 2.6 0 0 1-1.056.936q-.672.336-1.536.336-.852 0-1.524-.336a2.7 2.7 0 0 1-1.068-.936 2.5 2.5 0 0 1-.384-1.368q0-.768.384-1.356.396-.6 1.068-.936t1.524-.336m0 1.08q-.492 0-.9.192a1.5 1.5 0 0 0-.624.54 1.46 1.46 0 0 0-.228.816q0 .48.228.84.228.348.624.54.408.18.9.18.504 0 .888-.18.396-.192.624-.54.228-.36.228-.84 0-.468-.228-.816a1.5 1.5 0 0 0-.624-.54 1.96 1.96 0 0 0-.888-.192m4.224-1.764h1.26v10.992h-1.26zm-7.548 8.688-.168-1.032q.996 0 2.184-.012a65 65 0 0 0 2.436-.096q1.26-.084 2.436-.264l.096.924q-1.212.228-2.46.336-1.236.096-2.4.12t-2.124.024M78.4 542.016h1.26v10.992H78.4zm-2.712 3.972h3.084v1.02h-3.084zm-4.716-3.108h1.248v2.76h2.652v-2.76h1.236v7.44h-5.136zm1.248 3.756v2.664h2.652v-2.664zm13.62-3.912h1.091v.816q0 .72-.228 1.38-.216.648-.624 1.224a5.3 5.3 0 0 1-.972 1.02 6 6 0 0 1-1.224.78 6.6 6.6 0 0 1-1.404.468l-.552-1.044q.648-.12 1.236-.372a5.6 5.6 0 0 0 1.08-.636q.492-.384.84-.828.36-.456.552-.96.204-.516.204-1.032zm.24 0h1.091v.816q0 .528.192 1.032.204.504.564.96t.852.828 1.08.636q.588.252 1.236.372l-.552 1.044a6.6 6.6 0 0 1-1.404-.468 6.3 6.3 0 0 1-1.236-.78 5.5 5.5 0 0 1-.96-1.02 5 5 0 0 1-.636-1.224q-.228-.66-.228-1.38zm-4.489 7.812h9.936v1.044h-9.936zm15.551-7.812h1.308q0 1.464-.528 2.628-.528 1.152-1.656 2.004-1.116.84-2.904 1.368l-.48-1.008q1.164-.324 1.98-.768.816-.456 1.308-1.02.504-.576.732-1.248.24-.672.24-1.428zm-3.756 0h4.476v1.008h-4.476zm3.708 2.04v.864l-4.068.3-.192-.996zm3.312-2.736h1.26v6.528h-1.26zm-2.388 6.696q1.14 0 1.968.264.84.252 1.284.732.456.468.456 1.128 0 .672-.456 1.152-.444.48-1.284.732-.828.252-1.968.252t-1.98-.252q-.828-.252-1.284-.732a1.64 1.64 0 0 1-.444-1.152q0-.66.444-1.128.456-.48 1.284-.732.84-.264 1.98-.264m0 .996q-.78 0-1.332.132-.552.12-.84.384a.78.78 0 0 0-.288.612q0 .372.288.636.288.252.84.384t1.332.132 1.32-.132q.552-.132.84-.384.3-.264.3-.636 0-.36-.3-.612-.288-.264-.84-.384-.54-.132-1.32-.132"/><path fill="#999" d="M70.51 565.35h8.16v.62h-8.16zm3.77.38h.75v2.11h-.75zm-2.71 3.2h6.2v.62h-6.2zm0-2h.73v2.18h-.73zm3.01-5.94q.95 0 1.65.22.71.21 1.1.62.39.4.39.96 0 .55-.39.96-.39.4-1.1.62-.7.22-1.65.22t-1.66-.22q-.7-.22-1.09-.62a1.35 1.35 0 0 1-.39-.96q0-.56.39-.96.39-.41 1.09-.62.71-.22 1.66-.22m0 .61q-.7 0-1.24.15-.53.14-.83.41a.82.82 0 0 0-.29.63q0 .36.29.63.3.27.83.41.54.14 1.24.14.71 0 1.24-.14t.82-.41q.3-.27.3-.63 0-.37-.3-.63-.29-.27-.82-.41-.53-.15-1.24-.15m5.14 3.63h8.14v.6h-8.14zm3.7-1.46h.72v1.71h-.72zm-2.67-.24h6.15v.61h-6.15zm0-2.36h6.08v.6h-5.35v2.11h-.73zm3.03 5.34q1.44 0 2.25.43.82.42.82 1.19t-.82 1.19q-.81.43-2.25.43t-2.26-.43q-.82-.42-.82-1.19t.82-1.19q.82-.43 2.26-.43m0 .59q-.72 0-1.25.12-.52.12-.8.35a.7.7 0 0 0-.28.56q0 .32.28.56.28.23.8.35.53.12 1.25.12t1.24-.12q.53-.12.81-.35.28-.24.28-.56a.7.7 0 0 0-.28-.56q-.28-.23-.81-.35a5.6 5.6 0 0 0-1.24-.12m7.398-5.39h.6v.76q0 .82-.32 1.52a3.7 3.7 0 0 1-.89 1.22 3.8 3.8 0 0 1-1.3.79l-.37-.59q.66-.23 1.17-.67.52-.45.81-1.03.3-.59.3-1.24zm.12 0h.61v.75q0 .6.28 1.14.28.53.77.93a3.9 3.9 0 0 0 1.15.63l-.35.58a3.8 3.8 0 0 1-1.29-.73 3.6 3.6 0 0 1-.86-1.14 3.2 3.2 0 0 1-.31-1.41zm-2.17-.28h4.8v.61h-4.8zm6.01-.68h.74v5.45h-.74zm.54 2.33h1.56v.62h-1.56zm-2.65 3.37q.91 0 1.57.2.66.19 1.01.55.36.36.36.89 0 .52-.36.89-.35.37-1.01.56-.66.2-1.57.2t-1.58-.2q-.66-.19-1.02-.56a1.25 1.25 0 0 1-.35-.89q0-.53.35-.89.36-.36 1.02-.55.67-.2 1.58-.2m0 .6q-.68 0-1.18.13-.5.12-.77.35a.71.71 0 0 0-.27.56q0 .33.27.57.27.23.77.35.5.13 1.18.13t1.18-.13q.5-.12.77-.35.27-.24.27-.57a.71.71 0 0 0-.27-.56q-.27-.23-.77-.35a4.7 4.7 0 0 0-1.18-.13M70.8 573.79h1.76v.62H70.8zm2.48 2.64h.7v2.98h-.7zm-1.09-2.64h.69v.46q0 .35-.02.86-.02.5-.11 1.16-.08.65-.28 1.47l-.7-.11q.21-.79.3-1.42.09-.64.1-1.12.02-.49.02-.84zm4.9-1.04h.74v9.01h-.74zm-6.46 7.04-.09-.63q.86 0 1.87-.01 1.01-.02 2.06-.08 1.05-.07 2.03-.21l.04.56q-1 .17-2.05.25a36 36 0 0 1-2.03.1q-.98.02-1.83.02m2.86-6h1.89v.62h-1.89zm1.72 0h.69v.56q0 .56-.03 1.39a15 15 0 0 1-.2 1.95l-.69-.09q.18-1.1.2-1.9.03-.8.03-1.35zm5.14-.1h2.37v.61h-2.37zm-.64 6.12h8.14v.61h-8.14zm3.89-2.95h.73v3.25h-.73zm-1.19-3.17h.73v.29q0 .34-.02.93a13 13 0 0 1-.15 1.45q-.12.85-.41 1.97l-.75-.12q.31-1.04.43-1.86a13 13 0 0 0 .14-1.42q.03-.6.03-.95zm1.46 0h2.57v.61h-2.57zm2.31 0h.73v.62q0 .68-.05 1.65-.04.96-.32 2.35l-.74-.1q.29-1.32.33-2.28.05-.96.05-1.62zm9.358-.94h.74v9.02h-.74zm-6.1 6.21h.74q.75 0 1.46-.02.72-.03 1.46-.1.74-.08 1.55-.21l.08.61q-1.24.2-2.32.27t-2.23.07h-.74zm-.02-5.36h4.15v3.17h-3.38v2.42h-.75v-3.03h3.38v-1.94h-3.4zm9.13-.2h7.22v.55h-7.22zm3.63.94q1.4 0 2.14.29.75.29.75.88t-.75.88q-.74.29-2.14.29t-2.15-.29q-.74-.29-.74-.88t.74-.88q.75-.29 2.15-.29m0 .51q-1.03 0-1.57.17t-.54.49q0 .33.54.5t1.57.17 1.57-.17.54-.5q0-.32-.54-.49t-1.57-.17m-.36-2.26h.73v1.24h-.73zm-3.71 4.74h8.14v.57h-8.14zm3.71-.85h.73v1.12h-.73zm-2.71 2.03h6.09v1.79h-5.33v.95h-.74v-1.48h5.32v-.72h-5.34zm.02 2.59h6.34v.55h-6.34zM70.8 585.79h1.76v.62H70.8zm2.48 2.64h.7v2.98h-.7zm-1.09-2.64h.69v.46q0 .35-.02.86-.02.5-.11 1.16-.08.65-.28 1.47l-.7-.11q.21-.79.3-1.42.09-.64.1-1.12.02-.49.02-.84zm4.9-1.04h.74v9.01h-.74zm-6.46 7.04-.09-.63q.86 0 1.87-.01 1.01-.02 2.06-.08 1.05-.07 2.03-.21l.04.56q-1 .17-2.05.25a36 36 0 0 1-2.03.1q-.98.02-1.83.02m2.86-6h1.89v.62h-1.89zm1.72 0h.69v.56q0 .56-.03 1.39a15 15 0 0 1-.2 1.95l-.69-.09q.18-1.1.2-1.9.03-.8.03-1.35zm5.14-.1h2.37v.61h-2.37zm-.64 6.12h8.14v.61h-8.14zm3.89-2.95h.73v3.25h-.73zm-1.19-3.17h.73v.29q0 .34-.02.93a13 13 0 0 1-.15 1.45q-.12.85-.41 1.97l-.75-.12q.31-1.04.43-1.86a13 13 0 0 0 .14-1.42q.03-.6.03-.95zm1.46 0h2.57v.61h-2.57zm2.31 0h.73v.62q0 .68-.05 1.65-.04.96-.32 2.35l-.74-.1q.29-1.32.33-2.28.05-.96.05-1.62zm9.358-.94h.74v9.02h-.74zm-6.1 6.21h.74q.75 0 1.46-.02.72-.03 1.46-.1.74-.08 1.55-.21l.08.61q-1.24.2-2.32.27t-2.23.07h-.74zm-.02-5.36h4.15v3.17h-3.38v2.42h-.75v-3.03h3.38v-1.94h-3.4zm8.7 3.63h8.14v.6h-8.14zm3.7-1.46h.72v1.71h-.72zm-2.67-.24h6.15v.61h-6.15zm0-2.36h6.08v.6h-5.35v2.11h-.73zm3.03 5.34q1.44 0 2.25.43.82.42.82 1.19t-.82 1.19q-.81.43-2.25.43t-2.26-.43q-.82-.42-.82-1.19t.82-1.19q.82-.43 2.26-.43m0 .59q-.72 0-1.25.12-.52.12-.8.35a.7.7 0 0 0-.28.56q0 .32.28.56.28.23.8.35.53.12 1.25.12t1.24-.12q.53-.12.81-.35.28-.24.28-.56a.7.7 0 0 0-.28-.56q-.28-.23-.81-.35-.52-.12-1.24-.12m7.379-5.8h.62v1.13q0 .88-.32 1.62-.31.73-.87 1.27-.55.54-1.3.83l-.39-.59q.67-.25 1.18-.71.51-.47.79-1.09.29-.62.29-1.33zm.13 0h.6v1.16q0 .47.17.91t.47.83q.31.38.71.67.41.28.9.46l-.37.59a3.9 3.9 0 0 1-1.29-.78 3.9 3.9 0 0 1-.87-1.21q-.32-.69-.32-1.47zm3.85-.55h.74v6.66h-.74zm.51 2.79h1.59v.62h-1.59zm-5.31 5.4h5.96v.61h-5.96zm0-2.17h.74v2.46h-.74z"/><circle cx="55" cy="677" r="4" fill="#f9f9f9" stroke="#f88f2c" stroke-width="2"/><path fill="#f88f2c" d="M4.68 682v-1.14h1.944v-6.144H5.04v-.876a6 6 0 0 0 1.08-.276q.468-.168.852-.408h1.044v7.704h1.716V682zm9.256.168q-.828 0-1.476-.3a2.7 2.7 0 0 1-1.032-.84 2.1 2.1 0 0 1-.372-1.224q0-.588.228-1.044t.588-.78q.36-.336.756-.552v-.06a3.5 3.5 0 0 1-.828-.852q-.348-.516-.348-1.212 0-.684.324-1.2.336-.516.9-.792.576-.288 1.308-.288.768 0 1.32.3t.852.828q.312.516.312 1.212 0 .444-.18.84t-.444.72a2.7 2.7 0 0 1-.54.516v.06q.408.216.744.54.336.312.54.756t.204 1.044q0 .648-.36 1.176-.348.528-.996.84-.636.312-1.5.312m.588-5.076a2.7 2.7 0 0 0 .576-.78q.204-.42.204-.876 0-.396-.156-.72a1.14 1.14 0 0 0-.468-.504 1.33 1.33 0 0 0-.732-.192q-.54 0-.9.348-.36.336-.36.936 0 .48.252.804t.672.552.912.432m-.552 4.068q.444 0 .78-.168a1.3 1.3 0 0 0 .54-.468q.192-.312.192-.732 0-.396-.168-.684a1.6 1.6 0 0 0-.468-.516 3.7 3.7 0 0 0-.684-.396 12 12 0 0 0-.852-.372 2.65 2.65 0 0 0-.744.804 1.93 1.93 0 0 0-.288 1.032q0 .444.216.78.228.336.612.528t.864.192m7.859-3.72a.92.92 0 0 1-.66-.264.97.97 0 0 1-.264-.696q0-.432.264-.708a.9.9 0 0 1 .66-.276q.396 0 .66.276.276.276.276.708 0 .42-.276.696a.9.9 0 0 1-.66.264m0 4.728a.9.9 0 0 1-.66-.276 1 1 0 0 1-.264-.708q0-.432.264-.696a.9.9 0 0 1 .66-.276q.396 0 .66.276.276.264.276.696 0 .42-.276.708a.88.88 0 0 1-.66.276m7.913 0q-.864 0-1.511-.516-.648-.516-1.009-1.536-.348-1.032-.348-2.568t.348-2.544q.36-1.008 1.009-1.5a2.4 2.4 0 0 1 1.511-.504q.864 0 1.5.504.637.504.984 1.512.36.996.36 2.532t-.36 2.568q-.348 1.02-.984 1.536a2.3 2.3 0 0 1-1.5.516m0-1.104q.445 0 .793-.348t.54-1.116q.19-.78.191-2.052 0-1.272-.192-2.028t-.54-1.092a1.1 1.1 0 0 0-.792-.336q-.444 0-.791.336t-.552 1.092q-.192.756-.192 2.028t.192 2.052q.204.768.552 1.116t.791.348m6.844 1.104q-.864 0-1.512-.516t-1.008-1.536q-.348-1.032-.348-2.568t.348-2.544q.36-1.008 1.008-1.5a2.4 2.4 0 0 1 1.512-.504q.864 0 1.5.504t.984 1.512q.36.996.36 2.532t-.36 2.568q-.348 1.02-.984 1.536a2.3 2.3 0 0 1-1.5.516m0-1.104q.444 0 .792-.348t.54-1.116q.192-.78.192-2.052t-.192-2.028-.54-1.092a1.1 1.1 0 0 0-.792-.336q-.444 0-.792.336t-.552 1.092q-.192.756-.192 2.028t.192 2.052q.204.768.552 1.116t.792.348"/><path fill="#000" d="M71.86 674.932h7.488v1.008H71.86zm0-2.712h1.248v3.156H71.86zm-1.296 5.004h9.912v1.008h-9.912zm4.32-1.728h1.26v2.184h-1.26zm.6 3.456q1.776 0 2.772.528 1.008.528 1.008 1.488t-1.008 1.476q-.996.528-2.772.528-1.752 0-2.76-.528-1.008-.516-1.008-1.476t1.008-1.488 2.76-.528m0 .972q-.792 0-1.356.12t-.864.348a.7.7 0 0 0-.288.576q0 .336.288.576.3.228.864.348.564.108 1.356.108.816 0 1.368-.108.564-.12.852-.348.288-.24.288-.576a.7.7 0 0 0-.288-.576q-.288-.228-.852-.348-.552-.12-1.368-.12m7.307-7.224h6.852v1.008h-6.852zm-1.2 4.692h9.912v1.02h-9.912zm4.284.708h1.272v4.896h-1.272zm3.156-5.4h1.236v.96q0 .576-.024 1.224a14 14 0 0 1-.108 1.428q-.084.768-.288 1.704l-1.248-.156q.324-1.344.372-2.352.06-1.008.06-1.848zm3.6 5.736h9.935v1.008H92.63zm4.307.492h1.248v4.068h-1.248zm-3.12-6.468h1.26v1.38h5.016v-1.38h1.236v4.788h-7.512zm1.26 2.376v1.404h5.016v-1.404zm15.595.744h1.248v1.464h-1.248zm.648-3.432q1.848 0 2.868.492 1.032.48 1.032 1.38 0 .912-1.032 1.404-1.02.492-2.868.492t-2.88-.492-1.032-1.404q0-.9 1.032-1.38 1.032-.492 2.88-.492m-.012.924q-.84 0-1.428.108-.576.108-.876.324-.288.204-.288.516t.288.528q.3.216.876.324.588.108 1.428.108.864 0 1.44-.108t.876-.324.3-.528-.3-.516q-.3-.216-.876-.324a8 8 0 0 0-1.44-.108m-4.944 3.564h9.912v1.008h-9.912zm1.164 1.764h7.5v2.64h-6.24v1.164h-1.236v-2.064h6.24v-.792h-6.264zm.024 3.528h7.788v.96h-7.788zm14.099-9.204h1.092v.816q0 .72-.228 1.38-.216.648-.624 1.224a5.3 5.3 0 0 1-.972 1.02 6 6 0 0 1-1.224.78 6.6 6.6 0 0 1-1.404.468l-.552-1.044q.648-.12 1.236-.372a5.6 5.6 0 0 0 1.08-.636q.492-.384.84-.828.36-.456.552-.96.204-.516.204-1.032zm.24 0h1.092v.816q0 .528.192 1.032.204.504.564.96t.852.828 1.08.636q.588.252 1.236.372l-.552 1.044a6.6 6.6 0 0 1-1.404-.468 6.3 6.3 0 0 1-1.236-.78 5.5 5.5 0 0 1-.96-1.02 5 5 0 0 1-.636-1.224q-.228-.66-.228-1.38zm-4.488 7.812h9.936v1.044h-9.936zm11.495-1.14h.876q.972 0 1.8-.024a33 33 0 0 0 1.596-.084q.78-.072 1.596-.204l.12 1.008q-.828.132-1.632.216-.792.072-1.644.096-.84.012-1.836.012h-.876zm0-6.42h5.124v1.032h-3.876v5.736h-1.248zm.948 3.072h3.972v.996h-3.972zm5.832-4.02h1.26v10.968h-1.26zm.984 4.296h1.98v1.044h-1.98zm5.399 1.944h1.248v2.904h-1.248zm3.528 0h1.236v2.904h-1.236zm-6.108 2.352h9.936v1.032h-9.936zm4.248-7.932h1.104v.816q0 .684-.228 1.308a4.3 4.3 0 0 1-.648 1.164q-.408.54-.984.972-.564.42-1.248.72a7 7 0 0 1-1.428.432l-.516-1.044q.66-.108 1.248-.348.6-.24 1.092-.576.492-.348.852-.768.36-.432.552-.9a2.4 2.4 0 0 0 .204-.96zm.24 0h1.092v.816q0 .492.192.972.204.468.564.888t.852.768q.504.348 1.092.588.6.228 1.26.336l-.516 1.044a7 7 0 0 1-1.44-.432q-.684-.3-1.248-.72a5.6 5.6 0 0 1-.984-.96 4.5 4.5 0 0 1-.636-1.164 3.9 3.9 0 0 1-.228-1.32z"/><path fill="#999" d="M74.19 694.33h1.75v.62h-1.75zm-1.79-1.31h.58v.51q0 .67-.15 1.32-.14.65-.41 1.23t-.65 1.05q-.38.46-.87.76l-.44-.56q.45-.27.81-.68t.61-.92q.26-.52.39-1.08t.13-1.12zm.13 0h.58v.51q0 .54.13 1.08.14.54.4 1.02t.62.87.81.64l-.42.55a3.5 3.5 0 0 1-1.13-1.01 5.1 5.1 0 0 1-.73-1.47 5.5 5.5 0 0 1-.26-1.68zm-1.84-.58h4.13v.61h-4.13zm1.71-1.36h.72v1.82h-.72zm5.03-.33h.71v9.01h-.71zm-1.8.22h.7v8.31h-.7zm6.27 4.43h.74v1.78h-.74zm3.03 0h.73v1.78h-.73zm-5.22-.29h8.14v.61h-8.14zm.91 1.79h6.22v2.86h-.74v-2.25h-5.48zm3.16-5.93q.97 0 1.67.21.71.2 1.09.58.39.38.39.92t-.39.93q-.38.38-1.09.59-.7.2-1.67.2t-1.68-.2q-.7-.21-1.09-.59-.38-.39-.38-.93t.38-.92q.39-.38 1.09-.58.71-.21 1.68-.21m0 .59q-.73 0-1.27.13t-.83.39a.77.77 0 0 0-.29.6q0 .35.29.6t.83.39q.54.13 1.27.13t1.27-.13q.54-.14.83-.39a.77.77 0 0 0 .29-.6.77.77 0 0 0-.29-.6q-.29-.26-.83-.39a5.5 5.5 0 0 0-1.27-.13m5.638-.1h4.01v.61h-4.01zm1.4 1.99h.73v2.25h-.73zm2.31-1.99h.73v.46q0 .44-.03 1.11-.03.66-.21 1.56l-.73-.07q.18-.9.21-1.53.03-.64.03-1.07zm2.01-.71h.75v6.79h-.75zm.4 2.96h1.67v.63h-1.67zm-5.28 5.23h5.92v.61h-5.92zm0-2.02h.73v2.2h-.73zm-1.31-.85-.08-.62q.801 0 1.77-.02.97-.02 1.97-.08 1-.07 1.91-.19l.05.55q-.93.15-1.93.23a33 33 0 0 1-1.94.1q-.95.02-1.75.03"/><path fill="#f88f2c" d="M4.68 739v-1.14h1.944v-6.144H5.04v-.876a6 6 0 0 0 1.08-.276q.468-.168.852-.408h1.044v7.704h1.716V739zm8.752.168q-.768 0-1.332-.276a3.8 3.8 0 0 1-.936-.672l.756-.864q.264.3.648.48t.792.18q.42 0 .792-.192.384-.192.66-.624.288-.432.444-1.152.168-.72.168-1.764 0-1.104-.216-1.812-.216-.72-.612-1.056a1.33 1.33 0 0 0-.924-.348q-.384 0-.696.228a1.44 1.44 0 0 0-.492.624q-.18.408-.18.984 0 .564.156.96.168.396.492.612.324.204.78.204.42 0 .864-.264t.84-.864l.06 1.02q-.252.336-.588.588t-.696.396a2.1 2.1 0 0 1-.72.132q-.732 0-1.296-.312a2.23 2.23 0 0 1-.876-.924q-.312-.624-.312-1.548 0-.876.36-1.524.372-.66.972-1.02t1.308-.36q.636 0 1.188.264.564.252.972.78.42.528.66 1.332t.24 1.908q0 1.296-.264 2.232-.264.924-.732 1.512a3.15 3.15 0 0 1-1.056.864q-.588.276-1.224.276m8.399-4.728a.92.92 0 0 1-.66-.264.97.97 0 0 1-.264-.696q0-.432.264-.708a.9.9 0 0 1 .66-.276q.396 0 .66.276.276.276.276.708 0 .42-.276.696a.9.9 0 0 1-.66.264m0 4.728a.9.9 0 0 1-.66-.276 1 1 0 0 1-.264-.708q0-.432.264-.696a.9.9 0 0 1 .66-.276q.396 0 .66.276.276.264.276.696 0 .42-.276.708a.88.88 0 0 1-.66.276m7.913 0q-.864 0-1.511-.516-.648-.516-1.009-1.536-.348-1.032-.348-2.568t.348-2.544q.36-1.008 1.009-1.5a2.4 2.4 0 0 1 1.511-.504q.864 0 1.5.504.637.504.984 1.512.36.996.36 2.532t-.36 2.568q-.348 1.02-.984 1.536a2.3 2.3 0 0 1-1.5.516m0-1.104q.445 0 .793-.348t.54-1.116q.19-.78.191-2.052 0-1.272-.192-2.028t-.54-1.092a1.1 1.1 0 0 0-.792-.336q-.444 0-.791.336t-.552 1.092q-.192.756-.192 2.028t.192 2.052q.204.768.552 1.116t.791.348m6.844 1.104q-.864 0-1.512-.516t-1.008-1.536q-.348-1.032-.348-2.568t.348-2.544q.36-1.008 1.008-1.5a2.4 2.4 0 0 1 1.512-.504q.864 0 1.5.504t.984 1.512q.36.996.36 2.532t-.36 2.568q-.348 1.02-.984 1.536a2.3 2.3 0 0 1-1.5.516m0-1.104q.444 0 .792-.348t.54-1.116q.192-.78.192-2.052t-.192-2.028-.54-1.092a1.1 1.1 0 0 0-.792-.336q-.444 0-.792.336t-.552 1.092q-.192.756-.192 2.028t.192 2.052q.204.768.552 1.116t.792.348"/><path stroke="#f88f2c" stroke-width="2" d="M50 734h10"/><path fill="#999" d="M25.46 1.75h.71v9.01h-.71zm-1.49 3.66h1.77v.63h-1.77zm-.48-3.46h.7v8.35h-.7zm-3.07 1.2H21v1.08q0 .8-.14 1.52a5.7 5.7 0 0 1-.4 1.31q-.27.59-.66 1.06a3.5 3.5 0 0 1-.9.76l-.46-.57q.64-.36 1.08-.96a4.5 4.5 0 0 0 .67-1.4q.23-.8.23-1.72zm.13 0h.58v1.08q0 .83.23 1.57.23.73.67 1.3.44.56 1.06.89l-.44.57a3.5 3.5 0 0 1-1.14-1.01 4.9 4.9 0 0 1-.72-1.49 6.7 6.7 0 0 1-.24-1.83zm-1.92-.31h4.2v.61h-4.2zm9.11-.11h5.32v.61h-5.32zm2.66 1.11q.64 0 1.12.2.489.2.75.56.27.36.27.86 0 .49-.27.85-.261.36-.75.56-.48.2-1.12.2t-1.13-.2q-.48-.2-.75-.56t-.27-.85q0-.5.27-.86t.75-.56q.49-.2 1.13-.2m0 .58q-.651 0-1.05.28a.89.89 0 0 0-.39.76q0 .46.39.75.399.28 1.05.28.64 0 1.04-.28.4-.29.4-.75a.88.88 0 0 0-.4-.76q-.39-.28-1.04-.28m3.54-2.67h.74v5.63h-.74zm.54 2.51h1.56v.63h-1.56zm-5.62 3.63h5.82v2.87h-.74V8.5h-5.08zm1.17-6.18h.74v1.36h-.74zm8.818.61h.59v1.23q0 .65-.26 1.3a3.7 3.7 0 0 1-.72 1.17q-.46.52-1.12.81l-.4-.57q.59-.26 1.01-.7.43-.45.66-.98.24-.53.24-1.03zm.12 0h.59v1.23q0 .5.22.99.23.48.65.87.42.38.98.61l-.39.57a3.2 3.2 0 0 1-1.1-.73 3.4 3.4 0 0 1-.71-1.06q-.24-.6-.24-1.25zm4.81-.56h.71v5.56h-.71zm-1.5 2.45h1.75v.61h-1.75zm-.44-2.28h.71v5.1h-.71zm-.29 5.61q.921 0 1.59.19.67.18 1.03.54t.36.87-.36.86q-.36.36-1.03.55-.669.19-1.59.19-.93 0-1.6-.19t-1.03-.55q-.36-.35-.36-.86t.36-.87 1.03-.54q.67-.19 1.6-.19m0 .58q-1.05 0-1.66.27t-.61.75q0 .47.61.75.61.27 1.66.27.69 0 1.19-.12.51-.12.78-.35.28-.23.28-.55 0-.48-.61-.75-.6-.27-1.64-.27m4.96-5.54h4.11v4.13h-4.11zm3.39.6h-2.67v2.93h2.67zm2.44-1.43h.74v6.61h-.74zm.51 2.77h1.59v.62h-1.59zm-5.33 5.42h5.98v.61h-5.98zm0-2.21h.73v2.46h-.73zm12.315-4.51h.6v.4q0 .77-.32 1.42t-.89 1.13a4.1 4.1 0 0 1-1.31.72l-.36-.58q.66-.21 1.17-.6a2.9 2.9 0 0 0 .81-.94q.3-.54.3-1.15zm.12 0h.61v.4q0 .56.28 1.07.29.5.79.88.51.37 1.15.57l-.35.58a4.1 4.1 0 0 1-1.29-.69 3.3 3.3 0 0 1-.88-1.07 2.96 2.96 0 0 1-.31-1.34zm-2.16-.38h4.8v.6h-4.8zm2.04-1.13h.74v1.37h-.74zm3.93.04h.74v5.34h-.74zm.54 2.31h1.56v.62h-1.56zm-5.41 3.46h5.61v3.12h-5.61zm4.89.59h-4.17v1.92h4.17zm7.02-4.32h2.77v.61h-2.77zm0 2.86h2.77v.61h-2.77zm-1.67-4.19q.65 0 1.15.38.51.38.79 1.09.28.7.28 1.65 0 .96-.28 1.66t-.79 1.09a1.85 1.85 0 0 1-1.15.38q-.65 0-1.16-.38-.5-.39-.79-1.09-.28-.7-.28-1.66 0-.95.28-1.65.29-.71.79-1.09.51-.38 1.16-.38m0 .66q-.45 0-.8.31-.34.3-.54.86-.19.55-.19 1.29t.19 1.3q.2.56.54.87.35.31.8.31t.79-.31q.35-.31.54-.87.2-.56.2-1.3t-.2-1.29q-.19-.56-.54-.86a1.14 1.14 0 0 0-.79-.31m4.26-1.37h.73v9.02h-.73zm10.925 0h.74v9h-.74zm.54 3.69h1.67v.62h-1.67zm-2.83-2.72h.72q0 1.27-.42 2.44a6.5 6.5 0 0 1-1.32 2.15q-.9.99-2.35 1.71l-.42-.57q1.27-.64 2.11-1.49t1.26-1.89q.42-1.05.42-2.23zm-3.38 0h3.76v.62h-3.76zm9.84 1.58h6.08v.61h-6.08zm0-2.36h.73v2.63h-.73zm-1.12 4.07h8.14v.6h-8.14zm4.06 1.45q1.44 0 2.25.43.82.42.82 1.21 0 .77-.82 1.19-.81.43-2.25.43t-2.26-.43q-.82-.42-.82-1.19 0-.79.82-1.21.82-.43 2.26-.43m0 .59q-.72 0-1.25.12-.52.12-.8.36a.7.7 0 0 0-.28.56q0 .33.28.57.28.23.8.35.53.12 1.25.12t1.24-.12q.53-.12.81-.35.28-.24.28-.57a.7.7 0 0 0-.28-.56q-.28-.24-.81-.36a5.6 5.6 0 0 0-1.24-.12"/><circle cx="8" cy="6" r="5" fill="#2c91f8"/><path fill="#999" d="M133.06 6.25h.75v2.08h-.75zm.38-3.9q.7 0 1.24.26t.85.74q.31.47.31 1.1 0 .62-.31 1.1a2.07 2.07 0 0 1-.85.73q-.54.26-1.24.26a2.9 2.9 0 0 1-1.25-.26 2.07 2.07 0 0 1-.85-.73q-.3-.48-.3-1.1a2 2 0 0 1 .3-1.1q.31-.48.85-.74a2.9 2.9 0 0 1 1.25-.26m0 .64q-.49 0-.87.19-.37.18-.59.51-.22.32-.22.76 0 .42.22.76.22.33.59.52.38.18.87.18t.86-.18q.38-.19.59-.52.22-.34.22-.76 0-.44-.22-.76-.21-.33-.59-.51a1.86 1.86 0 0 0-.86-.19m3.64-1.24h.74v9.02h-.74zm-6.41 7.03-.1-.62q.83 0 1.82-.01.99-.02 2.04-.08 1.06-.07 2.05-.22l.06.54q-1.02.19-2.07.28-1.04.08-2.01.1-.97.01-1.79.01m9.039-1.67h8.16v.61h-8.16zm3.69.28h.73v3.37h-.73zm-2.64-5.27h.73v1.27h4.59V2.12h.74v3.87h-6.06zm.73 1.88v1.39h4.59V4zm14.039-2.24h.75v6.59h-.75zm-5 8.18h6.03v.61h-6.03zm0-2.26h.74v2.45h-.74zm.93-5.28q.67 0 1.19.28.53.27.83.77.31.5.31 1.15 0 .64-.31 1.14-.3.5-.83.79-.52.28-1.19.28a2.5 2.5 0 0 1-1.19-.28 2.23 2.23 0 0 1-.84-.79q-.3-.5-.3-1.14 0-.65.3-1.15.31-.5.84-.77a2.5 2.5 0 0 1 1.19-.28m0 .64a1.7 1.7 0 0 0-.83.2q-.36.2-.57.55t-.21.81q0 .45.21.8t.57.55q.37.2.83.2t.83-.2.57-.55q.21-.35.21-.8 0-.46-.21-.81a1.4 1.4 0 0 0-.57-.55 1.7 1.7 0 0 0-.83-.2m11.176.18h.6v.4q0 .77-.32 1.42t-.89 1.13q-.57.47-1.31.72l-.36-.58q.66-.21 1.17-.6.52-.4.81-.94.3-.54.3-1.15zm.12 0h.61v.4q0 .56.28 1.07a3 3 0 0 0 .79.88q.51.37 1.15.57l-.35.58a4.1 4.1 0 0 1-1.29-.69 3.3 3.3 0 0 1-.88-1.07 2.96 2.96 0 0 1-.31-1.34zm-2.16-.38h4.8v.6h-4.8zm2.04-1.13h.74v1.37h-.74zm3.93.04h.74v5.34h-.74zm.54 2.31h1.56v.62h-1.56zm-5.41 3.46h5.61v3.12h-5.61zm4.89.59h-4.17v1.92h4.17zm7.019-4.32h2.77v.61h-2.77zm0 2.86h2.77v.61h-2.77zm-1.67-4.19q.65 0 1.15.38.51.38.79 1.09.28.7.28 1.65 0 .96-.28 1.66t-.79 1.09q-.5.38-1.15.38t-1.16-.38q-.5-.39-.79-1.09-.28-.7-.28-1.66 0-.95.28-1.65.29-.71.79-1.09.51-.38 1.16-.38m0 .66q-.45 0-.8.31-.339.3-.54.86-.19.55-.19 1.29t.19 1.3q.201.56.54.87.35.31.8.31t.79-.31q.351-.31.54-.87.2-.56.2-1.3t-.2-1.29q-.189-.56-.54-.86a1.14 1.14 0 0 0-.79-.31m4.26-1.37h.73v9.02h-.73zm10.926 0h.74v9h-.74zm.54 3.69h1.67v.62h-1.67zm-2.83-2.72h.72q0 1.27-.42 2.44a6.5 6.5 0 0 1-1.32 2.15q-.9.99-2.35 1.71l-.42-.57q1.27-.64 2.11-1.49t1.26-1.89q.42-1.05.42-2.23zm-3.38 0h3.76v.62h-3.76zm9.839 1.58h6.08v.61h-6.08zm0-2.36h.73v2.63h-.73zm-1.12 4.07h8.14v.6h-8.14zm4.06 1.45q1.44 0 2.25.43.82.42.82 1.21 0 .77-.82 1.19-.81.43-2.25.43t-2.26-.43q-.82-.42-.82-1.19 0-.79.82-1.21.82-.43 2.26-.43m0 .59q-.72 0-1.25.12-.52.12-.8.36a.7.7 0 0 0-.28.56q0 .33.28.57.28.23.8.35.53.12 1.25.12t1.24-.12q.531-.12.81-.35.28-.24.28-.57a.7.7 0 0 0-.28-.56q-.279-.24-.81-.36-.52-.12-1.24-.12"/><circle cx="120" cy="6" r="5" fill="#f88f2c"/></svg>