<svg xmlns="http://www.w3.org/2000/svg" width="225" height="770" fill="none" viewBox="0 0 225 770"><path stroke="#2c91f8" stroke-width="2" d="M55 20v26m0 104v46m0-134v72"/><circle cx="55" cy="12" r="4" fill="#f9f9f9" stroke="#2c91f8" stroke-width="2"/><path fill="#000" d="M71.092 7.844h4.788v1.02h-4.788zm1.524 2.508h1.236v2.736h-1.236zm2.76-2.508h1.236v.636q0 .552-.036 1.368-.024.804-.228 1.872l-1.236-.144a11.5 11.5 0 0 0 .228-1.788q.036-.756.036-1.308zm2.544-.828h1.26v8.244h-1.26zm.732 3.48h1.98v1.032h-1.98zm-6.576 6.252h7.464v1.02h-7.464zm0-2.232h1.26v2.544h-1.26zm-1.512-.876-.132-1.02q.972 0 2.124-.012a61 61 0 0 0 2.376-.096q1.212-.084 2.316-.24l.084.912q-1.14.192-2.34.3-1.2.096-2.34.12-1.128.024-2.088.036m19.115-6.612h1.2v6.432h-1.2zM88.12 9.68h1.92v1.02h-1.92zm-.84-2.448h1.188v6.192H87.28zm-3.876 6.72h7.476v4.044h-1.248v-3.024h-6.228zm1.68-6.144h1.26q0 1.344-.468 2.436a5.3 5.3 0 0 1-1.38 1.908q-.924.828-2.328 1.404l-.6-.912q1.2-.48 1.968-1.128.78-.648 1.164-1.464a4.2 4.2 0 0 0 .384-1.788zm-3.036 0h3.468v1.02h-3.468zm21.054-.78h1.26v5.88h-1.26zm-5.892 6.408h1.236v1.188h4.68v-1.188h1.236v4.416H97.21zm1.236 2.16v1.248h4.68v-1.248zm0-8.076q.84 0 1.5.324t1.032.9q.384.564.384 1.32t-.384 1.332a2.5 2.5 0 0 1-1.032.9q-.66.324-1.5.324t-1.5-.324a2.6 2.6 0 0 1-1.044-.9 2.4 2.4 0 0 1-.372-1.332q0-.756.372-1.32a2.6 2.6 0 0 1 1.044-.9q.66-.324 1.5-.324m0 1.032q-.492 0-.876.192a1.43 1.43 0 0 0-.804 1.32q0 .456.216.804.216.336.588.528.384.18.876.18t.864-.18q.384-.192.6-.528.228-.348.228-.804a1.4 1.4 0 0 0-.228-.792 1.4 1.4 0 0 0-.6-.528 1.86 1.86 0 0 0-.864-.192m10.5-.336h1.032v.804q0 1.02-.36 1.92t-1.044 1.572a4.55 4.55 0 0 1-1.668 1.008l-.636-.996q.864-.3 1.464-.84t.9-1.224q.312-.696.312-1.44zm.252 0h1.02v.804q0 .672.3 1.296t.876 1.116q.576.48 1.404.744l-.6.984q-.972-.312-1.644-.924a4.1 4.1 0 0 1-1.008-1.44 4.6 4.6 0 0 1-.348-1.776zm-2.58-.42h5.892v1.02h-5.892zm7.056-.768h1.248v6.552h-1.248zm.912 2.664h1.884v1.032h-1.884zm-3.192 4.14q1.128 0 1.944.252.816.24 1.26.708.444.456.444 1.104 0 .66-.444 1.116-.444.468-1.26.708-.816.252-1.944.252t-1.956-.252q-.816-.24-1.26-.708a1.56 1.56 0 0 1-.432-1.116q0-.648.432-1.104.444-.468 1.26-.708.828-.252 1.956-.252m0 .996q-.756 0-1.296.12t-.828.36a.74.74 0 0 0-.289.588q0 .36.289.612.288.24.828.372.54.12 1.296.12.768 0 1.296-.12.54-.132.828-.372a.78.78 0 0 0 .288-.612.74.74 0 0 0-.288-.588q-.288-.24-.828-.36a6 6 0 0 0-1.296-.12"/><circle cx="55" cy="54" r="4" fill="#f9f9f9" stroke="#2c91f8" stroke-width="2"/><path fill="#2c91f8" d="M4.68 59v-1.14h1.944v-6.144H5.04v-.876a6 6 0 0 0 1.08-.276q.468-.168.852-.408h1.044v7.704h1.716V59zm9.256.168q-.828 0-1.476-.3a2.7 2.7 0 0 1-1.032-.84 2.1 2.1 0 0 1-.372-1.224q0-.588.228-1.044t.588-.78q.36-.336.756-.552v-.06a3.5 3.5 0 0 1-.828-.852q-.348-.516-.348-1.212 0-.684.324-1.2.336-.516.9-.792.576-.288 1.308-.288.768 0 1.32.3t.852.828q.312.516.312 1.212 0 .444-.18.84t-.444.72a2.7 2.7 0 0 1-.54.516v.06q.408.216.744.54.336.312.54.756t.204 1.044q0 .648-.36 1.176-.348.528-.996.84-.636.312-1.5.312m.588-5.076a2.7 2.7 0 0 0 .576-.78q.204-.42.204-.876 0-.396-.156-.72a1.14 1.14 0 0 0-.468-.504 1.33 1.33 0 0 0-.732-.192q-.54 0-.9.348-.36.336-.36.936 0 .48.252.804t.672.552.912.432m-.552 4.068q.444 0 .78-.168a1.3 1.3 0 0 0 .54-.468q.192-.312.192-.732 0-.396-.168-.684a1.6 1.6 0 0 0-.468-.516 3.7 3.7 0 0 0-.684-.396 12 12 0 0 0-.852-.372 2.65 2.65 0 0 0-.744.804 1.93 1.93 0 0 0-.288 1.032q0 .444.216.78.228.336.612.528t.864.192m7.859-3.72a.92.92 0 0 1-.66-.264.97.97 0 0 1-.264-.696q0-.432.264-.708a.9.9 0 0 1 .66-.276q.396 0 .66.276.276.276.276.708 0 .42-.276.696a.9.9 0 0 1-.66.264m0 4.728a.9.9 0 0 1-.66-.276 1 1 0 0 1-.264-.708q0-.432.264-.696a.9.9 0 0 1 .66-.276q.396 0 .66.276.276.264.276.696 0 .42-.276.708a.88.88 0 0 1-.66.276m7.913 0q-.864 0-1.511-.516-.648-.516-1.009-1.536-.348-1.032-.348-2.568t.348-2.544q.36-1.008 1.009-1.5A2.4 2.4 0 0 1 29.744 50q.864 0 1.5.504.637.504.984 1.512.36.996.36 2.532t-.36 2.568q-.348 1.02-.984 1.536a2.3 2.3 0 0 1-1.5.516m0-1.104q.445 0 .793-.348t.54-1.116q.19-.78.191-2.052 0-1.272-.192-2.028t-.54-1.092a1.1 1.1 0 0 0-.792-.336q-.444 0-.791.336T28.4 52.52q-.192.756-.192 2.028T28.4 56.6q.204.768.552 1.116t.791.348m6.844 1.104q-.864 0-1.512-.516t-1.008-1.536q-.348-1.032-.348-2.568t.348-2.544q.36-1.008 1.008-1.5A2.4 2.4 0 0 1 36.588 50q.864 0 1.5.504t.984 1.512q.36.996.36 2.532t-.36 2.568q-.348 1.02-.984 1.536a2.3 2.3 0 0 1-1.5.516m0-1.104q.444 0 .792-.348t.54-1.116q.192-.78.192-2.052t-.192-2.028-.54-1.092a1.1 1.1 0 0 0-.792-.336q-.444 0-.792.336t-.552 1.092q-.192.756-.192 2.028t.192 2.052q.204.768.552 1.116t.792.348"/><path fill="#000" d="M74.872 55.208h1.248v1.668h-1.248zm-4.32-.72h9.912v1.008h-9.912zm1.092 2.112h7.608v3.36h-1.26v-2.364h-6.348zm3.228-7.608h1.248v1.572h-1.248zm-.06 1.692h1.104v.204q0 .648-.324 1.188-.324.528-.924.924-.588.396-1.416.648a9 9 0 0 1-1.812.324l-.372-.948a9 9 0 0 0 1.56-.252 4.7 4.7 0 0 0 1.176-.48q.492-.288.744-.648a1.26 1.26 0 0 0 .264-.756zm.276 0h1.104v.204q0 .396.252.756t.732.648q.492.288 1.176.48.696.18 1.584.252l-.384.948a9.4 9.4 0 0 1-1.812-.324A5.5 5.5 0 0 1 76.324 53a3 3 0 0 1-.912-.924 2.27 2.27 0 0 1-.324-1.188zm-3.552-.624h7.944v.984h-7.944zm17.303-1.032h1.26v10.968h-1.26zm.972 4.404h1.98v1.044h-1.98zm-8.28-2.712h6.432v1.008h-6.432zm3.264 1.788q.78 0 1.392.336.612.324.96.9.36.576.36 1.32 0 .756-.36 1.332a2.5 2.5 0 0 1-.96.912q-.612.324-1.404.324a2.9 2.9 0 0 1-1.392-.324 2.6 2.6 0 0 1-.972-.912q-.348-.576-.348-1.332 0-.744.348-1.32.36-.576.972-.9.612-.336 1.404-.336m-.012 1.032q-.432 0-.78.192a1.43 1.43 0 0 0-.552.54 1.57 1.57 0 0 0-.192.792q0 .468.192.816.204.336.552.528t.78.192q.444 0 .78-.192.348-.192.54-.528.204-.348.204-.816 0-.456-.204-.792a1.35 1.35 0 0 0-.54-.54 1.55 1.55 0 0 0-.78-.192m-.636-4.368h1.26v1.968h-1.26zm16.086 6.732q1.176 0 2.04.252.864.24 1.332.696.48.456.48 1.092t-.48 1.092q-.468.456-1.332.696t-2.04.24-2.04-.24-1.344-.696a1.47 1.47 0 0 1-.468-1.092q0-.636.468-1.092.48-.456 1.344-.696.864-.252 2.04-.252m0 .96q-.804 0-1.392.12-.576.12-.888.372-.312.24-.312.588 0 .336.312.576t.888.372q.588.132 1.392.132.816 0 1.392-.132t.888-.372q.324-.24.324-.576 0-.348-.324-.588-.312-.252-.888-.372a7 7 0 0 0-1.392-.12m-3.756-7.32h7.008v1.008h-7.008zm-1.14 4.488h9.888v1.008h-9.888zm3.888-2.016h1.248v2.292h-1.248zm3.528-2.472h1.248v.924q0 .66-.036 1.368-.036.696-.264 1.548l-1.236-.132a8 8 0 0 0 .252-1.5q.036-.648.036-1.284zm8.628 1.104h3.276v1.02h-3.276zm0 2.652h3.276v1.02h-3.276zm2.808-4.272h1.26v8.064h-1.26zm-5.844 9.72h7.392v1.02h-7.392zm0-2.46h1.26v2.952h-1.26zm1.02-6.588q.816 0 1.464.36t1.02.984.372 1.44-.372 1.452a2.7 2.7 0 0 1-1.02.984q-.648.348-1.464.348a3 3 0 0 1-1.452-.348 2.7 2.7 0 0 1-1.02-.984 2.8 2.8 0 0 1-.372-1.452q0-.816.372-1.44a2.7 2.7 0 0 1 1.02-.984q.648-.36 1.452-.36m0 1.116q-.468 0-.84.216a1.6 1.6 0 0 0-.6.576q-.216.372-.216.876t.216.888q.228.384.6.6.372.204.852.204.468 0 .84-.204a1.57 1.57 0 0 0 .588-.6 1.8 1.8 0 0 0 .216-.888q0-.504-.216-.876a1.5 1.5 0 0 0-.588-.576 1.67 1.67 0 0 0-.852-.216"/><path fill="#999" d="m70.05 76 2.5-7.32h.91L75.97 76h-.88l-1.32-4.15q-.21-.63-.39-1.23l-.37-1.25h-.04q-.17.64-.36 1.25l-.39 1.23L70.88 76zm1.26-2.3v-.66h3.36v.66zm5.726 2.3v-7.32h1.8q1.13 0 1.89.43.759.43 1.14 1.24.39.81.39 1.96t-.39 1.98q-.38.83-1.13 1.27t-1.86.44zm.83-.69h.9q.89 0 1.47-.35.59-.36.88-1.04t.29-1.61-.29-1.59a2.14 2.14 0 0 0-.88-1.01q-.58-.35-1.47-.35h-.9zm9.602 2.64q-.68-1.11-1.08-2.34-.39-1.24-.39-2.71t.39-2.7a11 11 0 0 1 1.08-2.36l.5.24a8.5 8.5 0 0 0-.97 2.31 10.1 10.1 0 0 0 0 5.04q.32 1.23.97 2.29zm8.278-8.04h2.29v.62h-2.29zm-2.33-1.61h.6v1.13q0 .85-.32 1.6-.31.75-.87 1.31-.561.55-1.29.85l-.39-.59a3.5 3.5 0 0 0 .91-.51q.41-.32.71-.74.309-.42.48-.91a3 3 0 0 0 .17-1.01zm.13 0h.6v1.16q0 .48.16.93.17.45.47.84t.7.69q.41.3.89.48l-.4.58a4.1 4.1 0 0 1-1.25-.81 4 4 0 0 1-.86-1.21 3.7 3.7 0 0 1-.31-1.5zm4.22-.54h.74v6.75h-.74zm-5.01 8.18h5.97v.61h-5.97zm0-2.19h.73v2.46h-.73zm10.089-5.66q.68 0 1.2.26.519.25.81.7.3.44.3 1.03 0 .58-.3 1.03-.291.45-.81.7a2.74 2.74 0 0 1-1.2.25q-.66 0-1.19-.25a2.03 2.03 0 0 1-.82-.69q-.3-.45-.3-1.04t.3-1.03q.3-.45.82-.7.53-.26 1.19-.26m0 .62q-.46 0-.82.18-.35.17-.56.48t-.21.71.21.71.56.49q.36.17.82.17a1.9 1.9 0 0 0 .82-.17q.36-.18.57-.49t.21-.71-.21-.71a1.4 1.4 0 0 0-.57-.48q-.36-.18-.82-.18m4.09-.96h.75v4.63h-.75zm-5.04 5.09h5.79v2.13h-5.05v1.41h-.72v-1.97h5.04v-.97h-5.06zm.02 3.19h6.09v.61h-6.09zm8.079-7.73h.73v1.44h2.72V68.3h.73v4.24h-4.18zm.73 2.04v1.6h2.72v-1.6zm.17 3.39h5.99v3.03h-.75v-2.43h-5.24zm5.24-5.98h.75v5.46h-.75zm9.499 0h.71v9.01h-.71zm-3.8 3.46h2.3v.62h-2.3zm1.99-3.24h.71v8.31h-.71zm-4.75 5.97h.57q.71 0 1.26-.02a12 12 0 0 0 2.01-.24l.07.62q-.51.11-1.01.17-.49.05-1.05.07t-1.28.02h-.57zm0-5.07h3.37v.61h-2.65v4.7h-.72zm15.449-1.12h.74v9.02h-.74zm-3.99.71q.67 0 1.18.38t.8 1.09q.29.7.29 1.65 0 .96-.29 1.66t-.8 1.09q-.51.38-1.18.38a1.95 1.95 0 0 1-1.18-.38q-.51-.39-.8-1.09t-.29-1.66q0-.95.29-1.65.29-.71.8-1.09a1.95 1.95 0 0 1 1.18-.38m0 .66q-.459 0-.81.31-.35.3-.55.86-.2.55-.2 1.29t.2 1.3.55.87.81.31.81-.31.55-.87.2-1.3-.2-1.29q-.2-.56-.55-.86a1.18 1.18 0 0 0-.81-.31m13.24-1.37h.73v9.02h-.73zm-1.93 3.44h2.05v.61h-2.05zm-4.31 2.77h.68q.87 0 1.54-.02.68-.02 1.28-.08t1.23-.17l.08.61q-.65.11-1.27.17-.61.06-1.3.09-.681.02-1.56.02h-.68zm0-5.37h4.16v.61h-3.42v4.98h-.74zm.54 2.53h3.22v.6h-3.22zm9.119-2.44h5.81v.61h-5.81zm-.87 6.16h8.13v.62h-8.13zm3.21-3.23h.74v3.55h-.74zm3.18-2.93h.74v.89q0 .56-.02 1.18-.01.61-.08 1.34-.06.73-.23 1.63l-.74-.1q.25-1.28.29-2.26t.04-1.79zm2.809 3.39h8.14v.62h-8.14zm1.03-1.51h6.15v.61h-6.15zm0-2.43h6.08v.61h-5.35v2.11h-.73zm3.03 5.37q1.44 0 2.25.43.82.42.82 1.19t-.82 1.19q-.81.43-2.25.43t-2.26-.43q-.82-.42-.82-1.19t.82-1.19q.82-.43 2.26-.43m0 .59q-.72 0-1.25.12-.52.12-.8.36-.28.23-.28.55a.7.7 0 0 0 .28.56q.28.23.8.35.53.12 1.25.12t1.24-.12q.53-.12.81-.35a.7.7 0 0 0 .28-.56q0-.32-.28-.55-.28-.24-.81-.36-.52-.12-1.24-.12m5.159-5.36h5.32v.61h-5.32zm2.66 1.11q.64 0 1.12.2.49.2.75.56.27.36.27.86 0 .49-.27.85-.26.36-.75.56-.48.2-1.12.2t-1.13-.2q-.48-.2-.75-.56t-.27-.85q0-.5.27-.86t.75-.56q.49-.2 1.13-.2m0 .58q-.65 0-1.05.28a.89.89 0 0 0-.39.76q0 .46.39.75.4.28 1.05.28.64 0 1.04-.28.4-.29.4-.75a.88.88 0 0 0-.4-.76q-.39-.28-1.04-.28m3.54-2.67h.74v5.63h-.74zm.54 2.51h1.56v.63h-1.56zm-5.62 3.63h5.82v2.87h-.74V74.5h-5.08zm1.17-6.18h.74v1.36h-.74zm7.739.97h5.81v.61h-5.81zm-.85 6.16h8.13v.62h-8.13zm2.04-2.99h.74v3.23h-.74zm4.37-3.17h.73v1.01q0 .57-.01 1.18-.01.6-.08 1.29a15 15 0 0 1-.22 1.5l-.74-.09q.24-1.18.28-2.1.04-.93.04-1.78zm-2.14 3.17h.73v3.23h-.73zm7.546 6.1-.5-.23q.64-1.06.96-2.29a9.8 9.8 0 0 0 0-5.04 8.7 8.7 0 0 0-.96-2.31l.5-.24q.69 1.12 1.08 2.36.39 1.23.39 2.7t-.39 2.71q-.39 1.23-1.08 2.34M70.854 231.651v-6.58l5.698 3.29zm9.943-4.661h6.15v.61h-6.15zm-1.05 2.99h8.16v.63h-8.16zm3.69-2.73h.73v2.99h-.73zm-2.64-3.76h6.06v.61h-5.33v3.16h-.73zm12.909 1.78h2.31v.61h-2.31zm1.88-2.51h.74v6.6h-.74zm-4.97 8.18h5.97v.61h-5.97zm0-2.16h.73v2.45h-.73zm.66-4.92h.61v.76q0 .81-.33 1.53a3.8 3.8 0 0 1-.89 1.24 3.9 3.9 0 0 1-1.3.8l-.38-.59q.489-.18.9-.48.42-.3.73-.69.32-.4.49-.86a2.7 2.7 0 0 0 .17-.95zm.14 0h.6v.76q0 .58.28 1.14.29.55.79.98.5.42 1.14.65l-.38.58a3.8 3.8 0 0 1-1.26-.76 3.6 3.6 0 0 1-.86-1.17 3.3 3.3 0 0 1-.31-1.42zm-2.19-.35h4.8v.61h-4.8zm11.179.51h.59v1.54q0 .69-.21 1.37a5.7 5.7 0 0 1-1.38 2.36q-.45.46-.96.73l-.44-.59a3.9 3.9 0 0 0 .9-.65q.43-.41.76-.94.34-.53.54-1.11.2-.59.2-1.17zm.13 0h.59v1.54q0 .54.18 1.09.19.55.51 1.05.33.5.75.89.43.39.9.62l-.42.59a4 4 0 0 1-.98-.7q-.45-.45-.8-1.02a5.6 5.6 0 0 1-.54-1.21 4.6 4.6 0 0 1-.19-1.31zm-2.22-.34h4.84v.63h-4.84zm5.98-.93h.74v9.01h-.74zm.57 3.67h1.68v.63h-1.68zm6.286 4.58-1.97-5.4h.85l1.06 3.15.26.79q.13.4.25.79h.05q.13-.39.25-.79.13-.4.26-.79l1.07-3.15h.8l-1.93 5.4zm5.337.13q-.579 0-1.11-.21a3.5 3.5 0 0 1-.89-.53l.4-.55q.35.28.73.47.39.18.9.18.561 0 .84-.26a.86.86 0 0 0 .28-.64.65.65 0 0 0-.19-.48 1.5 1.5 0 0 0-.48-.33 7 7 0 0 0-.59-.25q-.38-.15-.75-.33a2 2 0 0 1-.61-.47q-.24-.3-.24-.76 0-.42.22-.76.22-.35.63-.55t.99-.2q.48 0 .9.18.43.17.74.42l-.4.53q-.27-.21-.57-.34a1.6 1.6 0 0 0-.67-.14q-.54 0-.8.25a.77.77 0 0 0-.25.57q0 .27.16.45.17.17.44.29.28.12.58.23.3.12.59.25.3.12.54.3.25.18.39.45.15.26.15.65 0 .43-.23.79-.22.36-.65.58-.42.21-1.05.21m9.666-6.22h2.29v.62h-2.29zm-2.33-1.61h.6v1.13q0 .85-.32 1.6-.31.75-.87 1.31-.561.55-1.29.85l-.39-.59a3.5 3.5 0 0 0 1.62-1.25q.309-.42.48-.91t.17-1.01zm.13 0h.6v1.16q0 .48.16.93.17.45.47.84t.7.69q.41.3.89.48l-.4.58a4 4 0 0 1-1.25-.81 4 4 0 0 1-.86-1.21 3.7 3.7 0 0 1-.31-1.5zm4.22-.54h.74v6.75h-.74zm-5.01 8.18h5.97v.61h-5.97zm0-2.19h.73v2.46h-.73zm11.259-5.67h.64v.52q0 .51-.2.96t-.56.83a4 4 0 0 1-.81.66q-.45.29-.98.49a6 6 0 0 1-1.05.28l-.3-.6a5.1 5.1 0 0 0 1.82-.64 4 4 0 0 0 .74-.56q.33-.31.51-.67.19-.36.19-.75zm.12 0h.64v.52q0 .39.19.75.19.35.51.66.33.31.74.56.42.24.89.41t.93.24l-.3.6a5.5 5.5 0 0 1-1.05-.29 6 6 0 0 1-.98-.49 4 4 0 0 1-.81-.66 3.3 3.3 0 0 1-.56-.82q-.2-.45-.2-.96zm-.13 5.23h.73v3.45h-.73zm-3.68-.46h8.13v.62h-8.13zm11.806 3.15v-.69h1.64v-5.6h-1.31v-.53q.48-.08.84-.2a3.6 3.6 0 0 0 .64-.3h.63v6.63h1.49v.69zm8.165-3.95a.64.64 0 0 1-.44-.17.64.64 0 0 1-.18-.47q0-.3.18-.48a.62.62 0 0 1 .87 0q.18.18.18.48 0 .29-.18.47a.6.6 0 0 1-.43.17m0 4.08a.62.62 0 0 1-.44-.18.62.62 0 0 1-.18-.46q0-.3.18-.48a.62.62 0 0 1 .87 0q.18.18.18.48 0 .28-.18.46a.6.6 0 0 1-.43.18m4.462-.13v-.69h1.64v-5.6h-1.31v-.53q.48-.08.84-.2a3.6 3.6 0 0 0 .64-.3h.63v6.63h1.49v.69zm14.254-8.25h.71v9.01h-.71zm-1.49 3.59h1.77v.62h-1.77zm-.51-3.39h.71v8.35h-.71zm-4.59.86h3.41v5.5h-3.41zm2.72.59h-2.02v4.32h2.02zm12.76-1.65h.74v9.01h-.74zm-4.07 2.11h.61v.83q0 .71-.2 1.38-.19.67-.54 1.24t-.81 1.01a4 4 0 0 1-.99.69l-.42-.58q.49-.22.91-.61.429-.39.75-.88.33-.5.51-1.07.18-.58.18-1.18zm.14 0h.59v.83q0 .57.19 1.12t.52 1.03q.33.47.76.84.429.37.93.59l-.42.57a4 4 0 0 1-1-.65 5 5 0 0 1-.82-.97 5 5 0 0 1-.55-1.19q-.2-.65-.2-1.34zm-2.26-.53h4.95v.6h-4.95zm2.12-1.42h.74v1.76h-.74zM70.854 248.651v-6.58l5.698 3.29zm9.943-4.661h6.15v.61h-6.15zm-1.05 2.99h8.16v.63h-8.16zm3.69-2.73h.73v2.99h-.73zm-2.64-3.76h6.06v.61h-5.33v3.16h-.73zm12.909 1.78h2.31v.61h-2.31zm1.88-2.51h.74v6.6h-.74zm-4.97 8.18h5.97v.61h-5.97zm0-2.16h.73v2.45h-.73zm.66-4.92h.61v.76q0 .81-.33 1.53a3.8 3.8 0 0 1-.89 1.24 3.9 3.9 0 0 1-1.3.8l-.38-.59q.489-.18.9-.48.42-.3.73-.69.32-.4.49-.86a2.7 2.7 0 0 0 .17-.95zm.14 0h.6v.76q0 .58.28 1.14.29.55.79.98.5.42 1.14.65l-.38.58a3.8 3.8 0 0 1-1.26-.76 3.6 3.6 0 0 1-.86-1.17 3.3 3.3 0 0 1-.31-1.42zm-2.19-.35h4.8v.61h-4.8zm11.179.51h.59v1.54q0 .69-.21 1.37a5.7 5.7 0 0 1-1.38 2.36q-.45.46-.96.73l-.44-.59a3.9 3.9 0 0 0 .9-.65q.43-.41.76-.94.34-.53.54-1.11.2-.59.2-1.17zm.13 0h.59v1.54q0 .54.18 1.09.19.55.51 1.05.33.5.75.89.43.39.9.62l-.42.59a4 4 0 0 1-.98-.7q-.45-.45-.8-1.02a5.6 5.6 0 0 1-.54-1.21 4.6 4.6 0 0 1-.19-1.31zm-2.22-.34h4.84v.63h-4.84zm5.98-.93h.74v9.01h-.74zm.57 3.67h1.68v.63h-1.68zm6.286 4.58-1.97-5.4h.85l1.06 3.15.26.79q.13.4.25.79h.05q.13-.39.25-.79.13-.4.26-.79l1.07-3.15h.8l-1.93 5.4zm5.337.13q-.579 0-1.11-.21a3.5 3.5 0 0 1-.89-.53l.4-.55q.35.28.73.47.39.18.9.18.561 0 .84-.26a.86.86 0 0 0 .28-.64.65.65 0 0 0-.19-.48 1.5 1.5 0 0 0-.48-.33 7 7 0 0 0-.59-.25q-.38-.15-.75-.33a2 2 0 0 1-.61-.47q-.24-.3-.24-.76 0-.42.22-.76.22-.35.63-.55t.99-.2q.48 0 .9.18.43.17.74.42l-.4.53q-.27-.21-.57-.34a1.6 1.6 0 0 0-.67-.14q-.54 0-.8.25a.77.77 0 0 0-.25.57q0 .27.16.45.17.17.44.29.28.12.58.23.3.12.59.25.3.12.54.3.25.18.39.45.15.26.15.65 0 .43-.23.79-.22.36-.65.58-.42.21-1.05.21m9.666-6.22h2.29v.62h-2.29zm-2.33-1.61h.6v1.13q0 .85-.32 1.6-.31.75-.87 1.31-.561.55-1.29.85l-.39-.59a3.5 3.5 0 0 0 1.62-1.25q.309-.42.48-.91t.17-1.01zm.13 0h.6v1.16q0 .48.16.93.17.45.47.84t.7.69q.41.3.89.48l-.4.58a4 4 0 0 1-1.25-.81 4 4 0 0 1-.86-1.21 3.7 3.7 0 0 1-.31-1.5zm4.22-.54h.74v6.75h-.74zm-5.01 8.18h5.97v.61h-5.97zm0-2.19h.73v2.46h-.73zm11.259-5.67h.64v.52q0 .51-.2.96t-.56.83a4 4 0 0 1-.81.66q-.45.29-.98.49a6 6 0 0 1-1.05.28l-.3-.6a5.1 5.1 0 0 0 1.82-.64 4 4 0 0 0 .74-.56q.33-.31.51-.67.19-.36.19-.75zm.12 0h.64v.52q0 .39.19.75.19.35.51.66.33.31.74.56.42.24.89.41t.93.24l-.3.6a5.5 5.5 0 0 1-1.05-.29 6 6 0 0 1-.98-.49 4 4 0 0 1-.81-.66 3.3 3.3 0 0 1-.56-.82q-.2-.45-.2-.96zm-.13 5.23h.73v3.45h-.73zm-3.68-.46h8.13v.62h-8.13zm13.686-3.83h.59v1.54q0 .69-.21 1.37-.2.68-.56 1.29-.36.6-.82 1.07-.45.46-.96.73l-.44-.59q.47-.24.9-.65t.76-.94q.339-.53.54-1.11.2-.59.2-1.17zm.13 0h.59v1.54q0 .54.18 1.09.189.55.51 1.05.33.5.75.89.429.39.9.62l-.42.59a4 4 0 0 1-.98-.7q-.45-.45-.8-1.02a5.6 5.6 0 0 1-.54-1.21 4.6 4.6 0 0 1-.19-1.31zm-2.22-.34h4.84v.63h-4.84zm5.98-.93h.74v9.01h-.74zm.57 3.67h1.68v.63h-1.68zm4.609 1.88h.76v3.46h-.76zm3.1 0h.75v3.46h-.75zm-5.24-.4h8.16v.61h-8.16zm4.06-4.78q.94 0 1.64.24.71.24 1.1.68.39.43.39 1.04 0 .59-.39 1.03t-1.1.68q-.7.24-1.64.24-.93 0-1.64-.24-.7-.24-1.1-.68a1.5 1.5 0 0 1-.39-1.03q0-.61.39-1.04.4-.44 1.1-.68.71-.24 1.64-.24m0 .6q-.7 0-1.24.17-.53.17-.83.47t-.3.72q0 .4.3.71.3.3.83.47.54.16 1.24.16.71 0 1.24-.16.54-.17.84-.47.3-.31.3-.71 0-.42-.3-.72t-.84-.47a4 4 0 0 0-1.24-.17m5.139 4.5h8.16v.62h-8.16zm3.71.17h.73v3.37h-.73zm-2.61-1.74h6.14v.6h-6.14zm0-3.47h6.04v.6h-5.31v3.05h-.73zm.51 1.71h5.31v.59h-5.31zm16.736-2.14h.71v9.01h-.71zm-1.58 3.64h1.77v.62h-1.77zm-.47-3.43h.69v8.33h-.69zm-4.53 5.92h.58q.68 0 1.23-.02t1.04-.08q.5-.06 1.01-.17l.08.62q-.53.11-1.04.18-.51.06-1.07.08-.55.01-1.25.01h-.58zm0-5.02h3.35v.61h-2.61v4.69h-.74zm15.509-1.11h.74v4.61h-.74zm-2.82.46h.8q0 1.12-.51 1.99-.51.86-1.45 1.46-.94.59-2.24.91l-.27-.61q1.17-.28 1.99-.77t1.25-1.15q.43-.67.43-1.48zm-3.21 0h3.55v.61h-3.55zm3.69.88h2.47v.59h-2.47zm-.08 1.71h2.5v.59h-2.5zm-2.61 1.99h5.77v2.16h-5.01v1.49h-.73v-2.06h5v-.99h-5.03zm.03 3.28h6.06v.6h-6.06zM81.12 485.75h.74v9.02h-.74zm-3.99.71q.67 0 1.18.38t.8 1.09q.29.7.29 1.65 0 .96-.29 1.66t-.8 1.09q-.51.38-1.18.38-.66 0-1.18-.38-.51-.39-.8-1.09t-.29-1.66q0-.95.29-1.65.29-.71.8-1.09.52-.38 1.18-.38m0 .66q-.46 0-.81.31-.35.3-.55.86-.2.55-.2 1.29t.2 1.3.55.87.81.31.81-.31.55-.87.2-1.3-.2-1.29q-.2-.56-.55-.86a1.18 1.18 0 0 0-.81-.31m6.61-.39h5.32v.61h-5.32zm2.66 1.11q.64 0 1.12.2.489.2.75.56.27.36.27.86 0 .49-.27.85-.261.36-.75.56-.48.2-1.12.2a3 3 0 0 1-1.13-.2q-.48-.2-.75-.56t-.27-.85q0-.5.27-.86t.75-.56a3 3 0 0 1 1.13-.2m0 .58q-.651 0-1.05.28a.89.89 0 0 0-.39.76q0 .46.39.75.399.28 1.05.28.64 0 1.04-.28.4-.29.4-.75a.88.88 0 0 0-.4-.76q-.39-.28-1.04-.28m3.54-2.67h.74v5.63h-.74zm.54 2.51h1.56v.63h-1.56zm-5.62 3.63h5.82v2.87h-.74v-2.26h-5.08zm1.17-6.18h.74v1.36h-.74zm13.528.05h.74v6.87h-.74zm-1.59 2.42h1.9v.61h-1.9zm0 1.88h1.9v.61h-1.9zm-5.04-3.18h5.06v.61h-5.06zm2.55 1.13q.6 0 1.05.22.46.21.71.6.26.38.26.89t-.26.9q-.25.39-.71.61-.45.21-1.05.21-.59 0-1.05-.21a1.75 1.75 0 0 1-.72-.61q-.25-.39-.25-.9t.25-.89q.261-.39.72-.6a2.4 2.4 0 0 1 1.05-.22m0 .59q-.59 0-.96.31-.36.31-.36.81t.36.82q.37.31.96.31.591 0 .96-.31.37-.32.37-.82t-.37-.81q-.369-.31-.96-.31m-.36-2.85h.74v1.52h-.74zm-.57 8.19h5.97v.61h-5.97zm0-1.91h.73v2.21h-.73zm7.78 3.83-.2-.49q.45-.21.71-.57a1.34 1.34 0 0 0 .26-.82l-.11-.78.43.63a.54.54 0 0 1-.21.16.7.7 0 0 1-.23.04.66.66 0 0 1-.44-.16.56.56 0 0 1-.18-.44q0-.28.19-.44a.67.67 0 0 1 .45-.16q.33 0 .52.27.2.27.2.73 0 .7-.38 1.22a2.36 2.36 0 0 1-1.01.81m8.762-9.87q.95 0 1.65.22.71.21 1.1.61t.39.96q0 .55-.39.95t-1.1.62q-.7.21-1.65.21t-1.66-.21q-.7-.22-1.09-.62a1.3 1.3 0 0 1-.39-.95q0-.56.39-.96t1.09-.61q.71-.22 1.66-.22m0 .61q-.7 0-1.24.15-.53.14-.83.41a.8.8 0 0 0-.29.62q0 .36.29.63.3.26.83.4.54.14 1.24.14.71 0 1.24-.14t.82-.4q.3-.27.3-.63t-.3-.62q-.29-.27-.82-.41-.53-.15-1.24-.15m-4.06 3.69h8.14v.61h-8.14zm1 3.65h6.29v.61h-6.29zm0-1.89h.74v2.18h-.74zm1.85-1.49h.73v2.25h-.73zm2.44 0h.74v2.25h-.74zm6.329-3.54h.61v1.54q0 .7-.21 1.39-.21.68-.57 1.28t-.83 1.06a4 4 0 0 1-.98.73l-.43-.59a3.6 3.6 0 0 0 .9-.64 4.9 4.9 0 0 0 1.31-2.06q.2-.59.2-1.17zm.14 0h.6v1.54q0 .57.19 1.13.2.56.54 1.06.35.49.78.87.44.38.93.59l-.42.59a4.2 4.2 0 0 1-1.01-.68 5.3 5.3 0 0 1-.84-.99q-.36-.57-.57-1.22-.2-.66-.2-1.35zm-2.27-.34h5.02v.63h-5.02zm6.31-.93h.74v9.01h-.74zm5.189 4.52h.74v2.01h-.74zm4-4.51h.74v6.85h-.74zm-5.34 8.18h6.3v.61h-6.3zm0-2h.74v2.17h-.74zm-1.2-1.37-.1-.62q.83 0 1.81-.01.99-.02 2.02-.08t1.98-.18l.06.55a26 26 0 0 1-2 .23 41 41 0 0 1-1.99.09zm4.68.52h2.06v.55h-2.06zm-1.85-4.96q.66 0 1.15.2.501.19.78.54.28.35.28.82 0 .48-.28.83-.279.35-.78.54-.49.19-1.15.19a3.3 3.3 0 0 1-1.16-.19 1.8 1.8 0 0 1-.78-.54q-.27-.35-.27-.83 0-.47.27-.82a1.8 1.8 0 0 1 .78-.54q.5-.2 1.16-.2m0 .56q-.67 0-1.09.28-.42.27-.42.72t.42.73q.42.27 1.09.27.66 0 1.08-.27.42-.28.42-.73 0-.3-.19-.52a1.17 1.17 0 0 0-.53-.35q-.33-.13-.78-.13m6.529 9.17-.2-.49q.45-.21.71-.57.26-.35.26-.82l-.11-.78.43.63a.54.54 0 0 1-.21.16.7.7 0 0 1-.23.04.66.66 0 0 1-.44-.16.56.56 0 0 1-.18-.44q0-.28.19-.44a.68.68 0 0 1 .45-.16q.33 0 .52.27.2.27.2.73 0 .7-.38 1.22a2.35 2.35 0 0 1-1.01.81m10.923-10.11h.74v5.44h-.74zm.54 2.36h1.56v.63h-1.56zm-5.62 3.57h5.82v3.08h-.74v-2.47h-5.08zm-.75-5.37h.73v1.45h2.68v-1.45h.72v4.25h-4.13zm.73 2.04v1.61h2.68v-1.61zm10.499-1.33h.61v1.54q0 .7-.21 1.39-.21.68-.57 1.28t-.83 1.06q-.46.46-.98.73l-.43-.59a3.6 3.6 0 0 0 .9-.64 4.9 4.9 0 0 0 1.31-2.06q.2-.59.2-1.17zm.14 0h.6v1.54q0 .57.19 1.13.2.56.54 1.06.35.49.78.87.44.38.93.59l-.42.59a4.2 4.2 0 0 1-1.01-.68 5.3 5.3 0 0 1-.84-.99q-.36-.57-.57-1.22-.2-.66-.2-1.35zm-2.27-.34h5.02v.63h-5.02zm6.31-.93h.74v9.01h-.74zm6.289 5.09h.73v2.28h-.73zm.37-4.48q.95 0 1.68.29.74.29 1.15.82.42.52.42 1.23t-.42 1.24q-.41.52-1.15.81-.73.29-1.68.29-.94 0-1.68-.29t-1.16-.81a1.97 1.97 0 0 1-.41-1.24q0-.71.41-1.23.42-.53 1.16-.82t1.68-.29m0 .6q-.73 0-1.31.22t-.91.61-.33.91.33.92q.33.39.91.61t1.31.22 1.3-.22q.58-.22.91-.61.33-.4.33-.92t-.33-.91-.91-.61a3.6 3.6 0 0 0-1.3-.22m-4.06 6.01h8.16v.62h-8.16zm-76.808 4.79h.75v6.6h-.75zm-5 8.18h6.03v.61h-6.03zm0-2.18h.74v2.46h-.74zm.77-5.5h.62v.91q0 .88-.32 1.65a4.3 4.3 0 0 1-.88 1.35 3.9 3.9 0 0 1-1.29.89l-.4-.6q.67-.27 1.18-.76.51-.5.8-1.15.29-.66.29-1.38zm.13 0h.61v.91q0 .53.17 1.01t.47.89q.31.41.72.73.42.31.92.49l-.39.6q-.73-.3-1.3-.84a4.1 4.1 0 0 1-.88-1.28 4 4 0 0 1-.32-1.6zm8.82 5.04h.76v3.46h-.76zm3.1 0h.75v3.46h-.75zm-5.24-.4h8.16v.61h-8.16zm4.06-4.78q.94 0 1.64.24.71.24 1.1.68.39.43.39 1.04 0 .59-.39 1.03t-1.1.68q-.7.24-1.64.24-.93 0-1.64-.24-.7-.24-1.1-.68a1.5 1.5 0 0 1-.39-1.03q0-.61.39-1.04.4-.44 1.1-.68.71-.24 1.64-.24m0 .6q-.7 0-1.24.17-.53.17-.83.47t-.3.72q0 .4.3.71.3.3.83.47.54.16 1.24.16.71 0 1.24-.16.54-.17.84-.47.3-.31.3-.71 0-.42-.3-.72t-.84-.47a4 4 0 0 0-1.24-.17m5.598-.46h.73v1.47h2.57v-1.47h.73v4.2h-4.03zm.73 2.06v1.53h2.57v-1.53zm3.08-.26h2.61v.61h-2.61zm2.38-2.31h.74v5.23h-.74zm-5.07 5.7h5.81v3.19h-5.81zm5.09.59h-4.37v1.99h4.37zm2.75 3.82-.2-.49q.45-.21.71-.57a1.34 1.34 0 0 0 .26-.82l-.11-.78.43.63a.54.54 0 0 1-.21.16.7.7 0 0 1-.23.04.66.66 0 0 1-.44-.16.56.56 0 0 1-.18-.44q0-.28.19-.44a.67.67 0 0 1 .45-.16q.33 0 .52.27.2.27.2.73 0 .7-.38 1.22a2.36 2.36 0 0 1-1.01.81m10.922-10.1h.74v5.09h-.74zm.55 2.09h1.55v.62h-1.55zm-5.44 3.5h5.63v3.28h-5.63zm4.91.6h-4.19v2.07h4.19zm-5.8-5.74h.74v3.59h-.74zm0 3.29h.7q.99 0 2.01-.08 1.02-.09 2.12-.32l.1.62q-1.14.23-2.18.32-1.03.09-2.05.09h-.7zm9.259-3.04h4.01v.61h-4.01zm1.4 1.99h.73v2.25h-.73zm2.31-1.99h.73v.46q0 .44-.03 1.11-.03.66-.21 1.56l-.73-.07q.18-.9.21-1.53.03-.64.03-1.07zm2.01-.71h.75v6.79h-.75zm.4 2.96h1.67v.63h-1.67zm-5.28 5.23h5.92v.61h-5.92zm0-2.02h.73v2.2h-.73zm-1.31-.85-.08-.62q.8 0 1.77-.02t1.97-.08q1-.07 1.91-.19l.05.55q-.93.15-1.93.23-.99.08-1.94.1t-1.75.03m11.769.51h.74v2.96h-.74zm4.01-5.82h.73v9.01h-.73zm-6.53 6.22-.1-.62q.88 0 1.89-.01a55 55 0 0 0 2.05-.06q1.05-.05 2.04-.17l.05.54q-1.01.15-2.06.22-1.04.06-2.03.08-.98.02-1.84.02m.25-5.24h5.3v.59h-5.3zm2.65 1.02q.63 0 1.1.18t.73.52q.26.33.26.78t-.26.79q-.26.33-.73.51t-1.1.18q-.62 0-1.1-.18-.47-.18-.74-.51a1.27 1.27 0 0 1-.26-.79q0-.45.26-.78.27-.34.74-.52.48-.18 1.1-.18m0 .56q-.63 0-1.02.25-.38.25-.38.67 0 .41.38.67.39.25 1.02.25t1.01-.25q.38-.26.38-.67 0-.42-.38-.67t-1.01-.25m-.38-2.64h.75v1.37h-.75zm6.809 10.18-.2-.49q.45-.21.71-.57.26-.35.26-.82l-.11-.78.43.63a.54.54 0 0 1-.21.16.7.7 0 0 1-.23.04.66.66 0 0 1-.44-.16.56.56 0 0 1-.18-.44q0-.28.19-.44a.68.68 0 0 1 .45-.16q.33 0 .52.27.2.27.2.73 0 .7-.38 1.22a2.35 2.35 0 0 1-1.01.81m9.133-7.8h2.43v.61h-2.43zm-1.98-1.79q.67 0 1.19.27t.81.75a2 2 0 0 1 .3 1.1q0 .63-.3 1.11-.291.47-.81.74-.52.26-1.19.26t-1.19-.26a2.1 2.1 0 0 1-.82-.74q-.3-.48-.3-1.11a2 2 0 0 1 .3-1.1q.3-.48.82-.75t1.19-.27m0 .63q-.47 0-.83.2-.36.19-.57.53-.2.33-.2.76 0 .44.2.78.21.33.57.52t.83.19q.46 0 .82-.19t.56-.52q.21-.34.21-.78 0-.43-.21-.76a1.4 1.4 0 0 0-.56-.53q-.36-.2-.82-.2m4.19-1.15h.74v5.18h-.74zm-5.07 5.66h5.81v3.23h-5.81zm5.09.6h-4.37v2.02h4.37zm4.839-5.74h.61v.94q0 .87-.32 1.6t-.88 1.27q-.561.54-1.32.83l-.39-.6q.68-.25 1.19-.7a3.3 3.3 0 0 0 .81-1.07q.3-.62.3-1.33zm.12 0h.61v.92q0 .64.28 1.22.29.57.8 1t1.15.66l-.41.58a4.1 4.1 0 0 1-1.26-.78 3.8 3.8 0 0 1-.86-1.19 3.6 3.6 0 0 1-.31-1.49zm4.22-.52h.74v5.34h-.74zm-2.21 5.61q1.389 0 2.19.45.8.44.8 1.24t-.8 1.24q-.801.45-2.19.45-1.38 0-2.18-.45-.8-.44-.8-1.24t.8-1.24q.8-.45 2.18-.45m0 .59q-.69 0-1.2.14-.501.13-.78.38a.75.75 0 0 0-.27.58q0 .34.27.59.279.24.78.37.51.13 1.2.13.699 0 1.2-.13.5-.13.77-.37a.77.77 0 0 0 .28-.59.74.74 0 0 0-.28-.58q-.27-.25-.77-.38a4.5 4.5 0 0 0-1.2-.14m.19-4.25h2.19v.62h-2.19zm5.049-1.15h4.16v4.16h-4.16zm3.45.6h-2.73v2.96h2.73zm2.69-1.39h.75v6.48h-.75zm-5 8.07h6.03v.61h-6.03zm0-2.21h.74v2.46h-.74zM79.31 542.11h2.09v.62h-2.09zm1.85-2.36h.74v5.37h-.74zm-2.21 5.66q.93 0 1.59.2.67.19 1.03.57.37.37.37.9 0 .79-.8 1.23t-2.19.44q-1.38 0-2.18-.44t-.8-1.23q0-.53.36-.9.36-.38 1.03-.57.67-.2 1.59-.2m0 .59q-.69 0-1.2.13-.5.13-.78.37a.75.75 0 0 0-.27.58q0 .34.27.58.28.24.78.37.51.13 1.2.13.7 0 1.2-.13t.77-.37a.738.738 0 0 0 0-1.16q-.27-.24-.77-.37a4.8 4.8 0 0 0-1.2-.13m-2.1-5.34h.61v.76q0 .82-.33 1.54a3.94 3.94 0 0 1-2.18 2.06l-.38-.59q.49-.18.9-.49.42-.31.73-.7.31-.4.48-.86a2.8 2.8 0 0 0 .17-.96zm.14 0h.6v.75q0 .59.28 1.14.29.55.79.98.5.42 1.14.65l-.38.59a3.9 3.9 0 0 1-1.26-.77 3.6 3.6 0 0 1-.86-1.17 3.3 3.3 0 0 1-.31-1.42zm-2.19-.23h4.8v.61h-4.8zm11.32.12h.62v1.66q0 .76-.21 1.48a5.7 5.7 0 0 1-1.39 2.43 3.9 3.9 0 0 1-1 .75l-.46-.61q.489-.23.93-.65.44-.43.77-.97.339-.55.54-1.17.2-.62.2-1.26zm.12 0h.61v1.66q0 .62.19 1.22.2.59.54 1.12.35.53.78.93.44.4.93.63l-.45.59a4 4 0 0 1-1-.71 5.8 5.8 0 0 1-.83-1.06q-.36-.6-.57-1.29-.2-.69-.2-1.43zm4.08-.8h.74v9.02h-.74zm3.028 1.05h7.22v.6h-7.22zm-.43 4.8h8.16v.6h-8.16zm3.69.48h.73v2.69h-.73zm.37-4.13q1.36 0 2.12.39.77.39.77 1.11 0 .7-.77 1.1-.76.39-2.12.39-1.359 0-2.13-.39-.77-.4-.77-1.1 0-.72.77-1.11.771-.39 2.13-.39m0 .57q-1 0-1.57.24-.56.24-.56.69 0 .43.56.68.57.24 1.57.24t1.56-.24q.57-.25.57-.68 0-.45-.57-.69-.56-.24-1.56-.24m-.37-2.82h.73v1.5h-.73zm5.72 10.16-.2-.49q.45-.21.71-.57a1.34 1.34 0 0 0 .26-.82l-.11-.78.43.63a.54.54 0 0 1-.21.16.7.7 0 0 1-.23.04.66.66 0 0 1-.44-.16.56.56 0 0 1-.18-.44q0-.28.19-.44a.67.67 0 0 1 .45-.16q.33 0 .52.27.2.27.2.73 0 .7-.38 1.22a2.36 2.36 0 0 1-1.01.81m11.302-10.11h.74v9.02h-.74zm-3.99.71q.67 0 1.18.38t.8 1.09q.29.7.29 1.65 0 .96-.29 1.66t-.8 1.09q-.51.38-1.18.38a1.95 1.95 0 0 1-1.18-.38q-.51-.39-.8-1.09t-.29-1.66q0-.95.29-1.65.29-.71.8-1.09a1.95 1.95 0 0 1 1.18-.38m0 .66q-.46 0-.81.31-.35.3-.55.86-.2.55-.2 1.29t.2 1.3.55.87.81.31q.459 0 .81-.31.35-.31.55-.87t.2-1.3-.2-1.29q-.2-.56-.55-.86a1.2 1.2 0 0 0-.81-.31m9.009-.1h.61v1.54q0 .7-.21 1.39-.21.68-.57 1.28t-.83 1.06a4 4 0 0 1-.98.73l-.43-.59a3.6 3.6 0 0 0 .9-.64 4.9 4.9 0 0 0 1.31-2.06q.2-.59.2-1.17zm.14 0h.6v1.54q0 .57.19 1.13.2.56.54 1.06.35.49.78.87.44.38.93.59l-.42.59a4.2 4.2 0 0 1-1.01-.68 5.3 5.3 0 0 1-.84-.99q-.36-.57-.57-1.22-.2-.66-.2-1.35zm-2.27-.34h5.02v.63h-5.02zm6.31-.93h.74v9.01h-.74zm3.009 1.36h7.29v.61h-7.29zm-.41 5.96h8.16v.61h-8.16zm3.7-1.48h.73v1.71h-.73zm.36-3.23q.9 0 1.56.21.66.2 1.01.58.35.37.35.91t-.35.93q-.35.38-1.01.58t-1.56.2-1.56-.2-1.01-.58q-.35-.39-.35-.93t.35-.91q.35-.38 1.01-.58.66-.21 1.56-.21m0 .59a4.3 4.3 0 0 0-1.16.14q-.49.13-.76.38a.77.77 0 0 0-.26.59q0 .35.26.6.27.25.76.39.49.13 1.16.13t1.15-.13q.49-.14.76-.39a.8.8 0 0 0 .27-.6.76.76 0 0 0-.27-.59q-.27-.25-.76-.38a4.2 4.2 0 0 0-1.15-.14m-.36-3.04h.73v1.57h-.73zm5.709 9.95-.2-.49q.45-.21.71-.57.26-.35.26-.82l-.11-.78.43.63a.54.54 0 0 1-.21.16.7.7 0 0 1-.23.04.66.66 0 0 1-.44-.16.56.56 0 0 1-.18-.44q0-.28.19-.44a.68.68 0 0 1 .45-.16q.33 0 .52.27.2.27.2.73 0 .7-.38 1.22a2.35 2.35 0 0 1-1.01.81m8.633-9.51h.77q0 1.13-.53 2.04-.52.9-1.49 1.54-.96.64-2.28 1l-.29-.59q1.19-.32 2.04-.85.86-.54 1.32-1.26t.46-1.57zm-3.36 0h3.77v.6h-3.77zm6.04-.59h.75v5.09h-.75zm-5.05 5.54h5.8v3.33h-5.8zm5.07.59h-4.34v2.13h4.34zm2.979-4.78h7.29v.61h-7.29zm-.41 5.96h8.16v.61h-8.16zm3.7-1.48h.73v1.71h-.73zm.36-3.23q.9 0 1.56.21.66.2 1.01.58.35.37.35.91t-.35.93q-.35.38-1.01.58t-1.56.2-1.56-.2-1.01-.58q-.35-.39-.35-.93t.35-.91q.35-.38 1.01-.58.66-.21 1.56-.21m0 .59a4.3 4.3 0 0 0-1.16.14q-.49.13-.76.38a.77.77 0 0 0-.26.59q0 .35.26.6.27.25.76.39.49.13 1.16.13t1.15-.13q.49-.14.76-.39a.8.8 0 0 0 .27-.6.76.76 0 0 0-.27-.59q-.27-.25-.76-.38a4.2 4.2 0 0 0-1.15-.14m-.36-3.04h.73v1.57h-.73zm8.089 4.36h.74v2.01h-.74zm4-4.51h.74v6.85h-.74zm-5.34 8.18h6.3v.61h-6.3zm0-2h.74v2.17h-.74zm-1.2-1.37-.1-.62q.83 0 1.81-.01.99-.02 2.02-.08t1.98-.18l.06.55q-.97.15-2 .23a41 41 0 0 1-1.99.09zm4.68.52h2.06v.55h-2.06zm-1.85-4.96q.66 0 1.15.2.5.19.78.54t.28.82q0 .48-.28.83a1.8 1.8 0 0 1-.78.54q-.49.19-1.15.19t-1.16-.19a1.8 1.8 0 0 1-.78-.54q-.27-.35-.27-.83 0-.47.27-.82a1.8 1.8 0 0 1 .78-.54q.5-.2 1.16-.2m0 .56q-.67 0-1.09.28-.42.27-.42.72t.42.73q.42.27 1.09.27.66 0 1.08-.27.42-.28.42-.73 0-.3-.19-.52a1.2 1.2 0 0 0-.53-.35q-.33-.13-.78-.13m-82.238 11.3q.95 0 1.65.22.71.21 1.1.61t.39.96q0 .55-.39.95t-1.1.62q-.7.21-1.65.21t-1.66-.21q-.7-.22-1.09-.62a1.3 1.3 0 0 1-.39-.95q0-.56.39-.96t1.09-.61q.71-.22 1.66-.22m0 .61q-.7 0-1.24.15-.53.14-.83.41a.8.8 0 0 0-.29.62q0 .36.29.63.3.26.83.4.54.14 1.24.14.71 0 1.24-.14t.82-.4q.3-.27.3-.63t-.3-.62q-.29-.27-.82-.41-.53-.15-1.24-.15m-4.06 3.69h8.14v.61h-8.14zm1 3.65h6.29v.61h-6.29zm0-1.89h.74v2.18h-.74zm1.85-1.49h.73v2.25h-.73zm2.44 0h.74v2.25h-.74zm6.33-3.54h.61v1.54q0 .7-.21 1.39-.21.68-.57 1.28t-.83 1.06q-.46.46-.98.73l-.43-.59q.47-.23.9-.64.44-.41.78-.94t.53-1.12q.2-.59.2-1.17zm.14 0h.6v1.54q0 .57.19 1.13.2.56.54 1.06.35.49.78.87.44.38.93.59l-.42.59a4.2 4.2 0 0 1-1.01-.68 5.3 5.3 0 0 1-.84-.99q-.36-.57-.57-1.22-.2-.66-.2-1.35zm-2.27-.34h5.02v.63h-5.02zm6.31-.93h.74v9.01h-.74zm2.588 5.17h8.14v.59h-8.14zm3.76.44h.74v1.55h-.74zm-2.71 2.59h6.2v.6h-6.2zm0-1.65h.74v1.96h-.74zm-.61-5.69h7.22v.58h-7.22zm3.63.99q1.371 0 2.13.36.76.35.76 1.01t-.76 1.02q-.759.35-2.13.35t-2.13-.35q-.76-.36-.76-1.02t.76-1.01q.76-.36 2.13-.36m0 .55q-1.02 0-1.58.21t-.56.61.56.61 1.58.21 1.58-.21.56-.61-.56-.61-1.58-.21m-.36-2.51h.73v1.27h-.73zm5.71 10.22-.2-.49q.45-.21.71-.57a1.34 1.34 0 0 0 .26-.82l-.11-.78.43.63a.54.54 0 0 1-.21.16.7.7 0 0 1-.23.04.66.66 0 0 1-.44-.16.56.56 0 0 1-.18-.44q0-.28.19-.44a.67.67 0 0 1 .45-.16q.33 0 .52.27.2.27.2.73 0 .7-.38 1.22a2.36 2.36 0 0 1-1.01.81m8.392-6.96h.73v1.69h-.73zm0-3.01h.63v.43q0 .48-.2.9-.19.42-.54.77t-.8.63q-.45.27-.96.46-.51.18-1.04.27l-.28-.59a5.5 5.5 0 0 0 1.77-.59q.41-.23.73-.52t.5-.62q.19-.34.19-.71zm.11 0h.63v.43q0 .37.18.71.19.33.5.62.32.28.73.51t.86.38q.46.15.92.22l-.28.59a6.3 6.3 0 0 1-1.03-.27 6 6 0 0 1-.97-.46 4.5 4.5 0 0 1-.8-.63 2.8 2.8 0 0 1-.55-.77q-.19-.42-.19-.9zm-3.81 4.36h8.14v.6h-8.14zm4.07 1.39q1.44 0 2.25.41.82.4.82 1.14t-.82 1.14q-.81.41-2.25.41-1.45 0-2.27-.41-.81-.4-.81-1.14t.81-1.14q.82-.41 2.27-.41m0 .58q-1.09 0-1.71.25t-.62.72q0 .46.62.72.62.25 1.71.25t1.71-.25q.62-.26.62-.72 0-.47-.62-.72-.621-.25-1.71-.25m9.259-5.15h2.75v.61h-2.75zm0 2.09h2.75v.61h-2.75zm-1.67-2.86q.66 0 1.18.27t.82.75.3 1.1q0 .63-.3 1.11t-.82.75-1.18.27-1.19-.27a2.07 2.07 0 0 1-.82-.75q-.3-.48-.3-1.11 0-.62.3-1.1t.82-.75q.53-.27 1.19-.27m0 .63q-.46 0-.83.19-.36.19-.57.53-.2.34-.2.77 0 .44.2.78.21.33.57.52.37.19.83.19t.82-.19.57-.52q.21-.34.21-.78a1.44 1.44 0 0 0-.78-1.3 1.7 1.7 0 0 0-.82-.19m4.19-1.18h.74v5.34h-.74zm-2.21 5.56q.93 0 1.59.21.67.2 1.03.58.37.38.37.92t-.37.93q-.36.38-1.03.58-.66.21-1.59.21-.92 0-1.59-.21-.67-.2-1.03-.58-.36-.39-.36-.93t.36-.92 1.03-.58q.67-.21 1.59-.21m0 .59q-.69 0-1.2.14-.51.13-.79.38a.8.8 0 0 0-.27.6q0 .34.27.6.28.25.79.38.51.14 1.2.14.7 0 1.2-.14.51-.13.78-.38a.8.8 0 0 0 .28-.6.78.78 0 0 0-.28-.6q-.27-.25-.78-.38a4.5 4.5 0 0 0-1.2-.14m4.759-.98h8.14v.59h-8.14zm3.76.44h.74v1.55h-.74zm-2.71 2.59h6.2v.6h-6.2zm0-1.65h.74v1.96h-.74zm-.61-5.69h7.22v.58h-7.22zm3.63.99q1.371 0 2.13.36.76.35.76 1.01t-.76 1.02q-.759.35-2.13.35t-2.13-.35q-.76-.36-.76-1.02t.76-1.01q.76-.36 2.13-.36m0 .55q-1.02 0-1.58.21t-.56.61.56.61 1.58.21 1.58-.21.56-.61-.56-.61-1.58-.21m-.36-2.51h.73v1.27h-.73zm5.709 10.22-.2-.49q.45-.21.71-.57.26-.35.26-.82l-.11-.78.43.63a.54.54 0 0 1-.21.16.7.7 0 0 1-.23.04.66.66 0 0 1-.44-.16.56.56 0 0 1-.18-.44q0-.28.19-.44a.68.68 0 0 1 .45-.16q.33 0 .52.27.2.27.2.73 0 .7-.38 1.22a2.35 2.35 0 0 1-1.01.81m9.493-7.75h2.09v.62h-2.09zm1.85-2.36h.74v5.37h-.74zm-2.21 5.66q.93 0 1.59.2.67.19 1.03.57.37.37.37.9 0 .79-.8 1.23-.801.44-2.19.44-1.38 0-2.18-.44t-.8-1.23q0-.53.36-.9.36-.38 1.03-.57.669-.2 1.59-.2m0 .59q-.69 0-1.2.13-.501.13-.78.37a.75.75 0 0 0-.27.58q0 .34.27.58.279.24.78.37.51.13 1.2.13.699 0 1.2-.13.5-.13.77-.37a.74.74 0 0 0 0-1.16q-.27-.24-.77-.37a4.8 4.8 0 0 0-1.2-.13m-2.1-5.34h.61v.76q0 .82-.33 1.54a3.95 3.95 0 0 1-2.18 2.06l-.38-.59q.489-.18.9-.49.42-.31.73-.7.309-.4.48-.86.17-.47.17-.96zm.14 0h.6v.75q0 .59.28 1.14.29.55.79.98.5.42 1.14.65l-.38.59a3.9 3.9 0 0 1-1.26-.77 3.6 3.6 0 0 1-.86-1.17 3.3 3.3 0 0 1-.31-1.42zm-2.19-.23h4.8v.61h-4.8zm8.909 4.5h8.16v.62h-8.16zm3.69.37h.73v3.46h-.73zm.37-5.18q.94 0 1.64.24.71.24 1.1.68t.39 1.05q0 .6-.39 1.04t-1.1.68q-.7.24-1.64.24-.93 0-1.64-.24-.7-.24-1.1-.68-.39-.44-.39-1.04 0-.61.39-1.05.4-.44 1.1-.68.71-.24 1.64-.24m0 .6q-.7 0-1.24.17-.53.17-.83.48-.3.3-.3.71 0 .42.3.73.3.3.83.47.54.17 1.24.17.71 0 1.24-.17.54-.17.84-.47.3-.31.3-.73 0-.41-.3-.71-.3-.31-.84-.48a4.1 4.1 0 0 0-1.24-.17m7.579.02h.62v.95a3.5 3.5 0 0 1-.33 1.52q-.32.7-.89 1.22t-1.31.79l-.39-.58q.67-.24 1.18-.68.52-.45.82-1.03.3-.59.3-1.24zm.14 0h.61v.95q0 .46.17.89.18.43.49.8.32.36.73.64a3.7 3.7 0 0 0 .91.44l-.37.58a3.9 3.9 0 0 1-1.3-.74 3.8 3.8 0 0 1-.91-1.16q-.33-.67-.33-1.45zm-2.24-.22h4.94v.61h-4.94zm6.28-.76h.75v6.6h-.75zm-5 8.18h6.03v.61h-6.03zm0-2.2h.74v2.46h-.74zM20.724 76v-.69h1.64v-5.6h-1.31v-.53q.48-.08.84-.2.36-.13.64-.3h.63v6.63h1.49V76zm7.339.13q-.68 0-1.19-.42t-.78-1.27-.27-2.13q0-1.27.27-2.1t.78-1.24q.51-.42 1.19-.42.69 0 1.19.42.5.41.77 1.24.28.83.28 2.1 0 1.28-.28 2.13-.27.85-.77 1.27t-1.19.42m0-.66q.43 0 .76-.34t.51-1.03q.18-.7.18-1.79 0-1.07-.18-1.76t-.51-1.02-.76-.33-.76.33-.52 1.02q-.18.69-.18 1.76 0 1.09.18 1.79.19.69.52 1.03t.76.34m3.248-2.94h8.16v.61h-8.16zm3.76.3h.74v2.11h-.74zm-2.71 3.11h6.2v.61h-6.2zm0-1.83h.73v2.05h-.73zm.04-6.07h.73v1.18h4.52v-1.18h.73v3.58H32.4zm.73 1.76v1.22h4.52V69.8zm-5.228 94.33q-.57 0-1-.14a2.9 2.9 0 0 1-.75-.36 3.6 3.6 0 0 1-.56-.47l.41-.54q.21.22.47.41.26.18.59.3.34.12.77.12.44 0 .8-.22.37-.22.59-.62.22-.41.22-.95 0-.82-.43-1.28t-1.14-.46q-.37 0-.65.12-.27.11-.59.32l-.45-.28.23-3.4h3.5v.7h-2.78l-.2 2.22q.25-.14.52-.22.28-.09.62-.09.609 0 1.11.25.5.25.79.77.3.51.3 1.32 0 .8-.35 1.36-.34.56-.88.85-.531.29-1.14.29m3.408-3.6h8.16v.61h-8.16zm3.76.3h.74v2.11h-.74zm-2.71 3.11h6.2v.61h-6.2zm0-1.83h.73v2.05h-.73zm.04-6.07h.73v1.18h4.52v-1.18h.73v3.58H32.4zm.73 1.76v1.22h4.52v-1.22zM20.274 226v-.48q1.17-1.03 1.92-1.87.75-.85 1.1-1.57.36-.73.36-1.36 0-.43-.15-.77a1.15 1.15 0 0 0-.46-.53q-.309-.2-.78-.2-.46 0-.85.25-.39.24-.7.61l-.49-.46q.44-.48.94-.77.51-.3 1.19-.3.66 0 1.12.27.471.26.72.74.26.48.26 1.13 0 .74-.37 1.5-.36.75-1.02 1.54t-1.56 1.63l.6-.04a10 10 0 0 1 .6-.02h2.11v.7zm7.788.13q-.68 0-1.19-.42t-.78-1.27-.27-2.13q0-1.27.27-2.1t.78-1.24q.51-.42 1.19-.42.69 0 1.19.42.5.41.77 1.24.28.83.28 2.1 0 1.28-.28 2.13-.27.85-.77 1.27t-1.19.42m0-.66q.43 0 .76-.34t.51-1.03q.18-.7.18-1.79 0-1.07-.18-1.76t-.51-1.02-.76-.33-.76.33-.52 1.02q-.18.69-.18 1.76 0 1.09.18 1.79.19.69.52 1.03t.76.34m3.249-2.94h8.16v.61h-8.16zm3.76.3h.74v2.11h-.74zm-2.71 3.11h6.2v.61h-6.2zm0-1.83h.73v2.05h-.73zm.04-6.07h.73v1.18h4.52v-1.18h.73v3.58H32.4zm.73 1.76v1.22h4.52v-1.22zm-5.508 177.33q-.58 0-1-.2-.42-.21-.72-.53l.46-.52a1.62 1.62 0 0 0 1.24.57q.38 0 .72-.18t.6-.58.41-1.06.15-1.63q0-.9-.19-1.52-.19-.63-.56-.96t-.91-.33q-.36 0-.65.22t-.47.61q-.17.38-.17.89 0 .5.15.88t.45.6q.31.21.76.21.38 0 .8-.24.42-.25.8-.8l.04.68a3 3 0 0 1-.52.5 2.5 2.5 0 0 1-.6.35q-.32.12-.65.12-.61 0-1.06-.26a1.75 1.75 0 0 1-.7-.77q-.24-.51-.24-1.27 0-.7.28-1.23.29-.54.75-.83.47-.3 1.03-.3.53 0 .97.22.45.21.77.65.33.43.51 1.08.18.64.18 1.5 0 1.13-.22 1.92-.22.78-.59 1.27a2.35 2.35 0 0 1-.84.72 2.3 2.3 0 0 1-.98.22m3.688-3.6h8.16v.61h-8.16zm3.76.3h.74v2.11h-.74zm-2.71 3.11h6.2v.61h-6.2zm0-1.83h.73v2.05h-.73zm.04-6.07h.73v1.18h4.52v-1.18h.73v3.58H32.4zm.73 1.76v1.22h4.52v-1.22zM20.724 474v-.69h1.64v-5.6h-1.31v-.53q.48-.08.84-.2.36-.13.64-.3h.63v6.63h1.49v.69zm7.578.13q-.53 0-.97-.22a2.24 2.24 0 0 1-.77-.68 3.6 3.6 0 0 1-.5-1.13q-.18-.68-.18-1.58 0-1.08.21-1.84.22-.76.6-1.23t.86-.68q.48-.22 1.01-.22.561 0 .96.21.41.2.71.52l-.47.51a1.5 1.5 0 0 0-.52-.41q-.31-.15-.65-.15-.52 0-.97.31-.44.31-.71 1.03-.26.72-.26 1.95 0 .94.19 1.6t.55 1.01q.37.35.91.35.37 0 .65-.22.29-.22.46-.6.17-.39.17-.89 0-.52-.15-.89a1.2 1.2 0 0 0-.45-.59q-.3-.21-.77-.21-.36 0-.79.24-.42.23-.8.8l-.03-.68q.24-.3.52-.52.29-.22.61-.33.32-.12.62-.12.62 0 1.07.26.46.25.7.76.25.51.25 1.28 0 .7-.29 1.23-.279.53-.75.83-.459.3-1.02.3m3.009-3.6h8.16v.61h-8.16zm3.76.3h.74v2.11h-.74zm-2.71 3.11h6.2v.61h-6.2zm0-1.83h.73v2.05h-.73zm.04-6.07h.73v1.18h4.52v-1.18h.73v3.58H32.4zm.73 1.76v1.22h4.52v-1.22zm37.839 61.01h.76q.97 0 1.69-.02.73-.02 1.35-.07t1.26-.16l.1.82q-.65.11-1.29.17-.64.05-1.38.07-.74.01-1.73.01h-.76zm0-3.58h4.37v.83h-3.33v3.12h-1.04zm.71 1.76h3.4v.83h-3.4zm5.26-2.3h1.05v5.44h-1.05zm-4.92 5.86h5.97v3.16h-5.97zm4.95.83h-3.93v1.5h3.93zm7.255-5.33h.84v1.28a6.2 6.2 0 0 1-.18 1.49q-.18.72-.53 1.36-.34.64-.82 1.13t-1.06.78l-.61-.83q.531-.25.96-.67.441-.42.75-.95a5 5 0 0 0 .48-1.13q.17-.59.17-1.18zm.22 0h.84v1.28q0 .57.17 1.13.171.56.48 1.06.31.5.74.89t.97.62l-.58.83q-.6-.27-1.08-.73a4.8 4.8 0 0 1-.83-1.06 6 6 0 0 1-.53-1.3 5.8 5.8 0 0 1-.18-1.44zm-2.25-.46h5.12v.87h-5.12zm6.18-.9h1.05v9.14h-1.05zm2.73 5.18h8.26v.83h-8.26zm3.69.61h1.05v1.47h-1.05zm-2.69 2.34h6.35v.82h-6.35zm0-1.45h1.05v1.93h-1.05zm-.59-5.88h7.39v.8h-7.39zm3.72 1.13q1.43 0 2.21.36.78.35.78 1.03 0 .67-.78 1.03t-2.21.36-2.22-.36q-.78-.36-.78-1.03 0-.68.78-1.03.789-.36 2.22-.36m0 .74q-.96 0-1.45.16t-.49.49q0 .32.49.48t1.45.16 1.44-.16q.49-.16.49-.48 0-.33-.49-.49-.48-.16-1.44-.16m-.52-2.75h1.04v1.36h-1.04zm-23.745-49.8h.76q.97 0 1.69-.02.73-.02 1.35-.07t1.26-.16l.1.82q-.65.11-1.29.17-.64.05-1.38.07-.74.01-1.73.01h-.76zm0-3.58h4.37v.83h-3.33v3.12h-1.04zm.71 1.76h3.4v.83h-3.4zm5.26-2.3h1.05v5.44h-1.05zm-4.92 5.86h5.97v3.16h-5.97zm4.95.83h-3.93v1.5h3.93zm7.255-5.33h.84v1.28a6.2 6.2 0 0 1-.18 1.49q-.18.72-.53 1.36-.34.64-.82 1.13t-1.06.78l-.61-.83q.531-.25.96-.67.441-.42.75-.95a5 5 0 0 0 .48-1.13q.17-.59.17-1.18zm.22 0h.84v1.28q0 .57.17 1.13.171.56.48 1.06.31.5.74.89t.97.62l-.58.83q-.6-.27-1.08-.73a4.8 4.8 0 0 1-.83-1.06 6 6 0 0 1-.53-1.3 5.8 5.8 0 0 1-.18-1.44zm-2.25-.46h5.12v.87h-5.12zm6.18-.9h1.05v9.14h-1.05zm5.23 4.64h1.04v2.01h-1.04zm4.02-4.64h1.05v6.93h-1.05zm-5.34 8.1h6.61v.85h-6.61zm0-1.84h1.05v2.07h-1.05zm-1.09-1.27-.13-.85 1.83-.02q.99-.02 2.02-.07 1.04-.06 2-.18l.08.75a24 24 0 0 1-2.01.24q-1.02.08-1.99.1t-1.8.03m4.64.36h2.05v.74h-2.05zm-1.82-5.01q.68 0 1.18.2.51.2.79.57.29.36.29.84t-.29.85q-.28.37-.79.57-.5.19-1.18.19-.66 0-1.18-.19a1.84 1.84 0 0 1-.8-.57 1.37 1.37 0 0 1-.28-.85q0-.48.28-.84.29-.37.8-.57.52-.2 1.18-.2m0 .77q-.56 0-.92.23-.35.22-.35.61t.35.62q.36.22.92.22t.91-.22q.35-.23.35-.62a.64.64 0 0 0-.16-.44 1 1 0 0 0-.44-.29 1.8 1.8 0 0 0-.66-.11M27.903 640.13q-.57 0-1-.14a2.9 2.9 0 0 1-.75-.36 3.6 3.6 0 0 1-.56-.47l.41-.54q.21.22.47.41.26.18.59.3.34.12.77.12.44 0 .8-.22.37-.22.59-.62.22-.41.22-.95 0-.82-.43-1.28t-1.14-.46q-.37 0-.65.12-.27.11-.59.32l-.45-.28.23-3.4h3.5v.7h-2.78l-.2 2.22q.25-.14.52-.22.28-.09.62-.09.609 0 1.11.25.5.25.79.77.3.51.3 1.32 0 .8-.35 1.36-.34.56-.88.85-.531.29-1.14.29m3.408-3.6h8.16v.61h-8.16zm3.76.3h.74v2.11h-.74zm-2.71 3.11h6.2v.61h-6.2zm0-1.83h.73v2.05h-.73zm.04-6.07h.73v1.18h4.52v-1.18h.73v3.58H32.4zm.73 1.76v1.22h4.52v-1.22z"/><circle cx="55" cy="142" r="4" fill="#2c91f8" stroke="#2c91f8" stroke-width="2"/><circle cx="55" cy="142" r="4" fill="#f9f9f9" stroke="#2c91f8" stroke-width="2"/><path fill="#2c91f8" d="M4.68 147v-1.14h1.944v-6.144H5.04v-.876a6 6 0 0 0 1.08-.276q.468-.168.852-.408h1.044v7.704h1.716V147zm9.256.168q-.828 0-1.476-.3a2.7 2.7 0 0 1-1.032-.84 2.1 2.1 0 0 1-.372-1.224q0-.588.228-1.044t.588-.78q.36-.336.756-.552v-.06a3.5 3.5 0 0 1-.828-.852q-.348-.516-.348-1.212 0-.684.324-1.2.336-.516.9-.792.576-.288 1.308-.288.768 0 1.32.3t.852.828q.312.516.312 1.212 0 .444-.18.84t-.444.72a2.7 2.7 0 0 1-.54.516v.06q.408.216.744.54.336.312.54.756t.204 1.044q0 .648-.36 1.176-.348.528-.996.84-.636.312-1.5.312m.588-5.076a2.7 2.7 0 0 0 .576-.78q.204-.42.204-.876 0-.396-.156-.72a1.14 1.14 0 0 0-.468-.504 1.33 1.33 0 0 0-.732-.192q-.54 0-.9.348-.36.336-.36.936 0 .48.252.804t.672.552.912.432m-.552 4.068q.444 0 .78-.168a1.3 1.3 0 0 0 .54-.468q.192-.312.192-.732 0-.396-.168-.684a1.6 1.6 0 0 0-.468-.516 3.7 3.7 0 0 0-.684-.396 12 12 0 0 0-.852-.372 2.65 2.65 0 0 0-.744.804 1.93 1.93 0 0 0-.288 1.032q0 .444.216.78.228.336.612.528t.864.192m7.859-3.72a.92.92 0 0 1-.66-.264.97.97 0 0 1-.264-.696q0-.432.264-.708a.9.9 0 0 1 .66-.276q.396 0 .66.276.276.276.276.708 0 .42-.276.696a.9.9 0 0 1-.66.264m0 4.728a.9.9 0 0 1-.66-.276 1 1 0 0 1-.264-.708q0-.432.264-.696a.9.9 0 0 1 .66-.276q.396 0 .66.276.276.264.276.696 0 .42-.276.708a.88.88 0 0 1-.66.276m5.502-.168v-1.14h1.944v-6.144h-1.585v-.876a6 6 0 0 0 1.08-.276q.47-.168.853-.408h1.044v7.704h1.716V147zm9.255.168q-.864 0-1.512-.516t-1.008-1.536q-.348-1.032-.348-2.568t.348-2.544q.36-1.008 1.008-1.5a2.4 2.4 0 0 1 1.512-.504q.864 0 1.5.504t.984 1.512q.36.996.36 2.532t-.36 2.568q-.348 1.02-.984 1.536a2.3 2.3 0 0 1-1.5.516m0-1.104q.444 0 .792-.348t.54-1.116q.192-.78.192-2.052t-.192-2.028-.54-1.092a1.1 1.1 0 0 0-.792-.336q-.444 0-.792.336t-.552 1.092q-.192.756-.192 2.028t.192 2.052q.204.768.552 1.116t.792.348"/><path fill="#000" d="M76.156 139.488h2.676v1.032h-2.676zm-2.964-1.8h1.02v1.272q0 1.092-.348 2.04a4.7 4.7 0 0 1-1.032 1.644 4.4 4.4 0 0 1-1.644 1.08l-.66-.996a4 4 0 0 0 1.14-.612q.504-.384.84-.888a4 4 0 0 0 .504-1.068 4 4 0 0 0 .18-1.2zm.252 0h1.008v1.308q0 .552.168 1.08.18.528.504.996t.804.828 1.092.588l-.672.972a4.6 4.6 0 0 1-1.572-1.02 4.7 4.7 0 0 1-.996-1.56 5.3 5.3 0 0 1-.336-1.884zm4.932-.66h1.26v8.148h-1.26zm-5.88 9.72h7.392v1.02h-7.392zm0-2.436h1.26v2.964h-1.26zm13.391-6.936h1.104v.576q0 .624-.216 1.2a3.6 3.6 0 0 1-.624 1.044 4.6 4.6 0 0 1-.96.864 6 6 0 0 1-1.224.648 7.3 7.3 0 0 1-1.44.372l-.492-1.008a6.5 6.5 0 0 0 1.248-.3 5.8 5.8 0 0 0 1.068-.516q.48-.312.816-.684.348-.372.528-.78.192-.408.192-.84zm.24 0h1.092v.576q0 .42.18.828.192.408.54.78t.828.684a5.9 5.9 0 0 0 2.304.828l-.492 1.008a6.8 6.8 0 0 1-1.428-.384 6.2 6.2 0 0 1-1.236-.648 5 5 0 0 1-.96-.864 3.7 3.7 0 0 1-.612-1.044 3.3 3.3 0 0 1-.216-1.188zm-.228 6.504h1.248v4.116H85.9zm-4.308-.78h9.912v1.032h-9.912zm21.51-6.072h1.26v5.88h-1.26zm-5.892 6.408h1.236v1.188h4.68v-1.188h1.236v4.416h-7.152zm1.236 2.16v1.248h4.68v-1.248zm0-8.076q.84 0 1.5.324t1.032.9q.384.564.384 1.32t-.384 1.332a2.5 2.5 0 0 1-1.032.9q-.66.324-1.5.324t-1.5-.324a2.6 2.6 0 0 1-1.044-.9 2.4 2.4 0 0 1-.372-1.332q0-.756.372-1.32a2.6 2.6 0 0 1 1.044-.9q.66-.324 1.5-.324m0 1.032q-.492 0-.876.192a1.43 1.43 0 0 0-.804 1.32q0 .456.216.804.216.336.588.528.384.18.876.18t.864-.18q.384-.192.6-.528.228-.348.228-.804a1.4 1.4 0 0 0-.228-.792 1.4 1.4 0 0 0-.6-.528 1.86 1.86 0 0 0-.864-.192m10.5-.336h1.032v.804q0 1.02-.36 1.92t-1.044 1.572a4.55 4.55 0 0 1-1.668 1.008l-.636-.996q.864-.3 1.464-.84t.9-1.224q.312-.696.312-1.44zm.252 0h1.02v.804q0 .672.3 1.296t.876 1.116q.576.48 1.404.744l-.6.984q-.972-.312-1.644-.924a4.1 4.1 0 0 1-1.008-1.44 4.6 4.6 0 0 1-.348-1.776zm-2.58-.42h5.892v1.02h-5.892zm7.056-.768h1.248v6.552h-1.248zm.912 2.664h1.884v1.032h-1.884zm-3.192 4.14q1.128 0 1.944.252.816.24 1.26.708.444.456.444 1.104 0 .66-.444 1.116-.444.468-1.26.708-.816.252-1.944.252t-1.956-.252q-.816-.24-1.26-.708a1.56 1.56 0 0 1-.432-1.116q0-.648.432-1.104.444-.468 1.26-.708.828-.252 1.956-.252m0 .996q-.756 0-1.296.12t-.828.36a.74.74 0 0 0-.289.588q0 .36.289.612.288.24.828.372.54.12 1.296.12.768 0 1.296-.12.54-.132.828-.372a.78.78 0 0 0 .288-.612.74.74 0 0 0-.288-.588q-.288-.24-.828-.36a6 6 0 0 0-1.296-.12"/><circle cx="55" cy="204" r="4" fill="#2c91f8" stroke="#2c91f8" stroke-width="2"/><circle cx="55" cy="204" r="4" fill="#f9f9f9" stroke="#2c91f8" stroke-width="2"/><path fill="#2c91f8" d="M4.68 209v-1.14h1.944v-6.144H5.04v-.876a6 6 0 0 0 1.08-.276q.468-.168.852-.408h1.044v7.704h1.716V209zm9.256.168q-.828 0-1.476-.3a2.7 2.7 0 0 1-1.032-.84 2.1 2.1 0 0 1-.372-1.224q0-.588.228-1.044t.588-.78q.36-.336.756-.552v-.06a3.5 3.5 0 0 1-.828-.852q-.348-.516-.348-1.212 0-.684.324-1.2.336-.516.9-.792.576-.288 1.308-.288.768 0 1.32.3t.852.828q.312.516.312 1.212 0 .444-.18.84t-.444.72a2.7 2.7 0 0 1-.54.516v.06q.408.216.744.54.336.312.54.756t.204 1.044q0 .648-.36 1.176-.348.528-.996.84-.636.312-1.5.312m.588-5.076a2.7 2.7 0 0 0 .576-.78q.204-.42.204-.876 0-.396-.156-.72a1.14 1.14 0 0 0-.468-.504 1.33 1.33 0 0 0-.732-.192q-.54 0-.9.348-.36.336-.36.936 0 .48.252.804t.672.552.912.432m-.552 4.068q.444 0 .78-.168a1.3 1.3 0 0 0 .54-.468q.192-.312.192-.732 0-.396-.168-.684a1.6 1.6 0 0 0-.468-.516 3.7 3.7 0 0 0-.684-.396 12 12 0 0 0-.852-.372 2.65 2.65 0 0 0-.744.804 1.93 1.93 0 0 0-.288 1.032q0 .444.216.78.228.336.612.528t.864.192m7.859-3.72a.92.92 0 0 1-.66-.264.97.97 0 0 1-.264-.696q0-.432.264-.708a.9.9 0 0 1 .66-.276q.396 0 .66.276.276.276.276.708 0 .42-.276.696a.9.9 0 0 1-.66.264m0 4.728a.9.9 0 0 1-.66-.276 1 1 0 0 1-.264-.708q0-.432.264-.696a.9.9 0 0 1 .66-.276q.396 0 .66.276.276.264.276.696 0 .42-.276.708a.88.88 0 0 1-.66.276m5.502-.168v-1.14h1.944v-6.144h-1.585v-.876a6 6 0 0 0 1.08-.276q.47-.168.853-.408h1.044v7.704h1.716V209zm9.04.168q-.685 0-1.225-.168a3.6 3.6 0 0 1-.948-.444 5.4 5.4 0 0 1-.72-.576l.66-.9q.252.252.552.468.3.204.672.336.384.132.852.132.492 0 .888-.216.396-.228.624-.648.228-.432.228-1.02 0-.864-.468-1.344-.456-.48-1.212-.48-.42 0-.72.12t-.684.372l-.684-.444.264-4.2h4.476v1.176h-3.276l-.204 2.256q.288-.144.576-.216.288-.084.636-.084.744 0 1.356.3t.972.924q.36.612.36 1.584t-.42 1.668q-.42.684-1.104 1.044-.672.36-1.452.36"/><path fill="#000" d="M71.092 199.844h4.788v1.02h-4.788zm1.524 2.508h1.236v2.736h-1.236zm2.76-2.508h1.236v.636q0 .552-.036 1.368-.024.804-.228 1.872l-1.236-.144a11.5 11.5 0 0 0 .228-1.788q.036-.756.036-1.308zm2.544-.828h1.26v8.244h-1.26zm.732 3.48h1.98v1.032h-1.98zm-6.576 6.252h7.464v1.02h-7.464zm0-2.232h1.26v2.544h-1.26zm-1.512-.876-.132-1.02q.972 0 2.124-.012a61 61 0 0 0 2.376-.096q1.212-.084 2.316-.24l.084.912q-1.14.192-2.34.3-1.2.096-2.34.12-1.128.024-2.088.036m19.115-6.612h1.2v6.432h-1.2zm-1.56 2.652h1.92v1.02h-1.92zm-.84-2.448h1.188v6.192H87.28zm-3.876 6.72h7.476v4.044h-1.248v-3.024h-6.228zm1.68-6.144h1.26q0 1.344-.468 2.436a5.3 5.3 0 0 1-1.38 1.908q-.924.828-2.328 1.404l-.6-.912q1.2-.48 1.968-1.128.78-.648 1.164-1.464a4.2 4.2 0 0 0 .384-1.788zm-3.036 0h3.468v1.02h-3.468zm15.894 1.032h1.02v.444q0 .924-.372 1.74a4 4 0 0 1-1.044 1.416q-.684.6-1.668.9l-.588-.984q.852-.252 1.44-.72t.9-1.08.312-1.272zm.228 0h1.02v.444q0 .612.3 1.188.312.564.888 1.008.588.444 1.428.684l-.576.984q-.972-.288-1.656-.864a3.9 3.9 0 0 1-1.044-1.344 3.9 3.9 0 0 1-.36-1.656zm-2.544-.624h5.868v.996h-5.868zm2.316-1.236h1.248v1.656h-1.248zm4.692.048h1.248v6.456h-1.248zm.912 2.664h1.884v1.056h-1.884zm-6.66 4.284h6.996v3.876h-6.996zm5.772.984h-4.536v1.896h4.536zm8.628-5.592h3.168v1.032h-3.168zm0 3.444h3.168v1.032h-3.168zm-1.968-4.992q.816 0 1.44.48t.984 1.344.36 2.04q0 1.188-.36 2.064-.36.864-.984 1.344a2.34 2.34 0 0 1-1.44.468 2.37 2.37 0 0 1-1.44-.468q-.624-.48-.984-1.344-.348-.876-.348-2.064 0-1.176.348-2.04.36-.864.984-1.344a2.33 2.33 0 0 1 1.44-.48m0 1.14q-.468 0-.828.324-.348.324-.552.936-.192.612-.192 1.464 0 .864.192 1.476.204.612.552.948.36.324.828.324.48 0 .84-.324.36-.336.552-.948.204-.612.204-1.476 0-.852-.204-1.464-.192-.612-.552-.936a1.22 1.22 0 0 0-.84-.324m4.896-1.944h1.26v10.992h-1.26zm13.65 0h1.26v10.992h-1.26zm-4.572.804q.816 0 1.452.48.648.48 1.008 1.344t.36 2.04q0 1.188-.36 2.064-.36.864-1.008 1.344a2.4 2.4 0 0 1-1.452.468 2.44 2.44 0 0 1-1.464-.468q-.636-.48-1.008-1.344-.36-.876-.36-2.064 0-1.176.36-2.04.372-.864 1.008-1.344.648-.48 1.464-.48m0 1.14q-.48 0-.852.324-.36.324-.564.936t-.204 1.464q0 .864.204 1.476t.564.948q.372.324.852.324t.84-.324q.36-.336.564-.948t.204-1.476q0-.852-.204-1.464t-.564-.936a1.22 1.22 0 0 0-.84-.324m15.935-1.932h1.2v8.292h-1.2zm-3.708 3.108h1.92v1.02h-1.92zm1.572-2.916h1.176v7.788h-1.176zm-5.508.66h1.176v1.764h1.932v-1.764h1.176v5.448h-4.284zm1.176 2.748v1.704h1.932v-1.704zm.408 6.12h7.56v1.02h-7.56zm0-2.52h1.26v3.096h-1.26zm10.235-1.416h7.608v1.008h-7.608zm-1.224 2.808h9.936v1.032h-9.936zm1.224-7.716h7.512v1.008h-6.24v4.2h-1.272zm.888 2.424h6.384v.996h-6.384z"/><path stroke="#2c91f8" stroke-width="2" d="M55 212v155"/><circle cx="55" cy="375" r="4" fill="#2c91f8" stroke="#2c91f8" stroke-width="2"/><circle cx="55" cy="375" r="4" fill="#f9f9f9" stroke="#2c91f8" stroke-width="2"/><path fill="#2c91f8" d="M4.68 380v-1.14h1.944v-6.144H5.04v-.876a6 6 0 0 0 1.08-.276q.468-.168.852-.408h1.044v7.704h1.716V380zm9.256.168q-.828 0-1.476-.3a2.7 2.7 0 0 1-1.032-.84 2.1 2.1 0 0 1-.372-1.224q0-.588.228-1.044t.588-.78q.36-.336.756-.552v-.06a3.5 3.5 0 0 1-.828-.852q-.348-.516-.348-1.212 0-.684.324-1.2.336-.516.9-.792.576-.288 1.308-.288.768 0 1.32.3t.852.828q.312.516.312 1.212 0 .444-.18.84t-.444.72a2.7 2.7 0 0 1-.54.516v.06q.408.216.744.54.336.312.54.756t.204 1.044q0 .648-.36 1.176-.348.528-.996.84-.636.312-1.5.312m.588-5.076a2.7 2.7 0 0 0 .576-.78q.204-.42.204-.876 0-.396-.156-.72a1.14 1.14 0 0 0-.468-.504 1.33 1.33 0 0 0-.732-.192q-.54 0-.9.348-.36.336-.36.936 0 .48.252.804t.672.552.912.432m-.552 4.068q.444 0 .78-.168a1.3 1.3 0 0 0 .54-.468q.192-.312.192-.732 0-.396-.168-.684a1.6 1.6 0 0 0-.468-.516 3.7 3.7 0 0 0-.684-.396 12 12 0 0 0-.852-.372 2.65 2.65 0 0 0-.744.804 1.93 1.93 0 0 0-.288 1.032q0 .444.216.78.228.336.612.528t.864.192m7.859-3.72a.92.92 0 0 1-.66-.264.97.97 0 0 1-.264-.696q0-.432.264-.708a.9.9 0 0 1 .66-.276q.396 0 .66.276.276.276.276.708 0 .42-.276.696a.9.9 0 0 1-.66.264m0 4.728a.9.9 0 0 1-.66-.276 1 1 0 0 1-.264-.708q0-.432.264-.696a.9.9 0 0 1 .66-.276q.396 0 .66.276.276.264.276.696 0 .42-.276.708a.88.88 0 0 1-.66.276m7.698 0q-.697 0-1.236-.168a3.6 3.6 0 0 1-.936-.444 4.5 4.5 0 0 1-.709-.612l.672-.888q.396.384.9.672.505.288 1.189.288.503 0 .876-.168.372-.18.575-.504.217-.324.216-.792 0-.48-.24-.84-.228-.372-.803-.564-.565-.204-1.56-.204v-1.032q.876 0 1.367-.192.505-.204.72-.552.228-.348.229-.792 0-.576-.36-.912-.36-.348-.996-.348-.505 0-.948.228-.432.216-.816.588l-.72-.864q.527-.48 1.151-.768.625-.3 1.38-.3.794 0 1.404.276.613.264.96.768.35.504.349 1.236 0 .756-.42 1.284a2.46 2.46 0 0 1-1.104.792v.048q.503.132.912.432.42.288.66.744t.24 1.044q0 .792-.409 1.368-.396.564-1.068.876-.672.3-1.476.3m6.843 0q-.684 0-1.224-.168a3.6 3.6 0 0 1-.948-.444 5.4 5.4 0 0 1-.72-.576l.66-.9q.252.252.552.468.3.204.672.336.384.132.852.132.492 0 .888-.216.396-.228.624-.648.228-.432.228-1.02 0-.864-.468-1.344-.456-.48-1.212-.48-.42 0-.72.12t-.684.372l-.684-.444.264-4.2h4.476v1.176h-3.276l-.204 2.256q.288-.144.576-.216.288-.084.636-.084.744 0 1.356.3t.972.924q.36.612.36 1.584t-.42 1.668q-.42.684-1.104 1.044-.672.36-1.452.36"/><path fill="#000" d="M73.3 374.78h1.248v2.268H73.3zm5.076-4.752h1.26v7.044h-1.26zm-7.728 5.352-.156-.996q1.008 0 2.196-.012 1.188-.024 2.424-.096a37 37 0 0 0 2.412-.216l.072.876q-1.164.192-2.4.288a52 52 0 0 1-2.4.132q-1.164.024-2.148.024m5.484.228h2.472v.876h-2.472zm-3.84 1.848h7.356v3.396h-7.356zm6.12 1.008h-4.884v1.368h4.884zm-4.368-8.184q.816 0 1.428.216t.948.612q.348.396.348.924 0 .54-.348.936-.336.396-.948.612-.612.204-1.428.204a4.6 4.6 0 0 1-1.428-.204q-.612-.216-.948-.612a1.4 1.4 0 0 1-.336-.936q0-.528.336-.924t.948-.612a4.4 4.4 0 0 1 1.428-.216m0 .888q-.696 0-1.128.228-.42.228-.42.636t.42.636q.432.228 1.128.228.708 0 1.128-.228t.42-.636-.42-.636-1.128-.228m13.067 1.38h2.856v1.032h-2.856zm-2.52-2.04q.828 0 1.476.324t1.008.912a2.4 2.4 0 0 1 .372 1.332q0 .756-.372 1.344-.36.576-1.008.912-.648.324-1.476.324a3.2 3.2 0 0 1-1.464-.324 2.6 2.6 0 0 1-1.02-.912q-.36-.588-.36-1.344t.36-1.332a2.5 2.5 0 0 1 1.02-.912q.648-.324 1.464-.324m.012 1.044q-.48 0-.864.192a1.4 1.4 0 0 0-.588.528 1.56 1.56 0 0 0-.204.804q0 .456.204.804.216.348.588.54.372.18.852.18t.852-.18q.372-.192.588-.54t.216-.804-.216-.804a1.4 1.4 0 0 0-.588-.528 1.76 1.76 0 0 0-.84-.192m4.812-1.524h1.26v5.88h-1.26zm-5.868 6.408h1.248v1.224h4.632v-1.224h1.248v4.416h-7.128zm1.248 2.196v1.212h4.632v-1.212zm10.782-7.548h6.06v1.02h-6.06zm-.192 7.308-.132-1.044 2.1-.024q1.14-.024 2.316-.084a32 32 0 0 0 2.268-.192l.084.924q-1.116.18-2.28.276-1.164.084-2.292.12-1.116.024-2.064.024m1.2-6.48h1.224v5.7h-1.224zm2.688 0h1.212v5.7h-1.212zm3.9-1.884h1.26v10.968h-1.26zm-1.884 4.056h2.784v1.032h-2.784zm5.076 4.572h9.936v1.032h-9.936zm4.308-2.688h1.26v3.144h-1.26zM107.181 371h8.244v1.02h-8.244zm.048 4.392h8.172v1.008h-8.172zm1.572-3.564h1.248v3.708h-1.248zm3.756 0h1.248v3.708h-1.248zm5.327-.888h5.076v5.196h-5.076zm3.852.996h-2.616v3.192h2.616zm3.492-1.908h1.26v7.992h-1.26zm-2.616 2.976h2.952v1.008h-2.952zm-3.228 6.744h7.392v1.02h-7.392zm0-2.472h1.26v2.964h-1.26zm13.307-6.552h1.092v.816q0 .72-.228 1.38-.216.648-.624 1.224a5.3 5.3 0 0 1-.972 1.02 6 6 0 0 1-1.224.78 6.6 6.6 0 0 1-1.404.468l-.552-1.044q.648-.12 1.236-.372a5.6 5.6 0 0 0 1.08-.636q.492-.384.84-.828.36-.456.552-.96.204-.516.204-1.032zm.24 0h1.092v.816q0 .528.192 1.032.204.504.564.96t.852.828 1.08.636q.588.252 1.236.372l-.552 1.044a6.6 6.6 0 0 1-1.404-.468 6.3 6.3 0 0 1-1.236-.78 5.5 5.5 0 0 1-.96-1.02 5 5 0 0 1-.636-1.224q-.228-.66-.228-1.38zm-4.488 7.812h9.936v1.044h-9.936zm-50.091 5.48h1.26v10.968h-1.26zm-3.228 1.164h1.248q0 1.224-.264 2.34a7.5 7.5 0 0 1-.864 2.124 7.6 7.6 0 0 1-1.56 1.848q-.96.852-2.376 1.536l-.672-.996q1.596-.768 2.58-1.752a6.2 6.2 0 0 0 1.44-2.196q.468-1.224.468-2.688zm-3.948 0h4.512v1.008h-4.512zm11.7-.732h1.247v1.224h4.848v-1.224h1.248v4.416h-7.344zm1.247 2.22v1.2h4.848v-1.2zm-2.532 3.252h9.912v1.008h-9.912zm4.32-1.62h1.248v2.052h-1.248zm-3.084 5.448H90.4v1.02h-7.572zm0-2.04h1.26v2.412h-1.26zm17.603-7.692h1.26v10.968h-1.26zm-3.228 1.164h1.248q0 1.224-.264 2.34a7.5 7.5 0 0 1-.864 2.124 7.6 7.6 0 0 1-1.56 1.848q-.96.852-2.376 1.536l-.672-.996q1.596-.768 2.58-1.752a6.2 6.2 0 0 0 1.44-2.196q.468-1.224.468-2.688zm-3.948 0h4.512v1.008h-4.512zm15.691 5.088h1.248v2.904h-1.248zm3.528 0h1.236v2.904h-1.236zm-6.108 2.352h9.936v1.032h-9.936zm4.248-7.932h1.104v.816q0 .684-.228 1.308a4.3 4.3 0 0 1-.648 1.164q-.408.54-.984.972-.564.42-1.248.72a7 7 0 0 1-1.428.432l-.516-1.044q.66-.108 1.248-.348.6-.24 1.092-.576.492-.348.852-.768.36-.432.552-.9a2.4 2.4 0 0 0 .204-.96zm.24 0h1.092v.816q0 .492.192.972.204.468.564.888t.852.768q.504.348 1.092.588.6.228 1.26.336l-.516 1.044a7 7 0 0 1-1.44-.432q-.684-.3-1.248-.72a5.6 5.6 0 0 1-.984-.96 4.5 4.5 0 0 1-.636-1.164 3.9 3.9 0 0 1-.228-1.32zm10.175.6h1.188q0 1.116-.192 2.16a7.7 7.7 0 0 1-.636 2.004 6.7 6.7 0 0 1-1.248 1.788q-.792.828-2.016 1.536l-.708-.9q1.056-.6 1.752-1.296a5.6 5.6 0 0 0 1.104-1.488 6.3 6.3 0 0 0 .576-1.704q.18-.9.18-1.884zm-3.048 0h3.468v1.02h-3.468zm2.988 2.52v.936l-3.372.348-.156-1.068zm.372.456h2.388v1.02h-2.388zm4.236-4.248h1.2v10.968h-1.2zm-2.28.264h1.176v10.176h-1.176zm12.911-.264h1.26v10.992h-1.26zm-4.572.804q.816 0 1.452.48.648.48 1.008 1.344t.36 2.04q0 1.188-.36 2.064-.36.864-1.008 1.344a2.4 2.4 0 0 1-1.452.468 2.44 2.44 0 0 1-1.464-.468q-.636-.48-1.008-1.344-.36-.876-.36-2.064 0-1.176.36-2.04.372-.864 1.008-1.344.648-.48 1.464-.48m0 1.14q-.48 0-.852.324-.36.324-.564.936t-.204 1.464q0 .864.204 1.476t.564.948q.372.324.852.324t.84-.324q.36-.336.564-.948t.204-1.476q0-.852-.204-1.464t-.564-.936a1.22 1.22 0 0 0-.84-.324m12.095-1.236h1.092v.816q0 .72-.228 1.38-.216.648-.624 1.224a5.3 5.3 0 0 1-.972 1.02 6 6 0 0 1-1.224.78 6.6 6.6 0 0 1-1.404.468l-.552-1.044q.648-.12 1.236-.372a5.6 5.6 0 0 0 1.08-.636q.492-.384.84-.828.36-.456.552-.96.204-.516.204-1.032zm.24 0h1.092v.816q0 .528.192 1.032.204.504.564.96t.852.828 1.08.636q.588.252 1.236.372l-.552 1.044a6.6 6.6 0 0 1-1.404-.468 6.3 6.3 0 0 1-1.236-.78 5.5 5.5 0 0 1-.96-1.02 5 5 0 0 1-.636-1.224q-.228-.66-.228-1.38zm-4.488 7.812h9.936v1.044h-9.936z"/><path stroke="#2c91f8" stroke-width="2" d="M55 383v61"/><circle cx="55" cy="452" r="4" fill="#2c91f8" stroke="#2c91f8" stroke-width="2"/><circle cx="55" cy="452" r="4" fill="#f9f9f9" stroke="#2c91f8" stroke-width="2"/><path fill="#2c91f8" d="M4.68 457v-1.14h1.944v-6.144H5.04v-.876a6 6 0 0 0 1.08-.276q.468-.168.852-.408h1.044v7.704h1.716V457zm9.256.168q-.828 0-1.476-.3a2.7 2.7 0 0 1-1.032-.84 2.1 2.1 0 0 1-.372-1.224q0-.588.228-1.044t.588-.78q.36-.336.756-.552v-.06a3.5 3.5 0 0 1-.828-.852q-.348-.516-.348-1.212 0-.684.324-1.2.336-.516.9-.792.576-.288 1.308-.288.768 0 1.32.3t.852.828q.312.516.312 1.212 0 .444-.18.84t-.444.72a2.7 2.7 0 0 1-.54.516v.06q.408.216.744.54.336.312.54.756t.204 1.044q0 .648-.36 1.176-.348.528-.996.84-.636.312-1.5.312m.588-5.076a2.7 2.7 0 0 0 .576-.78q.204-.42.204-.876 0-.396-.156-.72a1.14 1.14 0 0 0-.468-.504 1.33 1.33 0 0 0-.732-.192q-.54 0-.9.348-.36.336-.36.936 0 .48.252.804t.672.552.912.432m-.552 4.068q.444 0 .78-.168a1.3 1.3 0 0 0 .54-.468q.192-.312.192-.732 0-.396-.168-.684a1.6 1.6 0 0 0-.468-.516 3.7 3.7 0 0 0-.684-.396 12 12 0 0 0-.852-.372 2.65 2.65 0 0 0-.744.804 1.93 1.93 0 0 0-.288 1.032q0 .444.216.78.228.336.612.528t.864.192m7.859-3.72a.92.92 0 0 1-.66-.264.97.97 0 0 1-.264-.696q0-.432.264-.708a.9.9 0 0 1 .66-.276q.396 0 .66.276.276.276.276.708 0 .42-.276.696a.9.9 0 0 1-.66.264m0 4.728a.9.9 0 0 1-.66-.276 1 1 0 0 1-.264-.708q0-.432.264-.696a.9.9 0 0 1 .66-.276q.396 0 .66.276.276.264.276.696 0 .42-.276.708a.88.88 0 0 1-.66.276m8.55-.168v-5.76q0-.36.023-.852.025-.504.037-.864h-.049q-.166.336-.348.684-.167.348-.36.684l-1.728 2.652h4.836v1.08h-6.24v-.924l3.517-5.544h1.608V457zm6.843 0v-5.76q0-.36.024-.852.024-.504.036-.864h-.048q-.168.336-.348.684-.168.348-.36.684l-1.728 2.652h4.836v1.08h-6.24v-.924l3.516-5.544h1.608V457z"/><path fill="#000" d="M73.348 447.928h1.032v1.8q0 .996-.216 1.92a7.3 7.3 0 0 1-.636 1.728 5.9 5.9 0 0 1-.996 1.416 4.5 4.5 0 0 1-1.32.972l-.756-1.032q.66-.3 1.188-.816a5.2 5.2 0 0 0 .912-1.2q.384-.672.588-1.44a6 6 0 0 0 .204-1.548zm.228 0h1.032v1.8q0 .756.192 1.488.204.732.576 1.38t.9 1.14 1.164.792l-.732 1.008a4.6 4.6 0 0 1-1.308-.936 5.8 5.8 0 0 1-.984-1.356 7 7 0 0 1-.624-1.668 8 8 0 0 1-.216-1.848zm4.74-.912h1.26v10.992h-1.26zm3.78.624h1.247v1.608h2.568v-1.608h1.236v5.196h-5.052zm1.247 2.592v1.596h2.568v-1.596zm3.492-.516h2.916v1.02h-2.916zm2.58-2.688h1.26v6.348h-1.26zm-5.94 6.852h7.2v3.972h-7.2zm5.976.996h-4.74v1.98h4.74zm11.142-5.964h2.772v1.008h-2.772zm-.096 2.28h2.784v1.02h-2.784zm2.652-4.164h1.26v6.444h-1.26zm-3.492.78h1.344q0 1.44-.588 2.58-.588 1.128-1.728 1.932-1.128.804-2.748 1.272l-.492-.996q1.392-.396 2.328-1.008.948-.624 1.416-1.428a3.5 3.5 0 0 0 .468-1.764zm-3.636 0h4.512v1.02h-4.512zm4.8 5.796q1.116 0 1.932.264t1.26.744q.456.48.456 1.152t-.456 1.164q-.444.48-1.26.744t-1.932.264q-1.104 0-1.932-.264t-1.284-.744a1.66 1.66 0 0 1-.456-1.164q0-.672.456-1.152t1.284-.744 1.932-.264m0 .984q-.744 0-1.296.144-.54.132-.84.396a.83.83 0 0 0-.288.636q0 .384.288.648.3.264.84.408.552.132 1.296.132t1.284-.132q.54-.144.828-.408a.83.83 0 0 0 .3-.648q0-.372-.3-.636-.288-.264-.828-.396a5 5 0 0 0-1.284-.144m13.344-7.572h1.26v10.968h-1.26zm-3.228 1.164h1.248q0 1.224-.264 2.34a7.5 7.5 0 0 1-.864 2.124 7.6 7.6 0 0 1-1.56 1.848q-.96.852-2.376 1.536l-.672-.996q1.596-.768 2.58-1.752a6.2 6.2 0 0 0 1.44-2.196q.468-1.224.468-2.688zm-3.948 0h4.512v1.008h-4.512z"/><path stroke="#2c91f8" stroke-width="2" d="M55 472v138"/><circle cx="55" cy="618" r="4" fill="#f9f9f9" stroke="#2c91f8" stroke-width="2"/><circle cx="55" cy="688" r="4" fill="#f9f9f9" stroke="#2c91f8" stroke-width="2"/><path fill="#2c91f8" d="M4.68 623v-1.14h1.944v-6.144H5.04v-.876a6 6 0 0 0 1.08-.276q.468-.168.852-.408h1.044v7.704h1.716V623zm8.752.168q-.768 0-1.332-.276a3.8 3.8 0 0 1-.936-.672l.756-.864q.264.3.648.48t.792.18q.42 0 .792-.192.384-.192.66-.624.288-.432.444-1.152.168-.72.168-1.764 0-1.104-.216-1.812-.216-.72-.612-1.056a1.33 1.33 0 0 0-.924-.348q-.384 0-.696.228a1.44 1.44 0 0 0-.492.624q-.18.408-.18.984 0 .564.156.96.168.396.492.612.324.204.78.204.42 0 .864-.264t.84-.864l.06 1.02q-.252.336-.588.588t-.696.396a2.1 2.1 0 0 1-.72.132q-.732 0-1.296-.312a2.23 2.23 0 0 1-.876-.924q-.312-.624-.312-1.548 0-.876.36-1.524.372-.66.972-1.02t1.308-.36q.636 0 1.188.264.564.252.972.78.42.528.66 1.332t.24 1.908q0 1.296-.264 2.232-.264.924-.732 1.512a3.15 3.15 0 0 1-1.056.864q-.588.276-1.224.276m8.399-4.728a.92.92 0 0 1-.66-.264.97.97 0 0 1-.264-.696q0-.432.264-.708a.9.9 0 0 1 .66-.276q.396 0 .66.276.276.276.276.708 0 .42-.276.696a.9.9 0 0 1-.66.264m0 4.728a.9.9 0 0 1-.66-.276 1 1 0 0 1-.264-.708q0-.432.264-.696a.9.9 0 0 1 .66-.276q.396 0 .66.276.276.264.276.696 0 .42-.276.708a.88.88 0 0 1-.66.276m7.913 0q-.864 0-1.511-.516-.648-.516-1.009-1.536-.348-1.032-.348-2.568t.348-2.544q.36-1.008 1.009-1.5a2.4 2.4 0 0 1 1.511-.504q.864 0 1.5.504.637.504.984 1.512.36.996.36 2.532t-.36 2.568q-.348 1.02-.984 1.536a2.3 2.3 0 0 1-1.5.516m0-1.104q.445 0 .793-.348t.54-1.116q.19-.78.191-2.052 0-1.272-.192-2.028t-.54-1.092a1.1 1.1 0 0 0-.792-.336q-.444 0-.791.336t-.552 1.092q-.192.756-.192 2.028t.192 2.052q.204.768.552 1.116t.791.348m6.844 1.104q-.864 0-1.512-.516t-1.008-1.536q-.348-1.032-.348-2.568t.348-2.544q.36-1.008 1.008-1.5a2.4 2.4 0 0 1 1.512-.504q.864 0 1.5.504t.984 1.512q.36.996.36 2.532t-.36 2.568q-.348 1.02-.984 1.536a2.3 2.3 0 0 1-1.5.516m0-1.104q.444 0 .792-.348t.54-1.116q.192-.78.192-2.052t-.192-2.028-.54-1.092a1.1 1.1 0 0 0-.792-.336q-.444 0-.792.336t-.552 1.092q-.192.756-.192 2.028t.192 2.052q.204.768.552 1.116t.792.348M4.68 693v-1.14h1.944v-6.144H5.04v-.876a6 6 0 0 0 1.08-.276q.468-.168.852-.408h1.044v7.704h1.716V693zm8.752.168q-.768 0-1.332-.276a3.8 3.8 0 0 1-.936-.672l.756-.864q.264.3.648.48t.792.18q.42 0 .792-.192.384-.192.66-.624.288-.432.444-1.152.168-.72.168-1.764 0-1.104-.216-1.812-.216-.72-.612-1.056a1.33 1.33 0 0 0-.924-.348q-.384 0-.696.228a1.44 1.44 0 0 0-.492.624q-.18.408-.18.984 0 .564.156.96.168.396.492.612.324.204.78.204.42 0 .864-.264t.84-.864l.06 1.02q-.252.336-.588.588t-.696.396a2.1 2.1 0 0 1-.72.132q-.732 0-1.296-.312a2.23 2.23 0 0 1-.876-.924q-.312-.624-.312-1.548 0-.876.36-1.524.372-.66.972-1.02t1.308-.36q.636 0 1.188.264.564.252.972.78.42.528.66 1.332t.24 1.908q0 1.296-.264 2.232-.264.924-.732 1.512a3.15 3.15 0 0 1-1.056.864q-.588.276-1.224.276m8.399-4.728a.92.92 0 0 1-.66-.264.97.97 0 0 1-.264-.696q0-.432.264-.708a.9.9 0 0 1 .66-.276q.396 0 .66.276.276.276.276.708 0 .42-.276.696a.9.9 0 0 1-.66.264m0 4.728a.9.9 0 0 1-.66-.276 1 1 0 0 1-.264-.708q0-.432.264-.696a.9.9 0 0 1 .66-.276q.396 0 .66.276.276.264.276.696 0 .42-.276.708a.88.88 0 0 1-.66.276m7.913 0q-.864 0-1.511-.516-.648-.516-1.009-1.536-.348-1.032-.348-2.568t.348-2.544q.36-1.008 1.009-1.5a2.4 2.4 0 0 1 1.511-.504q.864 0 1.5.504.637.504.984 1.512.36.996.36 2.532t-.36 2.568q-.348 1.02-.984 1.536a2.3 2.3 0 0 1-1.5.516m0-1.104q.445 0 .793-.348t.54-1.116q.19-.78.191-2.052 0-1.272-.192-2.028t-.54-1.092a1.1 1.1 0 0 0-.792-.336q-.444 0-.791.336t-.552 1.092q-.192.756-.192 2.028t.192 2.052q.204.768.552 1.116t.791.348m6.628 1.104q-.684 0-1.224-.168a3.6 3.6 0 0 1-.948-.444 5.4 5.4 0 0 1-.72-.576l.66-.9q.252.252.552.468.3.204.672.336.384.132.852.132.492 0 .888-.216.396-.228.624-.648.228-.432.228-1.02 0-.864-.468-1.344-.456-.48-1.212-.48-.42 0-.72.12t-.684.372l-.684-.444.264-4.2h4.476v1.176h-3.276l-.204 2.256q.288-.144.576-.216.288-.084.636-.084.744 0 1.356.3t.972.924q.36.612.36 1.584t-.42 1.668q-.42.684-1.104 1.044-.672.36-1.452.36"/><path fill="#000" d="M71.092 613.844h4.788v1.02h-4.788zm1.524 2.508h1.236v2.736h-1.236zm2.76-2.508h1.236v.636q0 .552-.036 1.368-.024.804-.228 1.872l-1.236-.144a11.5 11.5 0 0 0 .228-1.788q.036-.756.036-1.308zm2.544-.828h1.26v8.244h-1.26zm.732 3.48h1.98v1.032h-1.98zm-6.576 6.252h7.464v1.02h-7.464zm0-2.232h1.26v2.544h-1.26zm-1.512-.876-.132-1.02q.972 0 2.124-.012a61 61 0 0 0 2.376-.096q1.212-.084 2.316-.24l.084.912q-1.14.192-2.34.3-1.2.096-2.34.12-1.128.024-2.088.036m19.115-6.612h1.2v6.432h-1.2zm-1.56 2.652h1.92v1.02h-1.92zm-.84-2.448h1.188v6.192H87.28zm-3.876 6.72h7.476v4.044h-1.248v-3.024h-6.228zm1.68-6.144h1.26q0 1.344-.468 2.436a5.3 5.3 0 0 1-1.38 1.908q-.924.828-2.328 1.404l-.6-.912q1.2-.48 1.968-1.128.78-.648 1.164-1.464a4.2 4.2 0 0 0 .384-1.788zm-3.036 0h3.468v1.02h-3.468zm21.426-.792h1.2v10.968h-1.2zm-1.68 4.32h1.992v1.032h-1.992zm-.792-4.092h1.176v10.2h-1.176zm-5.316 7.104h.732q.756 0 1.392-.024t1.236-.084q.612-.072 1.248-.192l.12 1.032q-.66.132-1.284.204-.624.06-1.284.084-.648.024-1.428.024h-.732zm0-6.024h4.056v1.02h-2.82v5.484h-1.236zm13.224-.72h1.044v1.056q0 1.068-.36 2.004a4.6 4.6 0 0 1-1.032 1.62 4.24 4.24 0 0 1-1.632 1.044l-.672-.996q.864-.3 1.452-.864.6-.564.9-1.284.3-.732.3-1.524zm.252 0h1.02v1.164q0 .528.168 1.032.168.492.492.936.336.432.816.768t1.092.54l-.66.984a4.4 4.4 0 0 1-1.584-.972 4.4 4.4 0 0 1-.996-1.476 4.8 4.8 0 0 1-.348-1.812zm4.512-.576h1.248v6.576h-1.248zm.912 2.7h1.884v1.044h-1.884zm-3.192 4.152q1.14 0 1.944.24.816.24 1.26.708.444.456.444 1.104 0 .636-.444 1.092-.444.468-1.26.708-.804.24-1.944.24-1.128 0-1.956-.24-.816-.24-1.26-.708a1.53 1.53 0 0 1-.432-1.092q0-.648.432-1.104.444-.468 1.26-.708.828-.24 1.956-.24m0 .984q-.756 0-1.296.12t-.828.36a.74.74 0 0 0-.289.588q0 .336.289.576.288.24.828.372.54.12 1.296.12.768 0 1.296-.12.54-.132.828-.372t.288-.576a.74.74 0 0 0-.288-.588q-.288-.24-.828-.36a6 6 0 0 0-1.296-.12m9.582-7.068h4.776v1.008h-4.776zm4.176 0h1.224v.576q0 .66-.048 1.716-.048 1.044-.36 2.556l-1.26.012q.336-1.512.384-2.568.06-1.056.06-1.716zm.156 2.136v.912l-4.404.36-.18-1.056zm-2.364 2.964h1.26v4.488h-1.26zm5.076-5.88h1.26v10.968h-1.26zm-7.824 6.552-.156-1.044q1.092 0 2.316-.012a89 89 0 0 0 2.496-.084 47 47 0 0 0 2.472-.204l.084.936q-1.212.168-2.472.264-1.26.084-2.46.108t-2.28.036m10.943 2.004h9.936v1.032h-9.936zm4.296-7.056h1.068v.78q0 .684-.228 1.296a4 4 0 0 1-.624 1.14 5 5 0 0 1-.96.948 6.5 6.5 0 0 1-1.224.708q-.66.288-1.38.432l-.516-1.02a5 5 0 0 0 1.224-.336 5.6 5.6 0 0 0 1.056-.576 4.2 4.2 0 0 0 .84-.744 3.1 3.1 0 0 0 .552-.876q.192-.468.192-.972zm.252 0h1.068v.78q0 .504.192.972.192.456.552.864t.84.744q.492.324 1.08.564.6.228 1.248.324l-.504.996a6.4 6.4 0 0 1-2.652-1.116 5 5 0 0 1-.96-.924 4.1 4.1 0 0 1-.636-1.128 3.7 3.7 0 0 1-.228-1.296zm-3.732-.48h8.28v1.02h-8.28zm20.682-1.02h1.26v10.992h-1.26zm-4.572.804q.816 0 1.452.48.648.48 1.008 1.344t.36 2.04q0 1.188-.36 2.064-.36.864-1.008 1.344a2.4 2.4 0 0 1-1.452.468 2.44 2.44 0 0 1-1.464-.468q-.636-.48-1.008-1.344-.36-.876-.36-2.064 0-1.176.36-2.04.372-.864 1.008-1.344.648-.48 1.464-.48m0 1.14q-.48 0-.852.324-.36.324-.564.936t-.204 1.464q0 .864.204 1.476t.564.948q.372.324.852.324t.84-.324q.36-.336.564-.948t.204-1.476q0-.852-.204-1.464t-.564-.936a1.22 1.22 0 0 0-.84-.324m15.935-1.932h1.2v8.292h-1.2zm-3.708 3.108h1.92v1.02h-1.92zm1.572-2.916h1.176v7.788h-1.176zm-5.508.66h1.176v1.764h1.932v-1.764h1.176v5.448h-4.284zm1.176 2.748v1.704h1.932v-1.704zm.408 6.12h7.56v1.02h-7.56zm0-2.52h1.26v3.096h-1.26zm10.235-1.416h7.608v1.008h-7.608zm-1.224 2.808h9.936v1.032h-9.936zm1.224-7.716h7.512v1.008h-6.24v4.2h-1.272zm.888 2.424h6.384v.996h-6.384zm-98.126 67.756h5.136v7.176h-5.136zm3.9 1.008h-2.664v5.172h2.664zm2.952-2.064h1.26v10.968h-1.26zm.984 4.272h1.98v1.044h-1.98zm2.82 1.98h9.935v1.02h-9.936zm4.307.636h1.248v4.068H85.9zm-3.108-6.312h7.488v4.332h-7.488zm6.264.996H84.04v2.34h5.016zm11.363-1.584h1.26v10.992h-1.26zm-7.176 7.344h.936q.948 0 1.812-.024a31 31 0 0 0 3.528-.348l.12 1.02q-1.416.24-2.712.324-1.296.072-2.748.072h-.936zm-.024-6.36h5.124v4.056h-3.828v2.7h-1.272v-3.696h3.816v-2.04h-3.84zm20.923-.972h1.26v7.956h-1.26zm-5.892 9.72h7.464v1.02h-7.464zm0-2.568h1.248v2.964h-1.248zm1.236-6.42q.828 0 1.488.348t1.044.972q.384.612.384 1.416 0 .792-.384 1.416t-1.044.972-1.488.348a3.14 3.14 0 0 1-1.488-.348 2.66 2.66 0 0 1-1.044-.972 2.65 2.65 0 0 1-.384-1.416q0-.804.384-1.416.384-.624 1.044-.972t1.488-.348m0 1.092q-.48 0-.864.204a1.5 1.5 0 0 0-.6.576q-.216.36-.216.864t.216.876q.216.36.6.564t.864.204.864-.204a1.5 1.5 0 0 0 .6-.564q.228-.372.228-.876t-.228-.864a1.5 1.5 0 0 0-.6-.576 1.8 1.8 0 0 0-.864-.204m10.511-.924h1.02v1.8q0 .948-.216 1.872a7.4 7.4 0 0 1-.6 1.704q-.384.792-.948 1.416a4.5 4.5 0 0 1-1.272.972l-.756-1.02a4.3 4.3 0 0 0 1.152-.828q.516-.528.876-1.188.36-.672.552-1.416a6 6 0 0 0 .192-1.512zm.228 0h1.02v1.8q0 .732.18 1.452.18.708.528 1.356.36.636.852 1.14t1.104.804l-.768 1.008a4.5 4.5 0 0 1-1.224-.948 6.4 6.4 0 0 1-.912-1.368 7.9 7.9 0 0 1-.78-3.444zm4.416-.9h1.26v10.968h-1.26zm.984 4.332h1.98v1.056h-1.98zm-47.296 9.668h1.26v7.956h-1.26zm-5.892 9.72H79.9v1.02h-7.464zm0-2.568h1.248v2.964h-1.248zm1.236-6.42q.828 0 1.488.348t1.044.972q.384.612.384 1.416 0 .792-.384 1.416t-1.044.972-1.488.348a3.14 3.14 0 0 1-1.488-.348 2.66 2.66 0 0 1-1.044-.972 2.65 2.65 0 0 1-.384-1.416q0-.804.384-1.416.384-.624 1.044-.972t1.488-.348m0 1.092q-.48 0-.864.204a1.5 1.5 0 0 0-.6.576q-.216.36-.216.864t.216.876q.216.36.6.564t.864.204.864-.204a1.5 1.5 0 0 0 .6-.564q.228-.372.228-.876t-.228-.864a1.5 1.5 0 0 0-.6-.576 1.8 1.8 0 0 0-.864-.204m15.767-1.836h1.26v10.992h-1.26zm-2.1 4.008h2.268v1.032H87.34zm-5.244 3.396h.852q.984 0 1.776-.024a30 30 0 0 0 1.536-.084q.732-.072 1.5-.204l.12 1.008a22 22 0 0 1-3.12.3q-.816.024-1.812.024h-.852zm0-6.444h5.064v1.032h-3.816v5.736h-1.248zm.936 3.072h3.696v.996h-3.696zm11.963 2.46h1.26v4.488h-1.26zm3.924 0h1.26v4.488h-1.26zm-6.288-.168h9.936v1.02H92.63zm1.188-5.904h1.26v1.356h5.016v-1.356h1.236v4.728h-7.512zm1.26 2.352v1.356h5.016v-1.356zm11.851-2.076h5.196v4.548h-5.196zm3.972.996h-2.748v2.556h2.748zm3.24-1.68h1.26v6.252h-1.26zm-2.952 7.608h1.08v.18q0 .588-.312 1.116a3.3 3.3 0 0 1-.888.936q-.564.42-1.344.696a7.2 7.2 0 0 1-1.692.396l-.42-.96q.636-.06 1.188-.204.552-.156.984-.372a3.6 3.6 0 0 0 .756-.48 2.2 2.2 0 0 0 .48-.552q.168-.288.168-.576zm.204 0h1.092v.18q0 .336.252.696.252.348.72.66.468.3 1.116.528a7 7 0 0 0 1.44.3l-.408.96a7.6 7.6 0 0 1-1.704-.408 5.1 5.1 0 0 1-1.332-.696 3.5 3.5 0 0 1-.876-.948q-.3-.528-.3-1.092zm-3.348-.684h7.572v.96h-7.572zm3.156-.984h1.272v1.428h-1.272zm8.898 2.688h9.936v1.032h-9.936zm4.308-2.688h1.26v3.144h-1.26zM120.915 698h8.244v1.02h-8.244zm.048 4.392h8.172v1.008h-8.172zm1.572-3.564h1.248v3.708h-1.248zm3.756 0h1.248v3.708h-1.248zm6.071 3.768h7.608v1.008h-7.608zm-1.224 3.072h9.936v1.032h-9.936zm4.332-2.556h1.248v3.024h-1.248zm-3.108-5.268h7.512v1.02h-6.24v4.104h-1.272zm.888 2.352h6.384v.984h-6.384zm9.383 4.2h.876q.972 0 1.8-.024a33 33 0 0 0 1.596-.084q.78-.072 1.596-.204l.12 1.008q-.828.132-1.632.216-.792.072-1.644.096-.84.012-1.836.012h-.876zm0-6.42h5.124v1.032h-3.876v5.736h-1.248zm.948 3.072h3.972v.996h-3.972zm5.832-4.02h1.26v10.968h-1.26zm.984 4.296h1.98v1.044h-1.98zm10.595-4.296h1.26v6.24h-1.26zm-5.904 6.78h7.164v4.044h-7.164zm5.94 1.008h-4.716v2.04h4.716zm-4.692-7.248q.84 0 1.5.336.66.324 1.032.912.384.576.384 1.344t-.384 1.356a2.6 2.6 0 0 1-1.032.912q-.66.324-1.5.324t-1.5-.324a2.7 2.7 0 0 1-1.044-.912 2.5 2.5 0 0 1-.372-1.356q0-.768.372-1.344a2.57 2.57 0 0 1 1.044-.912q.66-.336 1.5-.336m0 1.044q-.48 0-.864.192a1.46 1.46 0 0 0-.6.54 1.5 1.5 0 0 0-.216.816q0 .468.216.816t.6.54.864.192q.492 0 .864-.192.384-.192.6-.54.228-.348.228-.816t-.228-.816a1.46 1.46 0 0 0-.6-.54 1.86 1.86 0 0 0-.864-.192"/><path stroke="#2c91f8" stroke-width="2" d="M55 626v54"/><path stroke="#999" d="M103 475.5h62m-62 54h62"/><path fill="#999" d="M27.903 710.13q-.57 0-1-.14a2.9 2.9 0 0 1-.75-.36 3.6 3.6 0 0 1-.56-.47l.41-.54q.21.22.47.41.26.18.59.3.34.12.77.12.44 0 .8-.22.37-.22.59-.62.22-.41.22-.95 0-.82-.43-1.28t-1.14-.46q-.37 0-.65.12-.27.11-.59.32l-.45-.28.23-3.4h3.5v.7h-2.78l-.2 2.22q.25-.14.52-.22.28-.09.62-.09.609 0 1.11.25.5.25.79.77.3.51.3 1.32 0 .8-.35 1.36-.34.56-.88.85-.531.29-1.14.29m3.408-3.6h8.16v.61h-8.16zm3.76.3h.74v2.11h-.74zm-2.71 3.11h6.2v.61h-6.2zm0-1.83h.73v2.05h-.73zm.04-6.07h.73v1.18h4.52v-1.18h.73v3.58H32.4zm.73 1.76v1.22h4.52v-1.22z"/><path fill="#2c91f8" d="M4.68 763v-1.14h1.944v-6.144H5.04v-.876a6 6 0 0 0 1.08-.276q.468-.168.852-.408h1.044v7.704h1.716V763zm8.752.168q-.768 0-1.332-.276a3.8 3.8 0 0 1-.936-.672l.756-.864q.264.3.648.48t.792.18q.42 0 .792-.192.384-.192.66-.624.288-.432.444-1.152.168-.72.168-1.764 0-1.104-.216-1.812-.216-.72-.612-1.056a1.33 1.33 0 0 0-.924-.348q-.384 0-.696.228a1.44 1.44 0 0 0-.492.624q-.18.408-.18.984 0 .564.156.96.168.396.492.612.324.204.78.204.42 0 .864-.264t.84-.864l.06 1.02q-.252.336-.588.588t-.696.396a2.1 2.1 0 0 1-.72.132q-.732 0-1.296-.312a2.23 2.23 0 0 1-.876-.924q-.312-.624-.312-1.548 0-.876.36-1.524.372-.66.972-1.02t1.308-.36q.636 0 1.188.264.564.252.972.78.42.528.66 1.332t.24 1.908q0 1.296-.264 2.232-.264.924-.732 1.512a3.15 3.15 0 0 1-1.056.864q-.588.276-1.224.276m8.399-4.728a.92.92 0 0 1-.66-.264.97.97 0 0 1-.264-.696q0-.432.264-.708a.9.9 0 0 1 .66-.276q.396 0 .66.276.276.276.276.708 0 .42-.276.696a.9.9 0 0 1-.66.264m0 4.728a.9.9 0 0 1-.66-.276 1 1 0 0 1-.264-.708q0-.432.264-.696a.9.9 0 0 1 .66-.276q.396 0 .66.276.276.264.276.696 0 .42-.276.708a.88.88 0 0 1-.66.276m5.502-.168v-1.14h1.944v-6.144h-1.585v-.876a6 6 0 0 0 1.08-.276q.47-.168.853-.408h1.044v7.704h1.716V763zm9.255.168q-.864 0-1.512-.516t-1.008-1.536q-.348-1.032-.348-2.568t.348-2.544q.36-1.008 1.008-1.5a2.4 2.4 0 0 1 1.512-.504q.864 0 1.5.504t.984 1.512q.36.996.36 2.532t-.36 2.568q-.348 1.02-.984 1.536a2.3 2.3 0 0 1-1.5.516m0-1.104q.444 0 .792-.348t.54-1.116q.192-.78.192-2.052t-.192-2.028-.54-1.092a1.1 1.1 0 0 0-.792-.336q-.444 0-.792.336t-.552 1.092q-.192.756-.192 2.028t.192 2.052q.204.768.552 1.116t.792.348"/><circle cx="55" cy="758" r="4" fill="#f9f9f9" stroke="#2c91f8" stroke-width="2"/><path stroke="#2c91f8" stroke-width="2" d="M55 696v54"/></svg>