<svg width="21" height="19" viewBox="0 0 21 19" fill="none" xmlns="http://www.w3.org/2000/svg">
<path d="M9.74279 6.6226H7.21875V19H9.74279V6.6226Z" fill="#2C91F8"/>
<path d="M0 3.28846H9.74279V5.52644H6.10817V19H3.58413V5.52644H0V3.28846Z" fill="#2C91F8"/>
<path d="M0 6.6226V19H2.52404V6.6226H0Z" fill="#2C91F8"/>
<path d="M0 2.14663H9.74279V0H0V2.14663Z" fill="#2C91F8"/>
<path d="M10.8029 0V2.14663H21V0H10.8029Z" fill="#2C91F8"/>
<path fill-rule="evenodd" clip-rule="evenodd" d="M10.8029 3.28846H21V8.9976H10.8029V3.28846ZM18.4255 5.52644H13.3774V6.6226H18.4255V5.52644Z" fill="#2C91F8"/>
<path fill-rule="evenodd" clip-rule="evenodd" d="M10.8029 10.1394H21V19H10.8029V10.1394ZM14.6899 12.3774H13.3774V13.5192H14.6899V12.3774ZM18.476 12.3774H17.1635V13.5192H18.476V12.3774ZM14.6899 15.5745H13.3774V16.7163H14.6899V15.5745ZM18.476 15.5745H17.1635V16.7163H18.476V15.5745Z" fill="#2C91F8"/>
</svg>
